<?xml version="1.0" encoding="UTF-8" standalone="no"?>
<!-- Created with Inkscape (http://www.inkscape.org/) -->

<svg
   version="1.1"
   id="svg824"
   xml:space="preserve"
   width="793.33331"
   height="1122.6667"
   viewBox="0 0 793.33331 1122.6667"
   sodipodi:docname="Belgium.svg"
   inkscape:version="1.1.1 (3bf5ae0d25, 2021-09-20)"
   xmlns:inkscape="http://www.inkscape.org/namespaces/inkscape"
   xmlns:sodipodi="http://sodipodi.sourceforge.net/DTD/sodipodi-0.dtd"
   xmlns="http://www.w3.org/2000/svg"
   xmlns:svg="http://www.w3.org/2000/svg"><defs
     id="defs828"><clipPath
       clipPathUnits="userSpaceOnUse"
       id="clipPath840"><path
         d="M 0,0 H 1920 V 963.00002 H 0 Z"
         id="path838" /></clipPath></defs><sodipodi:namedview
     id="namedview826"
     pagecolor="#ffffff"
     bordercolor="#999999"
     borderopacity="1"
     inkscape:pageshadow="0"
     inkscape:pageopacity="0"
     inkscape:pagecheckerboard="0"
     showgrid="false"
     inkscape:zoom="0.57875767"
     inkscape:rotation="90"
     inkscape:cx="389.62767"
     inkscape:cy="480.33921"
     inkscape:window-width="1920"
     inkscape:window-height="1017"
     inkscape:window-x="1912"
     inkscape:window-y="-8"
     inkscape:window-maximized="1"
     inkscape:current-layer="g830" /><g
     id="g830"
     inkscape:groupmode="layer"
     inkscape:label="Belgium"
     transform="matrix(1.3333333,0,0,-1.3333333,0,1122.6667)"><g
       id="g904"
       transform="matrix(0,0.75,0.75,0,-63.48721,-298.94487)"
       style="stroke-width:2;stroke-miterlimit:10;stroke-dasharray:none"><path
         d="M 250,857 H 1738"
         style="fill:none;stroke:#262626;stroke-width:2;stroke-linecap:square;stroke-linejoin:round;stroke-miterlimit:10;stroke-dasharray:none;stroke-opacity:1"
         id="path906" /></g><g
       id="g912"
       transform="matrix(0,0.75,0.75,0,-52.221875,-298.94487)"
       style="stroke-width:2;stroke-miterlimit:10;stroke-dasharray:none"><path
         d="M 317.63635,857 V 842.12"
         style="fill:none;stroke:#262626;stroke-width:2;stroke-linecap:square;stroke-linejoin:round;stroke-miterlimit:10;stroke-dasharray:none;stroke-opacity:1"
         id="path914" /></g><g
       id="g916"
       transform="matrix(0,0.75,0.75,0,-52.221875,-298.94487)"
       style="stroke-width:2;stroke-miterlimit:10;stroke-dasharray:none"><path
         d="M 577.77625,857 V 842.12"
         style="fill:none;stroke:#262626;stroke-width:2;stroke-linecap:square;stroke-linejoin:round;stroke-miterlimit:10;stroke-dasharray:none;stroke-opacity:1"
         id="path918" /></g><g
       id="g920"
       transform="matrix(0,0.75,0.75,0,-52.221875,-298.94487)"
       style="stroke-width:2;stroke-miterlimit:10;stroke-dasharray:none"><path
         d="M 837.91608,857 V 842.12"
         style="fill:none;stroke:#262626;stroke-width:2;stroke-linecap:square;stroke-linejoin:round;stroke-miterlimit:10;stroke-dasharray:none;stroke-opacity:1"
         id="path922" /></g><g
       id="g924"
       transform="matrix(0,0.75,0.75,0,-52.221875,-298.94487)"
       style="stroke-width:2;stroke-miterlimit:10;stroke-dasharray:none"><path
         d="M 1098.0559,857 V 842.12"
         style="fill:none;stroke:#262626;stroke-width:2;stroke-linecap:square;stroke-linejoin:round;stroke-miterlimit:10;stroke-dasharray:none;stroke-opacity:1"
         id="path926" /></g><g
       id="g928"
       transform="matrix(0,0.75,0.75,0,-52.221875,-298.94487)"
       style="stroke-width:2;stroke-miterlimit:10;stroke-dasharray:none"><path
         d="M 1358.1958,857 V 842.12"
         style="fill:none;stroke:#262626;stroke-width:2;stroke-linecap:square;stroke-linejoin:round;stroke-miterlimit:10;stroke-dasharray:none;stroke-opacity:1"
         id="path930" /></g><g
       id="g932"
       transform="matrix(0,0.75,0.75,0,-52.221875,-298.94487)"
       style="stroke-width:2;stroke-miterlimit:10;stroke-dasharray:none"><path
         d="M 1618.3357,857 V 842.12"
         style="fill:none;stroke:#262626;stroke-width:2;stroke-linecap:square;stroke-linejoin:round;stroke-miterlimit:10;stroke-dasharray:none;stroke-opacity:1"
         id="path934" /></g><text
       transform="matrix(0,1,1,0,0,0)"
       style="font-style:normal;font-variant:normal;font-weight:normal;font-stretch:normal;font-size:18px;font-family:'Times New Roman';-inkscape-font-specification:'Times New Roman, Normal';font-variant-ligatures:normal;font-variant-caps:normal;font-variant-numeric:normal;font-variant-east-asian:normal;writing-mode:lr-tb;fill:#262626;fill-opacity:1;fill-rule:nonzero;stroke:none;stroke-width:0.75"
       id="text966"
       x="-64.941055"
       y="605.10107"><tspan
         x="-64.941055"
         y="605.10107"
         id="tspan964"
         style="font-style:normal;font-variant:normal;font-weight:normal;font-stretch:normal;font-size:18px;font-family:'Times New Roman';-inkscape-font-specification:'Times New Roman, Normal';font-variant-ligatures:normal;font-variant-caps:normal;font-variant-numeric:normal;font-variant-east-asian:normal;stroke-width:0.75">0</tspan></text><text
       transform="matrix(0,1,1,0,0,0)"
       style="font-style:normal;font-variant:normal;font-weight:normal;font-stretch:normal;font-size:18px;font-family:'Times New Roman';-inkscape-font-specification:'Times New Roman, Normal';font-variant-ligatures:normal;font-variant-caps:normal;font-variant-numeric:normal;font-variant-east-asian:normal;writing-mode:lr-tb;fill:#262626;fill-opacity:1;fill-rule:nonzero;stroke:none;stroke-width:0.75"
       id="text974"
       x="129.7771"
       y="604.85498"><tspan
         x="129.7771"
         y="604.85498"
         id="tspan972"
         style="font-style:normal;font-variant:normal;font-weight:normal;font-stretch:normal;font-size:18px;font-family:'Times New Roman';-inkscape-font-specification:'Times New Roman, Normal';font-variant-ligatures:normal;font-variant-caps:normal;font-variant-numeric:normal;font-variant-east-asian:normal;stroke-width:0.75">5</tspan></text><g
       id="g1016"
       transform="matrix(0,0.75,0.76194058,0,-73.767397,-298.94487)"
       style="stroke-width:2.04707;stroke-miterlimit:10;stroke-dasharray:none"><path
         d="M 250,857 V 71.999977"
         style="fill:none;stroke:#262626;stroke-width:2.04707;stroke-linecap:square;stroke-linejoin:round;stroke-miterlimit:10;stroke-dasharray:none;stroke-opacity:1"
         id="path1018" /></g><g
       id="g1024"
       transform="matrix(0,0.75,0.75,0,-60.48721,-310.76825)"
       style="stroke-width:2;stroke-miterlimit:10;stroke-dasharray:none"><path
         d="m 250,821.31818 h 14.88"
         style="fill:none;stroke:#262626;stroke-width:2;stroke-linecap:square;stroke-linejoin:round;stroke-miterlimit:10;stroke-dasharray:none;stroke-opacity:1"
         id="path1026" /></g><path
       d="m 377.09233,-123.26825 v 11.16"
       style="fill:none;stroke:#262626;stroke-width:1.5;stroke-linecap:square;stroke-linejoin:round;stroke-miterlimit:10;stroke-dasharray:none;stroke-opacity:1"
       id="path1034" /><g
       id="g1040"
       transform="matrix(0,0.75,0.75,0,-60.48721,-310.76825)"
       style="stroke-width:2;stroke-miterlimit:10;stroke-dasharray:none"><path
         d="m 250,345.56061 h 14.88"
         style="fill:none;stroke:#262626;stroke-width:2;stroke-linecap:square;stroke-linejoin:round;stroke-miterlimit:10;stroke-dasharray:none;stroke-opacity:1"
         id="path1042" /></g><g
       id="g1048"
       transform="matrix(0,0.75,0.75,0,-60.48721,-310.76825)"
       style="stroke-width:2;stroke-miterlimit:10;stroke-dasharray:none"><path
         d="m 250,107.68182 h 14.88"
         style="fill:none;stroke:#262626;stroke-width:2;stroke-linecap:square;stroke-linejoin:round;stroke-miterlimit:10;stroke-dasharray:none;stroke-opacity:1"
         id="path1050" /></g><text
       transform="matrix(0,1,1,0,0,0)"
       style="font-style:normal;font-variant:normal;font-weight:normal;font-stretch:normal;font-size:18px;font-family:'Times New Roman';-inkscape-font-specification:'Times New Roman, Normal';font-variant-ligatures:normal;font-variant-caps:normal;font-variant-numeric:normal;font-variant-east-asian:normal;writing-mode:lr-tb;fill:#262626;fill-opacity:1;fill-rule:nonzero;stroke:none;stroke-width:0.75"
       id="text1086"
       x="-135.53564"
       y="560.14716"><tspan
         x="-135.53564"
         y="560.14716"
         id="tspan1084"
         style="font-style:normal;font-variant:normal;font-weight:normal;font-stretch:normal;font-size:18px;font-family:'Times New Roman';-inkscape-font-specification:'Times New Roman, Normal';font-variant-ligatures:normal;font-variant-caps:normal;font-variant-numeric:normal;font-variant-east-asian:normal;stroke-width:0.75">1</tspan></text><text
       transform="matrix(0,1,1,0,0,0)"
       style="font-style:normal;font-variant:normal;font-weight:normal;font-stretch:normal;font-size:18px;font-family:'Times New Roman';-inkscape-font-specification:'Times New Roman, Normal';font-variant-ligatures:normal;font-variant-caps:normal;font-variant-numeric:normal;font-variant-east-asian:normal;writing-mode:lr-tb;fill:#262626;fill-opacity:1;fill-rule:nonzero;stroke:none;stroke-width:0.75"
       id="text1102"
       x="-135.53564"
       y="381.73816"><tspan
         x="-135.53564"
         y="381.73816"
         id="tspan1100"
         style="font-style:normal;font-variant:normal;font-weight:normal;font-stretch:normal;font-size:18px;font-family:'Times New Roman';-inkscape-font-specification:'Times New Roman, Normal';font-variant-ligatures:normal;font-variant-caps:normal;font-variant-numeric:normal;font-variant-east-asian:normal;stroke-width:0.75">2</tspan></text><text
       transform="matrix(0,1,1,0,0,0)"
       style="font-style:normal;font-variant:normal;font-weight:normal;font-stretch:normal;font-size:18px;font-family:'Times New Roman';-inkscape-font-specification:'Times New Roman, Normal';font-variant-ligatures:normal;font-variant-caps:normal;font-variant-numeric:normal;font-variant-east-asian:normal;writing-mode:lr-tb;fill:#262626;fill-opacity:1;fill-rule:nonzero;stroke:none;stroke-width:0.75"
       id="text1118"
       x="-135.53564"
       y="203.32906"><tspan
         x="-135.53564"
         y="203.32906"
         id="tspan1116"
         style="font-style:normal;font-variant:normal;font-weight:normal;font-stretch:normal;font-size:18px;font-family:'Times New Roman';-inkscape-font-specification:'Times New Roman, Normal';font-variant-ligatures:normal;font-variant-caps:normal;font-variant-numeric:normal;font-variant-east-asian:normal;stroke-width:0.75">3</tspan></text><text
       transform="matrix(0,1,1,0,0,0)"
       style="font-style:normal;font-variant:normal;font-weight:normal;font-stretch:normal;font-size:18px;font-family:'Times New Roman';-inkscape-font-specification:'Times New Roman, Normal';font-variant-ligatures:normal;font-variant-caps:normal;font-variant-numeric:normal;font-variant-east-asian:normal;writing-mode:lr-tb;fill:#262626;fill-opacity:1;fill-rule:nonzero;stroke:none;stroke-width:0.75"
       id="text1134"
       x="-135.53564"
       y="24.919968"><tspan
         x="-135.53564"
         y="24.919968"
         id="tspan1132"
         style="font-style:normal;font-variant:normal;font-weight:normal;font-stretch:normal;font-size:18px;font-family:'Times New Roman';-inkscape-font-specification:'Times New Roman, Normal';font-variant-ligatures:normal;font-variant-caps:normal;font-variant-numeric:normal;font-variant-east-asian:normal;stroke-width:0.75">4</tspan></text><g
       id="g1144"
       transform="matrix(0,0.75,0.75,0,552.50142,-60.71761)"><path
         d="M 2,0 C 2,-1.1045695 1.1045695,-2 0,-2 -1.1045695,-2 -2,-1.1045695 -2,0 -2,1.1045695 -1.1045695,2 0,2 1.1045695,2 2,1.1045695 2,0 Z"
         style="fill:#fcb763;fill-opacity:1;fill-rule:nonzero;stroke:none"
         id="path1146" /></g><g
       id="g1148"
       transform="matrix(0,0.75,0.75,0,552.50142,-60.71761)"
       style="fill:#fcb763;fill-opacity:1;stroke:#fcb763;stroke-opacity:1"><path
         d="m 0,-1.6666667 c 0.92047458,0 1.6666667,0.74619212 1.6666667,1.6666667 V 0 C 1.6666667,0.92047458 0.92047458,1.6666667 0,1.6666667 -0.92047458,1.6666667 -1.6666667,0.92047458 -1.6666667,0 c 0,-0.92047458 0.74619212,-1.6666667 1.6666667,-1.6666667 z m 0,-0.6666666 c -1.2886644,0 -2.3333333,1.0446689 -2.3333333,2.3333333 0,1.2886644 1.0446689,2.3333333 2.3333333,2.3333333 C 1.2886644,2.3333333 2.3333333,1.2886644 2.3333333,0 V 0 C 2.3333333,-1.2886644 1.2886644,-2.3333333 0,-2.3333333 Z"
         style="fill:#fcb763;fill-opacity:1;fill-rule:nonzero;stroke:#fcb763;stroke-opacity:1"
         id="path1150" /></g><g
       id="g1152"
       transform="matrix(0,0.75,0.75,0,552.50142,-21.696623)"><path
         d="M 2,0 C 2,-1.1045695 1.1045695,-2 0,-2 -1.1045695,-2 -2,-1.1045695 -2,0 -2,1.1045695 -1.1045695,2 0,2 1.1045695,2 2,1.1045695 2,0 Z"
         style="fill:#fcb763;fill-opacity:1;fill-rule:nonzero;stroke:none"
         id="path1154" /></g><g
       id="g1156"
       transform="matrix(0,0.75,0.75,0,552.50142,-21.696623)"
       style="fill:#fcb763;fill-opacity:1;stroke:#fcb763;stroke-opacity:1"><path
         d="m 0,-1.6666667 c 0.92047458,0 1.6666667,0.74619212 1.6666667,1.6666667 V 0 C 1.6666667,0.92047458 0.92047458,1.6666667 0,1.6666667 -0.92047458,1.6666667 -1.6666667,0.92047458 -1.6666667,0 c 0,-0.92047458 0.74619212,-1.6666667 1.6666667,-1.6666667 z m 0,-0.6666666 c -1.2886644,0 -2.3333333,1.0446689 -2.3333333,2.3333333 0,1.2886644 1.0446689,2.3333333 2.3333333,2.3333333 C 1.2886644,2.3333333 2.3333333,1.2886644 2.3333333,0 V 0 C 2.3333333,-1.2886644 1.2886644,-2.3333333 0,-2.3333333 Z"
         style="fill:#fcb763;fill-opacity:1;fill-rule:nonzero;stroke:#fcb763;stroke-opacity:1"
         id="path1158" /></g><g
       id="g1160"
       transform="matrix(0,0.75,0.75,0,552.50142,17.324369)"><path
         d="M 2,0 C 2,-1.1045695 1.1045695,-2 0,-2 -1.1045695,-2 -2,-1.1045695 -2,0 -2,1.1045695 -1.1045695,2 0,2 1.1045695,2 2,1.1045695 2,0 Z"
         style="fill:#fcb763;fill-opacity:1;fill-rule:nonzero;stroke:none"
         id="path1162" /></g><g
       id="g1164"
       transform="matrix(0,0.75,0.75,0,552.50142,17.324369)"
       style="fill:#fcb763;fill-opacity:1;stroke:#fcb763;stroke-opacity:1"><path
         d="m 0,-1.6666667 c 0.92047458,0 1.6666667,0.74619212 1.6666667,1.6666667 V 0 C 1.6666667,0.92047458 0.92047458,1.6666667 0,1.6666667 -0.92047458,1.6666667 -1.6666667,0.92047458 -1.6666667,0 c 0,-0.92047458 0.74619212,-1.6666667 1.6666667,-1.6666667 z m 0,-0.6666666 c -1.2886644,0 -2.3333333,1.0446689 -2.3333333,2.3333333 0,1.2886644 1.0446689,2.3333333 2.3333333,2.3333333 C 1.2886644,2.3333333 2.3333333,1.2886644 2.3333333,0 V 0 C 2.3333333,-1.2886644 1.2886644,-2.3333333 0,-2.3333333 Z"
         style="fill:#fcb763;fill-opacity:1;fill-rule:nonzero;stroke:#fcb763;stroke-opacity:1"
         id="path1166" /></g><g
       id="g1168"
       transform="matrix(0,0.75,0.75,0,552.50142,56.345334)"><path
         d="M 2,0 C 2,-1.1045695 1.1045695,-2 0,-2 -1.1045695,-2 -2,-1.1045695 -2,0 -2,1.1045695 -1.1045695,2 0,2 1.1045695,2 2,1.1045695 2,0 Z"
         style="fill:#fcb763;fill-opacity:1;fill-rule:nonzero;stroke:none"
         id="path1170" /></g><g
       id="g1172"
       transform="matrix(0,0.75,0.75,0,552.50142,56.345334)"
       style="fill:#fcb763;fill-opacity:1;stroke:#fcb763;stroke-opacity:1"><path
         d="m 0,-1.6666667 c 0.92047458,0 1.6666667,0.74619212 1.6666667,1.6666667 V 0 C 1.6666667,0.92047458 0.92047458,1.6666667 0,1.6666667 -0.92047458,1.6666667 -1.6666667,0.92047458 -1.6666667,0 c 0,-0.92047458 0.74619212,-1.6666667 1.6666667,-1.6666667 z m 0,-0.6666666 c -1.2886644,0 -2.3333333,1.0446689 -2.3333333,2.3333333 0,1.2886644 1.0446689,2.3333333 2.3333333,2.3333333 C 1.2886644,2.3333333 2.3333333,1.2886644 2.3333333,0 V 0 C 2.3333333,-1.2886644 1.2886644,-2.3333333 0,-2.3333333 Z"
         style="fill:#fcb763;fill-opacity:1;fill-rule:nonzero;stroke:#fcb763;stroke-opacity:1"
         id="path1174" /></g><g
       id="g1176"
       transform="matrix(0,0.75,0.75,0,374.09233,95.366299)"><path
         d="M 2,0 C 2,-1.1045695 1.1045695,-2 0,-2 -1.1045695,-2 -2,-1.1045695 -2,0 -2,1.1045695 -1.1045695,2 0,2 1.1045695,2 2,1.1045695 2,0 Z"
         style="fill:#fcb763;fill-opacity:1;fill-rule:nonzero;stroke:none"
         id="path1178" /></g><g
       id="g1180"
       transform="matrix(0,0.75,0.75,0,374.09233,95.366299)"
       style="fill:#fcb763;fill-opacity:1;stroke:#fcb763;stroke-opacity:1"><path
         d="m 0,-1.6666667 c 0.92047458,0 1.6666667,0.74619212 1.6666667,1.6666667 V 0 C 1.6666667,0.92047458 0.92047458,1.6666667 0,1.6666667 -0.92047458,1.6666667 -1.6666667,0.92047458 -1.6666667,0 c 0,-0.92047458 0.74619212,-1.6666667 1.6666667,-1.6666667 z m 0,-0.6666666 c -1.2886644,0 -2.3333333,1.0446689 -2.3333333,2.3333333 0,1.2886644 1.0446689,2.3333333 2.3333333,2.3333333 C 1.2886644,2.3333333 2.3333333,1.2886644 2.3333333,0 V 0 C 2.3333333,-1.2886644 1.2886644,-2.3333333 0,-2.3333333 Z"
         style="fill:#fcb763;fill-opacity:1;fill-rule:nonzero;stroke:#fcb763;stroke-opacity:1"
         id="path1182" /></g><g
       id="g1184"
       transform="matrix(0,0.75,0.75,0,374.09233,134.38731)"><path
         d="M 2,0 C 2,-1.1045695 1.1045695,-2 0,-2 -1.1045695,-2 -2,-1.1045695 -2,0 -2,1.1045695 -1.1045695,2 0,2 1.1045695,2 2,1.1045695 2,0 Z"
         style="fill:#fcb763;fill-opacity:1;fill-rule:nonzero;stroke:none"
         id="path1186" /></g><g
       id="g1188"
       transform="matrix(0,0.75,0.75,0,374.09233,134.38731)"
       style="fill:#fcb763;fill-opacity:1;stroke:#fcb763;stroke-opacity:1"><path
         d="m 0,-1.6666667 c 0.92047458,0 1.6666667,0.74619212 1.6666667,1.6666667 V 0 C 1.6666667,0.92047458 0.92047458,1.6666667 0,1.6666667 -0.92047458,1.6666667 -1.6666667,0.92047458 -1.6666667,0 c 0,-0.92047458 0.74619212,-1.6666667 1.6666667,-1.6666667 z m 0,-0.6666666 c -1.2886644,0 -2.3333333,1.0446689 -2.3333333,2.3333333 0,1.2886644 1.0446689,2.3333333 2.3333333,2.3333333 C 1.2886644,2.3333333 2.3333333,1.2886644 2.3333333,0 V 0 C 2.3333333,-1.2886644 1.2886644,-2.3333333 0,-2.3333333 Z"
         style="fill:#fcb763;fill-opacity:1;fill-rule:nonzero;stroke:#fcb763;stroke-opacity:1"
         id="path1190" /></g><g
       id="g1192"
       transform="matrix(0,0.75,0.75,0,195.68324,173.40828)"><path
         d="M 2,0 C 2,-1.1045695 1.1045695,-2 0,-2 -1.1045695,-2 -2,-1.1045695 -2,0 -2,1.1045695 -1.1045695,2 0,2 1.1045695,2 2,1.1045695 2,0 Z"
         style="fill:#fcb763;fill-opacity:1;fill-rule:nonzero;stroke:none"
         id="path1194" /></g><g
       id="g1196"
       transform="matrix(0,0.75,0.75,0,195.68324,173.40828)"
       style="fill:#fcb763;fill-opacity:1;stroke:#fcb763;stroke-opacity:1"><path
         d="m 0,-1.6666667 c 0.92047458,0 1.6666667,0.74619212 1.6666667,1.6666667 V 0 C 1.6666667,0.92047458 0.92047458,1.6666667 0,1.6666667 -0.92047458,1.6666667 -1.6666667,0.92047458 -1.6666667,0 c 0,-0.92047458 0.74619212,-1.6666667 1.6666667,-1.6666667 z m 0,-0.6666666 c -1.2886644,0 -2.3333333,1.0446689 -2.3333333,2.3333333 0,1.2886644 1.0446689,2.3333333 2.3333333,2.3333333 C 1.2886644,2.3333333 2.3333333,1.2886644 2.3333333,0 V 0 C 2.3333333,-1.2886644 1.2886644,-2.3333333 0,-2.3333333 Z"
         style="fill:#fcb763;fill-opacity:1;fill-rule:nonzero;stroke:#fcb763;stroke-opacity:1"
         id="path1198" /></g><g
       id="g1200"
       transform="matrix(0,0.75,0.75,0,195.68324,212.42924)"><path
         d="M 2,0 C 2,-1.1045695 1.1045695,-2 0,-2 -1.1045695,-2 -2,-1.1045695 -2,0 -2,1.1045695 -1.1045695,2 0,2 1.1045695,2 2,1.1045695 2,0 Z"
         style="fill:#fcb763;fill-opacity:1;fill-rule:nonzero;stroke:none"
         id="path1202" /></g><g
       id="g1204"
       transform="matrix(0,0.75,0.75,0,195.68324,212.42924)"
       style="fill:#fcb763;fill-opacity:1;stroke:#fcb763;stroke-opacity:1"><path
         d="m 0,-1.6666667 c 0.92047458,0 1.6666667,0.74619212 1.6666667,1.6666667 V 0 C 1.6666667,0.92047458 0.92047458,1.6666667 0,1.6666667 -0.92047458,1.6666667 -1.6666667,0.92047458 -1.6666667,0 c 0,-0.92047458 0.74619212,-1.6666667 1.6666667,-1.6666667 z m 0,-0.6666666 c -1.2886644,0 -2.3333333,1.0446689 -2.3333333,2.3333333 0,1.2886644 1.0446689,2.3333333 2.3333333,2.3333333 C 1.2886644,2.3333333 2.3333333,1.2886644 2.3333333,0 V 0 C 2.3333333,-1.2886644 1.2886644,-2.3333333 0,-2.3333333 Z"
         style="fill:#fcb763;fill-opacity:1;fill-rule:nonzero;stroke:#fcb763;stroke-opacity:1"
         id="path1206" /></g><g
       id="g1208"
       transform="matrix(0,0.75,0.75,0,195.68324,251.45025)"><path
         d="M 2,0 C 2,-1.1045695 1.1045695,-2 0,-2 -1.1045695,-2 -2,-1.1045695 -2,0 -2,1.1045695 -1.1045695,2 0,2 1.1045695,2 2,1.1045695 2,0 Z"
         style="fill:#fcb763;fill-opacity:1;fill-rule:nonzero;stroke:none"
         id="path1210" /></g><g
       id="g1212"
       transform="matrix(0,0.75,0.75,0,195.68324,251.45025)"
       style="fill:#fcb763;fill-opacity:1;stroke:#fcb763;stroke-opacity:1"><path
         d="m 0,-1.6666667 c 0.92047458,0 1.6666667,0.74619212 1.6666667,1.6666667 V 0 C 1.6666667,0.92047458 0.92047458,1.6666667 0,1.6666667 -0.92047458,1.6666667 -1.6666667,0.92047458 -1.6666667,0 c 0,-0.92047458 0.74619212,-1.6666667 1.6666667,-1.6666667 z m 0,-0.6666666 c -1.2886644,0 -2.3333333,1.0446689 -2.3333333,2.3333333 0,1.2886644 1.0446689,2.3333333 2.3333333,2.3333333 C 1.2886644,2.3333333 2.3333333,1.2886644 2.3333333,0 V 0 C 2.3333333,-1.2886644 1.2886644,-2.3333333 0,-2.3333333 Z"
         style="fill:#fcb763;fill-opacity:1;fill-rule:nonzero;stroke:#fcb763;stroke-opacity:1"
         id="path1214" /></g><g
       id="g1216"
       transform="matrix(0,0.75,0.75,0,195.68324,290.47122)"><path
         d="M 2,0 C 2,-1.1045695 1.1045695,-2 0,-2 -1.1045695,-2 -2,-1.1045695 -2,0 -2,1.1045695 -1.1045695,2 0,2 1.1045695,2 2,1.1045695 2,0 Z"
         style="fill:#fcb763;fill-opacity:1;fill-rule:nonzero;stroke:none"
         id="path1218" /></g><g
       id="g1220"
       transform="matrix(0,0.75,0.75,0,195.68324,290.47122)"><path
         d="m 0,-1.6666667 c 0.92047458,0 1.6666667,0.74619212 1.6666667,1.6666667 V 0 C 1.6666667,0.92047458 0.92047458,1.6666667 0,1.6666667 -0.92047458,1.6666667 -1.6666667,0.92047458 -1.6666667,0 c 0,-0.92047458 0.74619212,-1.6666667 1.6666667,-1.6666667 z m 0,-0.6666666 c -1.2886644,0 -2.3333333,1.0446689 -2.3333333,2.3333333 0,1.2886644 1.0446689,2.3333333 2.3333333,2.3333333 C 1.2886644,2.3333333 2.3333333,1.2886644 2.3333333,0 V 0 C 2.3333333,-1.2886644 1.2886644,-2.3333333 0,-2.3333333 Z"
         style="fill:#fcb763;fill-opacity:1;fill-rule:nonzero;stroke:#fcb763;stroke-opacity:1"
         id="path1222" /></g><g
       id="g1224"
       transform="matrix(0,0.75,0.75,0,195.68324,329.49219)"><path
         d="M 2,0 C 2,-1.1045695 1.1045695,-2 0,-2 -1.1045695,-2 -2,-1.1045695 -2,0 -2,1.1045695 -1.1045695,2 0,2 1.1045695,2 2,1.1045695 2,0 Z"
         style="fill:#fcb763;fill-opacity:1;fill-rule:nonzero;stroke:none"
         id="path1226" /></g><g
       id="g1228"
       transform="matrix(0,0.75,0.75,0,195.68324,329.49219)"
       style="fill:#fcb763;fill-opacity:1;stroke:#fcb763;stroke-opacity:1"><path
         d="m 0,-1.6666667 c 0.92047458,0 1.6666667,0.74619212 1.6666667,1.6666667 V 0 C 1.6666667,0.92047458 0.92047458,1.6666667 0,1.6666667 -0.92047458,1.6666667 -1.6666667,0.92047458 -1.6666667,0 c 0,-0.92047458 0.74619212,-1.6666667 1.6666667,-1.6666667 z m 0,-0.6666666 c -1.2886644,0 -2.3333333,1.0446689 -2.3333333,2.3333333 0,1.2886644 1.0446689,2.3333333 2.3333333,2.3333333 C 1.2886644,2.3333333 2.3333333,1.2886644 2.3333333,0 V 0 C 2.3333333,-1.2886644 1.2886644,-2.3333333 0,-2.3333333 Z"
         style="fill:#fcb763;fill-opacity:1;fill-rule:nonzero;stroke:#fcb763;stroke-opacity:1"
         id="path1230" /></g><g
       id="g1232"
       transform="matrix(0,0.75,0.75,0,195.68324,368.51315)"><path
         d="M 2,0 C 2,-1.1045695 1.1045695,-2 0,-2 -1.1045695,-2 -2,-1.1045695 -2,0 -2,1.1045695 -1.1045695,2 0,2 1.1045695,2 2,1.1045695 2,0 Z"
         style="fill:#fcb763;fill-opacity:1;fill-rule:nonzero;stroke:none"
         id="path1234" /></g><g
       id="g1236"
       transform="matrix(0,0.75,0.75,0,195.68324,368.51315)"
       style="fill:#fcb763;fill-opacity:1;stroke:#fcb763;stroke-opacity:1"><path
         d="m 0,-1.6666667 c 0.92047458,0 1.6666667,0.74619212 1.6666667,1.6666667 V 0 C 1.6666667,0.92047458 0.92047458,1.6666667 0,1.6666667 -0.92047458,1.6666667 -1.6666667,0.92047458 -1.6666667,0 c 0,-0.92047458 0.74619212,-1.6666667 1.6666667,-1.6666667 z m 0,-0.6666666 c -1.2886644,0 -2.3333333,1.0446689 -2.3333333,2.3333333 0,1.2886644 1.0446689,2.3333333 2.3333333,2.3333333 C 1.2886644,2.3333333 2.3333333,1.2886644 2.3333333,0 V 0 C 2.3333333,-1.2886644 1.2886644,-2.3333333 0,-2.3333333 Z"
         style="fill:#fcb763;fill-opacity:1;fill-rule:nonzero;stroke:#fcb763;stroke-opacity:1"
         id="path1238" /></g><g
       id="g1240"
       transform="matrix(0,0.75,0.75,0,195.68324,407.53417)"><path
         d="M 2,0 C 2,-1.1045695 1.1045695,-2 0,-2 -1.1045695,-2 -2,-1.1045695 -2,0 -2,1.1045695 -1.1045695,2 0,2 1.1045695,2 2,1.1045695 2,0 Z"
         style="fill:#fcb763;fill-opacity:1;fill-rule:nonzero;stroke:none"
         id="path1242" /></g><g
       id="g1244"
       transform="matrix(0,0.75,0.75,0,195.68324,407.53417)"
       style="fill:#fcb763;fill-opacity:1;stroke:#fcb763;stroke-opacity:1"><path
         d="m 0,-1.6666667 c 0.92047458,0 1.6666667,0.74619212 1.6666667,1.6666667 V 0 C 1.6666667,0.92047458 0.92047458,1.6666667 0,1.6666667 -0.92047458,1.6666667 -1.6666667,0.92047458 -1.6666667,0 c 0,-0.92047458 0.74619212,-1.6666667 1.6666667,-1.6666667 z m 0,-0.6666666 c -1.2886644,0 -2.3333333,1.0446689 -2.3333333,2.3333333 0,1.2886644 1.0446689,2.3333333 2.3333333,2.3333333 C 1.2886644,2.3333333 2.3333333,1.2886644 2.3333333,0 V 0 C 2.3333333,-1.2886644 1.2886644,-2.3333333 0,-2.3333333 Z"
         style="fill:#fcb763;fill-opacity:1;fill-rule:nonzero;stroke:#fcb763;stroke-opacity:1"
         id="path1246" /></g><g
       id="g1248"
       transform="matrix(0,0.75,0.75,0,195.68324,446.55513)"><path
         d="M 2,0 C 2,-1.1045695 1.1045695,-2 0,-2 -1.1045695,-2 -2,-1.1045695 -2,0 -2,1.1045695 -1.1045695,2 0,2 1.1045695,2 2,1.1045695 2,0 Z"
         style="fill:#fcb763;fill-opacity:1;fill-rule:nonzero;stroke:none"
         id="path1250" /></g><g
       id="g1252"
       transform="matrix(0,0.75,0.75,0,195.68324,446.55513)"
       style="fill:#fcb763;fill-opacity:1;stroke:#fcb763;stroke-opacity:1"><path
         d="m 0,-1.6666667 c 0.92047458,0 1.6666667,0.74619212 1.6666667,1.6666667 V 0 C 1.6666667,0.92047458 0.92047458,1.6666667 0,1.6666667 -0.92047458,1.6666667 -1.6666667,0.92047458 -1.6666667,0 c 0,-0.92047458 0.74619212,-1.6666667 1.6666667,-1.6666667 z m 0,-0.6666666 c -1.2886644,0 -2.3333333,1.0446689 -2.3333333,2.3333333 0,1.2886644 1.0446689,2.3333333 2.3333333,2.3333333 C 1.2886644,2.3333333 2.3333333,1.2886644 2.3333333,0 V 0 C 2.3333333,-1.2886644 1.2886644,-2.3333333 0,-2.3333333 Z"
         style="fill:#fcb763;fill-opacity:1;fill-rule:nonzero;stroke:#fcb763;stroke-opacity:1"
         id="path1254" /></g><g
       id="g1256"
       transform="matrix(0,0.75,0.75,0,195.68324,485.57609)"><path
         d="M 2,0 C 2,-1.1045695 1.1045695,-2 0,-2 -1.1045695,-2 -2,-1.1045695 -2,0 -2,1.1045695 -1.1045695,2 0,2 1.1045695,2 2,1.1045695 2,0 Z"
         style="fill:#fcb763;fill-opacity:1;fill-rule:nonzero;stroke:none"
         id="path1258" /></g><g
       id="g1260"
       transform="matrix(0,0.75,0.75,0,195.68324,485.57609)"
       style="fill:#fcb763;fill-opacity:1;stroke:#fcb763;stroke-opacity:1"><path
         d="m 0,-1.6666667 c 0.92047458,0 1.6666667,0.74619212 1.6666667,1.6666667 V 0 C 1.6666667,0.92047458 0.92047458,1.6666667 0,1.6666667 -0.92047458,1.6666667 -1.6666667,0.92047458 -1.6666667,0 c 0,-0.92047458 0.74619212,-1.6666667 1.6666667,-1.6666667 z m 0,-0.6666666 c -1.2886644,0 -2.3333333,1.0446689 -2.3333333,2.3333333 0,1.2886644 1.0446689,2.3333333 2.3333333,2.3333333 C 1.2886644,2.3333333 2.3333333,1.2886644 2.3333333,0 V 0 C 2.3333333,-1.2886644 1.2886644,-2.3333333 0,-2.3333333 Z"
         style="fill:#fcb763;fill-opacity:1;fill-rule:nonzero;stroke:#fcb763;stroke-opacity:1"
         id="path1262" /></g><g
       id="g1264"
       transform="matrix(0,0.75,0.75,0,17.274157,524.59705)"><path
         d="M 2,0 C 2,-1.1045695 1.1045695,-2 0,-2 -1.1045695,-2 -2,-1.1045695 -2,0 -2,1.1045695 -1.1045695,2 0,2 1.1045695,2 2,1.1045695 2,0 Z"
         style="fill:#fcb763;fill-opacity:1;fill-rule:nonzero;stroke:none"
         id="path1266" /></g><path
       d="m 16.024157,524.59705 c 0,0.69036 0.559644,1.25 1.25,1.25 v 0 c 0.690356,0 1.25,-0.55964 1.25,-1.25 0,-0.69036 -0.559644,-1.25 -1.25,-1.25 -0.690356,0 -1.25,0.55964 -1.25,1.25 z m -0.5,0 c 0,-0.9665 0.783502,-1.75 1.75,-1.75 0.966498,0 1.75,0.7835 1.75,1.75 0,0.9665 -0.783502,1.75 -1.75,1.75 v 0 c -0.966498,0 -1.75,-0.7835 -1.75,-1.75 z"
       style="fill:#fcb763;fill-opacity:1;fill-rule:nonzero;stroke:#fcb763;stroke-width:0.75;stroke-opacity:1"
       id="path1270" /><g
       id="g1272"
       transform="matrix(0,0.75,0.75,0,17.274157,563.61803)"><path
         d="M 2,0 C 2,-1.1045695 1.1045695,-2 0,-2 -1.1045695,-2 -2,-1.1045695 -2,0 -2,1.1045695 -1.1045695,2 0,2 1.1045695,2 2,1.1045695 2,0 Z"
         style="fill:#fcb763;fill-opacity:1;fill-rule:nonzero;stroke:none"
         id="path1274" /></g><g
       id="g1276"
       transform="matrix(0,0.75,0.75,0,17.274157,563.61803)"
       style="fill:#fcb763;fill-opacity:1;stroke:#fcb763;stroke-opacity:1"><path
         d="m 0,-1.6666667 c 0.92047458,0 1.6666667,0.74619212 1.6666667,1.6666667 V 0 C 1.6666667,0.92047458 0.92047458,1.6666667 0,1.6666667 -0.92047458,1.6666667 -1.6666667,0.92047458 -1.6666667,0 c 0,-0.92047458 0.74619212,-1.6666667 1.6666667,-1.6666667 z m 0,-0.6666666 c -1.2886644,0 -2.3333333,1.0446689 -2.3333333,2.3333333 0,1.2886644 1.0446689,2.3333333 2.3333333,2.3333333 C 1.2886644,2.3333333 2.3333333,1.2886644 2.3333333,0 V 0 C 2.3333333,-1.2886644 1.2886644,-2.3333333 0,-2.3333333 Z"
         style="fill:#fcb763;fill-opacity:1;fill-rule:nonzero;stroke:#fcb763;stroke-opacity:1"
         id="path1278" /></g><g
       id="g1280"
       transform="matrix(0,0.75,0.75,0,17.274157,602.63908)"><path
         d="M 2,0 C 2,-1.1045695 1.1045695,-2 0,-2 -1.1045695,-2 -2,-1.1045695 -2,0 -2,1.1045695 -1.1045695,2 0,2 1.1045695,2 2,1.1045695 2,0 Z"
         style="fill:#fcb763;fill-opacity:1;fill-rule:nonzero;stroke:none"
         id="path1282" /></g><g
       id="g1284"
       transform="matrix(0,0.75,0.75,0,17.274157,602.63908)"
       style="fill:#fcb763;fill-opacity:1;stroke:#fcb763;stroke-opacity:1"><path
         d="m 0,-1.6666667 c 0.92047458,0 1.6666667,0.74619212 1.6666667,1.6666667 V 0 C 1.6666667,0.92047458 0.92047458,1.6666667 0,1.6666667 -0.92047458,1.6666667 -1.6666667,0.92047458 -1.6666667,0 c 0,-0.92047458 0.74619212,-1.6666667 1.6666667,-1.6666667 z m 0,-0.6666666 c -1.2886644,0 -2.3333333,1.0446689 -2.3333333,2.3333333 0,1.2886644 1.0446689,2.3333333 2.3333333,2.3333333 C 1.2886644,2.3333333 2.3333333,1.2886644 2.3333333,0 V 0 C 2.3333333,-1.2886644 1.2886644,-2.3333333 0,-2.3333333 Z"
         style="fill:#fcb763;fill-opacity:1;fill-rule:nonzero;stroke:#fcb763;stroke-opacity:1"
         id="path1286" /></g><g
       id="g1288"
       transform="matrix(0,0.75,0.75,0,17.274157,641.66005)"><path
         d="M 2,0 C 2,-1.1045695 1.1045695,-2 0,-2 -1.1045695,-2 -2,-1.1045695 -2,0 -2,1.1045695 -1.1045695,2 0,2 1.1045695,2 2,1.1045695 2,0 Z"
         style="fill:#fcb763;fill-opacity:1;fill-rule:nonzero;stroke:none"
         id="path1290" /></g><g
       id="g1292"
       transform="matrix(0,0.75,0.75,0,17.274157,641.66005)"
       style="fill:#fcb763;fill-opacity:1;stroke:#fcb763;stroke-opacity:1"><path
         d="m 0,-1.6666667 c 0.92047458,0 1.6666667,0.74619212 1.6666667,1.6666667 V 0 C 1.6666667,0.92047458 0.92047458,1.6666667 0,1.6666667 -0.92047458,1.6666667 -1.6666667,0.92047458 -1.6666667,0 c 0,-0.92047458 0.74619212,-1.6666667 1.6666667,-1.6666667 z m 0,-0.6666666 c -1.2886644,0 -2.3333333,1.0446689 -2.3333333,2.3333333 0,1.2886644 1.0446689,2.3333333 2.3333333,2.3333333 C 1.2886644,2.3333333 2.3333333,1.2886644 2.3333333,0 V 0 C 2.3333333,-1.2886644 1.2886644,-2.3333333 0,-2.3333333 Z"
         style="fill:#fcb763;fill-opacity:1;fill-rule:nonzero;stroke:#fcb763;stroke-opacity:1"
         id="path1294" /></g><g
       id="g1296"
       transform="matrix(0,0.75,0.75,0,17.274157,680.68101)"><path
         d="M 2,0 C 2,-1.1045695 1.1045695,-2 0,-2 -1.1045695,-2 -2,-1.1045695 -2,0 -2,1.1045695 -1.1045695,2 0,2 1.1045695,2 2,1.1045695 2,0 Z"
         style="fill:#fcb763;fill-opacity:1;fill-rule:nonzero;stroke:none"
         id="path1298" /></g><g
       id="g1300"
       transform="matrix(0,0.75,0.75,0,17.274157,680.68101)"
       style="fill:#fcb763;fill-opacity:1;stroke:#fcb763;stroke-opacity:1"><path
         d="m 0,-1.6666667 c 0.92047458,0 1.6666667,0.74619212 1.6666667,1.6666667 V 0 C 1.6666667,0.92047458 0.92047458,1.6666667 0,1.6666667 -0.92047458,1.6666667 -1.6666667,0.92047458 -1.6666667,0 c 0,-0.92047458 0.74619212,-1.6666667 1.6666667,-1.6666667 z m 0,-0.6666666 c -1.2886644,0 -2.3333333,1.0446689 -2.3333333,2.3333333 0,1.2886644 1.0446689,2.3333333 2.3333333,2.3333333 C 1.2886644,2.3333333 2.3333333,1.2886644 2.3333333,0 V 0 C 2.3333333,-1.2886644 1.2886644,-2.3333333 0,-2.3333333 Z"
         style="fill:#fcb763;fill-opacity:1;fill-rule:nonzero;stroke:#fcb763;stroke-opacity:1"
         id="path1302" /></g><g
       id="g1304"
       transform="matrix(0,0.75,0.75,0,17.274157,719.70198)"><path
         d="M 2,0 C 2,-1.1045695 1.1045695,-2 0,-2 -1.1045695,-2 -2,-1.1045695 -2,0 -2,1.1045695 -1.1045695,2 0,2 1.1045695,2 2,1.1045695 2,0 Z"
         style="fill:#fcb763;fill-opacity:1;fill-rule:nonzero;stroke:none"
         id="path1306" /></g><g
       id="g1308"
       transform="matrix(0,0.75,0.75,0,17.274157,719.70198)"
       style="fill:#fcb763;fill-opacity:1;stroke:#fcb763;stroke-opacity:1"><path
         d="m 0,-1.6666667 c 0.92047458,0 1.6666667,0.74619212 1.6666667,1.6666667 V 0 C 1.6666667,0.92047458 0.92047458,1.6666667 0,1.6666667 -0.92047458,1.6666667 -1.6666667,0.92047458 -1.6666667,0 c 0,-0.92047458 0.74619212,-1.6666667 1.6666667,-1.6666667 z m 0,-0.6666666 c -1.2886644,0 -2.3333333,1.0446689 -2.3333333,2.3333333 0,1.2886644 1.0446689,2.3333333 2.3333333,2.3333333 C 1.2886644,2.3333333 2.3333333,1.2886644 2.3333333,0 V 0 C 2.3333333,-1.2886644 1.2886644,-2.3333333 0,-2.3333333 Z"
         style="fill:#fcb763;fill-opacity:1;fill-rule:nonzero;stroke:#fcb763;stroke-opacity:1"
         id="path1310" /></g><g
       id="g1312"
       transform="matrix(0,0.75,0.75,0,17.274157,758.72294)"><path
         d="M 2,0 C 2,-1.1045695 1.1045695,-2 0,-2 -1.1045695,-2 -2,-1.1045695 -2,0 -2,1.1045695 -1.1045695,2 0,2 1.1045695,2 2,1.1045695 2,0 Z"
         style="fill:#fcb763;fill-opacity:1;fill-rule:nonzero;stroke:none"
         id="path1314" /></g><g
       id="g1316"
       transform="matrix(0,0.75,0.75,0,17.274157,758.72294)"
       style="stroke:#fcb763;stroke-opacity:1"><path
         d="m 0,-1.6666667 c 0.92047458,0 1.6666667,0.74619212 1.6666667,1.6666667 V 0 C 1.6666667,0.92047458 0.92047458,1.6666667 0,1.6666667 -0.92047458,1.6666667 -1.6666667,0.92047458 -1.6666667,0 c 0,-0.92047458 0.74619212,-1.6666667 1.6666667,-1.6666667 z m 0,-0.6666666 c -1.2886644,0 -2.3333333,1.0446689 -2.3333333,2.3333333 0,1.2886644 1.0446689,2.3333333 2.3333333,2.3333333 C 1.2886644,2.3333333 2.3333333,1.2886644 2.3333333,0 V 0 C 2.3333333,-1.2886644 1.2886644,-2.3333333 0,-2.3333333 Z"
         style="fill:#fcb763;fill-opacity:1;fill-rule:nonzero;stroke:#fcb763;stroke-opacity:1"
         id="path1318" /></g><g
       id="g1320"
       transform="matrix(0,0.75,0.75,0,17.274157,797.7439)"><path
         d="M 2,0 C 2,-1.1045695 1.1045695,-2 0,-2 -1.1045695,-2 -2,-1.1045695 -2,0 -2,1.1045695 -1.1045695,2 0,2 1.1045695,2 2,1.1045695 2,0 Z"
         style="fill:#fcb763;fill-opacity:1;fill-rule:nonzero;stroke:none"
         id="path1322" /></g><g
       id="g1324"
       transform="matrix(0,0.75,0.75,0,17.274157,797.7439)"
       style="stroke:#fcb763;stroke-opacity:1"><path
         d="m 0,-1.6666667 c 0.92047458,0 1.6666667,0.74619212 1.6666667,1.6666667 V 0 C 1.6666667,0.92047458 0.92047458,1.6666667 0,1.6666667 -0.92047458,1.6666667 -1.6666667,0.92047458 -1.6666667,0 c 0,-0.92047458 0.74619212,-1.6666667 1.6666667,-1.6666667 z m 0,-0.6666666 c -1.2886644,0 -2.3333333,1.0446689 -2.3333333,2.3333333 0,1.2886644 1.0446689,2.3333333 2.3333333,2.3333333 C 1.2886644,2.3333333 2.3333333,1.2886644 2.3333333,0 V 0 C 2.3333333,-1.2886644 1.2886644,-2.3333333 0,-2.3333333 Z"
         style="fill:#fcb763;fill-opacity:1;fill-rule:nonzero;stroke:#fcb763;stroke-opacity:1"
         id="path1326" /></g><g
       id="g1328"
       transform="matrix(0,0.75,0.75,0,17.274157,836.76488)"><path
         d="M 2,0 C 2,-1.1045695 1.1045695,-2 0,-2 -1.1045695,-2 -2,-1.1045695 -2,0 -2,1.1045695 -1.1045695,2 0,2 1.1045695,2 2,1.1045695 2,0 Z"
         style="fill:#fcb763;fill-opacity:1;fill-rule:nonzero;stroke:none"
         id="path1330" /></g><g
       id="g1332"
       transform="matrix(0,0.75,0.75,0,17.274157,836.76488)"
       style="stroke:#fcb763;stroke-opacity:1"><path
         d="m 0,-1.6666667 c 0.92047458,0 1.6666667,0.74619212 1.6666667,1.6666667 V 0 C 1.6666667,0.92047458 0.92047458,1.6666667 0,1.6666667 -0.92047458,1.6666667 -1.6666667,0.92047458 -1.6666667,0 c 0,-0.92047458 0.74619212,-1.6666667 1.6666667,-1.6666667 z m 0,-0.6666666 c -1.2886644,0 -2.3333333,1.0446689 -2.3333333,2.3333333 0,1.2886644 1.0446689,2.3333333 2.3333333,2.3333333 C 1.2886644,2.3333333 2.3333333,1.2886644 2.3333333,0 V 0 C 2.3333333,-1.2886644 1.2886644,-2.3333333 0,-2.3333333 Z"
         style="fill:#fcb763;fill-opacity:1;fill-rule:nonzero;stroke:#fcb763;stroke-opacity:1"
         id="path1334" /></g><g
       id="g1336"
       transform="matrix(0,0.75,0.75,0,17.274157,875.78593)"><path
         d="M 2,0 C 2,-1.1045695 1.1045695,-2 0,-2 -1.1045695,-2 -2,-1.1045695 -2,0 -2,1.1045695 -1.1045695,2 0,2 1.1045695,2 2,1.1045695 2,0 Z"
         style="fill:#fcb763;fill-opacity:1;fill-rule:nonzero;stroke:none"
         id="path1338" /></g><g
       id="g1340"
       transform="matrix(0,0.75,0.75,0,17.274157,875.78593)"
       style="fill:#fcb763;fill-opacity:1;stroke:#fcb763;stroke-opacity:1"><path
         d="m 0,-1.6666667 c 0.92047458,0 1.6666667,0.74619212 1.6666667,1.6666667 V 0 C 1.6666667,0.92047458 0.92047458,1.6666667 0,1.6666667 -0.92047458,1.6666667 -1.6666667,0.92047458 -1.6666667,0 c 0,-0.92047458 0.74619212,-1.6666667 1.6666667,-1.6666667 z m 0,-0.6666666 c -1.2886644,0 -2.3333333,1.0446689 -2.3333333,2.3333333 0,1.2886644 1.0446689,2.3333333 2.3333333,2.3333333 C 1.2886644,2.3333333 2.3333333,1.2886644 2.3333333,0 V 0 C 2.3333333,-1.2886644 1.2886644,-2.3333333 0,-2.3333333 Z"
         style="fill:#fcb763;fill-opacity:1;fill-rule:nonzero;stroke:#fcb763;stroke-opacity:1"
         id="path1342" /></g><g
       id="g1344"
       transform="matrix(0,0.75,0.75,0,17.274157,914.8069)"><path
         d="M 2,0 C 2,-1.1045695 1.1045695,-2 0,-2 -1.1045695,-2 -2,-1.1045695 -2,0 -2,1.1045695 -1.1045695,2 0,2 1.1045695,2 2,1.1045695 2,0 Z"
         style="fill:#fcb763;fill-opacity:1;fill-rule:nonzero;stroke:none"
         id="path1346" /></g><g
       id="g1348"
       transform="matrix(0,0.75,0.75,0,17.274157,914.8069)"
       style="fill:#fcb763;fill-opacity:1;stroke:#fcb763;stroke-opacity:1"><path
         d="m 0,-1.6666667 c 0.92047458,0 1.6666667,0.74619212 1.6666667,1.6666667 V 0 C 1.6666667,0.92047458 0.92047458,1.6666667 0,1.6666667 -0.92047458,1.6666667 -1.6666667,0.92047458 -1.6666667,0 c 0,-0.92047458 0.74619212,-1.6666667 1.6666667,-1.6666667 z m 0,-0.6666666 c -1.2886644,0 -2.3333333,1.0446689 -2.3333333,2.3333333 0,1.2886644 1.0446689,2.3333333 2.3333333,2.3333333 C 1.2886644,2.3333333 2.3333333,1.2886644 2.3333333,0 V 0 C 2.3333333,-1.2886644 1.2886644,-2.3333333 0,-2.3333333 Z"
         style="fill:#fcb763;fill-opacity:1;fill-rule:nonzero;stroke:#fcb763;stroke-opacity:1"
         id="path1350" /></g><path
       d="m 579.33297,-2.8948425 -5.25028,2.2855875 -8.6331,3.8219175 -8.48927,3.8219175 -8.3481,3.82191 -8.20935,3.821918 -5.60344,2.645962 -2.46964,1.17597 -7.93917,3.821918 -7.80767,3.821917 -7.67844,3.82191 -7.5515,3.821918 -7.4268,3.82194 -7.30435,3.821887 -7.184,3.821918 -7.06578,3.821932 -6.94967,3.821918 -6.17133,3.447742 -0.66423,0.374175 -6.72349,3.82191 -6.61345,3.821918 -6.50528,3.821917 -6.39903,3.82191 -6.29462,3.82194 -6.19217,3.821917 -6.09141,3.821911 -5.99249,3.82194 -5.89527,3.82191 -5.79982,3.821917 -0.64307,0.427598 -5.06295,3.39432 -5.61388,3.821907 -5.52338,3.82192 -5.43443,3.82192 -5.34714,3.82191 -5.2613,3.82192 -5.17703,3.82191 -5.09418,3.82191 -5.01288,3.82192 -4.933,3.82191 -1.57004,1.22947 -3.2844,2.59245 -4.77741,3.82192 -4.70165,3.82191 -4.62725,3.82196 -4.55411,3.82192 -4.48236,3.82191 -4.4118,3.82191 -4.34253,3.82191 -4.27446,3.82192 -4.20763,3.82192 -2.2094,2.03123 -1.93249,1.79068 -4.07742,3.82192 -4.01404,3.82191 -3.95182,3.82191 -3.89065,3.82192 -3.83052,3.82191 -3.77161,3.82196 -3.71356,3.82192 -3.65664,3.82191 -3.60072,3.82192 -2.63355,2.833 -0.91222,0.98892 -3.49183,3.82191 -3.43879,3.82191 -3.38667,3.82191 -3.33554,3.82192 -3.28532,3.82192 -3.23594,3.82191 -3.18747,3.82192 -3.1398,3.82191 -3.09304,3.82191 -2.89898,3.63488 -0.14811,0.18704 -3.00194,3.82191 -2.95761,3.82192 -2.91401,3.82192 -2.87128,3.82191 -2.82922,3.82196 -2.78795,3.82192 -2.74741,3.82191 -2.70757,3.82191 -2.66847,3.82192 -2.63001,3.82191 -0.41948,0.61473 -2.17279,3.20719 -2.55517,3.82191 -2.51882,3.82192 -2.483,3.82191 -2.44787,3.82191 -2.41333,3.82192 -2.37946,3.82192 -2.34615,3.82195 -2.31344,3.82192 -2.28132,3.82191 -0.83748,1.41651 -1.41229,2.40541 -2.21876,3.82192 -2.18836,3.82191 -2.15845,3.82191 -2.12905,3.82192 -2.10022,3.82191 -2.07185,3.82192 -2.04407,3.82191 -2.0167,3.82192 -1.9899,3.82191 -1.1428,2.21832 -0.82068,1.60359 -1.93763,3.82197 -1.91214,3.82191 -1.8872,3.82191 -1.86267,3.82192 -1.83853,3.82192 -1.81488,3.82191 -1.79162,3.82192 -1.76877,3.82191 -1.74642,3.82191 -1.36438,3.02015 -0.35994,0.80177 -1.70271,3.82191 -1.6815,3.82192 -1.6606,3.82192 -1.64011,3.82195 -1.61998,3.82192 -1.6002,3.82192 -1.58085,3.82191 -1.56171,3.82191 -1.54305,3.82191 -1.52466,3.82192 v 0 l -1.50657,3.82192 -1.48886,3.82193 -1.4714,3.82193 -1.45435,3.82185 -1.43755,3.82192 -1.421,3.82193 -1.40489,3.822 -1.38892,3.82185 -1.373315,3.82192 -1.357973,3.82193 -0.282952,0.80182 -1.059953,3.0201 -1.3281,3.82185 -1.313595,3.822 -1.299352,3.82193 -1.285305,3.82192 -1.271535,3.82193 -1.258095,3.82185 -1.244775,3.822 -1.231755,3.82185 -1.218998,3.82192 -0.507712,1.60358 -0.6987,2.21835 -1.194105,3.82192 -1.181993,3.82185 -1.170082,3.822 -1.158428,3.82185 -1.146982,3.822 -1.13571,3.82193 -1.124655,3.82185 -1.11381,3.822 -1.103168,3.82185 -0.68892,2.4054 -0.403792,1.41645 -1.082453,3.822 -1.072335,3.82185 -1.062472,3.822 -1.05276,3.82185 -1.043198,3.82192 -1.033837,3.82193 -1.02465,3.82192 -1.015635,3.82193 -1.006785,3.822 -0.838133,3.20715 -0.15993,0.6147 -0.989527,3.822 -0.981135,3.82185 -0.972915,3.82192 -0.964853,3.82193 -0.956887,3.82192 -0.949148,3.82185 -0.941497,3.822 -0.93396,3.82185 -0.926655,3.822 -0.919373,3.82185 -0.04485,0.18713 -0.86748,3.6348 -0.905377,3.82192 -0.898493,3.82193 -0.89181,3.82185 -0.885262,3.822 -0.878753,3.82185 -0.872452,3.82192 -0.866205,3.82193 -0.860078,3.82192 -0.854122,3.82185 -0.220043,0.98895 -0.628215,2.83305 -0.842467,3.82185 -0.836813,3.822 -0.831247,3.82193 -0.825825,3.82185 -0.82044,3.822 -0.815205,3.82192 -0.810053,3.82193 -0.804997,3.82192 -0.800055,3.82185 -0.37317,1.7907 -0.422003,2.0313 -0.79041,3.82185 -0.78576,3.82193 -0.78114,3.82192 -0.776617,3.82193 -0.772245,3.82185 -0.767858,3.822 -0.76365,3.82185 -0.759435,3.822 -0.755362,3.82185 -0.510135,2.59252 -0.241215,1.2294 -0.747443,3.82193 -0.74358,3.82192 -0.739785,3.82185 -0.736042,3.822 -0.732428,3.82185 -0.728857,3.822 -0.725363,3.82185 -0.721927,3.82193 -0.71856,3.822 -0.635408,3.3942 -0.07984,0.42765 -0.71205,3.82192 -0.708863,3.822 -0.705757,3.82185 -0.702698,3.822 -0.699712,3.82185 -0.69675,3.82193 -0.69393,3.82192 -0.691125,3.82193 -0.688313,3.82185 -0.685687,3.822 -0.06697,0.3741 -0.616005,3.44775 -0.680408,3.822 -0.677939,3.82185 -0.675298,3.82192 -0.673011,3.82193 -0.670537,3.82192 -0.6681525,3.82185 -0.6659483,3.822 -0.6636435,3.82185 -0.66144,3.82193 -0.2031495,1.176 -0.456156,2.64592 -0.6571822,3.82193 -0.65514,3.82185 -0.653097,3.822 -0.6511403,3.82185 -0.6491895,3.822 -0.6473115,3.82192 -0.6454417,3.822 -0.64356975,3.82185 -0.64187025,3.82185 -0.3314385,1.97783 -0.30864075,1.84417 -0.63838575,3.82185 -0.636675,3.82193 -0.6351533,3.82192 -0.6334417,3.82193 -0.63192,3.82185 -0.6303803,3.822 -0.6289387,3.82185 -0.627405,3.82192 -0.626049,3.82193 -0.454371,2.77957 -0.1702253,1.04235 -0.6232395,3.82185 -0.621963,3.822 -0.6206017,3.82185 -0.619326,3.822 -0.3182543,1.96778"
       style="fill:none;stroke:#fcb763;stroke-width:1.5;stroke-linecap:butt;stroke-linejoin:round;stroke-miterlimit:10;stroke-dasharray:none;stroke-opacity:1"
       id="path1362" /><g
       id="g1376"
       transform="matrix(0,0.75,0.75,0,6.160045,929.55513)"><path
         d="M 2,0 C 2,-1.1045695 1.1045695,-2 0,-2 -1.1045695,-2 -2,-1.1045695 -2,0 -2,1.1045695 -1.1045695,2 0,2 1.1045695,2 2,1.1045695 2,0 Z"
         style="fill:#fcb763;fill-opacity:1;fill-rule:nonzero;stroke:none"
         id="path1378" /></g><g
       id="g1380"
       transform="matrix(0,0.75,0.75,0,6.160045,929.55513)"
       style="fill:#fcb763;fill-opacity:1;stroke:#fcb763;stroke-opacity:1"><path
         d="m 0,-1.6666667 c 0.92047458,0 1.6666667,0.74619212 1.6666667,1.6666667 V 0 C 1.6666667,0.92047458 0.92047458,1.6666667 0,1.6666667 -0.92047458,1.6666667 -1.6666667,0.92047458 -1.6666667,0 c 0,-0.92047458 0.74619212,-1.6666667 1.6666667,-1.6666667 z m 0,-0.6666666 c -1.2886644,0 -2.3333333,1.0446689 -2.3333333,2.3333333 0,1.2886644 1.0446689,2.3333333 2.3333333,2.3333333 C 1.2886644,2.3333333 2.3333333,1.2886644 2.3333333,0 V 0 C 2.3333333,-1.2886644 1.2886644,-2.3333333 0,-2.3333333 Z"
         style="fill:#fcb763;fill-opacity:1;fill-rule:nonzero;stroke:#fcb763;stroke-opacity:1"
         id="path1382" /></g><text
       xml:space="preserve"
       style="font-style:normal;font-variant:normal;font-weight:normal;font-stretch:normal;font-size:18px;line-height:1.25;font-family:'Times New Roman';-inkscape-font-specification:'Times New Roman, Normal';font-variant-ligatures:normal;font-variant-caps:normal;font-variant-numeric:normal;font-variant-east-asian:normal;fill:#000000;fill-opacity:1;stroke:none;stroke-width:0.75"
       x="319.91092"
       y="605.10107"
       id="text7202"
       transform="matrix(0,1,1,0,0,0)"><tspan
         sodipodi:role="line"
         id="tspan7200"
         style="font-style:normal;font-variant:normal;font-weight:normal;font-stretch:normal;font-size:18px;font-family:'Times New Roman';-inkscape-font-specification:'Times New Roman, Normal';font-variant-ligatures:normal;font-variant-caps:normal;font-variant-numeric:normal;font-variant-east-asian:normal;stroke-width:0.75"
         x="319.91092"
         y="605.10107">10</tspan></text><text
       xml:space="preserve"
       style="font-style:normal;font-variant:normal;font-weight:normal;font-stretch:normal;font-size:18px;line-height:1.25;font-family:'Times New Roman';-inkscape-font-specification:'Times New Roman, Normal';font-variant-ligatures:normal;font-variant-caps:normal;font-variant-numeric:normal;font-variant-east-asian:normal;fill:#000000;fill-opacity:1;stroke:none;stroke-width:0.75"
       x="516.27777"
       y="605.10107"
       id="text7202-1"
       transform="matrix(0,1,1,0,0,0)"><tspan
         sodipodi:role="line"
         id="tspan7875"
         x="516.27777"
         y="605.10107">15</tspan></text><text
       xml:space="preserve"
       style="font-style:normal;font-variant:normal;font-weight:normal;font-stretch:normal;font-size:18px;line-height:1.25;font-family:'Times New Roman';-inkscape-font-specification:'Times New Roman, Normal';font-variant-ligatures:normal;font-variant-caps:normal;font-variant-numeric:normal;font-variant-east-asian:normal;fill:#000000;fill-opacity:1;stroke:none;stroke-width:0.75"
       x="712.15356"
       y="605.10107"
       id="text7202-6"
       transform="matrix(0,1,1,0,0,0)"><tspan
         sodipodi:role="line"
         id="tspan7912"
         x="712.15356"
         y="605.10107">20</tspan></text><text
       xml:space="preserve"
       style="font-style:normal;font-variant:normal;font-weight:normal;font-stretch:normal;font-size:18px;line-height:1.25;font-family:'Times New Roman';-inkscape-font-specification:'Times New Roman, Normal';font-variant-ligatures:normal;font-variant-caps:normal;font-variant-numeric:normal;font-variant-east-asian:normal;fill:#000000;fill-opacity:1;stroke:none;stroke-width:0.75"
       x="906.18158"
       y="605.10107"
       id="text7202-9"
       transform="matrix(0,1,1,0,0,0)"><tspan
         sodipodi:role="line"
         id="tspan7949"
         x="906.18158"
         y="605.10107">25</tspan></text><text
       xml:space="preserve"
       style="font-style:normal;font-variant:normal;font-weight:normal;font-stretch:normal;font-size:20px;line-height:1.25;font-family:'Times New Roman';-inkscape-font-specification:'Times New Roman, Normal';font-variant-ligatures:normal;font-variant-caps:normal;font-variant-numeric:normal;font-variant-east-asian:normal;fill:#000000;fill-opacity:1;stroke:none;stroke-width:0.75"
       x="335.18982"
       y="640.49158"
       id="text23246"
       transform="matrix(0,1,1,0,0,0)"><tspan
         sodipodi:role="line"
         id="tspan23244"
         style="font-style:normal;font-variant:normal;font-weight:normal;font-stretch:normal;font-size:20px;font-family:'Times New Roman';-inkscape-font-specification:'Times New Roman, Normal';font-variant-ligatures:normal;font-variant-caps:normal;font-variant-numeric:normal;font-variant-east-asian:normal;stroke-width:0.75"
         x="335.18982"
         y="640.49158">Years since first record</tspan></text><text
       xml:space="preserve"
       style="font-style:normal;font-variant:normal;font-weight:normal;font-stretch:normal;font-size:20px;line-height:1.25;font-family:'Times New Roman';-inkscape-font-specification:'Times New Roman, Normal';font-variant-ligatures:normal;font-variant-caps:normal;font-variant-numeric:normal;font-variant-east-asian:normal;fill:#000000;fill-opacity:1;stroke:none;stroke-width:0.75"
       x="-408.56409"
       y="-174.3676"
       id="text22594"
       transform="scale(-1,1)"><tspan
         sodipodi:role="line"
         id="tspan22592"
         style="font-style:normal;font-variant:normal;font-weight:normal;font-stretch:normal;font-size:20px;font-family:'Times New Roman';-inkscape-font-specification:'Times New Roman, Normal';font-variant-ligatures:normal;font-variant-caps:normal;font-variant-numeric:normal;font-variant-east-asian:normal;stroke-width:0.75"
         x="-408.56409"
         y="-174.3676">Number of occupied polygons</tspan></text></g></svg>
