<?xml version="1.0" encoding="UTF-8" standalone="no"?>
<!-- Created with Inkscape (http://www.inkscape.org/) -->

<svg
   version="1.1"
   id="svg9371"
   xml:space="preserve"
   width="793.33331"
   height="1122.6667"
   viewBox="0 0 793.33331 1122.6667"
   sodipodi:docname="Denmark.svg"
   inkscape:version="1.1.1 (3bf5ae0d25, 2021-09-20)"
   xmlns:inkscape="http://www.inkscape.org/namespaces/inkscape"
   xmlns:sodipodi="http://sodipodi.sourceforge.net/DTD/sodipodi-0.dtd"
   xmlns="http://www.w3.org/2000/svg"
   xmlns:svg="http://www.w3.org/2000/svg"><defs
     id="defs9375"><clipPath
       clipPathUnits="userSpaceOnUse"
       id="clipPath9387"><path
         d="M 0,0 H 1920 V 963.00002 H 0 Z"
         id="path9385" /></clipPath></defs><sodipodi:namedview
     id="namedview9373"
     pagecolor="#ffffff"
     bordercolor="#999999"
     borderopacity="1"
     inkscape:pageshadow="0"
     inkscape:pageopacity="0"
     inkscape:pagecheckerboard="0"
     showgrid="false"
     inkscape:zoom="0.72776573"
     inkscape:rotation="90"
     inkscape:cx="465.1222"
     inkscape:cy="476.80179"
     inkscape:window-width="1920"
     inkscape:window-height="1017"
     inkscape:window-x="1912"
     inkscape:window-y="-8"
     inkscape:window-maximized="1"
     inkscape:current-layer="g9377" /><g
     id="g9377"
     inkscape:groupmode="layer"
     inkscape:label="Denmark"
     transform="matrix(1.3333333,0,0,-1.3333333,0,1122.6667)"><g
       id="g9475"
       transform="matrix(0,0.75,0.75,0,-42.719735,-311.55305)"
       style="stroke-width:2.00000005;stroke-miterlimit:4;stroke-dasharray:none"><path
         d="M 317.63635,857 V 842.12"
         style="fill:none;stroke:#262626;stroke-width:2.00000005;stroke-linecap:square;stroke-linejoin:round;stroke-miterlimit:4;stroke-dasharray:none;stroke-opacity:1"
         id="path9477" /></g><g
       id="g9479"
       transform="matrix(0,0.75,0.75,0,-42.719735,-311.55305)"
       style="stroke-width:2.00000005;stroke-miterlimit:4;stroke-dasharray:none"><path
         d="M 510.88312,857 V 842.12"
         style="fill:none;stroke:#262626;stroke-width:2.00000005;stroke-linecap:square;stroke-linejoin:round;stroke-miterlimit:4;stroke-dasharray:none;stroke-opacity:1"
         id="path9481" /></g><g
       id="g9483"
       transform="matrix(0,0.75,0.75,0,-42.719735,-311.55305)"
       style="stroke-width:2.00000005;stroke-miterlimit:4;stroke-dasharray:none"><path
         d="M 704.12988,857 V 842.12"
         style="fill:none;stroke:#262626;stroke-width:2.00000005;stroke-linecap:square;stroke-linejoin:round;stroke-miterlimit:4;stroke-dasharray:none;stroke-opacity:1"
         id="path9485" /></g><g
       id="g9487"
       transform="matrix(0,0.75,0.75,0,-42.719735,-311.55305)"
       style="stroke-width:2.00000005;stroke-miterlimit:4;stroke-dasharray:none"><path
         d="M 897.37665,857 V 842.12"
         style="fill:none;stroke:#262626;stroke-width:2.00000005;stroke-linecap:square;stroke-linejoin:round;stroke-miterlimit:4;stroke-dasharray:none;stroke-opacity:1"
         id="path9489" /></g><g
       id="g9491"
       transform="matrix(0,0.75,0.75,0,-42.719735,-311.55305)"
       style="stroke-width:2.00000005;stroke-miterlimit:4;stroke-dasharray:none"><path
         d="M 1090.6234,857 V 842.12"
         style="fill:none;stroke:#262626;stroke-width:2.00000005;stroke-linecap:square;stroke-linejoin:round;stroke-miterlimit:4;stroke-dasharray:none;stroke-opacity:1"
         id="path9493" /></g><g
       id="g9495"
       transform="matrix(0,0.75,0.75,0,-42.719735,-311.55305)"
       style="stroke-width:2.00000005;stroke-miterlimit:4;stroke-dasharray:none"><path
         d="M 1283.8701,857 V 842.12"
         style="fill:none;stroke:#262626;stroke-width:2.00000005;stroke-linecap:square;stroke-linejoin:round;stroke-miterlimit:4;stroke-dasharray:none;stroke-opacity:1"
         id="path9497" /></g><g
       id="g9499"
       transform="matrix(0,0.75,0.75,0,-42.719735,-311.55305)"
       style="stroke-width:2.00000005;stroke-miterlimit:4;stroke-dasharray:none"><path
         d="M 1477.1169,857 V 842.12"
         style="fill:none;stroke:#262626;stroke-width:2.00000005;stroke-linecap:square;stroke-linejoin:round;stroke-miterlimit:4;stroke-dasharray:none;stroke-opacity:1"
         id="path9501" /></g><g
       id="g9503"
       transform="matrix(0,0.75,0.75,0,-42.719735,-311.55305)"
       style="stroke-width:2.00000005;stroke-miterlimit:4;stroke-dasharray:none"><path
         d="M 1670.3636,857 V 842.12"
         style="fill:none;stroke:#262626;stroke-width:2.00000005;stroke-linecap:square;stroke-linejoin:round;stroke-miterlimit:4;stroke-dasharray:none;stroke-opacity:1"
         id="path9505" /></g><text
       transform="matrix(0,1,1,0,0,0)"
       style="font-style:normal;font-variant:normal;font-weight:normal;font-stretch:normal;font-size:18px;font-family:'Times New Roman';-inkscape-font-specification:'Times New Roman, Normal';font-variant-ligatures:normal;font-variant-caps:normal;font-variant-numeric:normal;font-variant-east-asian:normal;writing-mode:lr-tb;fill:#262626;fill-opacity:1;fill-rule:nonzero;stroke:none;stroke-width:0.75"
       id="text9545"
       x="-77.076111"
       y="617.53033"><tspan
         x="-77.076111"
         y="617.53033"
         id="tspan9543"
         style="font-style:normal;font-variant:normal;font-weight:normal;font-stretch:normal;font-size:18px;font-family:'Times New Roman';-inkscape-font-specification:'Times New Roman, Normal';font-variant-ligatures:normal;font-variant-caps:normal;font-variant-numeric:normal;font-variant-east-asian:normal;stroke-width:0.75">0</tspan></text><text
       transform="matrix(0,1,1,0,0,0)"
       style="font-style:normal;font-variant:normal;font-weight:normal;font-stretch:normal;font-size:18px;font-family:'Times New Roman';-inkscape-font-specification:'Times New Roman, Normal';font-variant-ligatures:normal;font-variant-caps:normal;font-variant-numeric:normal;font-variant-east-asian:normal;writing-mode:lr-tb;fill:#262626;fill-opacity:1;fill-rule:nonzero;stroke:none;stroke-width:0.75"
       id="text9553"
       x="67.858963"
       y="617.53033"><tspan
         x="67.858963"
         y="617.53033"
         id="tspan9551"
         style="font-style:normal;font-variant:normal;font-weight:normal;font-stretch:normal;font-size:18px;font-family:'Times New Roman';-inkscape-font-specification:'Times New Roman, Normal';font-variant-ligatures:normal;font-variant-caps:normal;font-variant-numeric:normal;font-variant-east-asian:normal;stroke-width:0.75">1</tspan></text><text
       transform="matrix(0,1,1,0,0,0)"
       style="font-style:normal;font-variant:normal;font-weight:normal;font-stretch:normal;font-size:18px;font-family:'Times New Roman';-inkscape-font-specification:'Times New Roman, Normal';font-variant-ligatures:normal;font-variant-caps:normal;font-variant-numeric:normal;font-variant-east-asian:normal;writing-mode:lr-tb;fill:#262626;fill-opacity:1;fill-rule:nonzero;stroke:none;stroke-width:0.75"
       id="text9561"
       x="212.79405"
       y="617.53033"><tspan
         x="212.79405"
         y="617.53033"
         id="tspan9559"
         style="font-style:normal;font-variant:normal;font-weight:normal;font-stretch:normal;font-size:18px;font-family:'Times New Roman';-inkscape-font-specification:'Times New Roman, Normal';font-variant-ligatures:normal;font-variant-caps:normal;font-variant-numeric:normal;font-variant-east-asian:normal;stroke-width:0.75">2</tspan></text><text
       transform="matrix(0,1,1,0,0,0)"
       style="font-style:normal;font-variant:normal;font-weight:normal;font-stretch:normal;font-size:18px;font-family:'Times New Roman';-inkscape-font-specification:'Times New Roman, Normal';font-variant-ligatures:normal;font-variant-caps:normal;font-variant-numeric:normal;font-variant-east-asian:normal;writing-mode:lr-tb;fill:#262626;fill-opacity:1;fill-rule:nonzero;stroke:none;stroke-width:0.75"
       id="text9569"
       x="357.72913"
       y="617.53033"><tspan
         x="357.72913"
         y="617.53033"
         id="tspan9567"
         style="font-style:normal;font-variant:normal;font-weight:normal;font-stretch:normal;font-size:18px;font-family:'Times New Roman';-inkscape-font-specification:'Times New Roman, Normal';font-variant-ligatures:normal;font-variant-caps:normal;font-variant-numeric:normal;font-variant-east-asian:normal;stroke-width:0.75">3</tspan></text><text
       transform="matrix(0,1,1,0,0,0)"
       style="font-style:normal;font-variant:normal;font-weight:normal;font-stretch:normal;font-size:18px;font-family:'Times New Roman';-inkscape-font-specification:'Times New Roman, Normal';font-variant-ligatures:normal;font-variant-caps:normal;font-variant-numeric:normal;font-variant-east-asian:normal;writing-mode:lr-tb;fill:#262626;fill-opacity:1;fill-rule:nonzero;stroke:none;stroke-width:0.75"
       id="text9577"
       x="502.66422"
       y="617.53033"><tspan
         x="502.66422"
         y="617.53033"
         id="tspan9575"
         style="font-style:normal;font-variant:normal;font-weight:normal;font-stretch:normal;font-size:18px;font-family:'Times New Roman';-inkscape-font-specification:'Times New Roman, Normal';font-variant-ligatures:normal;font-variant-caps:normal;font-variant-numeric:normal;font-variant-east-asian:normal;stroke-width:0.75">4</tspan></text><text
       transform="matrix(0,1,1,0,0,0)"
       style="font-style:normal;font-variant:normal;font-weight:normal;font-stretch:normal;font-size:18px;font-family:'Times New Roman';-inkscape-font-specification:'Times New Roman, Normal';font-variant-ligatures:normal;font-variant-caps:normal;font-variant-numeric:normal;font-variant-east-asian:normal;writing-mode:lr-tb;fill:#262626;fill-opacity:1;fill-rule:nonzero;stroke:none;stroke-width:0.75"
       id="text9585"
       x="647.59924"
       y="617.53033"><tspan
         x="647.59924"
         y="617.53033"
         id="tspan9583"
         style="font-style:normal;font-variant:normal;font-weight:normal;font-stretch:normal;font-size:18px;font-family:'Times New Roman';-inkscape-font-specification:'Times New Roman, Normal';font-variant-ligatures:normal;font-variant-caps:normal;font-variant-numeric:normal;font-variant-east-asian:normal;stroke-width:0.75">5</tspan></text><text
       transform="matrix(0,1,1,0,0,0)"
       style="font-style:normal;font-variant:normal;font-weight:normal;font-stretch:normal;font-size:18px;font-family:'Times New Roman';-inkscape-font-specification:'Times New Roman, Normal';font-variant-ligatures:normal;font-variant-caps:normal;font-variant-numeric:normal;font-variant-east-asian:normal;writing-mode:lr-tb;fill:#262626;fill-opacity:1;fill-rule:nonzero;stroke:none;stroke-width:0.75"
       id="text9593"
       x="792.53436"
       y="617.53033"><tspan
         x="792.53436"
         y="617.53033"
         id="tspan9591"
         style="font-style:normal;font-variant:normal;font-weight:normal;font-stretch:normal;font-size:18px;font-family:'Times New Roman';-inkscape-font-specification:'Times New Roman, Normal';font-variant-ligatures:normal;font-variant-caps:normal;font-variant-numeric:normal;font-variant-east-asian:normal;stroke-width:0.75">6</tspan></text><text
       transform="matrix(0,1,1,0,0,0)"
       style="font-style:normal;font-variant:normal;font-weight:normal;font-stretch:normal;font-size:18px;font-family:'Times New Roman';-inkscape-font-specification:'Times New Roman, Normal';font-variant-ligatures:normal;font-variant-caps:normal;font-variant-numeric:normal;font-variant-east-asian:normal;writing-mode:lr-tb;fill:#262626;fill-opacity:1;fill-rule:nonzero;stroke:none;stroke-width:0.75"
       id="text9601"
       x="937.46936"
       y="617.53033"><tspan
         x="937.46936"
         y="617.53033"
         id="tspan9599"
         style="font-style:normal;font-variant:normal;font-weight:normal;font-stretch:normal;font-size:18px;font-family:'Times New Roman';-inkscape-font-specification:'Times New Roman, Normal';font-variant-ligatures:normal;font-variant-caps:normal;font-variant-numeric:normal;font-variant-east-asian:normal;stroke-width:0.75">7</tspan></text><g
       id="g9611"
       transform="matrix(0,0.75,0.75,0,-53.969593,-311.55305)"
       style="stroke-width:2.00000005;stroke-miterlimit:4;stroke-dasharray:none"><path
         d="M 250,857 V 72.000015"
         style="fill:none;stroke:#262626;stroke-width:2.00000005;stroke-linecap:square;stroke-linejoin:round;stroke-miterlimit:4;stroke-dasharray:none;stroke-opacity:1"
         id="path9613" /></g><g
       id="g9619"
       transform="matrix(0,0.75,0.75,0,-53.969593,-322.80323)"
       style="stroke-width:2;stroke-miterlimit:4;stroke-dasharray:none"><path
         d="m 250,781.67169 h 14.88"
         style="fill:none;stroke:#262626;stroke-width:2;stroke-linecap:square;stroke-linejoin:round;stroke-miterlimit:4;stroke-dasharray:none;stroke-opacity:1"
         id="path9621" /></g><g
       id="g9623"
       transform="matrix(0,0.75,0.75,0,-53.969593,-322.80323)"
       style="stroke-width:2;stroke-miterlimit:4;stroke-dasharray:none"><path
         d="m 250,702.37878 h 14.88"
         style="fill:none;stroke:#262626;stroke-width:2;stroke-linecap:square;stroke-linejoin:round;stroke-miterlimit:4;stroke-dasharray:none;stroke-opacity:1"
         id="path9625" /></g><g
       id="g9627"
       transform="matrix(0,0.75,0.75,0,-53.969593,-322.80323)"
       style="stroke-width:2;stroke-miterlimit:4;stroke-dasharray:none"><path
         d="m 250,623.08588 h 14.88"
         style="fill:none;stroke:#262626;stroke-width:2;stroke-linecap:square;stroke-linejoin:round;stroke-miterlimit:4;stroke-dasharray:none;stroke-opacity:1"
         id="path9629" /></g><g
       id="g9631"
       transform="matrix(0,0.75,0.75,0,-53.969593,-322.80323)"
       style="stroke-width:2;stroke-miterlimit:4;stroke-dasharray:none"><path
         d="m 250,543.79291 h 14.88"
         style="fill:none;stroke:#262626;stroke-width:2;stroke-linecap:square;stroke-linejoin:round;stroke-miterlimit:4;stroke-dasharray:none;stroke-opacity:1"
         id="path9633" /></g><g
       id="g9635"
       transform="matrix(0,0.75,0.75,0,-53.969593,-322.80323)"
       style="stroke-width:2;stroke-miterlimit:4;stroke-dasharray:none"><path
         d="m 250,464.5 h 14.88"
         style="fill:none;stroke:#262626;stroke-width:2;stroke-linecap:square;stroke-linejoin:round;stroke-miterlimit:4;stroke-dasharray:none;stroke-opacity:1"
         id="path9637" /></g><g
       id="g9639"
       transform="matrix(0,0.75,0.75,0,-53.969593,-322.80323)"
       style="stroke-width:2;stroke-miterlimit:4;stroke-dasharray:none"><path
         d="m 250,385.20706 h 14.88"
         style="fill:none;stroke:#262626;stroke-width:2;stroke-linecap:square;stroke-linejoin:round;stroke-miterlimit:4;stroke-dasharray:none;stroke-opacity:1"
         id="path9641" /></g><g
       id="g9643"
       transform="matrix(0,0.75,0.75,0,-53.969593,-322.80323)"
       style="stroke-width:2;stroke-miterlimit:4;stroke-dasharray:none"><path
         d="m 250,305.91415 h 14.88"
         style="fill:none;stroke:#262626;stroke-width:2;stroke-linecap:square;stroke-linejoin:round;stroke-miterlimit:4;stroke-dasharray:none;stroke-opacity:1"
         id="path9645" /></g><g
       id="g9647"
       transform="matrix(0,0.75,0.75,0,-53.969593,-322.80323)"
       style="stroke-width:2;stroke-miterlimit:4;stroke-dasharray:none"><path
         d="m 250,226.62122 h 14.88"
         style="fill:none;stroke:#262626;stroke-width:2;stroke-linecap:square;stroke-linejoin:round;stroke-miterlimit:4;stroke-dasharray:none;stroke-opacity:1"
         id="path9649" /></g><g
       id="g9651"
       transform="matrix(0,0.75,0.75,0,-53.969593,-322.80323)"
       style="stroke-width:2;stroke-miterlimit:4;stroke-dasharray:none"><path
         d="m 250,147.32828 h 14.88"
         style="fill:none;stroke:#262626;stroke-width:2;stroke-linecap:square;stroke-linejoin:round;stroke-miterlimit:4;stroke-dasharray:none;stroke-opacity:1"
         id="path9653" /></g><text
       transform="matrix(0,1,1,0,0,0)"
       style="font-variant:normal;font-weight:normal;font-size:18.00000045px;font-family:'Times New Roman';-inkscape-font-specification:'Times New Roman, Normal';writing-mode:lr-tb;fill:#262626;fill-opacity:1;fill-rule:nonzero;stroke:none;stroke-width:0.75;font-style:normal;font-stretch:normal;font-variant-ligatures:normal;font-variant-caps:normal;font-variant-numeric:normal;font-variant-east-asian:normal"
       id="text9697"
       x="-153.55328"
       y="536.40936"><tspan
         x="-153.55328"
         y="536.40936"
         id="tspan9695"
         style="stroke-width:0.75;-inkscape-font-specification:'Times New Roman, Normal';font-family:'Times New Roman';font-weight:normal;font-style:normal;font-stretch:normal;font-variant:normal;font-size:18.00000045px;font-variant-ligatures:normal;font-variant-caps:normal;font-variant-numeric:normal;font-variant-east-asian:normal">2</tspan></text><text
       transform="matrix(0,1,1,0,0,0)"
       style="font-variant:normal;font-weight:normal;font-size:18.00000045px;font-family:'Times New Roman';-inkscape-font-specification:'Times New Roman, Normal';writing-mode:lr-tb;fill:#262626;fill-opacity:1;fill-rule:nonzero;stroke:none;stroke-width:0.75;font-style:normal;font-stretch:normal;font-variant-ligatures:normal;font-variant-caps:normal;font-variant-numeric:normal;font-variant-east-asian:normal"
       id="text9705"
       x="-153.55328"
       y="476.9397"><tspan
         x="-153.55328"
         y="476.9397"
         id="tspan9703"
         style="stroke-width:0.75;-inkscape-font-specification:'Times New Roman, Normal';font-family:'Times New Roman';font-weight:normal;font-style:normal;font-stretch:normal;font-variant:normal;font-size:18.00000045px;font-variant-ligatures:normal;font-variant-caps:normal;font-variant-numeric:normal;font-variant-east-asian:normal">4</tspan></text><text
       transform="matrix(0,1,1,0,0,0)"
       style="font-variant:normal;font-weight:normal;font-size:18.00000045px;font-family:'Times New Roman';-inkscape-font-specification:'Times New Roman, Normal';writing-mode:lr-tb;fill:#262626;fill-opacity:1;fill-rule:nonzero;stroke:none;stroke-width:0.75;font-style:normal;font-stretch:normal;font-variant-ligatures:normal;font-variant-caps:normal;font-variant-numeric:normal;font-variant-east-asian:normal"
       id="text9713"
       x="-153.55328"
       y="417.47003"><tspan
         x="-153.55328"
         y="417.47003"
         id="tspan9711"
         style="stroke-width:0.75;-inkscape-font-specification:'Times New Roman, Normal';font-family:'Times New Roman';font-weight:normal;font-style:normal;font-stretch:normal;font-variant:normal;font-size:18.00000045px;font-variant-ligatures:normal;font-variant-caps:normal;font-variant-numeric:normal;font-variant-east-asian:normal">6</tspan></text><text
       transform="matrix(0,1,1,0,0,0)"
       style="font-variant:normal;font-weight:normal;font-size:18.00000045px;font-family:'Times New Roman';-inkscape-font-specification:'Times New Roman, Normal';writing-mode:lr-tb;fill:#262626;fill-opacity:1;fill-rule:nonzero;stroke:none;stroke-width:0.75;font-style:normal;font-stretch:normal;font-variant-ligatures:normal;font-variant-caps:normal;font-variant-numeric:normal;font-variant-east-asian:normal"
       id="text9721"
       x="-153.55328"
       y="358.00031"><tspan
         x="-153.55328"
         y="358.00031"
         id="tspan9719"
         style="stroke-width:0.75;-inkscape-font-specification:'Times New Roman, Normal';font-family:'Times New Roman';font-weight:normal;font-style:normal;font-stretch:normal;font-variant:normal;font-size:18.00000045px;font-variant-ligatures:normal;font-variant-caps:normal;font-variant-numeric:normal;font-variant-east-asian:normal">8</tspan></text><g
       id="g9771"
       transform="matrix(0,0.75,0.75,0,562.01904,-73.325787)"><path
         d="M 2,0 C 2,-1.1045695 1.1045695,-2 0,-2 -1.1045695,-2 -2,-1.1045695 -2,0 -2,1.1045695 -1.1045695,2 0,2 1.1045695,2 2,1.1045695 2,0 Z"
         style="fill:#fcb763;fill-opacity:1;fill-rule:nonzero;stroke:#fcb763;stroke-opacity:1"
         id="path9773" /></g><g
       id="g9775"
       transform="matrix(0,0.75,0.75,0,562.01904,-73.325787)"
       style="stroke:#fcb763;stroke-opacity:1;fill:#fcb763;fill-opacity:1"><path
         d="m 0,-1.6666667 c 0.92047458,0 1.6666667,0.74619212 1.6666667,1.6666667 V 0 C 1.6666667,0.92047458 0.92047458,1.6666667 0,1.6666667 -0.92047458,1.6666667 -1.6666667,0.92047458 -1.6666667,0 c 0,-0.92047458 0.74619212,-1.6666667 1.6666667,-1.6666667 z m 0,-0.6666666 c -1.2886644,0 -2.3333333,1.0446689 -2.3333333,2.3333333 0,1.2886644 1.0446689,2.3333333 2.3333333,2.3333333 C 1.2886644,2.3333333 2.3333333,1.2886644 2.3333333,0 V 0 C 2.3333333,-1.2886644 1.2886644,-2.3333333 0,-2.3333333 Z"
         style="fill:#fcb763;fill-opacity:1;fill-rule:nonzero;stroke:#fcb763;stroke-opacity:1"
         id="path9777" /></g><g
       id="g9779"
       transform="matrix(0,0.75,0.75,0,532.28418,71.609288)"><path
         d="M 2,0 C 2,-1.1045695 1.1045695,-2 0,-2 -1.1045695,-2 -2,-1.1045695 -2,0 -2,1.1045695 -1.1045695,2 0,2 1.1045695,2 2,1.1045695 2,0 Z"
         style="fill:#fcb763;fill-opacity:1;fill-rule:nonzero;stroke:#fcb763;stroke-opacity:1"
         id="path9781" /></g><g
       id="g9783"
       transform="matrix(0,0.75,0.75,0,532.28418,71.609288)"
       style="stroke:#fcb763;stroke-opacity:1;fill:#fcb763;fill-opacity:1"><path
         d="m 0,-1.6666667 c 0.92047458,0 1.6666667,0.74619212 1.6666667,1.6666667 V 0 C 1.6666667,0.92047458 0.92047458,1.6666667 0,1.6666667 -0.92047458,1.6666667 -1.6666667,0.92047458 -1.6666667,0 c 0,-0.92047458 0.74619212,-1.6666667 1.6666667,-1.6666667 z m 0,-0.6666666 c -1.2886644,0 -2.3333333,1.0446689 -2.3333333,2.3333333 0,1.2886644 1.0446689,2.3333333 2.3333333,2.3333333 C 1.2886644,2.3333333 2.3333333,1.2886644 2.3333333,0 V 0 C 2.3333333,-1.2886644 1.2886644,-2.3333333 0,-2.3333333 Z"
         style="fill:#fcb763;fill-opacity:1;fill-rule:nonzero;stroke:#fcb763;stroke-opacity:1"
         id="path9785" /></g><g
       id="g9787"
       transform="matrix(0,0.75,0.75,0,502.54937,216.54436)"><path
         d="M 2,0 C 2,-1.1045695 1.1045695,-2 0,-2 -1.1045695,-2 -2,-1.1045695 -2,0 -2,1.1045695 -1.1045695,2 0,2 1.1045695,2 2,1.1045695 2,0 Z"
         style="fill:#fcb763;fill-opacity:1;fill-rule:nonzero;stroke:#fcb763;stroke-opacity:1"
         id="path9789" /></g><g
       id="g9791"
       transform="matrix(0,0.75,0.75,0,502.54937,216.54436)"
       style="stroke:#fcb763;stroke-opacity:1;fill:#fcb763;fill-opacity:1"><path
         d="m 0,-1.6666667 c 0.92047458,0 1.6666667,0.74619212 1.6666667,1.6666667 V 0 C 1.6666667,0.92047458 0.92047458,1.6666667 0,1.6666667 -0.92047458,1.6666667 -1.6666667,0.92047458 -1.6666667,0 c 0,-0.92047458 0.74619212,-1.6666667 1.6666667,-1.6666667 z m 0,-0.6666666 c -1.2886644,0 -2.3333333,1.0446689 -2.3333333,2.3333333 0,1.2886644 1.0446689,2.3333333 2.3333333,2.3333333 C 1.2886644,2.3333333 2.3333333,1.2886644 2.3333333,0 V 0 C 2.3333333,-1.2886644 1.2886644,-2.3333333 0,-2.3333333 Z"
         style="fill:#fcb763;fill-opacity:1;fill-rule:nonzero;stroke:#fcb763;stroke-opacity:1"
         id="path9793" /></g><g
       id="g9795"
       transform="matrix(0,0.75,0.75,0,383.60995,361.47943)"><path
         d="M 2,0 C 2,-1.1045695 1.1045695,-2 0,-2 -1.1045695,-2 -2,-1.1045695 -2,0 -2,1.1045695 -1.1045695,2 0,2 1.1045695,2 2,1.1045695 2,0 Z"
         style="fill:#fcb763;fill-opacity:1;fill-rule:nonzero;stroke:#fcb763;stroke-opacity:1"
         id="path9797" /></g><g
       id="g9799"
       transform="matrix(0,0.75,0.75,0,383.60995,361.47943)"
       style="stroke:#fcb763;stroke-opacity:1;fill:#fcb763;fill-opacity:1"><path
         d="m 0,-1.6666667 c 0.92047458,0 1.6666667,0.74619212 1.6666667,1.6666667 V 0 C 1.6666667,0.92047458 0.92047458,1.6666667 0,1.6666667 -0.92047458,1.6666667 -1.6666667,0.92047458 -1.6666667,0 c 0,-0.92047458 0.74619212,-1.6666667 1.6666667,-1.6666667 z m 0,-0.6666666 c -1.2886644,0 -2.3333333,1.0446689 -2.3333333,2.3333333 0,1.2886644 1.0446689,2.3333333 2.3333333,2.3333333 C 1.2886644,2.3333333 2.3333333,1.2886644 2.3333333,0 V 0 C 2.3333333,-1.2886644 1.2886644,-2.3333333 0,-2.3333333 Z"
         style="fill:#fcb763;fill-opacity:1;fill-rule:nonzero;stroke:#fcb763;stroke-opacity:1"
         id="path9801" /></g><g
       id="g9803"
       transform="matrix(0,0.75,0.75,0,353.87509,506.41451)"><path
         d="M 2,0 C 2,-1.1045695 1.1045695,-2 0,-2 -1.1045695,-2 -2,-1.1045695 -2,0 -2,1.1045695 -1.1045695,2 0,2 1.1045695,2 2,1.1045695 2,0 Z"
         style="fill:#fcb763;fill-opacity:1;fill-rule:nonzero;stroke:#fcb763;stroke-opacity:1"
         id="path9805" /></g><g
       id="g9807"
       transform="matrix(0,0.75,0.75,0,353.87509,506.41451)"><path
         d="m 0,-1.6666667 c 0.92047458,0 1.6666667,0.74619212 1.6666667,1.6666667 V 0 C 1.6666667,0.92047458 0.92047458,1.6666667 0,1.6666667 -0.92047458,1.6666667 -1.6666667,0.92047458 -1.6666667,0 c 0,-0.92047458 0.74619212,-1.6666667 1.6666667,-1.6666667 z m 0,-0.6666666 c -1.2886644,0 -2.3333333,1.0446689 -2.3333333,2.3333333 0,1.2886644 1.0446689,2.3333333 2.3333333,2.3333333 C 1.2886644,2.3333333 2.3333333,1.2886644 2.3333333,0 V 0 C 2.3333333,-1.2886644 1.2886644,-2.3333333 0,-2.3333333 Z"
         style="fill:#fcb763;fill-opacity:1;fill-rule:nonzero;stroke:#fcb763;stroke-opacity:1"
         id="path9809" /></g><g
       id="g9811"
       transform="matrix(0,0.75,0.75,0,294.40542,651.34954)"><path
         d="M 2,0 C 2,-1.1045695 1.1045695,-2 0,-2 -1.1045695,-2 -2,-1.1045695 -2,0 -2,1.1045695 -1.1045695,2 0,2 1.1045695,2 2,1.1045695 2,0 Z"
         style="fill:#fcb763;fill-opacity:1;fill-rule:nonzero;stroke:#fcb763;stroke-opacity:1"
         id="path9813" /></g><g
       id="g9815"
       transform="matrix(0,0.75,0.75,0,294.40542,651.34954)"
       style="stroke:#fcb763;stroke-opacity:1;fill:#fcb763;fill-opacity:1"><path
         d="m 0,-1.6666667 c 0.92047458,0 1.6666667,0.74619212 1.6666667,1.6666667 V 0 C 1.6666667,0.92047458 0.92047458,1.6666667 0,1.6666667 -0.92047458,1.6666667 -1.6666667,0.92047458 -1.6666667,0 c 0,-0.92047458 0.74619212,-1.6666667 1.6666667,-1.6666667 z m 0,-0.6666666 c -1.2886644,0 -2.3333333,1.0446689 -2.3333333,2.3333333 0,1.2886644 1.0446689,2.3333333 2.3333333,2.3333333 C 1.2886644,2.3333333 2.3333333,1.2886644 2.3333333,0 V 0 C 2.3333333,-1.2886644 1.2886644,-2.3333333 0,-2.3333333 Z"
         style="fill:#fcb763;fill-opacity:1;fill-rule:nonzero;stroke:#fcb763;stroke-opacity:1"
         id="path9817" /></g><g
       id="g9819"
       transform="matrix(0,0.75,0.75,0,86.261467,796.28466)"><path
         d="M 2,0 C 2,-1.1045695 1.1045695,-2 0,-2 -1.1045695,-2 -2,-1.1045695 -2,0 -2,1.1045695 -1.1045695,2 0,2 1.1045695,2 2,1.1045695 2,0 Z"
         style="fill:#fcb763;fill-opacity:1;fill-rule:nonzero;stroke:#fcb763;stroke-opacity:1"
         id="path9821" /></g><g
       id="g9823"
       transform="matrix(0,0.75,0.75,0,86.261467,796.28466)"
       style="stroke:#fcb763;stroke-opacity:1;fill:#fcb763;fill-opacity:1"><path
         d="m 0,-1.6666667 c 0.92047458,0 1.6666667,0.74619212 1.6666667,1.6666667 V 0 C 1.6666667,0.92047458 0.92047458,1.6666667 0,1.6666667 -0.92047458,1.6666667 -1.6666667,0.92047458 -1.6666667,0 c 0,-0.92047458 0.74619212,-1.6666667 1.6666667,-1.6666667 z m 0,-0.6666666 c -1.2886644,0 -2.3333333,1.0446689 -2.3333333,2.3333333 0,1.2886644 1.0446689,2.3333333 2.3333333,2.3333333 C 1.2886644,2.3333333 2.3333333,1.2886644 2.3333333,0 V 0 C 2.3333333,-1.2886644 1.2886644,-2.3333333 0,-2.3333333 Z"
         style="fill:#fcb763;fill-opacity:1;fill-rule:nonzero;stroke:#fcb763;stroke-opacity:1"
         id="path9825" /></g><path
       d="m 588.85058,-70.267055 -3.26829,3.542767 -3.40142,3.821918 -3.28262,3.821917 -3.16933,3.821911 -3.0612,3.821939 -2.95802,3.821918 -2.85961,3.82191 -2.76571,3.821917 -2.67623,3.821911 -2.5909,3.821917 -2.5095,3.821918 -2.43196,3.821932 -2.35803,3.821917 -2.28763,3.821918 -2.22057,3.82191 -2.15666,3.8219175 -2.09582,3.8219175 -2.03797,3.82191 -1.98284,3.82194 -1.93044,3.82191 -1.88058,3.8219175 -1.83321,3.8219175 -1.78817,3.82191 -1.74541,3.821918 -1.7047,3.821917 -1.66617,3.821933 -1.62959,3.821917 -1.5949,3.82191 -1.56198,3.821918 -1.53086,3.821917 -1.50132,3.82191 -1.47345,3.821918 -1.44704,3.821917 -1.42218,3.821933 -1.39861,3.821917 -1.37644,3.821918 -1.35558,3.82191 -0.26171,0.744532 -1.07418,3.077363 -1.3174,3.821955 -1.30005,3.821917 -1.2838,3.821918 -1.26855,3.82191 -1.25432,3.821917 -1.24104,3.821918 -1.22869,3.821912 -1.21723,3.82192 -1.20654,3.82191 -1.19677,3.82191 -1.18767,3.82192 -1.17938,3.82196 -1.17183,3.82187 -1.16487,3.82192 -1.15869,3.82195 -1.15306,3.82192 -1.14803,3.82192 -1.14368,3.82191 -1.13978,3.82191 -1.13654,3.82191 -1.1337,3.82192 -1.13145,3.82192 -1.12967,3.82191 -1.12829,3.82192 -1.12748,3.82191 -1.12696,3.82191 -1.12693,3.82192 -1.12733,3.82196 -1.12807,3.82187 -1.12916,3.82196 -1.13068,3.82191 -1.13251,3.82192 -1.13466,3.82192 -1.13718,3.82191 -1.13996,3.82191 -1.14304,3.82191 -1.14647,3.82192 -0.13426,0.44673 -1.01592,3.37519 -1.15411,3.82191 -1.15837,3.82192 -1.16281,3.82191 -1.16757,3.82191 -1.17256,3.82197 -1.17779,3.82191 -1.18322,3.82191 -1.18891,3.82188 -1.19481,3.82195 -1.20084,3.82192 -1.20722,3.82192 -1.21372,3.82191 -1.22039,3.82191 -1.22731,3.82192 -1.23441,3.82191 -1.24164,3.82192 -1.24914,3.82191 -1.25675,3.82196 -1.26452,3.82192 -1.2725,3.82191 -1.28064,3.82187 -1.28887,3.82192 -1.2974,3.82195 -1.30595,3.82192 -1.31474,3.82191 -1.32362,3.82192 -1.33274,3.82192 -1.34189,3.82191 -1.35127,3.82191 -1.36075,3.82192 -1.3704,3.82191 -1.38016,3.82196 -1.3901,3.82192 -1.40011,3.82187 -1.41032,3.82191 -1.42068,3.82196 -1.4311,3.82192 -0.0559,0.14891 -1.38574,3.673 -1.4524,3.82191 -1.46323,3.82192 -1.47423,3.82192 -1.48535,3.82191 -1.49652,3.82192 -1.50797,3.82191 -1.51941,3.82196 -1.53099,3.82187 -1.54276,3.82191 -1.5546,3.82192 -1.56661,3.82192 -1.57874,3.82195 -1.59096,3.82192 -1.60331,3.82192 -1.61581,3.82191 -1.62841,3.82191 -1.64117,3.82191 -1.65399,3.82192 -1.667,3.82192 -1.68013,3.82193 -1.69331,3.82193 -1.70673,3.82185 -1.72013,3.82192 -1.73383,3.82193 -1.74751,3.822 -1.76139,3.82185 -1.77539,3.82192 -1.78948,3.82193 -1.80373,3.82192 -1.8181,3.822 -1.83256,3.82185 -1.84727,3.82185 -1.86195,3.822 -1.87688,3.82193 -1.89189,3.82185 -1.90704,3.822 -1.84717,3.67297 -0.0752,0.14888 -1.93776,3.82192 -1.95328,3.82193 -1.96894,3.82185 -1.98477,3.82192 -2.00074,3.822 -2.01682,3.82185 -2.03306,3.822 -2.04942,3.82185 -2.06588,3.82193 -2.08255,3.822 -2.09935,3.82185 -2.11625,3.822 -2.13336,3.82185 -2.1505,3.82192 -2.16788,3.82193 -2.18541,3.82185 -2.20301,3.82192 -2.22084,3.822 -2.23876,3.82185 -2.25687,3.82193 -2.27508,3.82192 -2.29349,3.82193 -2.31202,3.822 -2.33076,3.82185 -2.34958,3.82192 -2.36861,3.82193 -2.38774,3.82185 -2.40708,3.82192 -2.42658,3.82193 -2.44622,3.82192 -2.466,3.822 -2.48598,3.82185 -2.50611,3.82193 -2.52642,3.82192 -2.54689,3.82193 -2.56751,3.82192 -2.58831,3.82193 -2.30321,3.37515 -0.30606,0.44677 -2.63042,3.82185 -2.65176,3.82193 -2.67323,3.82192 -2.69492,3.82185 -2.71673,3.822 -2.73878,3.82185 -2.76096,3.822 -2.78336,3.82193 -2.80593,3.82185 -2.82868,3.822 -2.85162,3.82192 -2.87473,3.82193 -2.89806,3.82192 -2.92156,3.82185 -2.94526,3.82193 -2.96912,3.82192 -2.9932,3.82185 -3.01751,3.822 -3.04198,3.82185 -3.06663,3.82193 -3.09153,3.822 -3.11658,3.82185 -3.14189,3.822 -3.16738,3.82185 -3.19306,3.82192 -3.21899,3.822 -3.2451,3.82185 -3.27142,3.82185 -3.29796,3.822 -3.32469,3.82185 -3.35171,3.822 -3.37891,3.82185 -3.40631,3.82193 -3.43396,3.822 -3.46181,3.82185 -3.4899,3.82192 -3.51822,3.82193 -2.8536,3.0774 -0.69317,0.74452 -3.57555,3.822 -3.60459,3.82185 -3.63379,3.82185 -3.66333,3.822 -3.69303,3.82185 -3.72301,3.82193 -3.7532,3.82192 -3.7837,3.82193 -3.81438,3.822 -3.84534,3.82185 -3.87656,3.82192 -3.90799,3.82193 -3.93974,3.82192 -3.971688,3.82193 -4.003942,3.82192 -4.036388,3.82185 -4.069222,3.82193 -4.102178,3.82192 -4.135522,3.82193 -4.169048,3.82185 -4.202895,3.822 -4.236982,3.82185 -4.271415,3.822 -4.306073,3.82192 -4.340992,3.82185 -4.37628,3.822 -4.411733,3.82193 -4.44756,3.82192 -4.483695,3.82185 -4.520055,3.82193 -4.556745,3.82192 -4.59372,3.82193 -4.630984,3.82185 -4.668588,3.822 -4.7065257,3.82185 -4.7446403,3.82192 -2.48295075,1.98398"
       style="fill:none;stroke:#fcb763;stroke-width:1.5;stroke-linecap:butt;stroke-linejoin:round;stroke-miterlimit:10;stroke-dasharray:none;stroke-opacity:1"
       id="path9837" /><g
       id="g9851"
       transform="matrix(0,0.75,0.75,0,15.677667,916.94695)"><path
         d="M 2,0 C 2,-1.1045695 1.1045695,-2 0,-2 -1.1045695,-2 -2,-1.1045695 -2,0 -2,1.1045695 -1.1045695,2 0,2 1.1045695,2 2,1.1045695 2,0 Z"
         style="fill:#fcb763;fill-opacity:1;fill-rule:nonzero;stroke:#fcb763;stroke-opacity:1"
         id="path9853" /></g><g
       id="g9855"
       transform="matrix(0,0.75,0.75,0,15.677667,916.94695)"
       style="stroke:#fcb763;stroke-opacity:1;fill:#fcb763;fill-opacity:1"><path
         d="m 0,-1.6666667 c 0.92047458,0 1.6666667,0.74619212 1.6666667,1.6666667 V 0 C 1.6666667,0.92047458 0.92047458,1.6666667 0,1.6666667 -0.92047458,1.6666667 -1.6666667,0.92047458 -1.6666667,0 c 0,-0.92047458 0.74619212,-1.6666667 1.6666667,-1.6666667 z m 0,-0.6666666 c -1.2886644,0 -2.3333333,1.0446689 -2.3333333,2.3333333 0,1.2886644 1.0446689,2.3333333 2.3333333,2.3333333 C 1.2886644,2.3333333 2.3333333,1.2886644 2.3333333,0 V 0 C 2.3333333,-1.2886644 1.2886644,-2.3333333 0,-2.3333333 Z"
         style="fill:#fcb763;fill-opacity:1;fill-rule:nonzero;stroke:#fcb763;stroke-opacity:1"
         id="path9857" /></g><g
       id="g9467"
       transform="matrix(0,0.75,0.75,0,-53.969593,-311.55305)"
       style="stroke-width:2.00000005;stroke-miterlimit:4;stroke-dasharray:none"><path
         d="M 250,857 H 1738"
         style="fill:none;stroke:#262626;stroke-width:2.00000005;stroke-linecap:square;stroke-linejoin:round;stroke-miterlimit:4;stroke-dasharray:none;stroke-opacity:1"
         id="path9469" /></g><text
       xml:space="preserve"
       style="font-style:normal;font-variant:normal;font-weight:normal;font-stretch:normal;font-size:18px;line-height:1.25;font-family:'Times New Roman';-inkscape-font-specification:'Times New Roman, Normal';font-variant-ligatures:normal;font-variant-caps:normal;font-variant-numeric:normal;font-variant-east-asian:normal;fill:#000000;fill-opacity:1;stroke:none;stroke-width:0.75"
       x="-162.60588"
       y="300.33627"
       id="text20137"
       transform="matrix(0,1,1,0,0,0)"><tspan
         sodipodi:role="line"
         id="tspan20135"
         style="font-style:normal;font-variant:normal;font-weight:normal;font-stretch:normal;font-size:18px;font-family:'Times New Roman';-inkscape-font-specification:'Times New Roman, Normal';font-variant-ligatures:normal;font-variant-caps:normal;font-variant-numeric:normal;font-variant-east-asian:normal;stroke-width:0.75"
         x="-162.60588"
         y="300.33627">10</tspan></text><text
       xml:space="preserve"
       style="font-style:normal;font-variant:normal;font-weight:normal;font-stretch:normal;font-size:18px;line-height:1.25;font-family:'Times New Roman';-inkscape-font-specification:'Times New Roman, Normal';font-variant-ligatures:normal;font-variant-caps:normal;font-variant-numeric:normal;font-variant-east-asian:normal;fill:#000000;fill-opacity:1;stroke:none;stroke-width:0.75"
       x="-162.50041"
       y="239.4993"
       id="text20137-9"
       transform="matrix(0,1,1,0,0,0)"><tspan
         sodipodi:role="line"
         id="tspan20788"
         x="-162.50041"
         y="239.4993">12</tspan></text><text
       xml:space="preserve"
       style="font-style:normal;font-variant:normal;font-weight:normal;font-stretch:normal;font-size:18px;line-height:1.25;font-family:'Times New Roman';-inkscape-font-specification:'Times New Roman, Normal';font-variant-ligatures:normal;font-variant-caps:normal;font-variant-numeric:normal;font-variant-east-asian:normal;fill:#000000;fill-opacity:1;stroke:none;stroke-width:0.75"
       x="-162.62346"
       y="181.54474"
       id="text20137-3"
       transform="matrix(0,1,1,0,0,0)"><tspan
         sodipodi:role="line"
         id="tspan20825"
         x="-162.62346"
         y="181.54474">14</tspan></text><text
       xml:space="preserve"
       style="font-style:normal;font-variant:normal;font-weight:normal;font-stretch:normal;font-size:18px;line-height:1.25;font-family:'Times New Roman';-inkscape-font-specification:'Times New Roman, Normal';font-variant-ligatures:normal;font-variant-caps:normal;font-variant-numeric:normal;font-variant-east-asian:normal;fill:#000000;fill-opacity:1;stroke:none;stroke-width:0.75"
       x="-162.55315"
       y="121.88566"
       id="text20137-5"
       transform="matrix(0,1,1,0,0,0)"><tspan
         sodipodi:role="line"
         id="tspan20862"
         x="-162.55315"
         y="121.88566">16</tspan></text><text
       xml:space="preserve"
       style="font-style:normal;font-variant:normal;font-weight:normal;font-stretch:normal;font-size:18px;line-height:1.25;font-family:'Times New Roman';-inkscape-font-specification:'Times New Roman, Normal';font-variant-ligatures:normal;font-variant-caps:normal;font-variant-numeric:normal;font-variant-east-asian:normal;fill:#000000;fill-opacity:1;stroke:none;stroke-width:0.75"
       x="-162.21037"
       y="62.130997"
       id="text20137-8"
       transform="matrix(0,1,1,0,0,0)"><tspan
         sodipodi:role="line"
         id="tspan962"
         x="-162.21037"
         y="62.130997">18</tspan></text><text
       xml:space="preserve"
       style="font-style:normal;font-variant:normal;font-weight:normal;font-stretch:normal;font-size:20px;line-height:1.25;font-family:'Times New Roman';-inkscape-font-specification:'Times New Roman, Normal';font-variant-ligatures:normal;font-variant-caps:normal;font-variant-numeric:normal;font-variant-east-asian:normal;fill:#000000;fill-opacity:1;stroke:none;stroke-width:0.75"
       x="-411.49442"
       y="-182.73569"
       id="text22594"
       transform="scale(-1,1)"><tspan
         sodipodi:role="line"
         id="tspan22592"
         style="font-style:normal;font-variant:normal;font-weight:normal;font-stretch:normal;font-size:20px;font-family:'Times New Roman';-inkscape-font-specification:'Times New Roman, Normal';font-variant-ligatures:normal;font-variant-caps:normal;font-variant-numeric:normal;font-variant-east-asian:normal;stroke-width:0.75"
         x="-411.49442"
         y="-182.73569">Number of occupied polygons</tspan></text><text
       xml:space="preserve"
       style="font-style:normal;font-variant:normal;font-weight:normal;font-stretch:normal;font-size:20px;line-height:1.25;font-family:'Times New Roman';-inkscape-font-specification:'Times New Roman, Normal';font-variant-ligatures:normal;font-variant-caps:normal;font-variant-numeric:normal;font-variant-east-asian:normal;fill:#000000;fill-opacity:1;stroke:none;stroke-width:0.75"
       x="343.83389"
       y="648.84015"
       id="text23246"
       transform="matrix(0,1,1,0,0,0)"><tspan
         sodipodi:role="line"
         id="tspan23244"
         style="font-style:normal;font-variant:normal;font-weight:normal;font-stretch:normal;font-size:20px;font-family:'Times New Roman';-inkscape-font-specification:'Times New Roman, Normal';font-variant-ligatures:normal;font-variant-caps:normal;font-variant-numeric:normal;font-variant-east-asian:normal;stroke-width:0.75"
         x="343.83389"
         y="648.84015">Years since first record</tspan></text></g></svg>
