<?xml version="1.0" encoding="UTF-8" standalone="no"?>
<!-- Created with Inkscape (http://www.inkscape.org/) -->

<svg
   version="1.1"
   id="svg824"
   xml:space="preserve"
   width="793.33331"
   height="1122.6667"
   viewBox="0 0 793.33331 1122.6667"
   sodipodi:docname="Germany.svg"
   inkscape:version="1.1.1 (3bf5ae0d25, 2021-09-20)"
   xmlns:inkscape="http://www.inkscape.org/namespaces/inkscape"
   xmlns:sodipodi="http://sodipodi.sourceforge.net/DTD/sodipodi-0.dtd"
   xmlns="http://www.w3.org/2000/svg"
   xmlns:svg="http://www.w3.org/2000/svg"><defs
     id="defs828"><clipPath
       clipPathUnits="userSpaceOnUse"
       id="clipPath840"><path
         d="M 0,0 H 1920 V 963.00002 H 0 Z"
         id="path838" /></clipPath></defs><sodipodi:namedview
     id="namedview826"
     pagecolor="#ffffff"
     bordercolor="#999999"
     borderopacity="1"
     inkscape:pageshadow="0"
     inkscape:pageopacity="0"
     inkscape:pagecheckerboard="0"
     showgrid="false"
     inkscape:zoom="0.66245342"
     inkscape:rotation="90"
     inkscape:cx="370.59209"
     inkscape:cy="466.44789"
     inkscape:window-width="1920"
     inkscape:window-height="1017"
     inkscape:window-x="1912"
     inkscape:window-y="-8"
     inkscape:window-maximized="1"
     inkscape:current-layer="g830" /><g
     id="g830"
     inkscape:groupmode="layer"
     inkscape:label="Germany"
     transform="matrix(1.3333333,0,0,-1.3333333,0,1122.6667)"><g
       id="g896"
       transform="matrix(0,0.75,0.75,0,-63.48721,-298.94487)"
       style="stroke-width:2.00000005;stroke-miterlimit:4;stroke-dasharray:none"><path
         d="M 250,857 H 1738"
         style="fill:none;stroke:#262626;stroke-width:2.00000005;stroke-linecap:square;stroke-linejoin:round;stroke-miterlimit:4;stroke-dasharray:none;stroke-opacity:1"
         id="path898" /></g><g
       id="g904"
       transform="matrix(0,0.75,0.75,0,-52.149907,-298.94487)"
       style="stroke-width:2;stroke-miterlimit:4;stroke-dasharray:none"><path
         d="M 317.63635,857 V 842.12"
         style="fill:none;stroke:#262626;stroke-width:2;stroke-linecap:square;stroke-linejoin:round;stroke-miterlimit:4;stroke-dasharray:none;stroke-opacity:1"
         id="path906" /></g><g
       id="g908"
       transform="matrix(0,0.75,0.75,0,-52.149907,-298.94487)"
       style="stroke-width:2;stroke-miterlimit:4;stroke-dasharray:none"><path
         d="M 768.54547,857 V 842.12"
         style="fill:none;stroke:#262626;stroke-width:2;stroke-linecap:square;stroke-linejoin:round;stroke-miterlimit:4;stroke-dasharray:none;stroke-opacity:1"
         id="path910" /></g><g
       id="g912"
       transform="matrix(0,0.75,0.75,0,-52.149907,-298.94487)"
       style="stroke-width:2;stroke-miterlimit:4;stroke-dasharray:none"><path
         d="M 1219.4546,857 V 842.12"
         style="fill:none;stroke:#262626;stroke-width:2;stroke-linecap:square;stroke-linejoin:round;stroke-miterlimit:4;stroke-dasharray:none;stroke-opacity:1"
         id="path914" /></g><g
       id="g916"
       transform="matrix(0,0.75,0.75,0,-52.149907,-298.94487)"
       style="stroke-width:2;stroke-miterlimit:4;stroke-dasharray:none"><path
         d="M 1670.3636,857 V 842.12"
         style="fill:none;stroke:#262626;stroke-width:2;stroke-linecap:square;stroke-linejoin:round;stroke-miterlimit:4;stroke-dasharray:none;stroke-opacity:1"
         id="path918" /></g><text
       transform="matrix(0,1,1,0,0,0)"
       style="font-style:normal;font-variant:normal;font-weight:normal;font-stretch:normal;font-size:18px;font-family:'Times New Roman';-inkscape-font-specification:'Times New Roman, Normal';font-variant-ligatures:normal;font-variant-caps:normal;font-variant-numeric:normal;font-variant-east-asian:normal;writing-mode:lr-tb;fill:#262626;fill-opacity:1;fill-rule:nonzero;stroke:none;stroke-width:0.75"
       id="text942"
       x="-65.103523"
       y="607.87384"><tspan
         x="-65.103523"
         y="607.87384"
         id="tspan940"
         style="font-style:normal;font-variant:normal;font-weight:normal;font-stretch:normal;font-size:18px;font-family:'Times New Roman';-inkscape-font-specification:'Times New Roman, Normal';font-variant-ligatures:normal;font-variant-caps:normal;font-variant-numeric:normal;font-variant-east-asian:normal;stroke-width:0.75">0</tspan></text><text
       transform="matrix(0,1,1,0,0,0)"
       style="font-style:normal;font-variant:normal;font-weight:normal;font-stretch:normal;font-size:18px;font-family:'Times New Roman';-inkscape-font-specification:'Times New Roman, Normal';font-variant-ligatures:normal;font-variant-caps:normal;font-variant-numeric:normal;font-variant-east-asian:normal;writing-mode:lr-tb;fill:#262626;fill-opacity:1;fill-rule:nonzero;stroke:none;stroke-width:0.75"
       id="text950"
       x="273.07831"
       y="607.62726"><tspan
         x="273.07831"
         y="607.62726"
         id="tspan948"
         style="font-style:normal;font-variant:normal;font-weight:normal;font-stretch:normal;font-size:18px;font-family:'Times New Roman';-inkscape-font-specification:'Times New Roman, Normal';font-variant-ligatures:normal;font-variant-caps:normal;font-variant-numeric:normal;font-variant-east-asian:normal;stroke-width:0.75">5</tspan></text><g
       id="g976"
       transform="matrix(0,0.75,0.75,0,-63.48721,-298.94487)"
       style="stroke-width:2.00000005;stroke-miterlimit:4;stroke-dasharray:none"><path
         d="M 250,857 V 72.000023"
         style="fill:none;stroke:#262626;stroke-width:2.00000005;stroke-linecap:square;stroke-linejoin:round;stroke-miterlimit:4;stroke-dasharray:none;stroke-opacity:1"
         id="path978" /></g><g
       id="g984"
       transform="matrix(0,0.75,0.75,0,-63.48721,-310.28462)"
       style="stroke-width:2;stroke-miterlimit:4;stroke-dasharray:none"><path
         d="m 250,821.31818 h 14.88"
         style="fill:none;stroke:#262626;stroke-width:2;stroke-linecap:square;stroke-linejoin:round;stroke-miterlimit:4;stroke-dasharray:none;stroke-opacity:1"
         id="path986" /></g><g
       id="g988"
       transform="matrix(0,0.75,0.75,0,-63.48721,-310.28462)"
       style="stroke-width:2;stroke-miterlimit:4;stroke-dasharray:none"><path
         d="m 250,711.52795 h 14.88"
         style="fill:none;stroke:#262626;stroke-width:2;stroke-linecap:square;stroke-linejoin:round;stroke-miterlimit:4;stroke-dasharray:none;stroke-opacity:1"
         id="path990" /></g><g
       id="g992"
       transform="matrix(0,0.75,0.75,0,-63.48721,-310.28462)"
       style="stroke-width:2;stroke-miterlimit:4;stroke-dasharray:none"><path
         d="m 250,601.73773 h 14.88"
         style="fill:none;stroke:#262626;stroke-width:2;stroke-linecap:square;stroke-linejoin:round;stroke-miterlimit:4;stroke-dasharray:none;stroke-opacity:1"
         id="path994" /></g><g
       id="g996"
       transform="matrix(0,0.75,0.75,0,-63.48721,-310.28462)"
       style="stroke-width:2;stroke-miterlimit:4;stroke-dasharray:none"><path
         d="m 250,491.94754 h 14.88"
         style="fill:none;stroke:#262626;stroke-width:2;stroke-linecap:square;stroke-linejoin:round;stroke-miterlimit:4;stroke-dasharray:none;stroke-opacity:1"
         id="path998" /></g><g
       id="g1000"
       transform="matrix(0,0.75,0.75,0,-63.48721,-310.28462)"
       style="stroke-width:2;stroke-miterlimit:4;stroke-dasharray:none"><path
         d="m 250,382.15735 h 14.88"
         style="fill:none;stroke:#262626;stroke-width:2;stroke-linecap:square;stroke-linejoin:round;stroke-miterlimit:4;stroke-dasharray:none;stroke-opacity:1"
         id="path1002" /></g><g
       id="g1004"
       transform="matrix(0,0.75,0.75,0,-63.48721,-310.28462)"
       style="stroke-width:2;stroke-miterlimit:4;stroke-dasharray:none"><path
         d="m 250,272.36713 h 14.88"
         style="fill:none;stroke:#262626;stroke-width:2;stroke-linecap:square;stroke-linejoin:round;stroke-miterlimit:4;stroke-dasharray:none;stroke-opacity:1"
         id="path1006" /></g><g
       id="g1008"
       transform="matrix(0,0.75,0.75,0,-63.48721,-310.28462)"
       style="stroke-width:2;stroke-miterlimit:4;stroke-dasharray:none"><path
         d="m 250,162.57692 h 14.88"
         style="fill:none;stroke:#262626;stroke-width:2;stroke-linecap:square;stroke-linejoin:round;stroke-miterlimit:4;stroke-dasharray:none;stroke-opacity:1"
         id="path1010" /></g><text
       transform="matrix(0,1,1,0,0,0)"
       style="font-style:normal;font-variant:normal;font-weight:normal;font-stretch:normal;font-size:18px;font-family:'Times New Roman';-inkscape-font-specification:'Times New Roman, Normal';font-variant-ligatures:normal;font-variant-caps:normal;font-variant-numeric:normal;font-variant-east-asian:normal;writing-mode:lr-tb;fill:#262626;fill-opacity:1;fill-rule:nonzero;stroke:none;stroke-width:0.75"
       id="text1046"
       x="-141.28714"
       y="556.62573"><tspan
         x="-141.28714"
         y="556.62573"
         id="tspan1044"
         style="font-style:normal;font-variant:normal;font-weight:normal;font-stretch:normal;font-size:18px;font-family:'Times New Roman';-inkscape-font-specification:'Times New Roman, Normal';font-variant-ligatures:normal;font-variant-caps:normal;font-variant-numeric:normal;font-variant-east-asian:normal;stroke-width:0.75">2</tspan></text><text
       transform="matrix(0,1,1,0,0,0)"
       style="font-style:normal;font-variant:normal;font-weight:normal;font-stretch:normal;font-size:18px;font-family:'Times New Roman';-inkscape-font-specification:'Times New Roman, Normal';font-variant-ligatures:normal;font-variant-caps:normal;font-variant-numeric:normal;font-variant-east-asian:normal;writing-mode:lr-tb;fill:#262626;fill-opacity:1;fill-rule:nonzero;stroke:none;stroke-width:0.75"
       id="text1054"
       x="-141.40903"
       y="474.28308"><tspan
         x="-141.40903"
         y="474.28308"
         id="tspan1052"
         style="font-style:normal;font-variant:normal;font-weight:normal;font-stretch:normal;font-size:18px;font-family:'Times New Roman';-inkscape-font-specification:'Times New Roman, Normal';font-variant-ligatures:normal;font-variant-caps:normal;font-variant-numeric:normal;font-variant-east-asian:normal;stroke-width:0.75">4</tspan></text><text
       transform="matrix(0,1,1,0,0,0)"
       style="font-style:normal;font-variant:normal;font-weight:normal;font-stretch:normal;font-size:18px;font-family:'Times New Roman';-inkscape-font-specification:'Times New Roman, Normal';font-variant-ligatures:normal;font-variant-caps:normal;font-variant-numeric:normal;font-variant-east-asian:normal;writing-mode:lr-tb;fill:#262626;fill-opacity:1;fill-rule:nonzero;stroke:none;stroke-width:0.75"
       id="text1062"
       x="-141.33871"
       y="391.94043"><tspan
         x="-141.33871"
         y="391.94043"
         id="tspan1060"
         style="font-style:normal;font-variant:normal;font-weight:normal;font-stretch:normal;font-size:18px;font-family:'Times New Roman';-inkscape-font-specification:'Times New Roman, Normal';font-variant-ligatures:normal;font-variant-caps:normal;font-variant-numeric:normal;font-variant-east-asian:normal;stroke-width:0.75">6</tspan></text><text
       transform="matrix(0,1,1,0,0,0)"
       style="font-style:normal;font-variant:normal;font-weight:normal;font-stretch:normal;font-size:18px;font-family:'Times New Roman';-inkscape-font-specification:'Times New Roman, Normal';font-variant-ligatures:normal;font-variant-caps:normal;font-variant-numeric:normal;font-variant-east-asian:normal;writing-mode:lr-tb;fill:#262626;fill-opacity:1;fill-rule:nonzero;stroke:none;stroke-width:0.75"
       id="text1070"
       x="-140.99594"
       y="309.59778"><tspan
         x="-140.99594"
         y="309.59778"
         id="tspan1068"
         style="font-style:normal;font-variant:normal;font-weight:normal;font-stretch:normal;font-size:18px;font-family:'Times New Roman';-inkscape-font-specification:'Times New Roman, Normal';font-variant-ligatures:normal;font-variant-caps:normal;font-variant-numeric:normal;font-variant-east-asian:normal;stroke-width:0.75">8</tspan></text><text
       transform="matrix(0,1,1,0,0,0)"
       style="font-style:normal;font-variant:normal;font-weight:normal;font-stretch:normal;font-size:18px;font-family:'Times New Roman';-inkscape-font-specification:'Times New Roman, Normal';font-variant-ligatures:normal;font-variant-caps:normal;font-variant-numeric:normal;font-variant-east-asian:normal;writing-mode:lr-tb;fill:#262626;fill-opacity:1;fill-rule:nonzero;stroke:none;stroke-width:0.75"
       id="text1070-6"
       x="-150.39145"
       y="229.10872"><tspan
         sodipodi:role="line"
         id="tspan4563"
         x="-150.39145"
         y="229.10872">10</tspan></text><g
       id="g1104"
       transform="matrix(0,0.75,0.75,0,552.50142,-60.71761)"><path
         d="M 2,0 C 2,-1.1045695 1.1045695,-2 0,-2 -1.1045695,-2 -2,-1.1045695 -2,0 -2,1.1045695 -1.1045695,2 0,2 1.1045695,2 2,1.1045695 2,0 Z"
         style="fill:#fcb763;fill-opacity:1;fill-rule:nonzero;stroke:#fcb763;stroke-opacity:1"
         id="path1106" /></g><g
       id="g1108"
       transform="matrix(0,0.75,0.75,0,552.50142,-60.71761)"><path
         d="m 0,-1.6666667 c 0.92047458,0 1.6666667,0.74619212 1.6666667,1.6666667 V 0 C 1.6666667,0.92047458 0.92047458,1.6666667 0,1.6666667 -0.92047458,1.6666667 -1.6666667,0.92047458 -1.6666667,0 c 0,-0.92047458 0.74619212,-1.6666667 1.6666667,-1.6666667 z m 0,-0.6666666 c -1.2886644,0 -2.3333333,1.0446689 -2.3333333,2.3333333 0,1.2886644 1.0446689,2.3333333 2.3333333,2.3333333 C 1.2886644,2.3333333 2.3333333,1.2886644 2.3333333,0 V 0 C 2.3333333,-1.2886644 1.2886644,-2.3333333 0,-2.3333333 Z"
         style="fill:#fcb763;fill-opacity:1;fill-rule:nonzero;stroke:#fcb763;stroke-opacity:1"
         id="path1110" /></g><g
       id="g1112"
       transform="matrix(0,0.75,0.75,0,511.33011,6.9187587)"><path
         d="M 2,0 C 2,-1.1045695 1.1045695,-2 0,-2 -1.1045695,-2 -2,-1.1045695 -2,0 -2,1.1045695 -1.1045695,2 0,2 1.1045695,2 2,1.1045695 2,0 Z"
         style="fill:#fcb763;fill-opacity:1;fill-rule:nonzero;stroke:#fcb763;stroke-opacity:1"
         id="path1114" /></g><g
       id="g1116"
       transform="matrix(0,0.75,0.75,0,511.33011,6.9187587)"><path
         d="m 0,-1.6666667 c 0.92047458,0 1.6666667,0.74619212 1.6666667,1.6666667 V 0 C 1.6666667,0.92047458 0.92047458,1.6666667 0,1.6666667 -0.92047458,1.6666667 -1.6666667,0.92047458 -1.6666667,0 c 0,-0.92047458 0.74619212,-1.6666667 1.6666667,-1.6666667 z m 0,-0.6666666 c -1.2886644,0 -2.3333333,1.0446689 -2.3333333,2.3333333 0,1.2886644 1.0446689,2.3333333 2.3333333,2.3333333 C 1.2886644,2.3333333 2.3333333,1.2886644 2.3333333,0 V 0 C 2.3333333,-1.2886644 1.2886644,-2.3333333 0,-2.3333333 Z"
         style="fill:#fcb763;fill-opacity:1;fill-rule:nonzero;stroke:#fcb763;stroke-opacity:1"
         id="path1118" /></g><g
       id="g1120"
       transform="matrix(0,0.75,0.75,0,470.15876,74.555126)"><path
         d="M 2,0 C 2,-1.1045695 1.1045695,-2 0,-2 -1.1045695,-2 -2,-1.1045695 -2,0 -2,1.1045695 -1.1045695,2 0,2 1.1045695,2 2,1.1045695 2,0 Z"
         style="fill:#fcb763;fill-opacity:1;fill-rule:nonzero;stroke:#fcb763;stroke-opacity:1"
         id="path1122" /></g><g
       id="g1124"
       transform="matrix(0,0.75,0.75,0,470.15876,74.555126)"><path
         d="m 0,-1.6666667 c 0.92047458,0 1.6666667,0.74619212 1.6666667,1.6666667 V 0 C 1.6666667,0.92047458 0.92047458,1.6666667 0,1.6666667 -0.92047458,1.6666667 -1.6666667,0.92047458 -1.6666667,0 c 0,-0.92047458 0.74619212,-1.6666667 1.6666667,-1.6666667 z m 0,-0.6666666 c -1.2886644,0 -2.3333333,1.0446689 -2.3333333,2.3333333 0,1.2886644 1.0446689,2.3333333 2.3333333,2.3333333 C 1.2886644,2.3333333 2.3333333,1.2886644 2.3333333,0 V 0 C 2.3333333,-1.2886644 1.2886644,-2.3333333 0,-2.3333333 Z"
         style="fill:#fcb763;fill-opacity:1;fill-rule:nonzero;stroke:#fcb763;stroke-opacity:1"
         id="path1126" /></g><g
       id="g1128"
       transform="matrix(0,0.75,0.75,0,428.98745,142.19149)"><path
         d="M 2,0 C 2,-1.1045695 1.1045695,-2 0,-2 -1.1045695,-2 -2,-1.1045695 -2,0 -2,1.1045695 -1.1045695,2 0,2 1.1045695,2 2,1.1045695 2,0 Z"
         style="fill:#fcb763;fill-opacity:1;fill-rule:nonzero;stroke:#fcb763;stroke-opacity:1"
         id="path1130" /></g><g
       id="g1132"
       transform="matrix(0,0.75,0.75,0,428.98745,142.19149)"><path
         d="m 0,-1.6666667 c 0.92047458,0 1.6666667,0.74619212 1.6666667,1.6666667 V 0 C 1.6666667,0.92047458 0.92047458,1.6666667 0,1.6666667 -0.92047458,1.6666667 -1.6666667,0.92047458 -1.6666667,0 c 0,-0.92047458 0.74619212,-1.6666667 1.6666667,-1.6666667 z m 0,-0.6666666 c -1.2886644,0 -2.3333333,1.0446689 -2.3333333,2.3333333 0,1.2886644 1.0446689,2.3333333 2.3333333,2.3333333 C 1.2886644,2.3333333 2.3333333,1.2886644 2.3333333,0 V 0 C 2.3333333,-1.2886644 1.2886644,-2.3333333 0,-2.3333333 Z"
         style="fill:#fcb763;fill-opacity:1;fill-rule:nonzero;stroke:#fcb763;stroke-opacity:1"
         id="path1134" /></g><g
       id="g1136"
       transform="matrix(0,0.75,0.75,0,346.64478,209.82786)"><path
         d="M 2,0 C 2,-1.1045695 1.1045695,-2 0,-2 -1.1045695,-2 -2,-1.1045695 -2,0 -2,1.1045695 -1.1045695,2 0,2 1.1045695,2 2,1.1045695 2,0 Z"
         style="fill:#fcb763;fill-opacity:1;fill-rule:nonzero;stroke:#fcb763;stroke-opacity:1"
         id="path1138" /></g><g
       id="g1140"
       transform="matrix(0,0.75,0.75,0,346.64478,209.82786)"><path
         d="m 0,-1.6666667 c 0.92047458,0 1.6666667,0.74619212 1.6666667,1.6666667 V 0 C 1.6666667,0.92047458 0.92047458,1.6666667 0,1.6666667 -0.92047458,1.6666667 -1.6666667,0.92047458 -1.6666667,0 c 0,-0.92047458 0.74619212,-1.6666667 1.6666667,-1.6666667 z m 0,-0.6666666 c -1.2886644,0 -2.3333333,1.0446689 -2.3333333,2.3333333 0,1.2886644 1.0446689,2.3333333 2.3333333,2.3333333 C 1.2886644,2.3333333 2.3333333,1.2886644 2.3333333,0 V 0 C 2.3333333,-1.2886644 1.2886644,-2.3333333 0,-2.3333333 Z"
         style="fill:#fcb763;fill-opacity:1;fill-rule:nonzero;stroke:#fcb763;stroke-opacity:1"
         id="path1142" /></g><g
       id="g1144"
       transform="matrix(0,0.75,0.75,0,264.30213,277.46423)"><path
         d="M 2,0 C 2,-1.1045695 1.1045695,-2 0,-2 -1.1045695,-2 -2,-1.1045695 -2,0 -2,1.1045695 -1.1045695,2 0,2 1.1045695,2 2,1.1045695 2,0 Z"
         style="fill:#fcb763;fill-opacity:1;fill-rule:nonzero;stroke:#fcb763;stroke-opacity:1"
         id="path1146" /></g><g
       id="g1148"
       transform="matrix(0,0.75,0.75,0,264.30213,277.46423)"><path
         d="m 0,-1.6666667 c 0.92047458,0 1.6666667,0.74619212 1.6666667,1.6666667 V 0 C 1.6666667,0.92047458 0.92047458,1.6666667 0,1.6666667 -0.92047458,1.6666667 -1.6666667,0.92047458 -1.6666667,0 c 0,-0.92047458 0.74619212,-1.6666667 1.6666667,-1.6666667 z m 0,-0.6666666 c -1.2886644,0 -2.3333333,1.0446689 -2.3333333,2.3333333 0,1.2886644 1.0446689,2.3333333 2.3333333,2.3333333 C 1.2886644,2.3333333 2.3333333,1.2886644 2.3333333,0 V 0 C 2.3333333,-1.2886644 1.2886644,-2.3333333 0,-2.3333333 Z"
         style="fill:#fcb763;fill-opacity:1;fill-rule:nonzero;stroke:#fcb763;stroke-opacity:1"
         id="path1150" /></g><g
       id="g1152"
       transform="matrix(0,0.75,0.75,0,264.30213,345.1006)"><path
         d="M 2,0 C 2,-1.1045695 1.1045695,-2 0,-2 -1.1045695,-2 -2,-1.1045695 -2,0 -2,1.1045695 -1.1045695,2 0,2 1.1045695,2 2,1.1045695 2,0 Z"
         style="fill:#fcb763;fill-opacity:1;fill-rule:nonzero;stroke:#fcb763;stroke-opacity:1"
         id="path1154" /></g><g
       id="g1156"
       transform="matrix(0,0.75,0.75,0,264.30213,345.1006)"><path
         d="m 0,-1.6666667 c 0.92047458,0 1.6666667,0.74619212 1.6666667,1.6666667 V 0 C 1.6666667,0.92047458 0.92047458,1.6666667 0,1.6666667 -0.92047458,1.6666667 -1.6666667,0.92047458 -1.6666667,0 c 0,-0.92047458 0.74619212,-1.6666667 1.6666667,-1.6666667 z m 0,-0.6666666 c -1.2886644,0 -2.3333333,1.0446689 -2.3333333,2.3333333 0,1.2886644 1.0446689,2.3333333 2.3333333,2.3333333 C 1.2886644,2.3333333 2.3333333,1.2886644 2.3333333,0 V 0 C 2.3333333,-1.2886644 1.2886644,-2.3333333 0,-2.3333333 Z"
         style="fill:#fcb763;fill-opacity:1;fill-rule:nonzero;stroke:#fcb763;stroke-opacity:1"
         id="path1158" /></g><g
       id="g1160"
       transform="matrix(0,0.75,0.75,0,264.30213,412.73696)"><path
         d="M 2,0 C 2,-1.1045695 1.1045695,-2 0,-2 -1.1045695,-2 -2,-1.1045695 -2,0 -2,1.1045695 -1.1045695,2 0,2 1.1045695,2 2,1.1045695 2,0 Z"
         style="fill:#fcb763;fill-opacity:1;fill-rule:nonzero;stroke:#fcb763;stroke-opacity:1"
         id="path1162" /></g><g
       id="g1164"
       transform="matrix(0,0.75,0.75,0,264.30213,412.73696)"><path
         d="m 0,-1.6666667 c 0.92047458,0 1.6666667,0.74619212 1.6666667,1.6666667 V 0 C 1.6666667,0.92047458 0.92047458,1.6666667 0,1.6666667 -0.92047458,1.6666667 -1.6666667,0.92047458 -1.6666667,0 c 0,-0.92047458 0.74619212,-1.6666667 1.6666667,-1.6666667 z m 0,-0.6666666 c -1.2886644,0 -2.3333333,1.0446689 -2.3333333,2.3333333 0,1.2886644 1.0446689,2.3333333 2.3333333,2.3333333 C 1.2886644,2.3333333 2.3333333,1.2886644 2.3333333,0 V 0 C 2.3333333,-1.2886644 1.2886644,-2.3333333 0,-2.3333333 Z"
         style="fill:#fcb763;fill-opacity:1;fill-rule:nonzero;stroke:#fcb763;stroke-opacity:1"
         id="path1166" /></g><g
       id="g1168"
       transform="matrix(0,0.75,0.75,0,181.95947,480.37333)"><path
         d="M 2,0 C 2,-1.1045695 1.1045695,-2 0,-2 -1.1045695,-2 -2,-1.1045695 -2,0 -2,1.1045695 -1.1045695,2 0,2 1.1045695,2 2,1.1045695 2,0 Z"
         style="fill:#fcb763;fill-opacity:1;fill-rule:nonzero;stroke:#fcb763;stroke-opacity:1"
         id="path1170" /></g><g
       id="g1172"
       transform="matrix(0,0.75,0.75,0,181.95947,480.37333)"><path
         d="m 0,-1.6666667 c 0.92047458,0 1.6666667,0.74619212 1.6666667,1.6666667 V 0 C 1.6666667,0.92047458 0.92047458,1.6666667 0,1.6666667 -0.92047458,1.6666667 -1.6666667,0.92047458 -1.6666667,0 c 0,-0.92047458 0.74619212,-1.6666667 1.6666667,-1.6666667 z m 0,-0.6666666 c -1.2886644,0 -2.3333333,1.0446689 -2.3333333,2.3333333 0,1.2886644 1.0446689,2.3333333 2.3333333,2.3333333 C 1.2886644,2.3333333 2.3333333,1.2886644 2.3333333,0 V 0 C 2.3333333,-1.2886644 1.2886644,-2.3333333 0,-2.3333333 Z"
         style="fill:#fcb763;fill-opacity:1;fill-rule:nonzero;stroke:#fcb763;stroke-opacity:1"
         id="path1174" /></g><g
       id="g1176"
       transform="matrix(0,0.75,0.75,0,140.78813,548.00965)"><path
         d="M 2,0 C 2,-1.1045695 1.1045695,-2 0,-2 -1.1045695,-2 -2,-1.1045695 -2,0 -2,1.1045695 -1.1045695,2 0,2 1.1045695,2 2,1.1045695 2,0 Z"
         style="fill:#fcb763;fill-opacity:1;fill-rule:nonzero;stroke:#fcb763;stroke-opacity:1"
         id="path1178" /></g><g
       id="g1180"
       transform="matrix(0,0.75,0.75,0,140.78813,548.00965)"><path
         d="m 0,-1.6666667 c 0.92047458,0 1.6666667,0.74619212 1.6666667,1.6666667 V 0 C 1.6666667,0.92047458 0.92047458,1.6666667 0,1.6666667 -0.92047458,1.6666667 -1.6666667,0.92047458 -1.6666667,0 c 0,-0.92047458 0.74619212,-1.6666667 1.6666667,-1.6666667 z m 0,-0.6666666 c -1.2886644,0 -2.3333333,1.0446689 -2.3333333,2.3333333 0,1.2886644 1.0446689,2.3333333 2.3333333,2.3333333 C 1.2886644,2.3333333 2.3333333,1.2886644 2.3333333,0 V 0 C 2.3333333,-1.2886644 1.2886644,-2.3333333 0,-2.3333333 Z"
         style="fill:#fcb763;fill-opacity:1;fill-rule:nonzero;stroke:#fcb763;stroke-opacity:1"
         id="path1182" /></g><g
       id="g1184"
       transform="matrix(0,0.75,0.75,0,140.78813,615.64607)"><path
         d="M 2,0 C 2,-1.1045695 1.1045695,-2 0,-2 -1.1045695,-2 -2,-1.1045695 -2,0 -2,1.1045695 -1.1045695,2 0,2 1.1045695,2 2,1.1045695 2,0 Z"
         style="fill:#fcb763;fill-opacity:1;fill-rule:nonzero;stroke:#fcb763;stroke-opacity:1"
         id="path1186" /></g><g
       id="g1188"
       transform="matrix(0,0.75,0.75,0,140.78813,615.64607)"><path
         d="m 0,-1.6666667 c 0.92047458,0 1.6666667,0.74619212 1.6666667,1.6666667 V 0 C 1.6666667,0.92047458 0.92047458,1.6666667 0,1.6666667 -0.92047458,1.6666667 -1.6666667,0.92047458 -1.6666667,0 c 0,-0.92047458 0.74619212,-1.6666667 1.6666667,-1.6666667 z m 0,-0.6666666 c -1.2886644,0 -2.3333333,1.0446689 -2.3333333,2.3333333 0,1.2886644 1.0446689,2.3333333 2.3333333,2.3333333 C 1.2886644,2.3333333 2.3333333,1.2886644 2.3333333,0 V 0 C 2.3333333,-1.2886644 1.2886644,-2.3333333 0,-2.3333333 Z"
         style="fill:#fcb763;fill-opacity:1;fill-rule:nonzero;stroke:#fcb763;stroke-opacity:1"
         id="path1190" /></g><g
       id="g1192"
       transform="matrix(0,0.75,0.75,0,58.445483,683.28239)"><path
         d="M 2,0 C 2,-1.1045695 1.1045695,-2 0,-2 -1.1045695,-2 -2,-1.1045695 -2,0 -2,1.1045695 -1.1045695,2 0,2 1.1045695,2 2,1.1045695 2,0 Z"
         style="fill:#fcb763;fill-opacity:1;fill-rule:nonzero;stroke:#fcb763;stroke-opacity:1"
         id="path1194" /></g><g
       id="g1196"
       transform="matrix(0,0.75,0.75,0,58.445483,683.28239)"><path
         d="m 0,-1.6666667 c 0.92047458,0 1.6666667,0.74619212 1.6666667,1.6666667 V 0 C 1.6666667,0.92047458 0.92047458,1.6666667 0,1.6666667 -0.92047458,1.6666667 -1.6666667,0.92047458 -1.6666667,0 c 0,-0.92047458 0.74619212,-1.6666667 1.6666667,-1.6666667 z m 0,-0.6666666 c -1.2886644,0 -2.3333333,1.0446689 -2.3333333,2.3333333 0,1.2886644 1.0446689,2.3333333 2.3333333,2.3333333 C 1.2886644,2.3333333 2.3333333,1.2886644 2.3333333,0 V 0 C 2.3333333,-1.2886644 1.2886644,-2.3333333 0,-2.3333333 Z"
         style="fill:#fcb763;fill-opacity:1;fill-rule:nonzero;stroke:#fcb763;stroke-opacity:1"
         id="path1198" /></g><g
       id="g1200"
       transform="matrix(0,0.75,0.75,0,58.445483,750.9188)"><path
         d="M 2,0 C 2,-1.1045695 1.1045695,-2 0,-2 -1.1045695,-2 -2,-1.1045695 -2,0 -2,1.1045695 -1.1045695,2 0,2 1.1045695,2 2,1.1045695 2,0 Z"
         style="fill:#fcb763;fill-opacity:1;fill-rule:nonzero;stroke:#fcb763;stroke-opacity:1"
         id="path1202" /></g><g
       id="g1204"
       transform="matrix(0,0.75,0.75,0,58.445483,750.9188)"><path
         d="m 0,-1.6666667 c 0.92047458,0 1.6666667,0.74619212 1.6666667,1.6666667 V 0 C 1.6666667,0.92047458 0.92047458,1.6666667 0,1.6666667 -0.92047458,1.6666667 -1.6666667,0.92047458 -1.6666667,0 c 0,-0.92047458 0.74619212,-1.6666667 1.6666667,-1.6666667 z m 0,-0.6666666 c -1.2886644,0 -2.3333333,1.0446689 -2.3333333,2.3333333 0,1.2886644 1.0446689,2.3333333 2.3333333,2.3333333 C 1.2886644,2.3333333 2.3333333,1.2886644 2.3333333,0 V 0 C 2.3333333,-1.2886644 1.2886644,-2.3333333 0,-2.3333333 Z"
         style="fill:#fcb763;fill-opacity:1;fill-rule:nonzero;stroke:#fcb763;stroke-opacity:1"
         id="path1206" /></g><g
       id="g1208"
       transform="matrix(0,0.75,0.75,0,17.274157,818.55513)"><path
         d="M 2,0 C 2,-1.1045695 1.1045695,-2 0,-2 -1.1045695,-2 -2,-1.1045695 -2,0 -2,1.1045695 -1.1045695,2 0,2 1.1045695,2 2,1.1045695 2,0 Z"
         style="fill:#fcb763;fill-opacity:1;fill-rule:nonzero;stroke:#fcb763;stroke-opacity:1"
         id="path1210" /></g><g
       id="g1212"
       transform="matrix(0,0.75,0.75,0,17.274157,818.55513)"><path
         d="m 0,-1.6666667 c 0.92047458,0 1.6666667,0.74619212 1.6666667,1.6666667 V 0 C 1.6666667,0.92047458 0.92047458,1.6666667 0,1.6666667 -0.92047458,1.6666667 -1.6666667,0.92047458 -1.6666667,0 c 0,-0.92047458 0.74619212,-1.6666667 1.6666667,-1.6666667 z m 0,-0.6666666 c -1.2886644,0 -2.3333333,1.0446689 -2.3333333,2.3333333 0,1.2886644 1.0446689,2.3333333 2.3333333,2.3333333 C 1.2886644,2.3333333 2.3333333,1.2886644 2.3333333,0 V 0 C 2.3333333,-1.2886644 1.2886644,-2.3333333 0,-2.3333333 Z"
         style="fill:#fcb763;fill-opacity:1;fill-rule:nonzero;stroke:#fcb763;stroke-opacity:1"
         id="path1214" /></g><g
       id="g1216"
       transform="matrix(0,0.75,0.75,0,17.274157,886.19145)"><path
         d="M 2,0 C 2,-1.1045695 1.1045695,-2 0,-2 -1.1045695,-2 -2,-1.1045695 -2,0 -2,1.1045695 -1.1045695,2 0,2 1.1045695,2 2,1.1045695 2,0 Z"
         style="fill:#fcb763;fill-opacity:1;fill-rule:nonzero;stroke:#fcb763;stroke-opacity:1"
         id="path1218" /></g><g
       id="g1220"
       transform="matrix(0,0.75,0.75,0,17.274157,886.19145)"><path
         d="m 0,-1.6666667 c 0.92047458,0 1.6666667,0.74619212 1.6666667,1.6666667 V 0 C 1.6666667,0.92047458 0.92047458,1.6666667 0,1.6666667 -0.92047458,1.6666667 -1.6666667,0.92047458 -1.6666667,0 c 0,-0.92047458 0.74619212,-1.6666667 1.6666667,-1.6666667 z m 0,-0.6666666 c -1.2886644,0 -2.3333333,1.0446689 -2.3333333,2.3333333 0,1.2886644 1.0446689,2.3333333 2.3333333,2.3333333 C 1.2886644,2.3333333 2.3333333,1.2886644 2.3333333,0 V 0 C 2.3333333,-1.2886644 1.2886644,-2.3333333 0,-2.3333333 Z"
         style="fill:#fcb763;fill-opacity:1;fill-rule:nonzero;stroke:#fcb763;stroke-opacity:1"
         id="path1222" /></g><g
       id="g1224"
       transform="matrix(0,0.75,0.75,0,17.274157,953.82786)"><path
         d="M 2,0 C 2,-1.1045695 1.1045695,-2 0,-2 -1.1045695,-2 -2,-1.1045695 -2,0 -2,1.1045695 -1.1045695,2 0,2 1.1045695,2 2,1.1045695 2,0 Z"
         style="fill:#fcb763;fill-opacity:1;fill-rule:nonzero;stroke:#fcb763;stroke-opacity:1"
         id="path1226" /></g><g
       id="g1228"
       transform="matrix(0,0.75,0.75,0,17.274157,953.82786)"><path
         d="m 0,-1.6666667 c 0.92047458,0 1.6666667,0.74619212 1.6666667,1.6666667 V 0 C 1.6666667,0.92047458 0.92047458,1.6666667 0,1.6666667 -0.92047458,1.6666667 -1.6666667,0.92047458 -1.6666667,0 c 0,-0.92047458 0.74619212,-1.6666667 1.6666667,-1.6666667 z m 0,-0.6666666 c -1.2886644,0 -2.3333333,1.0446689 -2.3333333,2.3333333 0,1.2886644 1.0446689,2.3333333 2.3333333,2.3333333 C 1.2886644,2.3333333 2.3333333,1.2886644 2.3333333,0 V 0 C 2.3333333,-1.2886644 1.2886644,-2.3333333 0,-2.3333333 Z"
         style="fill:#fcb763;fill-opacity:1;fill-rule:nonzero;stroke:#fcb763;stroke-opacity:1"
         id="path1230" /></g><path
       d="m 579.33297,-50.791072 -2.52297,0.496882 -17.5128,3.821918 -15.81501,3.82191 -14.29239,3.82194 -12.92683,3.821917 -11.70231,3.82191 -10.60423,3.821918 -9.61968,3.82191 -8.73683,3.821917 -7.94531,3.821918 -7.23578,3.821932 -6.59967,3.8219175 -6.02953,3.8219175 -5.51852,3.82191 -5.06058,3.8219175 -4.51497,3.7061025 -0.13527,0.115815 -4.28265,3.82191 -3.95334,3.82194 -3.65845,3.821888 -3.39436,3.82194 -3.15793,3.821917 -2.94639,3.82191 -2.75707,3.821918 -2.58774,3.82194 -2.43635,3.821887 -2.30104,3.82194 -2.1802,3.82191 -2.07229,3.821918 -1.97598,3.821917 -1.89011,3.82191 -1.81361,3.821918 -1.74546,3.821917 -1.68494,3.821933 -1.09299,2.547937 -0.53811,1.273958 -1.58331,3.821939 -1.54106,3.82191 -1.50362,3.82194 -1.47061,3.82191 -1.4415,3.821918 -1.41595,3.821918 -1.39357,3.821907 -1.37407,3.82192 -1.35704,3.82192 -1.34244,3.82191 -1.32976,3.82192 -1.31909,3.82191 -1.30994,3.82191 -1.30238,3.82192 -1.29611,3.82191 -1.29108,3.82196 -1.28714,3.82192 -0.46728,1.38977 -0.81693,2.43214 -1.28205,3.82187 -1.28079,3.82197 -1.28022,3.82191 -1.28028,3.82191 -1.28086,3.82191 -1.28206,3.82192 -1.28371,3.82192 -1.28577,3.82191 -1.28814,3.82192 -1.29099,3.82191 -1.29405,3.82196 -1.29748,3.82187 -1.30111,3.82191 -1.30495,3.82192 -1.30906,3.82196 -1.31333,3.82191 -1.31781,3.82192 -0.08,0.23163 -1.24242,3.59029 -1.32719,3.82191 -1.33205,3.82191 -1.33712,3.82191 -1.34226,3.82192 -1.34748,3.82192 -1.35282,3.82191 -1.35828,3.82196 -1.36377,3.82187 -1.36935,3.82191 -1.37503,3.82197 -1.38071,3.82186 -1.38657,3.82196 -1.3924,3.82188 -1.39831,3.82195 -1.40425,3.82192 -1.4103,3.82192 -1.07244,2.89539 -0.34389,0.92652 -1.42248,3.82191 -1.42863,3.82192 -1.43481,3.82191 -1.44107,3.82192 -1.44736,3.82191 -1.45365,3.82196 -1.46004,3.82187 -1.4664,3.82196 -1.47287,3.82187 -1.47931,3.82196 -1.48588,3.82191 -1.49233,3.82192 -1.49899,3.82191 -1.50554,3.82192 -1.51222,3.82192 -1.51889,3.82191 -1.52561,3.82191 -0.69564,1.73726 -0.83668,2.08466 -1.53909,3.82196 -1.54591,3.82187 -1.55278,3.82196 -1.55965,3.82187 -1.56652,3.82196 -1.57349,3.82191 -1.58043,3.82187 -1.58748,3.82196 -1.59448,3.82191 -1.60153,3.82192 -1.60865,3.82192 -1.61579,3.82191 -1.62293,3.82192 -1.63015,3.82191 -1.63737,3.82191 -1.64465,3.82192 -1.65194,3.82191 -0.25092,0.57912 -1.40833,3.2428 -1.66661,3.82196 -1.67401,3.82187 -1.6814,3.82196 -1.68891,3.82192 -1.69641,3.82191 -1.70388,3.82191 -1.71149,3.82191 -1.71907,3.82192 -1.7267,3.82192 -1.73433,3.82193 -1.74206,3.82193 -1.74978,3.82185 -1.75754,3.82192 -1.76535,3.82193 -1.77319,3.822 -1.78102,3.82185 -1.51739,3.24285 -0.27157,0.57907 -1.79691,3.82193 -1.80484,3.82192 -1.81287,3.822 -1.82095,3.82185 -1.829,3.82185 -1.83708,3.822 -1.84528,3.82193 -1.85347,3.82185 -1.86168,3.822 -1.86994,3.82185 -1.87823,3.82192 -1.88656,3.82193 -1.89495,3.82192 -1.90338,3.822 -1.91181,3.82185 -1.92027,3.82185 -1.92881,3.822 -1.0557,2.08463 -0.88167,1.7373 -1.94596,3.82185 -1.9546,3.82192 -1.96328,3.82193 -1.972,3.822 -1.98077,3.82185 -1.98951,3.82192 -1.99836,3.82193 -2.00723,3.82185 -2.01617,3.82192 -2.02508,3.822 -2.03407,3.82193 -2.04311,3.82185 -2.05214,3.82192 -2.06128,3.82193 -2.07042,3.82185 -2.07963,3.822 -2.08879,3.82192 -0.50783,0.92655 -1.59029,2.89538 -2.10742,3.82185 -2.1168,3.82192 -2.12615,3.822 -2.13562,3.82185 -2.14506,3.82185 -2.15463,3.822 -2.16414,3.82193 -2.17379,3.82192 -2.18339,3.82193 -2.19308,3.82185 -2.20285,3.822 -2.21265,3.82185 -2.22242,3.82192 -2.23226,3.822 -2.24221,3.82185 -2.25216,3.82185 -2.12477,3.5904 -0.13738,0.2316 -2.27218,3.82193 -2.28226,3.82192 -2.29239,3.82193 -2.3026,3.82185 -2.31277,3.822 -2.32306,3.82185 -2.33335,3.822 -2.34373,3.82192 -2.35412,3.82185 -2.36456,3.82193 -2.375047,3.82192 -2.3856,3.82193 -2.396213,3.82192 -2.406802,3.82185 -2.41752,3.82193 -2.428208,3.822 -2.439015,3.82185 -1.55772,2.43217 -0.892117,1.38983 -2.46072,3.82185 -2.471588,3.82192 -2.482627,3.82193 -2.493578,3.82192 -2.504692,3.822 -2.515808,3.82185 -2.526952,3.82185 -2.538143,3.822 -2.54946,3.82193 -2.560717,3.82185 -2.572148,3.822 -2.583495,3.82185 -2.595007,3.82192 -2.60649,3.82193 -2.618093,3.82192 -2.62971,3.822 -2.641365,3.82185 -0.88305,1.27395 -1.770022,2.5479 -2.664855,3.822 -2.676705,3.82193 -2.688563,3.82185 -2.700502,3.82192 -2.71248,3.82193 -2.72454,3.822 -2.736585,3.82185 -2.748758,3.82192 -2.7609637,3.82193 -2.7732188,3.82185 -2.785509,3.82192 -2.7978802,3.822 -2.8102793,3.82193 -2.8227712,3.82185 -2.835297,3.82192 -2.6827298,3.6003"
       style="fill:none;stroke:#fcb763;stroke-width:1.5;stroke-linecap:butt;stroke-linejoin:round;stroke-miterlimit:10;stroke-dasharray:none;stroke-opacity:1"
       id="path1234" /><text
       transform="matrix(0,1,1,0,0,0)"
       style="font-style:normal;font-variant:normal;font-weight:normal;font-stretch:normal;font-size:18px;font-family:'Times New Roman';-inkscape-font-specification:'Times New Roman, Normal';font-variant-ligatures:normal;font-variant-caps:normal;font-variant-numeric:normal;font-variant-east-asian:normal;writing-mode:lr-tb;fill:#262626;fill-opacity:1;fill-rule:nonzero;stroke:none;stroke-width:0.75"
       id="text950-9"
       x="606.21503"
       y="607.34021"><tspan
         sodipodi:role="line"
         id="tspan4366"
         x="606.21503"
         y="607.34021">10</tspan></text><text
       transform="matrix(0,1,1,0,0,0)"
       style="font-style:normal;font-variant:normal;font-weight:normal;font-stretch:normal;font-size:18px;font-family:'Times New Roman';-inkscape-font-specification:'Times New Roman, Normal';font-variant-ligatures:normal;font-variant-caps:normal;font-variant-numeric:normal;font-variant-east-asian:normal;writing-mode:lr-tb;fill:#262626;fill-opacity:1;fill-rule:nonzero;stroke:none;stroke-width:0.75"
       id="text950-1"
       x="945.07098"
       y="607.34045"><tspan
         sodipodi:role="line"
         id="tspan4403"
         x="945.07098"
         y="607.34045">15</tspan></text><text
       transform="matrix(0,1,1,0,0,0)"
       style="font-style:normal;font-variant:normal;font-weight:normal;font-stretch:normal;font-size:18px;font-family:'Times New Roman';-inkscape-font-specification:'Times New Roman, Normal';font-variant-ligatures:normal;font-variant-caps:normal;font-variant-numeric:normal;font-variant-east-asian:normal;writing-mode:lr-tb;fill:#262626;fill-opacity:1;fill-rule:nonzero;stroke:none;stroke-width:0.75"
       id="text1070-6-2"
       x="-150.28598"
       y="145.26091"><tspan
         sodipodi:role="line"
         id="tspan4610"
         x="-150.28598"
         y="145.26091">12</tspan></text><text
       transform="matrix(0,1,1,0,0,0)"
       style="font-style:normal;font-variant:normal;font-weight:normal;font-stretch:normal;font-size:18px;font-family:'Times New Roman';-inkscape-font-specification:'Times New Roman, Normal';font-variant-ligatures:normal;font-variant-caps:normal;font-variant-numeric:normal;font-variant-east-asian:normal;writing-mode:lr-tb;fill:#262626;fill-opacity:1;fill-rule:nonzero;stroke:none;stroke-width:0.75"
       id="text1070-6-8"
       x="-150.40903"
       y="64.184952"><tspan
         sodipodi:role="line"
         id="tspan4647"
         x="-150.40903"
         y="64.184952">14</tspan></text><text
       xml:space="preserve"
       style="font-style:normal;font-variant:normal;font-weight:normal;font-stretch:normal;font-size:20px;line-height:1.25;font-family:'Times New Roman';-inkscape-font-specification:'Times New Roman, Normal';font-variant-ligatures:normal;font-variant-caps:normal;font-variant-numeric:normal;font-variant-east-asian:normal;fill:#000000;fill-opacity:1;stroke:none;stroke-width:0.75"
       x="358.14545"
       y="653.26721"
       id="text23246"
       transform="matrix(0,1,1,0,0,0)"><tspan
         sodipodi:role="line"
         id="tspan23244"
         style="font-style:normal;font-variant:normal;font-weight:normal;font-stretch:normal;font-size:20px;font-family:'Times New Roman';-inkscape-font-specification:'Times New Roman, Normal';font-variant-ligatures:normal;font-variant-caps:normal;font-variant-numeric:normal;font-variant-east-asian:normal;stroke-width:0.75"
         x="358.14545"
         y="653.26721">Years since first record</tspan></text><text
       xml:space="preserve"
       style="font-style:normal;font-variant:normal;font-weight:normal;font-stretch:normal;font-size:20px;line-height:1.25;font-family:'Times New Roman';-inkscape-font-specification:'Times New Roman, Normal';font-variant-ligatures:normal;font-variant-caps:normal;font-variant-numeric:normal;font-variant-east-asian:normal;fill:#000000;fill-opacity:1;stroke:none;stroke-width:0.75"
       x="-427.69293"
       y="-185.74025"
       id="text22594"
       transform="scale(-1,1)"><tspan
         sodipodi:role="line"
         id="tspan22592"
         style="font-style:normal;font-variant:normal;font-weight:normal;font-stretch:normal;font-size:20px;font-family:'Times New Roman';-inkscape-font-specification:'Times New Roman, Normal';font-variant-ligatures:normal;font-variant-caps:normal;font-variant-numeric:normal;font-variant-east-asian:normal;stroke-width:0.75"
         x="-427.69293"
         y="-185.74025">Number of occupied polygons</tspan></text></g></svg>
