<?xml version="1.0" encoding="UTF-8" standalone="no"?>
<!-- Created with Inkscape (http://www.inkscape.org/) -->

<svg
   version="1.1"
   id="svg4768"
   xml:space="preserve"
   width="793.33331"
   height="1122.6667"
   viewBox="0 0 793.33331 1122.6667"
   sodipodi:docname="Ireland.svg"
   inkscape:version="1.1.1 (3bf5ae0d25, 2021-09-20)"
   xmlns:inkscape="http://www.inkscape.org/namespaces/inkscape"
   xmlns:sodipodi="http://sodipodi.sourceforge.net/DTD/sodipodi-0.dtd"
   xmlns="http://www.w3.org/2000/svg"
   xmlns:svg="http://www.w3.org/2000/svg"><defs
     id="defs4772"><clipPath
       clipPathUnits="userSpaceOnUse"
       id="clipPath4784"><path
         d="M 0,0 H 1920 V 963.00002 H 0 Z"
         id="path4782" /></clipPath></defs><sodipodi:namedview
     id="namedview4770"
     pagecolor="#ffffff"
     bordercolor="#999999"
     borderopacity="1"
     inkscape:pageshadow="0"
     inkscape:pageopacity="0"
     inkscape:pagecheckerboard="0"
     showgrid="false"
     inkscape:zoom="0.73709606"
     inkscape:rotation="90"
     inkscape:cx="490.43811"
     inkscape:cy="572.51696"
     inkscape:window-width="1920"
     inkscape:window-height="1017"
     inkscape:window-x="1912"
     inkscape:window-y="-8"
     inkscape:window-maximized="1"
     inkscape:current-layer="g4774" /><g
     id="g4774"
     inkscape:groupmode="layer"
     inkscape:label="Ireland"
     transform="matrix(1.3333333,0,0,-1.3333333,0,1122.6667)"><g
       id="g4856"
       transform="matrix(0,0.75,0.75,0,-63.48721,-298.94487)"
       style="stroke-width:2.00000005;stroke-miterlimit:4;stroke-dasharray:none"><path
         d="M 250,857 H 1738"
         style="fill:none;stroke:#262626;stroke-width:2.00000005;stroke-linecap:square;stroke-linejoin:round;stroke-miterlimit:4;stroke-dasharray:none;stroke-opacity:1"
         id="path4858" /></g><g
       id="g4864"
       transform="matrix(0,0.75,0.75,0,-51.487486,-298.94487)"
       style="stroke-width:2;stroke-miterlimit:4;stroke-dasharray:none"><path
         d="M 317.63635,857 V 842.12"
         style="fill:none;stroke:#262626;stroke-width:2;stroke-linecap:square;stroke-linejoin:round;stroke-miterlimit:4;stroke-dasharray:none;stroke-opacity:1"
         id="path4866" /></g><g
       id="g4868"
       transform="matrix(0,0.75,0.75,0,-51.487486,-298.94487)"
       style="stroke-width:2;stroke-miterlimit:4;stroke-dasharray:none"><path
         d="M 510.88312,857 V 842.12"
         style="fill:none;stroke:#262626;stroke-width:2;stroke-linecap:square;stroke-linejoin:round;stroke-miterlimit:4;stroke-dasharray:none;stroke-opacity:1"
         id="path4870" /></g><g
       id="g4872"
       transform="matrix(0,0.75,0.75,0,-51.487486,-298.94487)"
       style="stroke-width:2;stroke-miterlimit:4;stroke-dasharray:none"><path
         d="M 704.12988,857 V 842.12"
         style="fill:none;stroke:#262626;stroke-width:2;stroke-linecap:square;stroke-linejoin:round;stroke-miterlimit:4;stroke-dasharray:none;stroke-opacity:1"
         id="path4874" /></g><g
       id="g4876"
       transform="matrix(0,0.75,0.75,0,-51.487486,-298.94487)"
       style="stroke-width:2;stroke-miterlimit:4;stroke-dasharray:none"><path
         d="M 897.37665,857 V 842.12"
         style="fill:none;stroke:#262626;stroke-width:2;stroke-linecap:square;stroke-linejoin:round;stroke-miterlimit:4;stroke-dasharray:none;stroke-opacity:1"
         id="path4878" /></g><g
       id="g4880"
       transform="matrix(0,0.75,0.75,0,-51.487486,-298.94487)"
       style="stroke-width:2;stroke-miterlimit:4;stroke-dasharray:none"><path
         d="M 1090.6234,857 V 842.12"
         style="fill:none;stroke:#262626;stroke-width:2;stroke-linecap:square;stroke-linejoin:round;stroke-miterlimit:4;stroke-dasharray:none;stroke-opacity:1"
         id="path4882" /></g><g
       id="g4884"
       transform="matrix(0,0.75,0.75,0,-51.487486,-298.94487)"
       style="stroke-width:2;stroke-miterlimit:4;stroke-dasharray:none"><path
         d="M 1283.8701,857 V 842.12"
         style="fill:none;stroke:#262626;stroke-width:2;stroke-linecap:square;stroke-linejoin:round;stroke-miterlimit:4;stroke-dasharray:none;stroke-opacity:1"
         id="path4886" /></g><g
       id="g4888"
       transform="matrix(0,0.75,0.75,0,-51.487486,-298.94487)"
       style="stroke-width:2;stroke-miterlimit:4;stroke-dasharray:none"><path
         d="M 1477.1169,857 V 842.12"
         style="fill:none;stroke:#262626;stroke-width:2;stroke-linecap:square;stroke-linejoin:round;stroke-miterlimit:4;stroke-dasharray:none;stroke-opacity:1"
         id="path4890" /></g><g
       id="g4892"
       transform="matrix(0,0.75,0.75,0,-51.487486,-298.94487)"
       style="stroke-width:2;stroke-miterlimit:4;stroke-dasharray:none"><path
         d="M 1670.3636,857 V 842.12"
         style="fill:none;stroke:#262626;stroke-width:2;stroke-linecap:square;stroke-linejoin:round;stroke-miterlimit:4;stroke-dasharray:none;stroke-opacity:1"
         id="path4894" /></g><text
       transform="matrix(0,1,1,0,0,0)"
       style="font-style:normal;font-variant:normal;font-weight:normal;font-stretch:normal;font-size:18px;font-family:'Times New Roman';-inkscape-font-specification:'Times New Roman, Normal';font-variant-ligatures:normal;font-variant-caps:normal;font-variant-numeric:normal;font-variant-east-asian:normal;writing-mode:lr-tb;fill:#262626;fill-opacity:1;fill-rule:nonzero;stroke:none;stroke-width:0.75"
       id="text4934"
       x="-65.24852"
       y="607.26282"><tspan
         x="-65.24852"
         y="607.26282"
         id="tspan4932"
         style="font-style:normal;font-variant:normal;font-weight:normal;font-stretch:normal;font-size:18px;font-family:'Times New Roman';-inkscape-font-specification:'Times New Roman, Normal';font-variant-ligatures:normal;font-variant-caps:normal;font-variant-numeric:normal;font-variant-east-asian:normal;stroke-width:0.75">0</tspan></text><text
       transform="matrix(0,1,1,0,0,0)"
       style="font-style:normal;font-variant:normal;font-weight:normal;font-stretch:normal;font-size:18px;font-family:'Times New Roman';-inkscape-font-specification:'Times New Roman, Normal';font-variant-ligatures:normal;font-variant-caps:normal;font-variant-numeric:normal;font-variant-east-asian:normal;writing-mode:lr-tb;fill:#262626;fill-opacity:1;fill-rule:nonzero;stroke:none;stroke-width:0.75"
       id="text4942"
       x="79.686554"
       y="607.26282"><tspan
         x="79.686554"
         y="607.26282"
         id="tspan4940"
         style="font-style:normal;font-variant:normal;font-weight:normal;font-stretch:normal;font-size:18px;font-family:'Times New Roman';-inkscape-font-specification:'Times New Roman, Normal';font-variant-ligatures:normal;font-variant-caps:normal;font-variant-numeric:normal;font-variant-east-asian:normal;stroke-width:0.75">5</tspan></text><g
       id="g5000"
       transform="matrix(0,0.75,0.75,0,-63.48721,-298.94487)"
       style="stroke-width:2.00000005;stroke-miterlimit:4;stroke-dasharray:none"><path
         d="M 250,857 V 72.000023"
         style="fill:none;stroke:#262626;stroke-width:2.00000005;stroke-linecap:square;stroke-linejoin:round;stroke-miterlimit:4;stroke-dasharray:none;stroke-opacity:1"
         id="path5002" /></g><g
       id="g5008"
       transform="matrix(0,0.75,0.75,0,-63.48721,-311.69498)"
       style="stroke-width:2;stroke-miterlimit:4;stroke-dasharray:none"><path
         d="m 250,766.4231 h 14.88"
         style="fill:none;stroke:#262626;stroke-width:2;stroke-linecap:square;stroke-linejoin:round;stroke-miterlimit:4;stroke-dasharray:none;stroke-opacity:1"
         id="path5010" /></g><g
       id="g5012"
       transform="matrix(0,0.75,0.75,0,-63.48721,-311.69498)"
       style="stroke-width:2;stroke-miterlimit:4;stroke-dasharray:none"><path
         d="m 250,656.63287 h 14.88"
         style="fill:none;stroke:#262626;stroke-width:2;stroke-linecap:square;stroke-linejoin:round;stroke-miterlimit:4;stroke-dasharray:none;stroke-opacity:1"
         id="path5014" /></g><g
       id="g5016"
       transform="matrix(0,0.75,0.75,0,-63.48721,-311.69498)"
       style="stroke-width:2;stroke-miterlimit:4;stroke-dasharray:none"><path
         d="m 250,546.84265 h 14.88"
         style="fill:none;stroke:#262626;stroke-width:2;stroke-linecap:square;stroke-linejoin:round;stroke-miterlimit:4;stroke-dasharray:none;stroke-opacity:1"
         id="path5018" /></g><g
       id="g5020"
       transform="matrix(0,0.75,0.75,0,-63.48721,-311.69498)"
       style="stroke-width:2;stroke-miterlimit:4;stroke-dasharray:none"><path
         d="m 250,437.05246 h 14.88"
         style="fill:none;stroke:#262626;stroke-width:2;stroke-linecap:square;stroke-linejoin:round;stroke-miterlimit:4;stroke-dasharray:none;stroke-opacity:1"
         id="path5022" /></g><g
       id="g5024"
       transform="matrix(0,0.75,0.75,0,-63.48721,-311.69498)"
       style="stroke-width:2;stroke-miterlimit:4;stroke-dasharray:none"><path
         d="m 250,327.26224 h 14.88"
         style="fill:none;stroke:#262626;stroke-width:2;stroke-linecap:square;stroke-linejoin:round;stroke-miterlimit:4;stroke-dasharray:none;stroke-opacity:1"
         id="path5026" /></g><g
       id="g5028"
       transform="matrix(0,0.75,0.75,0,-63.48721,-311.69498)"
       style="stroke-width:2;stroke-miterlimit:4;stroke-dasharray:none"><path
         d="m 250,217.47203 h 14.88"
         style="fill:none;stroke:#262626;stroke-width:2;stroke-linecap:square;stroke-linejoin:round;stroke-miterlimit:4;stroke-dasharray:none;stroke-opacity:1"
         id="path5030" /></g><g
       id="g5032"
       transform="matrix(0,0.75,0.75,0,-63.48721,-311.69498)"
       style="stroke-width:2;stroke-miterlimit:4;stroke-dasharray:none"><path
         d="m 250,107.68182 h 14.88"
         style="fill:none;stroke:#262626;stroke-width:2;stroke-linecap:square;stroke-linejoin:round;stroke-miterlimit:4;stroke-dasharray:none;stroke-opacity:1"
         id="path5034" /></g><text
       transform="matrix(0,1,1,0,0,0)"
       style="font-style:normal;font-variant:normal;font-weight:normal;font-stretch:normal;font-size:18px;font-family:'Times New Roman';-inkscape-font-specification:'Times New Roman, Normal';font-variant-ligatures:normal;font-variant-caps:normal;font-variant-numeric:normal;font-variant-east-asian:normal;writing-mode:lr-tb;fill:#262626;fill-opacity:1;fill-rule:nonzero;stroke:none;stroke-width:0.75"
       id="text5070"
       x="-139.4447"
       y="516.20508"><tspan
         x="-139.4447"
         y="516.20508"
         id="tspan5068"
         style="font-style:normal;font-variant:normal;font-weight:normal;font-stretch:normal;font-size:18px;font-family:'Times New Roman';-inkscape-font-specification:'Times New Roman, Normal';font-variant-ligatures:normal;font-variant-caps:normal;font-variant-numeric:normal;font-variant-east-asian:normal;stroke-width:0.75">2</tspan></text><text
       transform="matrix(0,1,1,0,0,0)"
       style="font-style:normal;font-variant:normal;font-weight:normal;font-stretch:normal;font-size:18px;font-family:'Times New Roman';-inkscape-font-specification:'Times New Roman, Normal';font-variant-ligatures:normal;font-variant-caps:normal;font-variant-numeric:normal;font-variant-east-asian:normal;writing-mode:lr-tb;fill:#262626;fill-opacity:1;fill-rule:nonzero;stroke:none;stroke-width:0.75"
       id="text5078"
       x="-139.4447"
       y="433.8624"><tspan
         x="-139.4447"
         y="433.8624"
         id="tspan5076"
         style="font-style:normal;font-variant:normal;font-weight:normal;font-stretch:normal;font-size:18px;font-family:'Times New Roman';-inkscape-font-specification:'Times New Roman, Normal';font-variant-ligatures:normal;font-variant-caps:normal;font-variant-numeric:normal;font-variant-east-asian:normal;stroke-width:0.75">4</tspan></text><text
       transform="matrix(0,1,1,0,0,0)"
       style="font-style:normal;font-variant:normal;font-weight:normal;font-stretch:normal;font-size:18px;font-family:'Times New Roman';-inkscape-font-specification:'Times New Roman, Normal';font-variant-ligatures:normal;font-variant-caps:normal;font-variant-numeric:normal;font-variant-east-asian:normal;writing-mode:lr-tb;fill:#262626;fill-opacity:1;fill-rule:nonzero;stroke:none;stroke-width:0.75"
       id="text5086"
       x="-139.4447"
       y="351.51971"><tspan
         x="-139.4447"
         y="351.51971"
         id="tspan5084"
         style="font-style:normal;font-variant:normal;font-weight:normal;font-stretch:normal;font-size:18px;font-family:'Times New Roman';-inkscape-font-specification:'Times New Roman, Normal';font-variant-ligatures:normal;font-variant-caps:normal;font-variant-numeric:normal;font-variant-east-asian:normal;stroke-width:0.75">6</tspan></text><text
       transform="matrix(0,1,1,0,0,0)"
       style="font-style:normal;font-variant:normal;font-weight:normal;font-stretch:normal;font-size:18px;font-family:'Times New Roman';-inkscape-font-specification:'Times New Roman, Normal';font-variant-ligatures:normal;font-variant-caps:normal;font-variant-numeric:normal;font-variant-east-asian:normal;writing-mode:lr-tb;fill:#262626;fill-opacity:1;fill-rule:nonzero;stroke:none;stroke-width:0.75"
       id="text5094"
       x="-139.4447"
       y="269.17706"><tspan
         x="-139.4447"
         y="269.17706"
         id="tspan5092"
         style="font-style:normal;font-variant:normal;font-weight:normal;font-stretch:normal;font-size:18px;font-family:'Times New Roman';-inkscape-font-specification:'Times New Roman, Normal';font-variant-ligatures:normal;font-variant-caps:normal;font-variant-numeric:normal;font-variant-east-asian:normal;stroke-width:0.75">8</tspan></text><g
       id="g5128"
       transform="matrix(0,0.75,0.75,0,552.50142,-60.71761)"><path
         d="M 2,0 C 2,-1.1045695 1.1045695,-2 0,-2 -1.1045695,-2 -2,-1.1045695 -2,0 -2,1.1045695 -1.1045695,2 0,2 1.1045695,2 2,1.1045695 2,0 Z"
         style="fill:#fcb763;fill-opacity:1;fill-rule:nonzero;stroke:#fcb763;stroke-opacity:1"
         id="path5130" /></g><g
       id="g5132"
       transform="matrix(0,0.75,0.75,0,552.50142,-60.71761)"><path
         d="m 0,-1.6666667 c 0.92047458,0 1.6666667,0.74619212 1.6666667,1.6666667 V 0 C 1.6666667,0.92047458 0.92047458,1.6666667 0,1.6666667 -0.92047458,1.6666667 -1.6666667,0.92047458 -1.6666667,0 c 0,-0.92047458 0.74619212,-1.6666667 1.6666667,-1.6666667 z m 0,-0.6666666 c -1.2886644,0 -2.3333333,1.0446689 -2.3333333,2.3333333 0,1.2886644 1.0446689,2.3333333 2.3333333,2.3333333 C 1.2886644,2.3333333 2.3333333,1.2886644 2.3333333,0 V 0 C 2.3333333,-1.2886644 1.2886644,-2.3333333 0,-2.3333333 Z"
         style="fill:#fcb763;fill-opacity:1;fill-rule:nonzero;stroke:#fcb763;stroke-opacity:1"
         id="path5134" /></g><g
       id="g5136"
       transform="matrix(0,0.75,0.75,0,552.50142,-31.730598)"><path
         d="M 2,0 C 2,-1.1045695 1.1045695,-2 0,-2 -1.1045695,-2 -2,-1.1045695 -2,0 -2,1.1045695 -1.1045695,2 0,2 1.1045695,2 2,1.1045695 2,0 Z"
         style="fill:#fcb763;fill-opacity:1;fill-rule:nonzero;stroke:#fcb763;stroke-opacity:1"
         id="path5138" /></g><g
       id="g5140"
       transform="matrix(0,0.75,0.75,0,552.50142,-31.730598)"><path
         d="m 0,-1.6666667 c 0.92047458,0 1.6666667,0.74619212 1.6666667,1.6666667 V 0 C 1.6666667,0.92047458 0.92047458,1.6666667 0,1.6666667 -0.92047458,1.6666667 -1.6666667,0.92047458 -1.6666667,0 c 0,-0.92047458 0.74619212,-1.6666667 1.6666667,-1.6666667 z m 0,-0.6666666 c -1.2886644,0 -2.3333333,1.0446689 -2.3333333,2.3333333 0,1.2886644 1.0446689,2.3333333 2.3333333,2.3333333 C 1.2886644,2.3333333 2.3333333,1.2886644 2.3333333,0 V 0 C 2.3333333,-1.2886644 1.2886644,-2.3333333 0,-2.3333333 Z"
         style="fill:#fcb763;fill-opacity:1;fill-rule:nonzero;stroke:#fcb763;stroke-opacity:1"
         id="path5142" /></g><g
       id="g5144"
       transform="matrix(0,0.75,0.75,0,552.50142,-2.743585)"><path
         d="M 2,0 C 2,-1.1045695 1.1045695,-2 0,-2 -1.1045695,-2 -2,-1.1045695 -2,0 -2,1.1045695 -1.1045695,2 0,2 1.1045695,2 2,1.1045695 2,0 Z"
         style="fill:#fcb763;fill-opacity:1;fill-rule:nonzero;stroke:#fcb763;stroke-opacity:1"
         id="path5146" /></g><g
       id="g5148"
       transform="matrix(0,0.75,0.75,0,552.50142,-2.743585)"><path
         d="m 0,-1.6666667 c 0.92047458,0 1.6666667,0.74619212 1.6666667,1.6666667 V 0 C 1.6666667,0.92047458 0.92047458,1.6666667 0,1.6666667 -0.92047458,1.6666667 -1.6666667,0.92047458 -1.6666667,0 c 0,-0.92047458 0.74619212,-1.6666667 1.6666667,-1.6666667 z m 0,-0.6666666 c -1.2886644,0 -2.3333333,1.0446689 -2.3333333,2.3333333 0,1.2886644 1.0446689,2.3333333 2.3333333,2.3333333 C 1.2886644,2.3333333 2.3333333,1.2886644 2.3333333,0 V 0 C 2.3333333,-1.2886644 1.2886644,-2.3333333 0,-2.3333333 Z"
         style="fill:#fcb763;fill-opacity:1;fill-rule:nonzero;stroke:#fcb763;stroke-opacity:1"
         id="path5150" /></g><g
       id="g5152"
       transform="matrix(0,0.75,0.75,0,552.50142,26.243435)"><path
         d="M 2,0 C 2,-1.1045695 1.1045695,-2 0,-2 -1.1045695,-2 -2,-1.1045695 -2,0 -2,1.1045695 -1.1045695,2 0,2 1.1045695,2 2,1.1045695 2,0 Z"
         style="fill:#fcb763;fill-opacity:1;fill-rule:nonzero;stroke:#fcb763;stroke-opacity:1"
         id="path5154" /></g><g
       id="g5156"
       transform="matrix(0,0.75,0.75,0,552.50142,26.243435)"><path
         d="m 0,-1.6666667 c 0.92047458,0 1.6666667,0.74619212 1.6666667,1.6666667 V 0 C 1.6666667,0.92047458 0.92047458,1.6666667 0,1.6666667 -0.92047458,1.6666667 -1.6666667,0.92047458 -1.6666667,0 c 0,-0.92047458 0.74619212,-1.6666667 1.6666667,-1.6666667 z m 0,-0.6666666 c -1.2886644,0 -2.3333333,1.0446689 -2.3333333,2.3333333 0,1.2886644 1.0446689,2.3333333 2.3333333,2.3333333 C 1.2886644,2.3333333 2.3333333,1.2886644 2.3333333,0 V 0 C 2.3333333,-1.2886644 1.2886644,-2.3333333 0,-2.3333333 Z"
         style="fill:#fcb763;fill-opacity:1;fill-rule:nonzero;stroke:#fcb763;stroke-opacity:1"
         id="path5158" /></g><g
       id="g5160"
       transform="matrix(0,0.75,0.75,0,552.50142,55.23045)"><path
         d="M 2,0 C 2,-1.1045695 1.1045695,-2 0,-2 -1.1045695,-2 -2,-1.1045695 -2,0 -2,1.1045695 -1.1045695,2 0,2 1.1045695,2 2,1.1045695 2,0 Z"
         style="fill:#fcb763;fill-opacity:1;fill-rule:nonzero;stroke:#fcb763;stroke-opacity:1"
         id="path5162" /></g><g
       id="g5164"
       transform="matrix(0,0.75,0.75,0,552.50142,55.23045)"><path
         d="m 0,-1.6666667 c 0.92047458,0 1.6666667,0.74619212 1.6666667,1.6666667 V 0 C 1.6666667,0.92047458 0.92047458,1.6666667 0,1.6666667 -0.92047458,1.6666667 -1.6666667,0.92047458 -1.6666667,0 c 0,-0.92047458 0.74619212,-1.6666667 1.6666667,-1.6666667 z m 0,-0.6666666 c -1.2886644,0 -2.3333333,1.0446689 -2.3333333,2.3333333 0,1.2886644 1.0446689,2.3333333 2.3333333,2.3333333 C 1.2886644,2.3333333 2.3333333,1.2886644 2.3333333,0 V 0 C 2.3333333,-1.2886644 1.2886644,-2.3333333 0,-2.3333333 Z"
         style="fill:#fcb763;fill-opacity:1;fill-rule:nonzero;stroke:#fcb763;stroke-opacity:1"
         id="path5166" /></g><g
       id="g5168"
       transform="matrix(0,0.75,0.75,0,552.50142,84.217465)"><path
         d="M 2,0 C 2,-1.1045695 1.1045695,-2 0,-2 -1.1045695,-2 -2,-1.1045695 -2,0 -2,1.1045695 -1.1045695,2 0,2 1.1045695,2 2,1.1045695 2,0 Z"
         style="fill:#fcb763;fill-opacity:1;fill-rule:nonzero;stroke:#fcb763;stroke-opacity:1"
         id="path5170" /></g><g
       id="g5172"
       transform="matrix(0,0.75,0.75,0,552.50142,84.217465)"><path
         d="m 0,-1.6666667 c 0.92047458,0 1.6666667,0.74619212 1.6666667,1.6666667 V 0 C 1.6666667,0.92047458 0.92047458,1.6666667 0,1.6666667 -0.92047458,1.6666667 -1.6666667,0.92047458 -1.6666667,0 c 0,-0.92047458 0.74619212,-1.6666667 1.6666667,-1.6666667 z m 0,-0.6666666 c -1.2886644,0 -2.3333333,1.0446689 -2.3333333,2.3333333 0,1.2886644 1.0446689,2.3333333 2.3333333,2.3333333 C 1.2886644,2.3333333 2.3333333,1.2886644 2.3333333,0 V 0 C 2.3333333,-1.2886644 1.2886644,-2.3333333 0,-2.3333333 Z"
         style="fill:#fcb763;fill-opacity:1;fill-rule:nonzero;stroke:#fcb763;stroke-opacity:1"
         id="path5174" /></g><g
       id="g5176"
       transform="matrix(0,0.75,0.75,0,511.33011,113.20448)"><path
         d="M 2,0 C 2,-1.1045695 1.1045695,-2 0,-2 -1.1045695,-2 -2,-1.1045695 -2,0 -2,1.1045695 -1.1045695,2 0,2 1.1045695,2 2,1.1045695 2,0 Z"
         style="fill:#fcb763;fill-opacity:1;fill-rule:nonzero;stroke:#fcb763;stroke-opacity:1"
         id="path5178" /></g><g
       id="g5180"
       transform="matrix(0,0.75,0.75,0,511.33011,113.20448)"><path
         d="m 0,-1.6666667 c 0.92047458,0 1.6666667,0.74619212 1.6666667,1.6666667 V 0 C 1.6666667,0.92047458 0.92047458,1.6666667 0,1.6666667 -0.92047458,1.6666667 -1.6666667,0.92047458 -1.6666667,0 c 0,-0.92047458 0.74619212,-1.6666667 1.6666667,-1.6666667 z m 0,-0.6666666 c -1.2886644,0 -2.3333333,1.0446689 -2.3333333,2.3333333 0,1.2886644 1.0446689,2.3333333 2.3333333,2.3333333 C 1.2886644,2.3333333 2.3333333,1.2886644 2.3333333,0 V 0 C 2.3333333,-1.2886644 1.2886644,-2.3333333 0,-2.3333333 Z"
         style="fill:#fcb763;fill-opacity:1;fill-rule:nonzero;stroke:#fcb763;stroke-opacity:1"
         id="path5182" /></g><g
       id="g5184"
       transform="matrix(0,0.75,0.75,0,511.33011,142.19149)"><path
         d="M 2,0 C 2,-1.1045695 1.1045695,-2 0,-2 -1.1045695,-2 -2,-1.1045695 -2,0 -2,1.1045695 -1.1045695,2 0,2 1.1045695,2 2,1.1045695 2,0 Z"
         style="fill:#fcb763;fill-opacity:1;fill-rule:nonzero;stroke:#fcb763;stroke-opacity:1"
         id="path5186" /></g><g
       id="g5188"
       transform="matrix(0,0.75,0.75,0,511.33011,142.19149)"><path
         d="m 0,-1.6666667 c 0.92047458,0 1.6666667,0.74619212 1.6666667,1.6666667 V 0 C 1.6666667,0.92047458 0.92047458,1.6666667 0,1.6666667 -0.92047458,1.6666667 -1.6666667,0.92047458 -1.6666667,0 c 0,-0.92047458 0.74619212,-1.6666667 1.6666667,-1.6666667 z m 0,-0.6666666 c -1.2886644,0 -2.3333333,1.0446689 -2.3333333,2.3333333 0,1.2886644 1.0446689,2.3333333 2.3333333,2.3333333 C 1.2886644,2.3333333 2.3333333,1.2886644 2.3333333,0 V 0 C 2.3333333,-1.2886644 1.2886644,-2.3333333 0,-2.3333333 Z"
         style="fill:#fcb763;fill-opacity:1;fill-rule:nonzero;stroke:#fcb763;stroke-opacity:1"
         id="path5190" /></g><g
       id="g5192"
       transform="matrix(0,0.75,0.75,0,470.15876,171.17851)"><path
         d="M 2,0 C 2,-1.1045695 1.1045695,-2 0,-2 -1.1045695,-2 -2,-1.1045695 -2,0 -2,1.1045695 -1.1045695,2 0,2 1.1045695,2 2,1.1045695 2,0 Z"
         style="fill:#fcb763;fill-opacity:1;fill-rule:nonzero;stroke:#fcb763;stroke-opacity:1"
         id="path5194" /></g><g
       id="g5196"
       transform="matrix(0,0.75,0.75,0,470.15876,171.17851)"><path
         d="m 0,-1.6666667 c 0.92047458,0 1.6666667,0.74619212 1.6666667,1.6666667 V 0 C 1.6666667,0.92047458 0.92047458,1.6666667 0,1.6666667 -0.92047458,1.6666667 -1.6666667,0.92047458 -1.6666667,0 c 0,-0.92047458 0.74619212,-1.6666667 1.6666667,-1.6666667 z m 0,-0.6666666 c -1.2886644,0 -2.3333333,1.0446689 -2.3333333,2.3333333 0,1.2886644 1.0446689,2.3333333 2.3333333,2.3333333 C 1.2886644,2.3333333 2.3333333,1.2886644 2.3333333,0 V 0 C 2.3333333,-1.2886644 1.2886644,-2.3333333 0,-2.3333333 Z"
         style="fill:#fcb763;fill-opacity:1;fill-rule:nonzero;stroke:#fcb763;stroke-opacity:1"
         id="path5198" /></g><g
       id="g5200"
       transform="matrix(0,0.75,0.75,0,470.15876,200.16552)"><path
         d="M 2,0 C 2,-1.1045695 1.1045695,-2 0,-2 -1.1045695,-2 -2,-1.1045695 -2,0 -2,1.1045695 -1.1045695,2 0,2 1.1045695,2 2,1.1045695 2,0 Z"
         style="fill:#fcb763;fill-opacity:1;fill-rule:nonzero;stroke:#fcb763;stroke-opacity:1"
         id="path5202" /></g><g
       id="g5204"
       transform="matrix(0,0.75,0.75,0,470.15876,200.16552)"><path
         d="m 0,-1.6666667 c 0.92047458,0 1.6666667,0.74619212 1.6666667,1.6666667 V 0 C 1.6666667,0.92047458 0.92047458,1.6666667 0,1.6666667 -0.92047458,1.6666667 -1.6666667,0.92047458 -1.6666667,0 c 0,-0.92047458 0.74619212,-1.6666667 1.6666667,-1.6666667 z m 0,-0.6666666 c -1.2886644,0 -2.3333333,1.0446689 -2.3333333,2.3333333 0,1.2886644 1.0446689,2.3333333 2.3333333,2.3333333 C 1.2886644,2.3333333 2.3333333,1.2886644 2.3333333,0 V 0 C 2.3333333,-1.2886644 1.2886644,-2.3333333 0,-2.3333333 Z"
         style="fill:#fcb763;fill-opacity:1;fill-rule:nonzero;stroke:#fcb763;stroke-opacity:1"
         id="path5206" /></g><g
       id="g5208"
       transform="matrix(0,0.75,0.75,0,428.98745,229.15254)"><path
         d="M 2,0 C 2,-1.1045695 1.1045695,-2 0,-2 -1.1045695,-2 -2,-1.1045695 -2,0 -2,1.1045695 -1.1045695,2 0,2 1.1045695,2 2,1.1045695 2,0 Z"
         style="fill:#fcb763;fill-opacity:1;fill-rule:nonzero;stroke:#fcb763;stroke-opacity:1"
         id="path5210" /></g><g
       id="g5212"
       transform="matrix(0,0.75,0.75,0,428.98745,229.15254)"><path
         d="m 0,-1.6666667 c 0.92047458,0 1.6666667,0.74619212 1.6666667,1.6666667 V 0 C 1.6666667,0.92047458 0.92047458,1.6666667 0,1.6666667 -0.92047458,1.6666667 -1.6666667,0.92047458 -1.6666667,0 c 0,-0.92047458 0.74619212,-1.6666667 1.6666667,-1.6666667 z m 0,-0.6666666 c -1.2886644,0 -2.3333333,1.0446689 -2.3333333,2.3333333 0,1.2886644 1.0446689,2.3333333 2.3333333,2.3333333 C 1.2886644,2.3333333 2.3333333,1.2886644 2.3333333,0 V 0 C 2.3333333,-1.2886644 1.2886644,-2.3333333 0,-2.3333333 Z"
         style="fill:#fcb763;fill-opacity:1;fill-rule:nonzero;stroke:#fcb763;stroke-opacity:1"
         id="path5214" /></g><g
       id="g5216"
       transform="matrix(0,0.75,0.75,0,428.98745,258.13955)"><path
         d="M 2,0 C 2,-1.1045695 1.1045695,-2 0,-2 -1.1045695,-2 -2,-1.1045695 -2,0 -2,1.1045695 -1.1045695,2 0,2 1.1045695,2 2,1.1045695 2,0 Z"
         style="fill:#fcb763;fill-opacity:1;fill-rule:nonzero;stroke:#fcb763;stroke-opacity:1"
         id="path5218" /></g><g
       id="g5220"
       transform="matrix(0,0.75,0.75,0,428.98745,258.13955)"><path
         d="m 0,-1.6666667 c 0.92047458,0 1.6666667,0.74619212 1.6666667,1.6666667 V 0 C 1.6666667,0.92047458 0.92047458,1.6666667 0,1.6666667 -0.92047458,1.6666667 -1.6666667,0.92047458 -1.6666667,0 c 0,-0.92047458 0.74619212,-1.6666667 1.6666667,-1.6666667 z m 0,-0.6666666 c -1.2886644,0 -2.3333333,1.0446689 -2.3333333,2.3333333 0,1.2886644 1.0446689,2.3333333 2.3333333,2.3333333 C 1.2886644,2.3333333 2.3333333,1.2886644 2.3333333,0 V 0 C 2.3333333,-1.2886644 1.2886644,-2.3333333 0,-2.3333333 Z"
         style="fill:#fcb763;fill-opacity:1;fill-rule:nonzero;stroke:#fcb763;stroke-opacity:1"
         id="path5222" /></g><g
       id="g5224"
       transform="matrix(0,0.75,0.75,0,428.98745,287.12657)"><path
         d="M 2,0 C 2,-1.1045695 1.1045695,-2 0,-2 -1.1045695,-2 -2,-1.1045695 -2,0 -2,1.1045695 -1.1045695,2 0,2 1.1045695,2 2,1.1045695 2,0 Z"
         style="fill:#fcb763;fill-opacity:1;fill-rule:nonzero;stroke:#fcb763;stroke-opacity:1"
         id="path5226" /></g><g
       id="g5228"
       transform="matrix(0,0.75,0.75,0,428.98745,287.12657)"><path
         d="m 0,-1.6666667 c 0.92047458,0 1.6666667,0.74619212 1.6666667,1.6666667 V 0 C 1.6666667,0.92047458 0.92047458,1.6666667 0,1.6666667 -0.92047458,1.6666667 -1.6666667,0.92047458 -1.6666667,0 c 0,-0.92047458 0.74619212,-1.6666667 1.6666667,-1.6666667 z m 0,-0.6666666 c -1.2886644,0 -2.3333333,1.0446689 -2.3333333,2.3333333 0,1.2886644 1.0446689,2.3333333 2.3333333,2.3333333 C 1.2886644,2.3333333 2.3333333,1.2886644 2.3333333,0 V 0 C 2.3333333,-1.2886644 1.2886644,-2.3333333 0,-2.3333333 Z"
         style="fill:#fcb763;fill-opacity:1;fill-rule:nonzero;stroke:#fcb763;stroke-opacity:1"
         id="path5230" /></g><g
       id="g5232"
       transform="matrix(0,0.75,0.75,0,387.8161,316.11358)"><path
         d="M 2,0 C 2,-1.1045695 1.1045695,-2 0,-2 -1.1045695,-2 -2,-1.1045695 -2,0 -2,1.1045695 -1.1045695,2 0,2 1.1045695,2 2,1.1045695 2,0 Z"
         style="fill:#fcb763;fill-opacity:1;fill-rule:nonzero;stroke:#fcb763;stroke-opacity:1"
         id="path5234" /></g><g
       id="g5236"
       transform="matrix(0,0.75,0.75,0,387.8161,316.11358)"><path
         d="m 0,-1.6666667 c 0.92047458,0 1.6666667,0.74619212 1.6666667,1.6666667 V 0 C 1.6666667,0.92047458 0.92047458,1.6666667 0,1.6666667 -0.92047458,1.6666667 -1.6666667,0.92047458 -1.6666667,0 c 0,-0.92047458 0.74619212,-1.6666667 1.6666667,-1.6666667 z m 0,-0.6666666 c -1.2886644,0 -2.3333333,1.0446689 -2.3333333,2.3333333 0,1.2886644 1.0446689,2.3333333 2.3333333,2.3333333 C 1.2886644,2.3333333 2.3333333,1.2886644 2.3333333,0 V 0 C 2.3333333,-1.2886644 1.2886644,-2.3333333 0,-2.3333333 Z"
         style="fill:#fcb763;fill-opacity:1;fill-rule:nonzero;stroke:#fcb763;stroke-opacity:1"
         id="path5238" /></g><g
       id="g5240"
       transform="matrix(0,0.75,0.75,0,387.8161,345.1006)"><path
         d="M 2,0 C 2,-1.1045695 1.1045695,-2 0,-2 -1.1045695,-2 -2,-1.1045695 -2,0 -2,1.1045695 -1.1045695,2 0,2 1.1045695,2 2,1.1045695 2,0 Z"
         style="fill:#fcb763;fill-opacity:1;fill-rule:nonzero;stroke:#fcb763;stroke-opacity:1"
         id="path5242" /></g><g
       id="g5244"
       transform="matrix(0,0.75,0.75,0,387.8161,345.1006)"><path
         d="m 0,-1.6666667 c 0.92047458,0 1.6666667,0.74619212 1.6666667,1.6666667 V 0 C 1.6666667,0.92047458 0.92047458,1.6666667 0,1.6666667 -0.92047458,1.6666667 -1.6666667,0.92047458 -1.6666667,0 c 0,-0.92047458 0.74619212,-1.6666667 1.6666667,-1.6666667 z m 0,-0.6666666 c -1.2886644,0 -2.3333333,1.0446689 -2.3333333,2.3333333 0,1.2886644 1.0446689,2.3333333 2.3333333,2.3333333 C 1.2886644,2.3333333 2.3333333,1.2886644 2.3333333,0 V 0 C 2.3333333,-1.2886644 1.2886644,-2.3333333 0,-2.3333333 Z"
         style="fill:#fcb763;fill-opacity:1;fill-rule:nonzero;stroke:#fcb763;stroke-opacity:1"
         id="path5246" /></g><g
       id="g5248"
       transform="matrix(0,0.75,0.75,0,387.8161,374.08762)"><path
         d="M 2,0 C 2,-1.1045695 1.1045695,-2 0,-2 -1.1045695,-2 -2,-1.1045695 -2,0 -2,1.1045695 -1.1045695,2 0,2 1.1045695,2 2,1.1045695 2,0 Z"
         style="fill:#fcb763;fill-opacity:1;fill-rule:nonzero;stroke:#fcb763;stroke-opacity:1"
         id="path5250" /></g><g
       id="g5252"
       transform="matrix(0,0.75,0.75,0,387.8161,374.08762)"><path
         d="m 0,-1.6666667 c 0.92047458,0 1.6666667,0.74619212 1.6666667,1.6666667 V 0 C 1.6666667,0.92047458 0.92047458,1.6666667 0,1.6666667 -0.92047458,1.6666667 -1.6666667,0.92047458 -1.6666667,0 c 0,-0.92047458 0.74619212,-1.6666667 1.6666667,-1.6666667 z m 0,-0.6666666 c -1.2886644,0 -2.3333333,1.0446689 -2.3333333,2.3333333 0,1.2886644 1.0446689,2.3333333 2.3333333,2.3333333 C 1.2886644,2.3333333 2.3333333,1.2886644 2.3333333,0 V 0 C 2.3333333,-1.2886644 1.2886644,-2.3333333 0,-2.3333333 Z"
         style="fill:#fcb763;fill-opacity:1;fill-rule:nonzero;stroke:#fcb763;stroke-opacity:1"
         id="path5254" /></g><g
       id="g5256"
       transform="matrix(0,0.75,0.75,0,387.8161,403.07463)"><path
         d="M 2,0 C 2,-1.1045695 1.1045695,-2 0,-2 -1.1045695,-2 -2,-1.1045695 -2,0 -2,1.1045695 -1.1045695,2 0,2 1.1045695,2 2,1.1045695 2,0 Z"
         style="fill:#fcb763;fill-opacity:1;fill-rule:nonzero;stroke:#fcb763;stroke-opacity:1"
         id="path5258" /></g><g
       id="g5260"
       transform="matrix(0,0.75,0.75,0,387.8161,403.07463)"><path
         d="m 0,-1.6666667 c 0.92047458,0 1.6666667,0.74619212 1.6666667,1.6666667 V 0 C 1.6666667,0.92047458 0.92047458,1.6666667 0,1.6666667 -0.92047458,1.6666667 -1.6666667,0.92047458 -1.6666667,0 c 0,-0.92047458 0.74619212,-1.6666667 1.6666667,-1.6666667 z m 0,-0.6666666 c -1.2886644,0 -2.3333333,1.0446689 -2.3333333,2.3333333 0,1.2886644 1.0446689,2.3333333 2.3333333,2.3333333 C 1.2886644,2.3333333 2.3333333,1.2886644 2.3333333,0 V 0 C 2.3333333,-1.2886644 1.2886644,-2.3333333 0,-2.3333333 Z"
         style="fill:#fcb763;fill-opacity:1;fill-rule:nonzero;stroke:#fcb763;stroke-opacity:1"
         id="path5262" /></g><g
       id="g5264"
       transform="matrix(0,0.75,0.75,0,346.64478,432.06164)"><path
         d="M 2,0 C 2,-1.1045695 1.1045695,-2 0,-2 -1.1045695,-2 -2,-1.1045695 -2,0 -2,1.1045695 -1.1045695,2 0,2 1.1045695,2 2,1.1045695 2,0 Z"
         style="fill:#fcb763;fill-opacity:1;fill-rule:nonzero;stroke:#fcb763;stroke-opacity:1"
         id="path5266" /></g><g
       id="g5268"
       transform="matrix(0,0.75,0.75,0,346.64478,432.06164)"><path
         d="m 0,-1.6666667 c 0.92047458,0 1.6666667,0.74619212 1.6666667,1.6666667 V 0 C 1.6666667,0.92047458 0.92047458,1.6666667 0,1.6666667 -0.92047458,1.6666667 -1.6666667,0.92047458 -1.6666667,0 c 0,-0.92047458 0.74619212,-1.6666667 1.6666667,-1.6666667 z m 0,-0.6666666 c -1.2886644,0 -2.3333333,1.0446689 -2.3333333,2.3333333 0,1.2886644 1.0446689,2.3333333 2.3333333,2.3333333 C 1.2886644,2.3333333 2.3333333,1.2886644 2.3333333,0 V 0 C 2.3333333,-1.2886644 1.2886644,-2.3333333 0,-2.3333333 Z"
         style="fill:#fcb763;fill-opacity:1;fill-rule:nonzero;stroke:#fcb763;stroke-opacity:1"
         id="path5270" /></g><g
       id="g5272"
       transform="matrix(0,0.75,0.75,0,264.30213,461.04862)"><path
         d="M 2,0 C 2,-1.1045695 1.1045695,-2 0,-2 -1.1045695,-2 -2,-1.1045695 -2,0 -2,1.1045695 -1.1045695,2 0,2 1.1045695,2 2,1.1045695 2,0 Z"
         style="fill:#fcb763;fill-opacity:1;fill-rule:nonzero;stroke:#fcb763;stroke-opacity:1"
         id="path5274" /></g><g
       id="g5276"
       transform="matrix(0,0.75,0.75,0,264.30213,461.04862)"><path
         d="m 0,-1.6666667 c 0.92047458,0 1.6666667,0.74619212 1.6666667,1.6666667 V 0 C 1.6666667,0.92047458 0.92047458,1.6666667 0,1.6666667 -0.92047458,1.6666667 -1.6666667,0.92047458 -1.6666667,0 c 0,-0.92047458 0.74619212,-1.6666667 1.6666667,-1.6666667 z m 0,-0.6666666 c -1.2886644,0 -2.3333333,1.0446689 -2.3333333,2.3333333 0,1.2886644 1.0446689,2.3333333 2.3333333,2.3333333 C 1.2886644,2.3333333 2.3333333,1.2886644 2.3333333,0 V 0 C 2.3333333,-1.2886644 1.2886644,-2.3333333 0,-2.3333333 Z"
         style="fill:#fcb763;fill-opacity:1;fill-rule:nonzero;stroke:#fcb763;stroke-opacity:1"
         id="path5278" /></g><g
       id="g5280"
       transform="matrix(0,0.75,0.75,0,264.30213,490.03563)"><path
         d="M 2,0 C 2,-1.1045695 1.1045695,-2 0,-2 -1.1045695,-2 -2,-1.1045695 -2,0 -2,1.1045695 -1.1045695,2 0,2 1.1045695,2 2,1.1045695 2,0 Z"
         style="fill:#fcb763;fill-opacity:1;fill-rule:nonzero;stroke:#fcb763;stroke-opacity:1"
         id="path5282" /></g><g
       id="g5284"
       transform="matrix(0,0.75,0.75,0,264.30213,490.03563)"><path
         d="m 0,-1.6666667 c 0.92047458,0 1.6666667,0.74619212 1.6666667,1.6666667 V 0 C 1.6666667,0.92047458 0.92047458,1.6666667 0,1.6666667 -0.92047458,1.6666667 -1.6666667,0.92047458 -1.6666667,0 c 0,-0.92047458 0.74619212,-1.6666667 1.6666667,-1.6666667 z m 0,-0.6666666 c -1.2886644,0 -2.3333333,1.0446689 -2.3333333,2.3333333 0,1.2886644 1.0446689,2.3333333 2.3333333,2.3333333 C 1.2886644,2.3333333 2.3333333,1.2886644 2.3333333,0 V 0 C 2.3333333,-1.2886644 1.2886644,-2.3333333 0,-2.3333333 Z"
         style="fill:#fcb763;fill-opacity:1;fill-rule:nonzero;stroke:#fcb763;stroke-opacity:1"
         id="path5286" /></g><g
       id="g5288"
       transform="matrix(0,0.75,0.75,0,264.30213,519.02269)"><path
         d="M 2,0 C 2,-1.1045695 1.1045695,-2 0,-2 -1.1045695,-2 -2,-1.1045695 -2,0 -2,1.1045695 -1.1045695,2 0,2 1.1045695,2 2,1.1045695 2,0 Z"
         style="fill:#fcb763;fill-opacity:1;fill-rule:nonzero;stroke:#fcb763;stroke-opacity:1"
         id="path5290" /></g><g
       id="g5292"
       transform="matrix(0,0.75,0.75,0,264.30213,519.02269)"><path
         d="m 0,-1.6666667 c 0.92047458,0 1.6666667,0.74619212 1.6666667,1.6666667 V 0 C 1.6666667,0.92047458 0.92047458,1.6666667 0,1.6666667 -0.92047458,1.6666667 -1.6666667,0.92047458 -1.6666667,0 c 0,-0.92047458 0.74619212,-1.6666667 1.6666667,-1.6666667 z m 0,-0.6666666 c -1.2886644,0 -2.3333333,1.0446689 -2.3333333,2.3333333 0,1.2886644 1.0446689,2.3333333 2.3333333,2.3333333 C 1.2886644,2.3333333 2.3333333,1.2886644 2.3333333,0 V 0 C 2.3333333,-1.2886644 1.2886644,-2.3333333 0,-2.3333333 Z"
         style="fill:#fcb763;fill-opacity:1;fill-rule:nonzero;stroke:#fcb763;stroke-opacity:1"
         id="path5294" /></g><g
       id="g5296"
       transform="matrix(0,0.75,0.75,0,264.30213,548.00965)"><path
         d="M 2,0 C 2,-1.1045695 1.1045695,-2 0,-2 -1.1045695,-2 -2,-1.1045695 -2,0 -2,1.1045695 -1.1045695,2 0,2 1.1045695,2 2,1.1045695 2,0 Z"
         style="fill:#fcb763;fill-opacity:1;fill-rule:nonzero;stroke:#fcb763;stroke-opacity:1"
         id="path5298" /></g><g
       id="g5300"
       transform="matrix(0,0.75,0.75,0,264.30213,548.00965)"><path
         d="m 0,-1.6666667 c 0.92047458,0 1.6666667,0.74619212 1.6666667,1.6666667 V 0 C 1.6666667,0.92047458 0.92047458,1.6666667 0,1.6666667 -0.92047458,1.6666667 -1.6666667,0.92047458 -1.6666667,0 c 0,-0.92047458 0.74619212,-1.6666667 1.6666667,-1.6666667 z m 0,-0.6666666 c -1.2886644,0 -2.3333333,1.0446689 -2.3333333,2.3333333 0,1.2886644 1.0446689,2.3333333 2.3333333,2.3333333 C 1.2886644,2.3333333 2.3333333,1.2886644 2.3333333,0 V 0 C 2.3333333,-1.2886644 1.2886644,-2.3333333 0,-2.3333333 Z"
         style="fill:#fcb763;fill-opacity:1;fill-rule:nonzero;stroke:#fcb763;stroke-opacity:1"
         id="path5302" /></g><g
       id="g5304"
       transform="matrix(0,0.75,0.75,0,264.30213,576.99671)"><path
         d="M 2,0 C 2,-1.1045695 1.1045695,-2 0,-2 -1.1045695,-2 -2,-1.1045695 -2,0 -2,1.1045695 -1.1045695,2 0,2 1.1045695,2 2,1.1045695 2,0 Z"
         style="fill:#fcb763;fill-opacity:1;fill-rule:nonzero;stroke:#fcb763;stroke-opacity:1"
         id="path5306" /></g><g
       id="g5308"
       transform="matrix(0,0.75,0.75,0,264.30213,576.99671)"><path
         d="m 0,-1.6666667 c 0.92047458,0 1.6666667,0.74619212 1.6666667,1.6666667 V 0 C 1.6666667,0.92047458 0.92047458,1.6666667 0,1.6666667 -0.92047458,1.6666667 -1.6666667,0.92047458 -1.6666667,0 c 0,-0.92047458 0.74619212,-1.6666667 1.6666667,-1.6666667 z m 0,-0.6666666 c -1.2886644,0 -2.3333333,1.0446689 -2.3333333,2.3333333 0,1.2886644 1.0446689,2.3333333 2.3333333,2.3333333 C 1.2886644,2.3333333 2.3333333,1.2886644 2.3333333,0 V 0 C 2.3333333,-1.2886644 1.2886644,-2.3333333 0,-2.3333333 Z"
         style="fill:#fcb763;fill-opacity:1;fill-rule:nonzero;stroke:#fcb763;stroke-opacity:1"
         id="path5310" /></g><g
       id="g5312"
       transform="matrix(0,0.75,0.75,0,181.95947,605.98369)"><path
         d="M 2,0 C 2,-1.1045695 1.1045695,-2 0,-2 -1.1045695,-2 -2,-1.1045695 -2,0 -2,1.1045695 -1.1045695,2 0,2 1.1045695,2 2,1.1045695 2,0 Z"
         style="fill:#fcb763;fill-opacity:1;fill-rule:nonzero;stroke:#fcb763;stroke-opacity:1"
         id="path5314" /></g><g
       id="g5316"
       transform="matrix(0,0.75,0.75,0,181.95947,605.98369)"><path
         d="m 0,-1.6666667 c 0.92047458,0 1.6666667,0.74619212 1.6666667,1.6666667 V 0 C 1.6666667,0.92047458 0.92047458,1.6666667 0,1.6666667 -0.92047458,1.6666667 -1.6666667,0.92047458 -1.6666667,0 c 0,-0.92047458 0.74619212,-1.6666667 1.6666667,-1.6666667 z m 0,-0.6666666 c -1.2886644,0 -2.3333333,1.0446689 -2.3333333,2.3333333 0,1.2886644 1.0446689,2.3333333 2.3333333,2.3333333 C 1.2886644,2.3333333 2.3333333,1.2886644 2.3333333,0 V 0 C 2.3333333,-1.2886644 1.2886644,-2.3333333 0,-2.3333333 Z"
         style="fill:#fcb763;fill-opacity:1;fill-rule:nonzero;stroke:#fcb763;stroke-opacity:1"
         id="path5318" /></g><g
       id="g5320"
       transform="matrix(0,0.75,0.75,0,181.95947,634.97074)"><path
         d="M 2,0 C 2,-1.1045695 1.1045695,-2 0,-2 -1.1045695,-2 -2,-1.1045695 -2,0 -2,1.1045695 -1.1045695,2 0,2 1.1045695,2 2,1.1045695 2,0 Z"
         style="fill:#fcb763;fill-opacity:1;fill-rule:nonzero;stroke:#fcb763;stroke-opacity:1"
         id="path5322" /></g><g
       id="g5324"
       transform="matrix(0,0.75,0.75,0,181.95947,634.97074)"><path
         d="m 0,-1.6666667 c 0.92047458,0 1.6666667,0.74619212 1.6666667,1.6666667 V 0 C 1.6666667,0.92047458 0.92047458,1.6666667 0,1.6666667 -0.92047458,1.6666667 -1.6666667,0.92047458 -1.6666667,0 c 0,-0.92047458 0.74619212,-1.6666667 1.6666667,-1.6666667 z m 0,-0.6666666 c -1.2886644,0 -2.3333333,1.0446689 -2.3333333,2.3333333 0,1.2886644 1.0446689,2.3333333 2.3333333,2.3333333 C 1.2886644,2.3333333 2.3333333,1.2886644 2.3333333,0 V 0 C 2.3333333,-1.2886644 1.2886644,-2.3333333 0,-2.3333333 Z"
         style="fill:#fcb763;fill-opacity:1;fill-rule:nonzero;stroke:#fcb763;stroke-opacity:1"
         id="path5326" /></g><g
       id="g5328"
       transform="matrix(0,0.75,0.75,0,181.95947,663.95771)"><path
         d="M 2,0 C 2,-1.1045695 1.1045695,-2 0,-2 -1.1045695,-2 -2,-1.1045695 -2,0 -2,1.1045695 -1.1045695,2 0,2 1.1045695,2 2,1.1045695 2,0 Z"
         style="fill:#fcb763;fill-opacity:1;fill-rule:nonzero;stroke:#fcb763;stroke-opacity:1"
         id="path5330" /></g><g
       id="g5332"
       transform="matrix(0,0.75,0.75,0,181.95947,663.95771)"><path
         d="m 0,-1.6666667 c 0.92047458,0 1.6666667,0.74619212 1.6666667,1.6666667 V 0 C 1.6666667,0.92047458 0.92047458,1.6666667 0,1.6666667 -0.92047458,1.6666667 -1.6666667,0.92047458 -1.6666667,0 c 0,-0.92047458 0.74619212,-1.6666667 1.6666667,-1.6666667 z m 0,-0.6666666 c -1.2886644,0 -2.3333333,1.0446689 -2.3333333,2.3333333 0,1.2886644 1.0446689,2.3333333 2.3333333,2.3333333 C 1.2886644,2.3333333 2.3333333,1.2886644 2.3333333,0 V 0 C 2.3333333,-1.2886644 1.2886644,-2.3333333 0,-2.3333333 Z"
         style="fill:#fcb763;fill-opacity:1;fill-rule:nonzero;stroke:#fcb763;stroke-opacity:1"
         id="path5334" /></g><g
       id="g5336"
       transform="matrix(0,0.75,0.75,0,181.95947,692.94478)"><path
         d="M 2,0 C 2,-1.1045695 1.1045695,-2 0,-2 -1.1045695,-2 -2,-1.1045695 -2,0 -2,1.1045695 -1.1045695,2 0,2 1.1045695,2 2,1.1045695 2,0 Z"
         style="fill:#fcb763;fill-opacity:1;fill-rule:nonzero;stroke:#fcb763;stroke-opacity:1"
         id="path5338" /></g><g
       id="g5340"
       transform="matrix(0,0.75,0.75,0,181.95947,692.94478)"><path
         d="m 0,-1.6666667 c 0.92047458,0 1.6666667,0.74619212 1.6666667,1.6666667 V 0 C 1.6666667,0.92047458 0.92047458,1.6666667 0,1.6666667 -0.92047458,1.6666667 -1.6666667,0.92047458 -1.6666667,0 c 0,-0.92047458 0.74619212,-1.6666667 1.6666667,-1.6666667 z m 0,-0.6666666 c -1.2886644,0 -2.3333333,1.0446689 -2.3333333,2.3333333 0,1.2886644 1.0446689,2.3333333 2.3333333,2.3333333 C 1.2886644,2.3333333 2.3333333,1.2886644 2.3333333,0 V 0 C 2.3333333,-1.2886644 1.2886644,-2.3333333 0,-2.3333333 Z"
         style="fill:#fcb763;fill-opacity:1;fill-rule:nonzero;stroke:#fcb763;stroke-opacity:1"
         id="path5342" /></g><g
       id="g5344"
       transform="matrix(0,0.75,0.75,0,181.95947,721.93174)"><path
         d="M 2,0 C 2,-1.1045695 1.1045695,-2 0,-2 -1.1045695,-2 -2,-1.1045695 -2,0 -2,1.1045695 -1.1045695,2 0,2 1.1045695,2 2,1.1045695 2,0 Z"
         style="fill:#fcb763;fill-opacity:1;fill-rule:nonzero;stroke:#fcb763;stroke-opacity:1"
         id="path5346" /></g><g
       id="g5348"
       transform="matrix(0,0.75,0.75,0,181.95947,721.93174)"><path
         d="m 0,-1.6666667 c 0.92047458,0 1.6666667,0.74619212 1.6666667,1.6666667 V 0 C 1.6666667,0.92047458 0.92047458,1.6666667 0,1.6666667 -0.92047458,1.6666667 -1.6666667,0.92047458 -1.6666667,0 c 0,-0.92047458 0.74619212,-1.6666667 1.6666667,-1.6666667 z m 0,-0.6666666 c -1.2886644,0 -2.3333333,1.0446689 -2.3333333,2.3333333 0,1.2886644 1.0446689,2.3333333 2.3333333,2.3333333 C 1.2886644,2.3333333 2.3333333,1.2886644 2.3333333,0 V 0 C 2.3333333,-1.2886644 1.2886644,-2.3333333 0,-2.3333333 Z"
         style="fill:#fcb763;fill-opacity:1;fill-rule:nonzero;stroke:#fcb763;stroke-opacity:1"
         id="path5350" /></g><g
       id="g5352"
       transform="matrix(0,0.75,0.75,0,99.616808,750.9188)"><path
         d="M 2,0 C 2,-1.1045695 1.1045695,-2 0,-2 -1.1045695,-2 -2,-1.1045695 -2,0 -2,1.1045695 -1.1045695,2 0,2 1.1045695,2 2,1.1045695 2,0 Z"
         style="fill:#fcb763;fill-opacity:1;fill-rule:nonzero;stroke:#fcb763;stroke-opacity:1"
         id="path5354" /></g><g
       id="g5356"
       transform="matrix(0,0.75,0.75,0,99.616808,750.9188)"><path
         d="m 0,-1.6666667 c 0.92047458,0 1.6666667,0.74619212 1.6666667,1.6666667 V 0 C 1.6666667,0.92047458 0.92047458,1.6666667 0,1.6666667 -0.92047458,1.6666667 -1.6666667,0.92047458 -1.6666667,0 c 0,-0.92047458 0.74619212,-1.6666667 1.6666667,-1.6666667 z m 0,-0.6666666 c -1.2886644,0 -2.3333333,1.0446689 -2.3333333,2.3333333 0,1.2886644 1.0446689,2.3333333 2.3333333,2.3333333 C 1.2886644,2.3333333 2.3333333,1.2886644 2.3333333,0 V 0 C 2.3333333,-1.2886644 1.2886644,-2.3333333 0,-2.3333333 Z"
         style="fill:#fcb763;fill-opacity:1;fill-rule:nonzero;stroke:#fcb763;stroke-opacity:1"
         id="path5358" /></g><g
       id="g5360"
       transform="matrix(0,0.75,0.75,0,58.445483,779.90578)"><path
         d="M 2,0 C 2,-1.1045695 1.1045695,-2 0,-2 -1.1045695,-2 -2,-1.1045695 -2,0 -2,1.1045695 -1.1045695,2 0,2 1.1045695,2 2,1.1045695 2,0 Z"
         style="fill:#fcb763;fill-opacity:1;fill-rule:nonzero;stroke:#fcb763;stroke-opacity:1"
         id="path5362" /></g><g
       id="g5364"
       transform="matrix(0,0.75,0.75,0,58.445483,779.90578)"><path
         d="m 0,-1.6666667 c 0.92047458,0 1.6666667,0.74619212 1.6666667,1.6666667 V 0 C 1.6666667,0.92047458 0.92047458,1.6666667 0,1.6666667 -0.92047458,1.6666667 -1.6666667,0.92047458 -1.6666667,0 c 0,-0.92047458 0.74619212,-1.6666667 1.6666667,-1.6666667 z m 0,-0.6666666 c -1.2886644,0 -2.3333333,1.0446689 -2.3333333,2.3333333 0,1.2886644 1.0446689,2.3333333 2.3333333,2.3333333 C 1.2886644,2.3333333 2.3333333,1.2886644 2.3333333,0 V 0 C 2.3333333,-1.2886644 1.2886644,-2.3333333 0,-2.3333333 Z"
         style="fill:#fcb763;fill-opacity:1;fill-rule:nonzero;stroke:#fcb763;stroke-opacity:1"
         id="path5366" /></g><g
       id="g5368"
       transform="matrix(0,0.75,0.75,0,58.445483,808.89284)"><path
         d="M 2,0 C 2,-1.1045695 1.1045695,-2 0,-2 -1.1045695,-2 -2,-1.1045695 -2,0 -2,1.1045695 -1.1045695,2 0,2 1.1045695,2 2,1.1045695 2,0 Z"
         style="fill:#fcb763;fill-opacity:1;fill-rule:nonzero;stroke:#fcb763;stroke-opacity:1"
         id="path5370" /></g><g
       id="g5372"
       transform="matrix(0,0.75,0.75,0,58.445483,808.89284)"><path
         d="m 0,-1.6666667 c 0.92047458,0 1.6666667,0.74619212 1.6666667,1.6666667 V 0 C 1.6666667,0.92047458 0.92047458,1.6666667 0,1.6666667 -0.92047458,1.6666667 -1.6666667,0.92047458 -1.6666667,0 c 0,-0.92047458 0.74619212,-1.6666667 1.6666667,-1.6666667 z m 0,-0.6666666 c -1.2886644,0 -2.3333333,1.0446689 -2.3333333,2.3333333 0,1.2886644 1.0446689,2.3333333 2.3333333,2.3333333 C 1.2886644,2.3333333 2.3333333,1.2886644 2.3333333,0 V 0 C 2.3333333,-1.2886644 1.2886644,-2.3333333 0,-2.3333333 Z"
         style="fill:#fcb763;fill-opacity:1;fill-rule:nonzero;stroke:#fcb763;stroke-opacity:1"
         id="path5374" /></g><g
       id="g5376"
       transform="matrix(0,0.75,0.75,0,58.445483,837.8798)"><path
         d="M 2,0 C 2,-1.1045695 1.1045695,-2 0,-2 -1.1045695,-2 -2,-1.1045695 -2,0 -2,1.1045695 -1.1045695,2 0,2 1.1045695,2 2,1.1045695 2,0 Z"
         style="fill:#fcb763;fill-opacity:1;fill-rule:nonzero;stroke:#fcb763;stroke-opacity:1"
         id="path5378" /></g><g
       id="g5380"
       transform="matrix(0,0.75,0.75,0,58.445483,837.8798)"><path
         d="m 0,-1.6666667 c 0.92047458,0 1.6666667,0.74619212 1.6666667,1.6666667 V 0 C 1.6666667,0.92047458 0.92047458,1.6666667 0,1.6666667 -0.92047458,1.6666667 -1.6666667,0.92047458 -1.6666667,0 c 0,-0.92047458 0.74619212,-1.6666667 1.6666667,-1.6666667 z m 0,-0.6666666 c -1.2886644,0 -2.3333333,1.0446689 -2.3333333,2.3333333 0,1.2886644 1.0446689,2.3333333 2.3333333,2.3333333 C 1.2886644,2.3333333 2.3333333,1.2886644 2.3333333,0 V 0 C 2.3333333,-1.2886644 1.2886644,-2.3333333 0,-2.3333333 Z"
         style="fill:#fcb763;fill-opacity:1;fill-rule:nonzero;stroke:#fcb763;stroke-opacity:1"
         id="path5382" /></g><g
       id="g5384"
       transform="matrix(0,0.75,0.75,0,17.274157,866.86678)"><path
         d="M 2,0 C 2,-1.1045695 1.1045695,-2 0,-2 -1.1045695,-2 -2,-1.1045695 -2,0 -2,1.1045695 -1.1045695,2 0,2 1.1045695,2 2,1.1045695 2,0 Z"
         style="fill:#fcb763;fill-opacity:1;fill-rule:nonzero;stroke:#fcb763;stroke-opacity:1"
         id="path5386" /></g><g
       id="g5388"
       transform="matrix(0,0.75,0.75,0,17.274157,866.86678)"><path
         d="m 0,-1.6666667 c 0.92047458,0 1.6666667,0.74619212 1.6666667,1.6666667 V 0 C 1.6666667,0.92047458 0.92047458,1.6666667 0,1.6666667 -0.92047458,1.6666667 -1.6666667,0.92047458 -1.6666667,0 c 0,-0.92047458 0.74619212,-1.6666667 1.6666667,-1.6666667 z m 0,-0.6666666 c -1.2886644,0 -2.3333333,1.0446689 -2.3333333,2.3333333 0,1.2886644 1.0446689,2.3333333 2.3333333,2.3333333 C 1.2886644,2.3333333 2.3333333,1.2886644 2.3333333,0 V 0 C 2.3333333,-1.2886644 1.2886644,-2.3333333 0,-2.3333333 Z"
         style="fill:#fcb763;fill-opacity:1;fill-rule:nonzero;stroke:#fcb763;stroke-opacity:1"
         id="path5390" /></g><g
       id="g5392"
       transform="matrix(0,0.75,0.75,0,17.274157,895.85383)"><path
         d="M 2,0 C 2,-1.1045695 1.1045695,-2 0,-2 -1.1045695,-2 -2,-1.1045695 -2,0 -2,1.1045695 -1.1045695,2 0,2 1.1045695,2 2,1.1045695 2,0 Z"
         style="fill:#fcb763;fill-opacity:1;fill-rule:nonzero;stroke:#fcb763;stroke-opacity:1"
         id="path5394" /></g><g
       id="g5396"
       transform="matrix(0,0.75,0.75,0,17.274157,895.85383)"><path
         d="m 0,-1.6666667 c 0.92047458,0 1.6666667,0.74619212 1.6666667,1.6666667 V 0 C 1.6666667,0.92047458 0.92047458,1.6666667 0,1.6666667 -0.92047458,1.6666667 -1.6666667,0.92047458 -1.6666667,0 c 0,-0.92047458 0.74619212,-1.6666667 1.6666667,-1.6666667 z m 0,-0.6666666 c -1.2886644,0 -2.3333333,1.0446689 -2.3333333,2.3333333 0,1.2886644 1.0446689,2.3333333 2.3333333,2.3333333 C 1.2886644,2.3333333 2.3333333,1.2886644 2.3333333,0 V 0 C 2.3333333,-1.2886644 1.2886644,-2.3333333 0,-2.3333333 Z"
         style="fill:#fcb763;fill-opacity:1;fill-rule:nonzero;stroke:#fcb763;stroke-opacity:1"
         id="path5398" /></g><g
       id="g5400"
       transform="matrix(0,0.75,0.75,0,17.274157,924.8408)"><path
         d="M 2,0 C 2,-1.1045695 1.1045695,-2 0,-2 -1.1045695,-2 -2,-1.1045695 -2,0 -2,1.1045695 -1.1045695,2 0,2 1.1045695,2 2,1.1045695 2,0 Z"
         style="fill:#fcb763;fill-opacity:1;fill-rule:nonzero;stroke:#fcb763;stroke-opacity:1"
         id="path5402" /></g><g
       id="g5404"
       transform="matrix(0,0.75,0.75,0,17.274157,924.8408)"><path
         d="m 0,-1.6666667 c 0.92047458,0 1.6666667,0.74619212 1.6666667,1.6666667 V 0 C 1.6666667,0.92047458 0.92047458,1.6666667 0,1.6666667 -0.92047458,1.6666667 -1.6666667,0.92047458 -1.6666667,0 c 0,-0.92047458 0.74619212,-1.6666667 1.6666667,-1.6666667 z m 0,-0.6666666 c -1.2886644,0 -2.3333333,1.0446689 -2.3333333,2.3333333 0,1.2886644 1.0446689,2.3333333 2.3333333,2.3333333 C 1.2886644,2.3333333 2.3333333,1.2886644 2.3333333,0 V 0 C 2.3333333,-1.2886644 1.2886644,-2.3333333 0,-2.3333333 Z"
         style="fill:#fcb763;fill-opacity:1;fill-rule:nonzero;stroke:#fcb763;stroke-opacity:1"
         id="path5406" /></g><g
       id="g5408"
       transform="matrix(0,0.75,0.75,0,17.274157,953.82786)"><path
         d="M 2,0 C 2,-1.1045695 1.1045695,-2 0,-2 -1.1045695,-2 -2,-1.1045695 -2,0 -2,1.1045695 -1.1045695,2 0,2 1.1045695,2 2,1.1045695 2,0 Z"
         style="fill:#fcb763;fill-opacity:1;fill-rule:nonzero;stroke:#fcb763;stroke-opacity:1"
         id="path5410" /></g><g
       id="g5412"
       transform="matrix(0,0.75,0.75,0,17.274157,953.82786)"><path
         d="m 0,-1.6666667 c 0.92047458,0 1.6666667,0.74619212 1.6666667,1.6666667 V 0 C 1.6666667,0.92047458 0.92047458,1.6666667 0,1.6666667 -0.92047458,1.6666667 -1.6666667,0.92047458 -1.6666667,0 c 0,-0.92047458 0.74619212,-1.6666667 1.6666667,-1.6666667 z m 0,-0.6666666 c -1.2886644,0 -2.3333333,1.0446689 -2.3333333,2.3333333 0,1.2886644 1.0446689,2.3333333 2.3333333,2.3333333 C 1.2886644,2.3333333 2.3333333,1.2886644 2.3333333,0 V 0 C 2.3333333,-1.2886644 1.2886644,-2.3333333 0,-2.3333333 Z"
         style="fill:#fcb763;fill-opacity:1;fill-rule:nonzero;stroke:#fcb763;stroke-opacity:1"
         id="path5414" /></g><path
       d="m 579.33297,-31.052392 -1.79746,3.689715 -1.86521,3.82191 -1.86858,3.821917 -1.87189,3.821918 -1.87523,3.821932 -1.87857,3.8219175 -1.88196,3.8219175 -0.83203,1.68759 -1.05327,2.13432 -1.88864,3.8219175 -1.89203,3.8219175 -1.89541,3.821933 -1.89881,3.821917 -1.90215,3.82191 -1.90557,3.821918 -1.90897,3.821917 -0.0497,0.09926 -1.86269,3.722647 -1.91574,3.821918 -1.91917,3.821917 -1.92257,3.82191 -1.92594,3.821918 -1.92943,3.821932 -1.93282,3.821918 -1.18144,2.332852 -0.7548,1.489065 -1.93968,3.82191 -1.94312,3.82194 -1.94659,3.821918 -1.94999,3.82191 -1.95346,3.821917 -1.95694,3.821917 -1.96037,3.821911 -0.38232,0.744532 -1.58154,3.077408 -1.96732,3.82191 -1.97081,3.821917 -1.97429,3.821918 -1.97777,3.82191 -1.98125,3.82192 -1.98472,3.82192 -1.54898,2.97811 -0.43927,0.8438 -1.99178,3.82192 -1.99525,3.82191 -1.99878,3.82191 -2.00231,3.82192 -2.00578,3.82196 -2.00936,3.82191 -2.01288,3.82192 -0.73283,1.38977 -1.28361,2.43214 -2.01993,3.82192 -2.0235,3.82192 -2.02707,3.82191 -2.03064,3.82191 -2.03416,3.82191 -2.03774,3.82192 -1.93519,3.62339 -0.10616,0.19853 -2.04487,3.82191 -2.04849,3.82192 -2.05207,3.82191 -2.05563,3.82191 -2.05925,3.82192 -2.06283,3.82191 -2.06648,3.82192 -1.10179,2.03508 -0.96826,1.78684 -2.07367,3.82195 -2.07733,3.82192 -2.0809,3.82192 -2.08457,3.82191 -2.08818,3.82191 -2.09184,3.82191 -2.09546,3.82192 -0.24517,0.44673 -1.85395,3.37519 -2.10279,3.82191 -2.10644,3.82196 -2.11011,3.82192 -2.11377,3.82191 -2.11747,3.82192 -2.1211,3.82191 -1.48974,2.6803 -0.63511,1.14161 -2.12846,3.82192 -2.13221,3.82191 -2.13588,3.82192 -2.1396,3.82192 -2.14333,3.82191 -2.14701,3.82191 -2.15075,3.82192 -0.61519,1.09199 -1.53928,2.72992 -2.15817,3.82192 -2.16193,3.82191 -2.16568,3.82192 -2.16943,3.82191 -2.17314,3.82196 -2.17694,3.82192 -1.89725,3.32556 -0.28345,0.49635 -2.1844,3.82191 -2.18825,3.82192 -2.192,3.82191 -2.19575,3.82192 -2.19956,3.82192 -2.2033,3.82191 -2.20716,3.82191 -1.00452,1.73726 -1.20643,2.08466 -2.21475,3.82191 -2.21855,3.82192 -2.22236,3.82191 -2.22619,3.82192 -2.23005,3.82191 -2.23383,3.82191 -2.23769,3.82192 -0.0873,0.14896 -2.15423,3.673 -2.24538,3.82191 -2.24922,3.82192 -2.25311,3.82192 -2.25692,3.82191 -2.26084,3.82192 -2.2647,3.82191 -1.41371,2.38252 -0.85483,1.43939 -2.27243,3.82192 -2.27637,3.82196 -2.28021,3.82191 -2.28415,3.82192 -2.28804,3.82191 -2.29193,3.82192 -2.29587,3.82192 -0.47754,0.79416 -1.82226,3.02775 -2.3037,3.82191 -2.30763,3.82191 -2.31154,3.82192 -2.31554,3.82192 -2.31946,3.82193 -2.32341,3.82193 -1.84343,3.02767 -0.48393,0.79418 -2.33134,3.82192 -2.33528,3.82193 -2.33926,3.822 -2.34325,3.82185 -2.34725,3.82192 -2.35119,3.82193 -2.35522,3.82192 -0.88808,1.4394 -1.47114,2.38245 -2.36323,3.822 -2.36723,3.82185 -2.37124,3.822 -2.37527,3.82185 -2.3793,3.82193 -2.38332,3.82192 -2.29426,3.67305 -0.0931,0.14888 -2.39139,3.82192 -2.39544,3.82193 -2.39952,3.82192 -2.40357,3.82185 -2.40761,3.822 -2.41171,3.82185 -2.41578,3.822 -1.3194,2.08463 -1.10047,1.73722 -2.42393,3.82193 -2.42805,3.82192 -2.43212,3.82193 -2.43622,3.82185 -2.44033,3.822 -2.44446,3.82185 -2.4486,3.822 -0.31831,0.49635 -2.13439,3.3255 -2.45684,3.82192 -2.46094,3.822 -2.46513,3.82193 -2.46921,3.82185 -2.47344,3.822 -2.47758,3.82185 -1.77221,2.72992 -0.70951,1.09208 -2.48589,3.82185 -2.49007,3.82192 -2.49426,3.82193 -2.49845,3.82192 -2.5026,3.82185 -2.50683,3.822 -2.51103,3.82185 -0.75085,1.14165 -1.76438,2.68035 -2.51944,3.82185 -2.52368,3.82193 -2.52788,3.82192 -2.53214,3.82193 -2.53638,3.82192 -2.54059,3.82193 -2.24719,3.37515 -0.29766,0.44677 -2.5491,3.82185 -2.55338,3.822 -2.55762,3.82185 -2.56189,3.822 -2.56618,3.82185 -2.57046,3.82193 -2.57476,3.82192 -1.20525,1.78688 -1.37377,2.03505 -2.58332,3.82185 -2.58767,3.822 -2.59193,3.82185 -2.59629,3.822 -2.60058,3.82185 -2.60493,3.82192 -2.60925,3.82193 -0.13566,0.19852 -2.47792,3.6234 -2.61793,3.82193 -2.6223,3.82192 -2.62664,3.82193 -2.631,3.82185 -2.63536,3.822 -2.63976,3.82185 -1.68211,2.43217 -0.96201,1.38983 -2.64852,3.82185 -2.65291,3.82192 -2.65731,3.82193 -2.66167,3.82192 -2.66615,3.82185 -2.6705,3.822 -2.67495,3.82185 -0.5912,0.84383 -2.08818,2.97817 -2.683807,3.82185 -2.688255,3.82193 -2.692688,3.82192 -2.69712,3.82193 -2.701612,3.82192 -2.706068,3.82193 -2.182132,3.0774 -0.52839,0.74452 -2.714985,3.82185 -2.7195,3.822 -2.723948,3.82185 -2.728455,3.822 -2.732977,3.82185 -2.737448,3.82193 -2.74197,3.82192 -1.069552,1.48905 -1.676925,2.33288 -2.751038,3.82185 -2.755507,3.822 -2.76006,3.82185 -2.76462,3.822 -2.769188,3.82185 -2.77368,3.82192 -2.706045,3.72263 -0.07222,0.0994 -2.782837,3.82185 -2.78739,3.82193 -2.791995,3.82192 -2.79654,3.82193 -2.801138,3.82185 -2.805727,3.822 -2.810363,3.82185 -1.57143,2.13435 -1.243485,1.68765 -2.819595,3.82185 -2.82414,3.82192 -2.8288222,3.82193 -2.8334078,3.82192 -2.8380832,3.82185 -2.8427183,3.822 -2.8473472,3.82185 -0.4071698,0.546 -2.4448522,3.276 -2.8566578,3.82185 -1.412733,1.88708"
       style="fill:none;stroke:#fcb763;stroke-width:1.5;stroke-linecap:butt;stroke-linejoin:round;stroke-miterlimit:10;stroke-dasharray:none;stroke-opacity:1"
       id="path5418" /><text
       xml:space="preserve"
       style="font-style:normal;font-variant:normal;font-weight:normal;font-stretch:normal;font-size:18px;line-height:1.25;font-family:'Times New Roman';-inkscape-font-specification:'Times New Roman, Normal';font-variant-ligatures:normal;font-variant-caps:normal;font-variant-numeric:normal;font-variant-east-asian:normal;fill:#000000;fill-opacity:1;stroke:none;stroke-width:0.75"
       x="-148.84038"
       y="187.12166"
       id="text8381"
       transform="matrix(0,1,1,0,0,0)"><tspan
         sodipodi:role="line"
         id="tspan8379"
         style="font-style:normal;font-variant:normal;font-weight:normal;font-stretch:normal;font-size:18px;font-family:'Times New Roman';-inkscape-font-specification:'Times New Roman, Normal';font-variant-ligatures:normal;font-variant-caps:normal;font-variant-numeric:normal;font-variant-east-asian:normal;stroke-width:0.75"
         x="-148.84038"
         y="187.12166">10</tspan></text><text
       xml:space="preserve"
       style="font-style:normal;font-variant:normal;font-weight:normal;font-stretch:normal;font-size:18px;line-height:1.25;font-family:'Times New Roman';-inkscape-font-specification:'Times New Roman, Normal';font-variant-ligatures:normal;font-variant-caps:normal;font-variant-numeric:normal;font-variant-east-asian:normal;fill:#000000;fill-opacity:1;stroke:none;stroke-width:0.75"
       x="-148.73491"
       y="105.94439"
       id="text8381-5"
       transform="matrix(0,1,1,0,0,0)"><tspan
         sodipodi:role="line"
         id="tspan9032"
         x="-148.73491"
         y="105.94439">12</tspan></text><text
       xml:space="preserve"
       style="font-style:normal;font-variant:normal;font-weight:normal;font-stretch:normal;font-size:18px;line-height:1.25;font-family:'Times New Roman';-inkscape-font-specification:'Times New Roman, Normal';font-variant-ligatures:normal;font-variant-caps:normal;font-variant-numeric:normal;font-variant-east-asian:normal;fill:#000000;fill-opacity:1;stroke:none;stroke-width:0.75"
       x="-148.85796"
       y="22.894188"
       id="text8381-2"
       transform="matrix(0,1,1,0,0,0)"><tspan
         sodipodi:role="line"
         id="tspan9069"
         x="-148.85796"
         y="22.894188">14</tspan></text><text
       xml:space="preserve"
       style="font-style:normal;font-variant:normal;font-weight:normal;font-stretch:normal;font-size:18px;line-height:1.25;font-family:'Times New Roman';-inkscape-font-specification:'Times New Roman, Normal';font-variant-ligatures:normal;font-variant-caps:normal;font-variant-numeric:normal;font-variant-east-asian:normal;fill:#000000;fill-opacity:1;stroke:none;stroke-width:0.75"
       x="220.1555"
       y="607.32147"
       id="text8381-50"
       transform="matrix(0,1,1,0,0,0)"><tspan
         sodipodi:role="line"
         id="tspan8379-2"
         style="font-style:normal;font-variant:normal;font-weight:normal;font-stretch:normal;font-size:18px;font-family:'Times New Roman';-inkscape-font-specification:'Times New Roman, Normal';font-variant-ligatures:normal;font-variant-caps:normal;font-variant-numeric:normal;font-variant-east-asian:normal;stroke-width:0.75"
         x="220.1555"
         y="607.32147">10</tspan></text><text
       xml:space="preserve"
       style="font-style:normal;font-variant:normal;font-weight:normal;font-stretch:normal;font-size:18px;line-height:1.25;font-family:'Times New Roman';-inkscape-font-specification:'Times New Roman, Normal';font-variant-ligatures:normal;font-variant-caps:normal;font-variant-numeric:normal;font-variant-east-asian:normal;fill:#000000;fill-opacity:1;stroke:none;stroke-width:0.75"
       x="366.2623"
       y="607.32147"
       id="text8381-50-7"
       transform="matrix(0,1,1,0,0,0)"><tspan
         sodipodi:role="line"
         id="tspan9346"
         x="366.2623"
         y="607.32147">15</tspan></text><text
       xml:space="preserve"
       style="font-style:normal;font-variant:normal;font-weight:normal;font-stretch:normal;font-size:18px;line-height:1.25;font-family:'Times New Roman';-inkscape-font-specification:'Times New Roman, Normal';font-variant-ligatures:normal;font-variant-caps:normal;font-variant-numeric:normal;font-variant-east-asian:normal;fill:#000000;fill-opacity:1;stroke:none;stroke-width:0.75"
       x="510.33466"
       y="608.09045"
       id="text8381-50-7-8"
       transform="matrix(0,1,1,0,0,0)"><tspan
         sodipodi:role="line"
         id="tspan9393"
         x="510.33466"
         y="608.09045">20</tspan></text><text
       xml:space="preserve"
       style="font-style:normal;font-variant:normal;font-weight:normal;font-stretch:normal;font-size:18px;line-height:1.25;font-family:'Times New Roman';-inkscape-font-specification:'Times New Roman, Normal';font-variant-ligatures:normal;font-variant-caps:normal;font-variant-numeric:normal;font-variant-east-asian:normal;fill:#000000;fill-opacity:1;stroke:none;stroke-width:0.75"
       x="654.9035"
       y="607.32147"
       id="text8381-50-7-5"
       transform="matrix(0,1,1,0,0,0)"><tspan
         sodipodi:role="line"
         id="tspan9430"
         x="654.9035"
         y="607.32147">25</tspan></text><text
       xml:space="preserve"
       style="font-style:normal;font-variant:normal;font-weight:normal;font-stretch:normal;font-size:18px;line-height:1.25;font-family:'Times New Roman';-inkscape-font-specification:'Times New Roman, Normal';font-variant-ligatures:normal;font-variant-caps:normal;font-variant-numeric:normal;font-variant-east-asian:normal;fill:#000000;fill-opacity:1;stroke:none;stroke-width:0.75"
       x="800.24133"
       y="608.09045"
       id="text8381-50-7-3"
       transform="matrix(0,1,1,0,0,0)"><tspan
         sodipodi:role="line"
         id="tspan9678"
         x="800.24133"
         y="608.09045">30</tspan></text><text
       xml:space="preserve"
       style="font-style:normal;font-variant:normal;font-weight:normal;font-stretch:normal;font-size:18px;line-height:1.25;font-family:'Times New Roman';-inkscape-font-specification:'Times New Roman, Normal';font-variant-ligatures:normal;font-variant-caps:normal;font-variant-numeric:normal;font-variant-east-asian:normal;fill:#000000;fill-opacity:1;stroke:none;stroke-width:0.75"
       x="945.57916"
       y="608.09045"
       id="text8381-50-7-6"
       transform="matrix(0,1,1,0,0,0)"><tspan
         sodipodi:role="line"
         id="tspan9715"
         x="945.57916"
         y="608.09045">35</tspan></text><text
       xml:space="preserve"
       style="font-style:normal;font-variant:normal;font-weight:normal;font-stretch:normal;font-size:20px;line-height:1.25;font-family:'Times New Roman';-inkscape-font-specification:'Times New Roman, Normal';font-variant-ligatures:normal;font-variant-caps:normal;font-variant-numeric:normal;font-variant-east-asian:normal;fill:#000000;fill-opacity:1;stroke:none;stroke-width:0.75"
       x="356.09616"
       y="641.73071"
       id="text23246"
       transform="matrix(0,1,1,0,0,0)"><tspan
         sodipodi:role="line"
         id="tspan23244"
         style="font-style:normal;font-variant:normal;font-weight:normal;font-stretch:normal;font-size:20px;font-family:'Times New Roman';-inkscape-font-specification:'Times New Roman, Normal';font-variant-ligatures:normal;font-variant-caps:normal;font-variant-numeric:normal;font-variant-east-asian:normal;stroke-width:0.75"
         x="356.09616"
         y="641.73071">Years since first record</tspan></text><text
       xml:space="preserve"
       style="font-style:normal;font-variant:normal;font-weight:normal;font-stretch:normal;font-size:20px;line-height:1.25;font-family:'Times New Roman';-inkscape-font-specification:'Times New Roman, Normal';font-variant-ligatures:normal;font-variant-caps:normal;font-variant-numeric:normal;font-variant-east-asian:normal;fill:#000000;fill-opacity:1;stroke:none;stroke-width:0.75"
       x="-383.39557"
       y="-171.7388"
       id="text22594"
       transform="scale(-1,1)"><tspan
         sodipodi:role="line"
         id="tspan22592"
         style="font-style:normal;font-variant:normal;font-weight:normal;font-stretch:normal;font-size:20px;font-family:'Times New Roman';-inkscape-font-specification:'Times New Roman, Normal';font-variant-ligatures:normal;font-variant-caps:normal;font-variant-numeric:normal;font-variant-east-asian:normal;stroke-width:0.75"
         x="-383.39557"
         y="-171.7388">Number of occupied polygons</tspan></text></g></svg>
