<?xml version="1.0" encoding="UTF-8" standalone="no"?>
<!-- Created with Inkscape (http://www.inkscape.org/) -->

<svg
   version="1.1"
   id="svg17911"
   xml:space="preserve"
   width="793.33331"
   height="1122.6667"
   viewBox="0 0 793.33331 1122.6667"
   sodipodi:docname="Sweden.svg"
   inkscape:version="1.1.1 (3bf5ae0d25, 2021-09-20)"
   xmlns:inkscape="http://www.inkscape.org/namespaces/inkscape"
   xmlns:sodipodi="http://sodipodi.sourceforge.net/DTD/sodipodi-0.dtd"
   xmlns="http://www.w3.org/2000/svg"
   xmlns:svg="http://www.w3.org/2000/svg"><defs
     id="defs17915"><clipPath
       clipPathUnits="userSpaceOnUse"
       id="clipPath17927"><path
         d="M 0,0 H 1920 V 963.00002 H 0 Z"
         id="path17925" /></clipPath></defs><sodipodi:namedview
     id="namedview17913"
     pagecolor="#ffffff"
     bordercolor="#999999"
     borderopacity="1"
     inkscape:pageshadow="0"
     inkscape:pageopacity="0"
     inkscape:pagecheckerboard="0"
     showgrid="false"
     inkscape:zoom="0.55048947"
     inkscape:rotation="90"
     inkscape:cx="495.01401"
     inkscape:cy="423.25969"
     inkscape:window-width="1920"
     inkscape:window-height="1017"
     inkscape:window-x="1912"
     inkscape:window-y="-8"
     inkscape:window-maximized="1"
     inkscape:current-layer="g17917" /><g
     id="g17917"
     inkscape:groupmode="layer"
     inkscape:label="Sweden"
     transform="matrix(1.3333333,0,0,-1.3333333,0,1122.6667)"><g
       id="g17999"
       transform="matrix(0,0.75,0.75,0,-63.48721,-298.94487)"
       style="stroke-width:2.00000005;stroke-miterlimit:4;stroke-dasharray:none"><path
         d="M 250,857 H 1738"
         style="fill:none;stroke:#262626;stroke-width:2.00000005;stroke-linecap:square;stroke-linejoin:round;stroke-miterlimit:4;stroke-dasharray:none;stroke-opacity:1"
         id="path18001" /></g><g
       id="g18007"
       transform="matrix(0,0.75,0.75,0,-52.237486,-298.94487)"
       style="stroke-width:2;stroke-miterlimit:4;stroke-dasharray:none"><path
         d="M 317.63635,857 V 842.12"
         style="fill:none;stroke:#262626;stroke-width:2;stroke-linecap:square;stroke-linejoin:round;stroke-miterlimit:4;stroke-dasharray:none;stroke-opacity:1"
         id="path18009" /></g><g
       id="g18011"
       transform="matrix(0,0.75,0.75,0,-52.237486,-298.94487)"
       style="stroke-width:2;stroke-miterlimit:4;stroke-dasharray:none"><path
         d="M 510.88312,857 V 842.12"
         style="fill:none;stroke:#262626;stroke-width:2;stroke-linecap:square;stroke-linejoin:round;stroke-miterlimit:4;stroke-dasharray:none;stroke-opacity:1"
         id="path18013" /></g><g
       id="g18015"
       transform="matrix(0,0.75,0.75,0,-52.237486,-298.94487)"
       style="stroke-width:2;stroke-miterlimit:4;stroke-dasharray:none"><path
         d="M 704.12988,857 V 842.12"
         style="fill:none;stroke:#262626;stroke-width:2;stroke-linecap:square;stroke-linejoin:round;stroke-miterlimit:4;stroke-dasharray:none;stroke-opacity:1"
         id="path18017" /></g><g
       id="g18019"
       transform="matrix(0,0.75,0.75,0,-52.237486,-298.94487)"
       style="stroke-width:2;stroke-miterlimit:4;stroke-dasharray:none"><path
         d="M 897.37665,857 V 842.12"
         style="fill:none;stroke:#262626;stroke-width:2;stroke-linecap:square;stroke-linejoin:round;stroke-miterlimit:4;stroke-dasharray:none;stroke-opacity:1"
         id="path18021" /></g><g
       id="g18023"
       transform="matrix(0,0.75,0.75,0,-52.237486,-298.94487)"
       style="stroke-width:2;stroke-miterlimit:4;stroke-dasharray:none"><path
         d="M 1090.6234,857 V 842.12"
         style="fill:none;stroke:#262626;stroke-width:2;stroke-linecap:square;stroke-linejoin:round;stroke-miterlimit:4;stroke-dasharray:none;stroke-opacity:1"
         id="path18025" /></g><g
       id="g18027"
       transform="matrix(0,0.75,0.75,0,-52.237486,-298.94487)"
       style="stroke-width:2;stroke-miterlimit:4;stroke-dasharray:none"><path
         d="M 1283.8701,857 V 842.12"
         style="fill:none;stroke:#262626;stroke-width:2;stroke-linecap:square;stroke-linejoin:round;stroke-miterlimit:4;stroke-dasharray:none;stroke-opacity:1"
         id="path18029" /></g><g
       id="g18031"
       transform="matrix(0,0.75,0.75,0,-52.237486,-298.94487)"
       style="stroke-width:2;stroke-miterlimit:4;stroke-dasharray:none"><path
         d="M 1477.1169,857 V 842.12"
         style="fill:none;stroke:#262626;stroke-width:2;stroke-linecap:square;stroke-linejoin:round;stroke-miterlimit:4;stroke-dasharray:none;stroke-opacity:1"
         id="path18033" /></g><g
       id="g18035"
       transform="matrix(0,0.75,0.75,0,-52.237486,-298.94487)"
       style="stroke-width:2;stroke-miterlimit:4;stroke-dasharray:none"><path
         d="M 1670.3636,857 V 842.12"
         style="fill:none;stroke:#262626;stroke-width:2;stroke-linecap:square;stroke-linejoin:round;stroke-miterlimit:4;stroke-dasharray:none;stroke-opacity:1"
         id="path18037" /></g><text
       transform="matrix(0,1,1,0,0,0)"
       style="font-style:normal;font-variant:normal;font-weight:normal;font-stretch:normal;font-size:18px;font-family:'Times New Roman';-inkscape-font-specification:'Times New Roman, Normal';font-variant-ligatures:normal;font-variant-caps:normal;font-variant-numeric:normal;font-variant-east-asian:normal;writing-mode:lr-tb;fill:#262626;fill-opacity:1;fill-rule:nonzero;stroke:none;stroke-width:0.75"
       id="text18077"
       x="-65.217415"
       y="608.76282"><tspan
         x="-65.217415"
         y="608.76282"
         id="tspan18075"
         style="font-style:normal;font-variant:normal;font-weight:normal;font-stretch:normal;font-size:18px;font-family:'Times New Roman';-inkscape-font-specification:'Times New Roman, Normal';font-variant-ligatures:normal;font-variant-caps:normal;font-variant-numeric:normal;font-variant-east-asian:normal;stroke-width:0.75">0</tspan></text><text
       transform="matrix(0,1,1,0,0,0)"
       style="font-style:normal;font-variant:normal;font-weight:normal;font-stretch:normal;font-size:18px;font-family:'Times New Roman';-inkscape-font-specification:'Times New Roman, Normal';font-variant-ligatures:normal;font-variant-caps:normal;font-variant-numeric:normal;font-variant-east-asian:normal;writing-mode:lr-tb;fill:#262626;fill-opacity:1;fill-rule:nonzero;stroke:none;stroke-width:0.75"
       id="text18085"
       x="79.717659"
       y="608.76282"><tspan
         x="79.717659"
         y="608.76282"
         id="tspan18083"
         style="font-style:normal;font-variant:normal;font-weight:normal;font-stretch:normal;font-size:18px;font-family:'Times New Roman';-inkscape-font-specification:'Times New Roman, Normal';font-variant-ligatures:normal;font-variant-caps:normal;font-variant-numeric:normal;font-variant-east-asian:normal;stroke-width:0.75">2</tspan></text><text
       transform="matrix(0,1,1,0,0,0)"
       style="font-style:normal;font-variant:normal;font-weight:normal;font-stretch:normal;font-size:18px;font-family:'Times New Roman';-inkscape-font-specification:'Times New Roman, Normal';font-variant-ligatures:normal;font-variant-caps:normal;font-variant-numeric:normal;font-variant-east-asian:normal;writing-mode:lr-tb;fill:#262626;fill-opacity:1;fill-rule:nonzero;stroke:none;stroke-width:0.75"
       id="text18093"
       x="224.65274"
       y="608.76282"><tspan
         x="224.65274"
         y="608.76282"
         id="tspan18091"
         style="font-style:normal;font-variant:normal;font-weight:normal;font-stretch:normal;font-size:18px;font-family:'Times New Roman';-inkscape-font-specification:'Times New Roman, Normal';font-variant-ligatures:normal;font-variant-caps:normal;font-variant-numeric:normal;font-variant-east-asian:normal;stroke-width:0.75">4</tspan></text><text
       transform="matrix(0,1,1,0,0,0)"
       style="font-style:normal;font-variant:normal;font-weight:normal;font-stretch:normal;font-size:18px;font-family:'Times New Roman';-inkscape-font-specification:'Times New Roman, Normal';font-variant-ligatures:normal;font-variant-caps:normal;font-variant-numeric:normal;font-variant-east-asian:normal;writing-mode:lr-tb;fill:#262626;fill-opacity:1;fill-rule:nonzero;stroke:none;stroke-width:0.75"
       id="text18101"
       x="369.5878"
       y="608.76282"><tspan
         x="369.5878"
         y="608.76282"
         id="tspan18099"
         style="font-style:normal;font-variant:normal;font-weight:normal;font-stretch:normal;font-size:18px;font-family:'Times New Roman';-inkscape-font-specification:'Times New Roman, Normal';font-variant-ligatures:normal;font-variant-caps:normal;font-variant-numeric:normal;font-variant-east-asian:normal;stroke-width:0.75">6</tspan></text><text
       transform="matrix(0,1,1,0,0,0)"
       style="font-style:normal;font-variant:normal;font-weight:normal;font-stretch:normal;font-size:18px;font-family:'Times New Roman';-inkscape-font-specification:'Times New Roman, Normal';font-variant-ligatures:normal;font-variant-caps:normal;font-variant-numeric:normal;font-variant-east-asian:normal;writing-mode:lr-tb;fill:#262626;fill-opacity:1;fill-rule:nonzero;stroke:none;stroke-width:0.75"
       id="text18109"
       x="514.52289"
       y="608.76282"><tspan
         x="514.52289"
         y="608.76282"
         id="tspan18107"
         style="font-style:normal;font-variant:normal;font-weight:normal;font-stretch:normal;font-size:18px;font-family:'Times New Roman';-inkscape-font-specification:'Times New Roman, Normal';font-variant-ligatures:normal;font-variant-caps:normal;font-variant-numeric:normal;font-variant-east-asian:normal;stroke-width:0.75">8</tspan></text><g
       id="g18143"
       transform="matrix(0,0.75,0.75,0,-63.48721,-298.94487)"
       style="stroke-width:2.00000005;stroke-miterlimit:4;stroke-dasharray:none"><path
         d="M 250,857 V 72.000008"
         style="fill:none;stroke:#262626;stroke-width:2.00000005;stroke-linecap:square;stroke-linejoin:round;stroke-miterlimit:4;stroke-dasharray:none;stroke-opacity:1"
         id="path18145" /></g><g
       id="g18151"
       transform="matrix(0,0.75,0.75,0,-63.48721,-310.94498)"
       style="stroke-width:2;stroke-miterlimit:10;stroke-dasharray:none"><path
         d="m 250,770.34418 h 14.88"
         style="fill:none;stroke:#262626;stroke-width:2;stroke-linecap:square;stroke-linejoin:round;stroke-miterlimit:10;stroke-dasharray:none;stroke-opacity:1"
         id="path18153" /></g><g
       id="g18155"
       transform="matrix(0,0.75,0.75,0,-63.48721,-310.94498)"
       style="stroke-width:2;stroke-miterlimit:10;stroke-dasharray:none"><path
         d="m 250,668.39612 h 14.88"
         style="fill:none;stroke:#262626;stroke-width:2;stroke-linecap:square;stroke-linejoin:round;stroke-miterlimit:10;stroke-dasharray:none;stroke-opacity:1"
         id="path18157" /></g><g
       id="g18159"
       transform="matrix(0,0.75,0.75,0,-63.48721,-310.94498)"
       style="stroke-width:2;stroke-miterlimit:10;stroke-dasharray:none"><path
         d="m 250,566.44806 h 14.88"
         style="fill:none;stroke:#262626;stroke-width:2;stroke-linecap:square;stroke-linejoin:round;stroke-miterlimit:10;stroke-dasharray:none;stroke-opacity:1"
         id="path18161" /></g><g
       id="g18163"
       transform="matrix(0,0.75,0.75,0,-63.48721,-310.94498)"
       style="stroke-width:2;stroke-miterlimit:10;stroke-dasharray:none"><path
         d="m 250,464.5 h 14.88"
         style="fill:none;stroke:#262626;stroke-width:2;stroke-linecap:square;stroke-linejoin:round;stroke-miterlimit:10;stroke-dasharray:none;stroke-opacity:1"
         id="path18165" /></g><g
       id="g18167"
       transform="matrix(0,0.75,0.75,0,-63.48721,-310.94498)"
       style="stroke-width:2;stroke-miterlimit:10;stroke-dasharray:none"><path
         d="m 250,362.55194 h 14.88"
         style="fill:none;stroke:#262626;stroke-width:2;stroke-linecap:square;stroke-linejoin:round;stroke-miterlimit:10;stroke-dasharray:none;stroke-opacity:1"
         id="path18169" /></g><g
       id="g18171"
       transform="matrix(0,0.75,0.75,0,-63.48721,-310.94498)"
       style="stroke-width:2;stroke-miterlimit:10;stroke-dasharray:none"><path
         d="m 250,260.60388 h 14.88"
         style="fill:none;stroke:#262626;stroke-width:2;stroke-linecap:square;stroke-linejoin:round;stroke-miterlimit:10;stroke-dasharray:none;stroke-opacity:1"
         id="path18173" /></g><g
       id="g18175"
       transform="matrix(0,0.75,0.75,0,-63.48721,-310.94498)"
       style="stroke-width:2;stroke-miterlimit:10;stroke-dasharray:none"><path
         d="m 250,158.65584 h 14.88"
         style="fill:none;stroke:#262626;stroke-width:2;stroke-linecap:square;stroke-linejoin:round;stroke-miterlimit:10;stroke-dasharray:none;stroke-opacity:1"
         id="path18177" /></g><text
       transform="matrix(0,1,1,0,0,0)"
       style="font-style:normal;font-variant:normal;font-weight:normal;font-stretch:normal;font-size:18px;font-family:'Times New Roman';-inkscape-font-specification:'Times New Roman, Normal';font-variant-ligatures:normal;font-variant-caps:normal;font-variant-numeric:normal;font-variant-east-asian:normal;writing-mode:lr-tb;fill:#262626;fill-opacity:1;fill-rule:nonzero;stroke:none;stroke-width:0.75"
       id="text18213"
       x="-137.9447"
       y="519.89624"><tspan
         x="-137.9447"
         y="519.89624"
         id="tspan18211"
         style="font-style:normal;font-variant:normal;font-weight:normal;font-stretch:normal;font-size:18px;font-family:'Times New Roman';-inkscape-font-specification:'Times New Roman, Normal';font-variant-ligatures:normal;font-variant-caps:normal;font-variant-numeric:normal;font-variant-east-asian:normal;stroke-width:0.75">2</tspan></text><text
       transform="matrix(0,1,1,0,0,0)"
       style="font-style:normal;font-variant:normal;font-weight:normal;font-stretch:normal;font-size:18px;font-family:'Times New Roman';-inkscape-font-specification:'Times New Roman, Normal';font-variant-ligatures:normal;font-variant-caps:normal;font-variant-numeric:normal;font-variant-east-asian:normal;writing-mode:lr-tb;fill:#262626;fill-opacity:1;fill-rule:nonzero;stroke:none;stroke-width:0.75"
       id="text18221"
       x="-137.9447"
       y="443.43515"><tspan
         x="-137.9447"
         y="443.43515"
         id="tspan18219"
         style="font-style:normal;font-variant:normal;font-weight:normal;font-stretch:normal;font-size:18px;font-family:'Times New Roman';-inkscape-font-specification:'Times New Roman, Normal';font-variant-ligatures:normal;font-variant-caps:normal;font-variant-numeric:normal;font-variant-east-asian:normal;stroke-width:0.75">4</tspan></text><text
       transform="matrix(0,1,1,0,0,0)"
       style="font-style:normal;font-variant:normal;font-weight:normal;font-stretch:normal;font-size:18px;font-family:'Times New Roman';-inkscape-font-specification:'Times New Roman, Normal';font-variant-ligatures:normal;font-variant-caps:normal;font-variant-numeric:normal;font-variant-east-asian:normal;writing-mode:lr-tb;fill:#262626;fill-opacity:1;fill-rule:nonzero;stroke:none;stroke-width:0.75"
       id="text18229"
       x="-137.9447"
       y="366.97409"><tspan
         x="-137.9447"
         y="366.97409"
         id="tspan18227"
         style="font-style:normal;font-variant:normal;font-weight:normal;font-stretch:normal;font-size:18px;font-family:'Times New Roman';-inkscape-font-specification:'Times New Roman, Normal';font-variant-ligatures:normal;font-variant-caps:normal;font-variant-numeric:normal;font-variant-east-asian:normal;stroke-width:0.75">6</tspan></text><text
       transform="matrix(0,1,1,0,0,0)"
       style="font-style:normal;font-variant:normal;font-weight:normal;font-stretch:normal;font-size:18px;font-family:'Times New Roman';-inkscape-font-specification:'Times New Roman, Normal';font-variant-ligatures:normal;font-variant-caps:normal;font-variant-numeric:normal;font-variant-east-asian:normal;writing-mode:lr-tb;fill:#262626;fill-opacity:1;fill-rule:nonzero;stroke:none;stroke-width:0.75"
       id="text18237"
       x="-137.9447"
       y="290.51306"><tspan
         x="-137.9447"
         y="290.51306"
         id="tspan18235"
         style="font-style:normal;font-variant:normal;font-weight:normal;font-stretch:normal;font-size:18px;font-family:'Times New Roman';-inkscape-font-specification:'Times New Roman, Normal';font-variant-ligatures:normal;font-variant-caps:normal;font-variant-numeric:normal;font-variant-east-asian:normal;stroke-width:0.75">8</tspan></text><g
       id="g18271"
       transform="matrix(0,0.75,0.75,0,552.50142,-60.71761)"><path
         d="M 2,0 C 2,-1.1045695 1.1045695,-2 0,-2 -1.1045695,-2 -2,-1.1045695 -2,0 -2,1.1045695 -1.1045695,2 0,2 1.1045695,2 2,1.1045695 2,0 Z"
         style="fill:#fcb763;fill-opacity:1;fill-rule:nonzero;stroke:#fcb763;stroke-opacity:1"
         id="path18273" /></g><g
       id="g18275"
       transform="matrix(0,0.75,0.75,0,552.50142,-60.71761)"><path
         d="m 0,-1.6666667 c 0.92047458,0 1.6666667,0.74619212 1.6666667,1.6666667 V 0 C 1.6666667,0.92047458 0.92047458,1.6666667 0,1.6666667 -0.92047458,1.6666667 -1.6666667,0.92047458 -1.6666667,0 c 0,-0.92047458 0.74619212,-1.6666667 1.6666667,-1.6666667 z m 0,-0.6666666 c -1.2886644,0 -2.3333333,1.0446689 -2.3333333,2.3333333 0,1.2886644 1.0446689,2.3333333 2.3333333,2.3333333 C 1.2886644,2.3333333 2.3333333,1.2886644 2.3333333,0 V 0 C 2.3333333,-1.2886644 1.2886644,-2.3333333 0,-2.3333333 Z"
         style="fill:#fcb763;fill-opacity:1;fill-rule:nonzero;stroke:#fcb763;stroke-opacity:1"
         id="path18277" /></g><g
       id="g18279"
       transform="matrix(0,0.75,0.75,0,514.27092,11.749929)"><path
         d="M 2,0 C 2,-1.1045695 1.1045695,-2 0,-2 -1.1045695,-2 -2,-1.1045695 -2,0 -2,1.1045695 -1.1045695,2 0,2 1.1045695,2 2,1.1045695 2,0 Z"
         style="fill:#fcb763;fill-opacity:1;fill-rule:nonzero;stroke:#fcb763;stroke-opacity:1"
         id="path18281" /></g><g
       id="g18283"
       transform="matrix(0,0.75,0.75,0,514.27092,11.749929)"><path
         d="m 0,-1.6666667 c 0.92047458,0 1.6666667,0.74619212 1.6666667,1.6666667 V 0 C 1.6666667,0.92047458 0.92047458,1.6666667 0,1.6666667 -0.92047458,1.6666667 -1.6666667,0.92047458 -1.6666667,0 c 0,-0.92047458 0.74619212,-1.6666667 1.6666667,-1.6666667 z m 0,-0.6666666 c -1.2886644,0 -2.3333333,1.0446689 -2.3333333,2.3333333 0,1.2886644 1.0446689,2.3333333 2.3333333,2.3333333 C 1.2886644,2.3333333 2.3333333,1.2886644 2.3333333,0 V 0 C 2.3333333,-1.2886644 1.2886644,-2.3333333 0,-2.3333333 Z"
         style="fill:#fcb763;fill-opacity:1;fill-rule:nonzero;stroke:#fcb763;stroke-opacity:1"
         id="path18285" /></g><g
       id="g18287"
       transform="matrix(0,0.75,0.75,0,361.34883,84.217465)"><path
         d="M 2,0 C 2,-1.1045695 1.1045695,-2 0,-2 -1.1045695,-2 -2,-1.1045695 -2,0 -2,1.1045695 -1.1045695,2 0,2 1.1045695,2 2,1.1045695 2,0 Z"
         style="fill:#fcb763;fill-opacity:1;fill-rule:nonzero;stroke:#fcb763;stroke-opacity:1"
         id="path18289" /></g><g
       id="g18291"
       transform="matrix(0,0.75,0.75,0,361.34883,84.217465)"><path
         d="m 0,-1.6666667 c 0.92047458,0 1.6666667,0.74619212 1.6666667,1.6666667 V 0 C 1.6666667,0.92047458 0.92047458,1.6666667 0,1.6666667 -0.92047458,1.6666667 -1.6666667,0.92047458 -1.6666667,0 c 0,-0.92047458 0.74619212,-1.6666667 1.6666667,-1.6666667 z m 0,-0.6666666 c -1.2886644,0 -2.3333333,1.0446689 -2.3333333,2.3333333 0,1.2886644 1.0446689,2.3333333 2.3333333,2.3333333 C 1.2886644,2.3333333 2.3333333,1.2886644 2.3333333,0 V 0 C 2.3333333,-1.2886644 1.2886644,-2.3333333 0,-2.3333333 Z"
         style="fill:#fcb763;fill-opacity:1;fill-rule:nonzero;stroke:#fcb763;stroke-opacity:1"
         id="path18293" /></g><g
       id="g18295"
       transform="matrix(0,0.75,0.75,0,246.65727,156.68498)"><path
         d="M 2,0 C 2,-1.1045695 1.1045695,-2 0,-2 -1.1045695,-2 -2,-1.1045695 -2,0 -2,1.1045695 -1.1045695,2 0,2 1.1045695,2 2,1.1045695 2,0 Z"
         style="fill:#fcb763;fill-opacity:1;fill-rule:nonzero;stroke:#fcb763;stroke-opacity:1"
         id="path18297" /></g><g
       id="g18299"
       transform="matrix(0,0.75,0.75,0,246.65727,156.68498)"><path
         d="m 0,-1.6666667 c 0.92047458,0 1.6666667,0.74619212 1.6666667,1.6666667 V 0 C 1.6666667,0.92047458 0.92047458,1.6666667 0,1.6666667 -0.92047458,1.6666667 -1.6666667,0.92047458 -1.6666667,0 c 0,-0.92047458 0.74619212,-1.6666667 1.6666667,-1.6666667 z m 0,-0.6666666 c -1.2886644,0 -2.3333333,1.0446689 -2.3333333,2.3333333 0,1.2886644 1.0446689,2.3333333 2.3333333,2.3333333 C 1.2886644,2.3333333 2.3333333,1.2886644 2.3333333,0 V 0 C 2.3333333,-1.2886644 1.2886644,-2.3333333 0,-2.3333333 Z"
         style="fill:#fcb763;fill-opacity:1;fill-rule:nonzero;stroke:#fcb763;stroke-opacity:1"
         id="path18301" /></g><g
       id="g18303"
       transform="matrix(0,0.75,0.75,0,246.65727,229.15254)"><path
         d="M 2,0 C 2,-1.1045695 1.1045695,-2 0,-2 -1.1045695,-2 -2,-1.1045695 -2,0 -2,1.1045695 -1.1045695,2 0,2 1.1045695,2 2,1.1045695 2,0 Z"
         style="fill:#fcb763;fill-opacity:1;fill-rule:nonzero;stroke:#fcb763;stroke-opacity:1"
         id="path18305" /></g><g
       id="g18307"
       transform="matrix(0,0.75,0.75,0,246.65727,229.15254)"><path
         d="m 0,-1.6666667 c 0.92047458,0 1.6666667,0.74619212 1.6666667,1.6666667 V 0 C 1.6666667,0.92047458 0.92047458,1.6666667 0,1.6666667 -0.92047458,1.6666667 -1.6666667,0.92047458 -1.6666667,0 c 0,-0.92047458 0.74619212,-1.6666667 1.6666667,-1.6666667 z m 0,-0.6666666 c -1.2886644,0 -2.3333333,1.0446689 -2.3333333,2.3333333 0,1.2886644 1.0446689,2.3333333 2.3333333,2.3333333 C 1.2886644,2.3333333 2.3333333,1.2886644 2.3333333,0 V 0 C 2.3333333,-1.2886644 1.2886644,-2.3333333 0,-2.3333333 Z"
         style="fill:#fcb763;fill-opacity:1;fill-rule:nonzero;stroke:#fcb763;stroke-opacity:1"
         id="path18309" /></g><g
       id="g18311"
       transform="matrix(0,0.75,0.75,0,246.65727,301.62005)"><path
         d="M 2,0 C 2,-1.1045695 1.1045695,-2 0,-2 -1.1045695,-2 -2,-1.1045695 -2,0 -2,1.1045695 -1.1045695,2 0,2 1.1045695,2 2,1.1045695 2,0 Z"
         style="fill:#fcb763;fill-opacity:1;fill-rule:nonzero;stroke:#fcb763;stroke-opacity:1"
         id="path18313" /></g><g
       id="g18315"
       transform="matrix(0,0.75,0.75,0,246.65727,301.62005)"><path
         d="m 0,-1.6666667 c 0.92047458,0 1.6666667,0.74619212 1.6666667,1.6666667 V 0 C 1.6666667,0.92047458 0.92047458,1.6666667 0,1.6666667 -0.92047458,1.6666667 -1.6666667,0.92047458 -1.6666667,0 c 0,-0.92047458 0.74619212,-1.6666667 1.6666667,-1.6666667 z m 0,-0.6666666 c -1.2886644,0 -2.3333333,1.0446689 -2.3333333,2.3333333 0,1.2886644 1.0446689,2.3333333 2.3333333,2.3333333 C 1.2886644,2.3333333 2.3333333,1.2886644 2.3333333,0 V 0 C 2.3333333,-1.2886644 1.2886644,-2.3333333 0,-2.3333333 Z"
         style="fill:#fcb763;fill-opacity:1;fill-rule:nonzero;stroke:#fcb763;stroke-opacity:1"
         id="path18317" /></g><g
       id="g18319"
       transform="matrix(0,0.75,0.75,0,246.65727,374.08762)"><path
         d="M 2,0 C 2,-1.1045695 1.1045695,-2 0,-2 -1.1045695,-2 -2,-1.1045695 -2,0 -2,1.1045695 -1.1045695,2 0,2 1.1045695,2 2,1.1045695 2,0 Z"
         style="fill:#fcb763;fill-opacity:1;fill-rule:nonzero;stroke:#fcb763;stroke-opacity:1"
         id="path18321" /></g><g
       id="g18323"
       transform="matrix(0,0.75,0.75,0,246.65727,374.08762)"><path
         d="m 0,-1.6666667 c 0.92047458,0 1.6666667,0.74619212 1.6666667,1.6666667 V 0 C 1.6666667,0.92047458 0.92047458,1.6666667 0,1.6666667 -0.92047458,1.6666667 -1.6666667,0.92047458 -1.6666667,0 c 0,-0.92047458 0.74619212,-1.6666667 1.6666667,-1.6666667 z m 0,-0.6666666 c -1.2886644,0 -2.3333333,1.0446689 -2.3333333,2.3333333 0,1.2886644 1.0446689,2.3333333 2.3333333,2.3333333 C 1.2886644,2.3333333 2.3333333,1.2886644 2.3333333,0 V 0 C 2.3333333,-1.2886644 1.2886644,-2.3333333 0,-2.3333333 Z"
         style="fill:#fcb763;fill-opacity:1;fill-rule:nonzero;stroke:#fcb763;stroke-opacity:1"
         id="path18325" /></g><g
       id="g18327"
       transform="matrix(0,0.75,0.75,0,246.65727,446.55513)"><path
         d="M 2,0 C 2,-1.1045695 1.1045695,-2 0,-2 -1.1045695,-2 -2,-1.1045695 -2,0 -2,1.1045695 -1.1045695,2 0,2 1.1045695,2 2,1.1045695 2,0 Z"
         style="fill:#fcb763;fill-opacity:1;fill-rule:nonzero;stroke:#fcb763;stroke-opacity:1"
         id="path18329" /></g><g
       id="g18331"
       transform="matrix(0,0.75,0.75,0,246.65727,446.55513)"><path
         d="m 0,-1.6666667 c 0.92047458,0 1.6666667,0.74619212 1.6666667,1.6666667 V 0 C 1.6666667,0.92047458 0.92047458,1.6666667 0,1.6666667 -0.92047458,1.6666667 -1.6666667,0.92047458 -1.6666667,0 c 0,-0.92047458 0.74619212,-1.6666667 1.6666667,-1.6666667 z m 0,-0.6666666 c -1.2886644,0 -2.3333333,1.0446689 -2.3333333,2.3333333 0,1.2886644 1.0446689,2.3333333 2.3333333,2.3333333 C 1.2886644,2.3333333 2.3333333,1.2886644 2.3333333,0 V 0 C 2.3333333,-1.2886644 1.2886644,-2.3333333 0,-2.3333333 Z"
         style="fill:#fcb763;fill-opacity:1;fill-rule:nonzero;stroke:#fcb763;stroke-opacity:1"
         id="path18333" /></g><g
       id="g18335"
       transform="matrix(0,0.75,0.75,0,208.42675,519.02269)"><path
         d="M 2,0 C 2,-1.1045695 1.1045695,-2 0,-2 -1.1045695,-2 -2,-1.1045695 -2,0 -2,1.1045695 -1.1045695,2 0,2 1.1045695,2 2,1.1045695 2,0 Z"
         style="fill:#fcb763;fill-opacity:1;fill-rule:nonzero;stroke:#fcb763;stroke-opacity:1"
         id="path18337" /></g><g
       id="g18339"
       transform="matrix(0,0.75,0.75,0,208.42675,519.02269)"><path
         d="m 0,-1.6666667 c 0.92047458,0 1.6666667,0.74619212 1.6666667,1.6666667 V 0 C 1.6666667,0.92047458 0.92047458,1.6666667 0,1.6666667 -0.92047458,1.6666667 -1.6666667,0.92047458 -1.6666667,0 c 0,-0.92047458 0.74619212,-1.6666667 1.6666667,-1.6666667 z m 0,-0.6666666 c -1.2886644,0 -2.3333333,1.0446689 -2.3333333,2.3333333 0,1.2886644 1.0446689,2.3333333 2.3333333,2.3333333 C 1.2886644,2.3333333 2.3333333,1.2886644 2.3333333,0 V 0 C 2.3333333,-1.2886644 1.2886644,-2.3333333 0,-2.3333333 Z"
         style="fill:#fcb763;fill-opacity:1;fill-rule:nonzero;stroke:#fcb763;stroke-opacity:1"
         id="path18341" /></g><g
       id="g18343"
       transform="matrix(0,0.75,0.75,0,93.735195,591.49015)"><path
         d="M 2,0 C 2,-1.1045695 1.1045695,-2 0,-2 -1.1045695,-2 -2,-1.1045695 -2,0 -2,1.1045695 -1.1045695,2 0,2 1.1045695,2 2,1.1045695 2,0 Z"
         style="fill:#fcb763;fill-opacity:1;fill-rule:nonzero;stroke:#fcb763;stroke-opacity:1"
         id="path18345" /></g><g
       id="g18347"
       transform="matrix(0,0.75,0.75,0,93.735195,591.49015)"><path
         d="m 0,-1.6666667 c 0.92047458,0 1.6666667,0.74619212 1.6666667,1.6666667 V 0 C 1.6666667,0.92047458 0.92047458,1.6666667 0,1.6666667 -0.92047458,1.6666667 -1.6666667,0.92047458 -1.6666667,0 c 0,-0.92047458 0.74619212,-1.6666667 1.6666667,-1.6666667 z m 0,-0.6666666 c -1.2886644,0 -2.3333333,1.0446689 -2.3333333,2.3333333 0,1.2886644 1.0446689,2.3333333 2.3333333,2.3333333 C 1.2886644,2.3333333 2.3333333,1.2886644 2.3333333,0 V 0 C 2.3333333,-1.2886644 1.2886644,-2.3333333 0,-2.3333333 Z"
         style="fill:#fcb763;fill-opacity:1;fill-rule:nonzero;stroke:#fcb763;stroke-opacity:1"
         id="path18349" /></g><g
       id="g18351"
       transform="matrix(0,0.75,0.75,0,55.50467,663.95771)"><path
         d="M 2,0 C 2,-1.1045695 1.1045695,-2 0,-2 -1.1045695,-2 -2,-1.1045695 -2,0 -2,1.1045695 -1.1045695,2 0,2 1.1045695,2 2,1.1045695 2,0 Z"
         style="fill:#fcb763;fill-opacity:1;fill-rule:nonzero;stroke:#fcb763;stroke-opacity:1"
         id="path18353" /></g><g
       id="g18355"
       transform="matrix(0,0.75,0.75,0,55.50467,663.95771)"><path
         d="m 0,-1.6666667 c 0.92047458,0 1.6666667,0.74619212 1.6666667,1.6666667 V 0 C 1.6666667,0.92047458 0.92047458,1.6666667 0,1.6666667 -0.92047458,1.6666667 -1.6666667,0.92047458 -1.6666667,0 c 0,-0.92047458 0.74619212,-1.6666667 1.6666667,-1.6666667 z m 0,-0.6666666 c -1.2886644,0 -2.3333333,1.0446689 -2.3333333,2.3333333 0,1.2886644 1.0446689,2.3333333 2.3333333,2.3333333 C 1.2886644,2.3333333 2.3333333,1.2886644 2.3333333,0 V 0 C 2.3333333,-1.2886644 1.2886644,-2.3333333 0,-2.3333333 Z"
         style="fill:#fcb763;fill-opacity:1;fill-rule:nonzero;stroke:#fcb763;stroke-opacity:1"
         id="path18357" /></g><g
       id="g18359"
       transform="matrix(0,0.75,0.75,0,55.50467,736.42528)"><path
         d="M 2,0 C 2,-1.1045695 1.1045695,-2 0,-2 -1.1045695,-2 -2,-1.1045695 -2,0 -2,1.1045695 -1.1045695,2 0,2 1.1045695,2 2,1.1045695 2,0 Z"
         style="fill:#fcb763;fill-opacity:1;fill-rule:nonzero;stroke:#fcb763;stroke-opacity:1"
         id="path18361" /></g><g
       id="g18363"
       transform="matrix(0,0.75,0.75,0,55.50467,736.42528)"><path
         d="m 0,-1.6666667 c 0.92047458,0 1.6666667,0.74619212 1.6666667,1.6666667 V 0 C 1.6666667,0.92047458 0.92047458,1.6666667 0,1.6666667 -0.92047458,1.6666667 -1.6666667,0.92047458 -1.6666667,0 c 0,-0.92047458 0.74619212,-1.6666667 1.6666667,-1.6666667 z m 0,-0.6666666 c -1.2886644,0 -2.3333333,1.0446689 -2.3333333,2.3333333 0,1.2886644 1.0446689,2.3333333 2.3333333,2.3333333 C 1.2886644,2.3333333 2.3333333,1.2886644 2.3333333,0 V 0 C 2.3333333,-1.2886644 1.2886644,-2.3333333 0,-2.3333333 Z"
         style="fill:#fcb763;fill-opacity:1;fill-rule:nonzero;stroke:#fcb763;stroke-opacity:1"
         id="path18365" /></g><g
       id="g18367"
       transform="matrix(0,0.75,0.75,0,55.50467,808.89284)"><path
         d="M 2,0 C 2,-1.1045695 1.1045695,-2 0,-2 -1.1045695,-2 -2,-1.1045695 -2,0 -2,1.1045695 -1.1045695,2 0,2 1.1045695,2 2,1.1045695 2,0 Z"
         style="fill:#fcb763;fill-opacity:1;fill-rule:nonzero;stroke:#fcb763;stroke-opacity:1"
         id="path18369" /></g><g
       id="g18371"
       transform="matrix(0,0.75,0.75,0,55.50467,808.89284)"><path
         d="m 0,-1.6666667 c 0.92047458,0 1.6666667,0.74619212 1.6666667,1.6666667 V 0 C 1.6666667,0.92047458 0.92047458,1.6666667 0,1.6666667 -0.92047458,1.6666667 -1.6666667,0.92047458 -1.6666667,0 c 0,-0.92047458 0.74619212,-1.6666667 1.6666667,-1.6666667 z m 0,-0.6666666 c -1.2886644,0 -2.3333333,1.0446689 -2.3333333,2.3333333 0,1.2886644 1.0446689,2.3333333 2.3333333,2.3333333 C 1.2886644,2.3333333 2.3333333,1.2886644 2.3333333,0 V 0 C 2.3333333,-1.2886644 1.2886644,-2.3333333 0,-2.3333333 Z"
         style="fill:#fcb763;fill-opacity:1;fill-rule:nonzero;stroke:#fcb763;stroke-opacity:1"
         id="path18373" /></g><g
       id="g18375"
       transform="matrix(0,0.75,0.75,0,17.274157,881.3603)"><path
         d="M 2,0 C 2,-1.1045695 1.1045695,-2 0,-2 -1.1045695,-2 -2,-1.1045695 -2,0 -2,1.1045695 -1.1045695,2 0,2 1.1045695,2 2,1.1045695 2,0 Z"
         style="fill:#fcb763;fill-opacity:1;fill-rule:nonzero;stroke:#fcb763;stroke-opacity:1"
         id="path18377" /></g><g
       id="g18379"
       transform="matrix(0,0.75,0.75,0,17.274157,881.3603)"><path
         d="m 0,-1.6666667 c 0.92047458,0 1.6666667,0.74619212 1.6666667,1.6666667 V 0 C 1.6666667,0.92047458 0.92047458,1.6666667 0,1.6666667 -0.92047458,1.6666667 -1.6666667,0.92047458 -1.6666667,0 c 0,-0.92047458 0.74619212,-1.6666667 1.6666667,-1.6666667 z m 0,-0.6666666 c -1.2886644,0 -2.3333333,1.0446689 -2.3333333,2.3333333 0,1.2886644 1.0446689,2.3333333 2.3333333,2.3333333 C 1.2886644,2.3333333 2.3333333,1.2886644 2.3333333,0 V 0 C 2.3333333,-1.2886644 1.2886644,-2.3333333 0,-2.3333333 Z"
         style="fill:#fcb763;fill-opacity:1;fill-rule:nonzero;stroke:#fcb763;stroke-opacity:1"
         id="path18381" /></g><g
       id="g18383"
       transform="matrix(0,0.75,0.75,0,17.274157,953.82786)"><path
         d="M 2,0 C 2,-1.1045695 1.1045695,-2 0,-2 -1.1045695,-2 -2,-1.1045695 -2,0 -2,1.1045695 -1.1045695,2 0,2 1.1045695,2 2,1.1045695 2,0 Z"
         style="fill:#fcb763;fill-opacity:1;fill-rule:nonzero;stroke:#fcb763;stroke-opacity:1"
         id="path18385" /></g><g
       id="g18387"
       transform="matrix(0,0.75,0.75,0,17.274157,953.82786)"><path
         d="m 0,-1.6666667 c 0.92047458,0 1.6666667,0.74619212 1.6666667,1.6666667 V 0 C 1.6666667,0.92047458 0.92047458,1.6666667 0,1.6666667 -0.92047458,1.6666667 -1.6666667,0.92047458 -1.6666667,0 c 0,-0.92047458 0.74619212,-1.6666667 1.6666667,-1.6666667 z m 0,-0.6666666 c -1.2886644,0 -2.3333333,1.0446689 -2.3333333,2.3333333 0,1.2886644 1.0446689,2.3333333 2.3333333,2.3333333 C 1.2886644,2.3333333 2.3333333,1.2886644 2.3333333,0 V 0 C 2.3333333,-1.2886644 1.2886644,-2.3333333 0,-2.3333333 Z"
         style="fill:#fcb763;fill-opacity:1;fill-rule:nonzero;stroke:#fcb763;stroke-opacity:1"
         id="path18389" /></g><path
       d="m 579.33297,-57.330615 -10.47204,3.214508 -11.89517,3.821917 -11.3665,3.821917 -10.86342,3.821911 -10.38469,3.821939 -9.92912,3.821918 -9.49572,3.82191 -9.08331,3.821917 -8.69087,3.821911 -8.31757,3.821917 -7.96224,3.821918 -7.62433,3.821932 -7.3028,3.8219175 -6.99682,3.8219175 -6.70583,3.82191 -6.42897,3.8219175 -6.16562,3.8219175 -5.91504,3.82191 -1.34793,0.893445 -4.3288,2.928495 -5.45008,3.82191 -5.23444,3.821918 -5.0294,3.821917 -4.83435,3.82191 -4.64887,3.821918 -4.47244,3.821917 -4.30476,3.821933 -4.14524,3.821917 -3.99358,3.82191 -3.84932,3.821918 -3.71233,3.821917 -3.58196,3.82191 -3.45804,3.821918 -3.34035,3.821917 -3.22837,3.821933 -3.12204,3.821917 -3.02102,3.821918 -2.92488,3.82191 -0.55902,0.744532 -2.27467,3.077363 -2.74699,3.821955 -2.66465,3.821917 -2.58641,3.821918 -2.51211,3.821907 -2.44167,3.82192 -2.37465,3.82192 -2.31111,3.82191 -2.25078,3.82192 -2.19351,3.82191 -2.13917,3.82191 -2.08768,3.82192 -2.03877,3.82196 -1.99243,3.82187 -1.94852,3.82192 -1.90684,3.82195 -1.86737,3.82192 -1.83001,3.82192 -1.79459,3.82191 -0.2766,0.59559 -1.48446,3.22632 -1.72935,3.82191 -1.6993,3.82192 -1.67091,3.82192 -1.64406,3.82191 -1.61872,3.82192 -1.59471,3.82191 -1.57212,3.82191 -1.55072,3.82192 -1.53063,3.82196 -1.51161,3.82187 -1.49372,3.82196 -1.47688,3.82191 -1.46103,3.82192 -1.44616,3.82192 -1.43219,3.82191 -1.41902,3.82191 -1.40675,3.82191 -1.39524,3.82192 -0.16235,0.44673 -1.22209,3.37519 -1.37437,3.82191 -1.365,3.82192 -1.35626,3.82191 -1.34812,3.82191 -1.34062,3.82197 -1.33361,3.82191 -1.32717,3.82191 -1.32122,3.82188 -1.31575,3.82195 -1.31074,3.82192 -1.3062,3.82192 -1.30209,3.82191 -1.29831,3.82191 -1.29495,3.82192 -1.29196,3.82191 -1.28927,3.82192 -1.287,3.82191 -1.28497,3.82196 -0.10004,0.29777 -1.18323,3.52415 -1.28183,3.82191 -1.28069,3.82187 -1.27984,3.82192 -1.27917,3.82195 -1.27874,3.82192 -1.27862,3.82191 -1.27866,3.82192 -1.27892,3.82192 -1.27931,3.82191 -1.28002,3.82191 -1.28082,3.82192 -1.28181,3.82191 -1.28298,3.82196 -1.28428,3.82192 -1.28574,3.82187 -1.28739,3.82191 -1.28909,3.82196 -1.29103,3.82192 -0.0503,0.14891 -1.24267,3.673 -1.29515,3.82191 -1.29737,3.82192 -1.2998,3.82192 -1.30217,3.82191 -1.30481,3.82192 -1.30745,3.82191 -1.3102,3.82196 -1.31308,3.82187 -1.31603,3.82191 -1.31901,3.82192 -1.32214,3.82192 -1.3253,3.82195 -1.32854,3.82192 -1.33191,3.82192 -1.33525,3.82191 -1.33875,3.82191 -1.34226,3.82191 -1.34587,3.82192 v 0 l -1.34946,3.82192 -1.3532,3.82193 -1.35695,3.82193 -1.36077,3.82185 -1.36462,3.82192 -1.36853,3.82193 -1.37248,3.822 -1.37652,3.82185 -1.38055,3.82192 -1.38464,3.82193 -1.38879,3.82192 -1.39298,3.822 -1.39718,3.82185 -1.40147,3.82185 -1.40574,3.822 -1.4101,3.82193 -1.41444,3.82185 -1.41887,3.822 -1.36777,3.67297 -0.0555,0.14888 -1.42779,3.82192 -1.43227,3.82193 -1.43683,3.82185 -1.44139,3.82192 -1.44598,3.822 -1.45066,3.82185 -1.45527,3.822 -1.45999,3.82185 -1.46468,3.82193 -1.46942,3.822 -1.47426,3.82185 -1.47901,3.822 -1.48382,3.82185 -1.48871,3.82192 -1.49357,3.82193 -1.49849,3.82185 -1.50339,3.82192 -1.50837,3.822 -1.39522,3.52403 -0.11815,0.29782 -1.51832,3.82193 -1.52339,3.82192 -1.5284,3.82193 -1.53349,3.822 -1.53858,3.82185 -1.54374,3.82192 -1.54882,3.82193 -1.55402,3.82185 -1.55923,3.82192 -1.56441,3.82193 -1.56965,3.82192 -1.5749,3.822 -1.58016,3.82185 -1.58547,3.82193 -1.5908,3.82192 -1.59612,3.82193 -1.60152,3.82192 -1.60688,3.82193 -1.42356,3.37515 -0.18871,0.44677 -1.61771,3.82185 -1.62317,3.82193 -1.62861,3.82192 -1.63411,3.82185 -1.63962,3.822 -1.64517,3.82185 -1.65069,3.822 -1.65628,3.82193 -1.6619,3.82185 -1.667472,3.822 -1.67313,3.82192 -1.67877,3.82193 -1.684463,3.82192 -1.690155,3.82185 -1.695877,3.82193 -1.701638,3.82192 -1.707352,3.82185 -1.713158,3.822 -1.450687,3.22628 -0.268275,0.59557 -1.724783,3.82193 -1.730625,3.822 -1.736452,3.82185 -1.7424,3.822 -1.748265,3.82185 -1.754213,3.82192 -1.76016,3.822 -1.76613,3.82185 -1.772107,3.82185 -1.778123,3.822 -1.784145,3.82185 -1.790197,3.822 -1.796288,3.82185 -1.802377,3.82193 -1.808498,3.822 -1.814655,3.82185 -1.82079,3.82192 -1.826985,3.82193 -1.475587,3.0774 -0.357593,0.74452 -1.839375,3.822 -1.84566,3.82185 -1.851915,3.82185 -1.858237,3.822 -1.864493,3.82185 -1.870845,3.82193 -1.877227,3.82192 -1.883565,3.82193 -1.889993,3.822 -1.896397,3.82185 -1.902855,3.82192 -1.909313,3.82193 -1.9158,3.82192 -1.922287,3.82193 -1.92885,3.82192 -1.935383,3.82185 -1.941975,3.82193 -1.948575,3.82192 -1.49754,2.92845 -0.457635,0.89348 -1.96185,3.82185 -1.9684815,3.822 -1.9751925,3.82185 -1.9818997,3.822 -1.9886453,3.82192 -1.9953862,3.82185 -2.0021723,3.822 -2.0089935,3.82193 -2.015802,3.82192 -2.022663,3.82185 -2.0295525,3.82193 -1.3594327,2.55135"
       style="fill:none;stroke:#fcb763;stroke-width:1.5;stroke-linecap:butt;stroke-linejoin:round;stroke-miterlimit:10;stroke-dasharray:none;stroke-opacity:1"
       id="path18393" /><text
       xml:space="preserve"
       style="font-style:normal;font-variant:normal;font-weight:normal;font-stretch:normal;font-size:18px;line-height:1.25;font-family:'Times New Roman';-inkscape-font-specification:'Times New Roman, Normal';font-variant-ligatures:normal;font-variant-caps:normal;font-variant-numeric:normal;font-variant-east-asian:normal;fill:#000000;fill-opacity:1;stroke:none;stroke-width:0.75"
       x="-147.33363"
       y="214.95885"
       id="text21552"
       transform="matrix(0,1,1,0,0,0)"><tspan
         sodipodi:role="line"
         id="tspan21550"
         style="font-style:normal;font-variant:normal;font-weight:normal;font-stretch:normal;font-size:18px;font-family:'Times New Roman';-inkscape-font-specification:'Times New Roman, Normal';font-variant-ligatures:normal;font-variant-caps:normal;font-variant-numeric:normal;font-variant-east-asian:normal;stroke-width:0.75"
         x="-147.33363"
         y="214.95885">10</tspan></text><text
       xml:space="preserve"
       style="font-style:normal;font-variant:normal;font-weight:normal;font-stretch:normal;font-size:18px;line-height:1.25;font-family:'Times New Roman';-inkscape-font-specification:'Times New Roman, Normal';font-variant-ligatures:normal;font-variant-caps:normal;font-variant-numeric:normal;font-variant-east-asian:normal;fill:#000000;fill-opacity:1;stroke:none;stroke-width:0.75"
       x="-147.22816"
       y="137.93408"
       id="text21552-9"
       transform="matrix(0,1,1,0,0,0)"><tspan
         sodipodi:role="line"
         id="tspan22005"
         x="-147.22816"
         y="137.93408">12</tspan></text><text
       xml:space="preserve"
       style="font-style:normal;font-variant:normal;font-weight:normal;font-stretch:normal;font-size:18px;line-height:1.25;font-family:'Times New Roman';-inkscape-font-specification:'Times New Roman, Normal';font-variant-ligatures:normal;font-variant-caps:normal;font-variant-numeric:normal;font-variant-east-asian:normal;fill:#000000;fill-opacity:1;stroke:none;stroke-width:0.75"
       x="-147.35121"
       y="60.73111"
       id="text21552-9-5"
       transform="matrix(0,1,1,0,0,0)"><tspan
         sodipodi:role="line"
         id="tspan22052"
         x="-147.35121"
         y="60.73111">14</tspan></text><text
       transform="matrix(0,1,1,0,0,0)"
       style="font-style:normal;font-variant:normal;font-weight:normal;font-stretch:normal;font-size:18px;font-family:'Times New Roman';-inkscape-font-specification:'Times New Roman, Normal';font-variant-ligatures:normal;font-variant-caps:normal;font-variant-numeric:normal;font-variant-east-asian:normal;writing-mode:lr-tb;fill:#262626;fill-opacity:1;fill-rule:nonzero;stroke:none;stroke-width:0.75"
       id="text18109-6"
       x="654.19934"
       y="607.78284"><tspan
         sodipodi:role="line"
         id="tspan22099"
         x="654.19934"
         y="607.78284">10</tspan></text><text
       transform="matrix(0,1,1,0,0,0)"
       style="font-style:normal;font-variant:normal;font-weight:normal;font-stretch:normal;font-size:18px;font-family:'Times New Roman';-inkscape-font-specification:'Times New Roman, Normal';font-variant-ligatures:normal;font-variant-caps:normal;font-variant-numeric:normal;font-variant-east-asian:normal;writing-mode:lr-tb;fill:#262626;fill-opacity:1;fill-rule:nonzero;stroke:none;stroke-width:0.75"
       id="text18109-7"
       x="799.4859"
       y="607.11639"><tspan
         sodipodi:role="line"
         id="tspan22136"
         x="799.4859"
         y="607.11639">12</tspan></text><text
       transform="matrix(0,1,1,0,0,0)"
       style="font-style:normal;font-variant:normal;font-weight:normal;font-stretch:normal;font-size:18px;font-family:'Times New Roman';-inkscape-font-specification:'Times New Roman, Normal';font-variant-ligatures:normal;font-variant-caps:normal;font-variant-numeric:normal;font-variant-east-asian:normal;writing-mode:lr-tb;fill:#262626;fill-opacity:1;fill-rule:nonzero;stroke:none;stroke-width:0.75"
       id="text18109-0"
       x="943.43951"
       y="607.11658"><tspan
         sodipodi:role="line"
         id="tspan22173"
         x="943.43951"
         y="607.11658">14</tspan></text><text
       xml:space="preserve"
       style="font-style:normal;font-variant:normal;font-weight:normal;font-stretch:normal;font-size:20px;line-height:1.25;font-family:'Times New Roman';-inkscape-font-specification:'Times New Roman, Normal';font-variant-ligatures:normal;font-variant-caps:normal;font-variant-numeric:normal;font-variant-east-asian:normal;fill:#000000;fill-opacity:1;stroke:none;stroke-width:0.75"
       x="-403.88626"
       y="-162.07303"
       id="text22594"
       transform="scale(-1,1)"><tspan
         sodipodi:role="line"
         id="tspan22592"
         style="font-style:normal;font-variant:normal;font-weight:normal;font-stretch:normal;font-size:20px;font-family:'Times New Roman';-inkscape-font-specification:'Times New Roman, Normal';font-variant-ligatures:normal;font-variant-caps:normal;font-variant-numeric:normal;font-variant-east-asian:normal;stroke-width:0.75"
         x="-403.88626"
         y="-162.07303">Number of occupied polygons</tspan></text><text
       xml:space="preserve"
       style="font-style:normal;font-variant:normal;font-weight:normal;font-stretch:normal;font-size:20px;line-height:1.25;font-family:'Times New Roman';-inkscape-font-specification:'Times New Roman, Normal';font-variant-ligatures:normal;font-variant-caps:normal;font-variant-numeric:normal;font-variant-east-asian:normal;fill:#000000;fill-opacity:1;stroke:none;stroke-width:0.75"
       x="354.76273"
       y="638.45544"
       id="text23246"
       transform="matrix(0,1,1,0,0,0)"><tspan
         sodipodi:role="line"
         id="tspan23244"
         style="font-style:normal;font-variant:normal;font-weight:normal;font-stretch:normal;font-size:20px;font-family:'Times New Roman';-inkscape-font-specification:'Times New Roman, Normal';font-variant-ligatures:normal;font-variant-caps:normal;font-variant-numeric:normal;font-variant-east-asian:normal;stroke-width:0.75"
         x="354.76273"
         y="638.45544">Years since first record</tspan></text></g></svg>
