<?xml version="1.0" encoding="UTF-8" standalone="no"?>
<!-- Created with Inkscape (http://www.inkscape.org/) -->

<svg
   version="1.1"
   id="svg14635"
   xml:space="preserve"
   width="793.33331"
   height="1122.6667"
   viewBox="0 0 793.33331 1122.6667"
   sodipodi:docname="UK.svg.2022_06_21_14_52_58.0.svg"
   inkscape:version="1.1.1 (3bf5ae0d25, 2021-09-20)"
   xmlns:inkscape="http://www.inkscape.org/namespaces/inkscape"
   xmlns:sodipodi="http://sodipodi.sourceforge.net/DTD/sodipodi-0.dtd"
   xmlns="http://www.w3.org/2000/svg"
   xmlns:svg="http://www.w3.org/2000/svg"><defs
     id="defs14639"><clipPath
       clipPathUnits="userSpaceOnUse"
       id="clipPath14651"><path
         d="M 0,0 H 1920 V 963.00002 H 0 Z"
         id="path14649" /></clipPath></defs><sodipodi:namedview
     id="namedview14637"
     pagecolor="#ffffff"
     bordercolor="#999999"
     borderopacity="1"
     inkscape:pageshadow="0"
     inkscape:pageopacity="0"
     inkscape:pagecheckerboard="0"
     showgrid="false"
     inkscape:zoom="0.54115914"
     inkscape:rotation="90"
     inkscape:cx="411.15447"
     inkscape:cy="620.88945"
     inkscape:window-width="1920"
     inkscape:window-height="1017"
     inkscape:window-x="1912"
     inkscape:window-y="-8"
     inkscape:window-maximized="1"
     inkscape:current-layer="g14641" /><g
     id="g14641"
     inkscape:groupmode="layer"
     inkscape:label="UK"
     transform="matrix(1.3333333,0,0,-1.3333333,0,1122.6667)"><g
       id="g14735"
       transform="matrix(0,0.75,0.75,0,-63.48721,-298.94487)"
       style="stroke-width:2.00000005;stroke-miterlimit:4;stroke-dasharray:none"><path
         d="M 250,857 H 1738"
         style="fill:none;stroke:#262626;stroke-width:2.00000005;stroke-linecap:square;stroke-linejoin:round;stroke-miterlimit:4;stroke-dasharray:none;stroke-opacity:1"
         id="path14737" /></g><g
       id="g14743"
       transform="matrix(0,0.75,0.75,0,-52.149907,-298.94487)"
       style="stroke-width:2;stroke-miterlimit:10;stroke-dasharray:none"><path
         d="M 317.63635,857 V 842.12"
         style="fill:none;stroke:#262626;stroke-width:2;stroke-linecap:square;stroke-linejoin:round;stroke-miterlimit:10;stroke-dasharray:none;stroke-opacity:1"
         id="path14745" /></g><g
       id="g14747"
       transform="matrix(0,0.75,0.75,0,-52.149907,-298.94487)"
       style="stroke-width:2;stroke-miterlimit:10;stroke-dasharray:none"><path
         d="M 461.54352,857 V 842.12"
         style="fill:none;stroke:#262626;stroke-width:2;stroke-linecap:square;stroke-linejoin:round;stroke-miterlimit:10;stroke-dasharray:none;stroke-opacity:1"
         id="path14749" /></g><g
       id="g14751"
       transform="matrix(0,0.75,0.75,0,-52.149907,-298.94487)"
       style="stroke-width:2;stroke-miterlimit:10;stroke-dasharray:none"><path
         d="M 605.45068,857 V 842.12"
         style="fill:none;stroke:#262626;stroke-width:2;stroke-linecap:square;stroke-linejoin:round;stroke-miterlimit:10;stroke-dasharray:none;stroke-opacity:1"
         id="path14753" /></g><g
       id="g14755"
       transform="matrix(0,0.75,0.75,0,-52.149907,-298.94487)"
       style="stroke-width:2;stroke-miterlimit:10;stroke-dasharray:none"><path
         d="M 749.35785,857 V 842.12"
         style="fill:none;stroke:#262626;stroke-width:2;stroke-linecap:square;stroke-linejoin:round;stroke-miterlimit:10;stroke-dasharray:none;stroke-opacity:1"
         id="path14757" /></g><g
       id="g14759"
       transform="matrix(0,0.75,0.75,0,-52.149907,-298.94487)"
       style="stroke-width:2;stroke-miterlimit:10;stroke-dasharray:none"><path
         d="M 893.26501,857 V 842.12"
         style="fill:none;stroke:#262626;stroke-width:2;stroke-linecap:square;stroke-linejoin:round;stroke-miterlimit:10;stroke-dasharray:none;stroke-opacity:1"
         id="path14761" /></g><g
       id="g14763"
       transform="matrix(0,0.75,0.75,0,-52.149907,-298.94487)"
       style="stroke-width:2;stroke-miterlimit:10;stroke-dasharray:none"><path
         d="M 1037.1721,857 V 842.12"
         style="fill:none;stroke:#262626;stroke-width:2;stroke-linecap:square;stroke-linejoin:round;stroke-miterlimit:10;stroke-dasharray:none;stroke-opacity:1"
         id="path14765" /></g><g
       id="g14767"
       transform="matrix(0,0.75,0.75,0,-52.149907,-298.94487)"
       style="stroke-width:2;stroke-miterlimit:10;stroke-dasharray:none"><path
         d="M 1181.0793,857 V 842.12"
         style="fill:none;stroke:#262626;stroke-width:2;stroke-linecap:square;stroke-linejoin:round;stroke-miterlimit:10;stroke-dasharray:none;stroke-opacity:1"
         id="path14769" /></g><g
       id="g14771"
       transform="matrix(0,0.75,0.75,0,-52.149907,-298.94487)"
       style="stroke-width:2;stroke-miterlimit:10;stroke-dasharray:none"><path
         d="M 1324.9865,857 V 842.12"
         style="fill:none;stroke:#262626;stroke-width:2;stroke-linecap:square;stroke-linejoin:round;stroke-miterlimit:10;stroke-dasharray:none;stroke-opacity:1"
         id="path14773" /></g><g
       id="g14775"
       transform="matrix(0,0.75,0.75,0,-52.149907,-298.94487)"
       style="stroke-width:2;stroke-miterlimit:10;stroke-dasharray:none"><path
         d="M 1468.8937,857 V 842.12"
         style="fill:none;stroke:#262626;stroke-width:2;stroke-linecap:square;stroke-linejoin:round;stroke-miterlimit:10;stroke-dasharray:none;stroke-opacity:1"
         id="path14777" /></g><g
       id="g14779"
       transform="matrix(0,0.75,0.75,0,-52.149907,-298.94487)"
       style="stroke-width:2;stroke-miterlimit:10;stroke-dasharray:none"><path
         d="M 1612.8008,857 V 842.12"
         style="fill:none;stroke:#262626;stroke-width:2;stroke-linecap:square;stroke-linejoin:round;stroke-miterlimit:10;stroke-dasharray:none;stroke-opacity:1"
         id="path14781" /></g><text
       transform="matrix(0,1,1,0,0,0)"
       style="font-style:normal;font-variant:normal;font-weight:normal;font-stretch:normal;font-size:18px;font-family:'Times New Roman';-inkscape-font-specification:'Times New Roman, Normal';font-variant-ligatures:normal;font-variant-caps:normal;font-variant-numeric:normal;font-variant-east-asian:normal;writing-mode:lr-tb;fill:#262626;fill-opacity:1;fill-rule:nonzero;stroke:none;stroke-width:0.75"
       id="text14829"
       x="-64.941055"
       y="607.93573"><tspan
         x="-64.941055"
         y="607.93573"
         id="tspan14827"
         style="font-style:normal;font-variant:normal;font-weight:normal;font-stretch:normal;font-size:18px;font-family:'Times New Roman';-inkscape-font-specification:'Times New Roman, Normal';font-variant-ligatures:normal;font-variant-caps:normal;font-variant-numeric:normal;font-variant-east-asian:normal;stroke-width:0.75">0</tspan></text><text
       transform="matrix(0,1,1,0,0,0)"
       style="font-style:normal;font-variant:normal;font-weight:normal;font-stretch:normal;font-size:18px;font-family:'Times New Roman';-inkscape-font-specification:'Times New Roman, Normal';font-variant-ligatures:normal;font-variant-caps:normal;font-variant-numeric:normal;font-variant-east-asian:normal;writing-mode:lr-tb;fill:#262626;fill-opacity:1;fill-rule:nonzero;stroke:none;stroke-width:0.75"
       id="text14837"
       x="43.320408"
       y="607.93573"><tspan
         x="43.320408"
         y="607.93573"
         id="tspan14835"
         style="font-style:normal;font-variant:normal;font-weight:normal;font-stretch:normal;font-size:18px;font-family:'Times New Roman';-inkscape-font-specification:'Times New Roman, Normal';font-variant-ligatures:normal;font-variant-caps:normal;font-variant-numeric:normal;font-variant-east-asian:normal;stroke-width:0.75">5</tspan></text><g
       id="g14911"
       transform="matrix(0,0.75,0.75,0,-63.48721,-298.94487)"
       style="stroke-width:2.00000005;stroke-miterlimit:4;stroke-dasharray:none"><path
         d="M 250,857 V 72"
         style="fill:none;stroke:#262626;stroke-width:2.00000005;stroke-linecap:square;stroke-linejoin:round;stroke-miterlimit:4;stroke-dasharray:none;stroke-opacity:1"
         id="path14913" /></g><g
       id="g14919"
       transform="matrix(0,0.75,0.75,0,-63.48721,-310.28462)"
       style="stroke-width:2;stroke-miterlimit:10;stroke-dasharray:none"><path
         d="m 250,821.31818 h 14.88"
         style="fill:none;stroke:#262626;stroke-width:2;stroke-linecap:square;stroke-linejoin:round;stroke-miterlimit:10;stroke-dasharray:none;stroke-opacity:1"
         id="path14921" /></g><g
       id="g14923"
       transform="matrix(0,0.75,0.75,0,-63.48721,-310.28462)"
       style="stroke-width:2;stroke-miterlimit:10;stroke-dasharray:none"><path
         d="m 250,726.16669 h 14.88"
         style="fill:none;stroke:#262626;stroke-width:2;stroke-linecap:square;stroke-linejoin:round;stroke-miterlimit:10;stroke-dasharray:none;stroke-opacity:1"
         id="path14925" /></g><g
       id="g14927"
       transform="matrix(0,0.75,0.75,0,-63.48721,-310.28462)"
       style="stroke-width:2;stroke-miterlimit:10;stroke-dasharray:none"><path
         d="m 250,631.01514 h 14.88"
         style="fill:none;stroke:#262626;stroke-width:2;stroke-linecap:square;stroke-linejoin:round;stroke-miterlimit:10;stroke-dasharray:none;stroke-opacity:1"
         id="path14929" /></g><g
       id="g14931"
       transform="matrix(0,0.75,0.75,0,-63.48721,-310.28462)"
       style="stroke-width:2;stroke-miterlimit:10;stroke-dasharray:none"><path
         d="m 250,535.86365 h 14.88"
         style="fill:none;stroke:#262626;stroke-width:2;stroke-linecap:square;stroke-linejoin:round;stroke-miterlimit:10;stroke-dasharray:none;stroke-opacity:1"
         id="path14933" /></g><g
       id="g14935"
       transform="matrix(0,0.75,0.75,0,-63.48721,-310.28462)"
       style="stroke-width:2;stroke-miterlimit:10;stroke-dasharray:none"><path
         d="m 250,440.71213 h 14.88"
         style="fill:none;stroke:#262626;stroke-width:2;stroke-linecap:square;stroke-linejoin:round;stroke-miterlimit:10;stroke-dasharray:none;stroke-opacity:1"
         id="path14937" /></g><g
       id="g14939"
       transform="matrix(0,0.75,0.75,0,-63.48721,-310.28462)"
       style="stroke-width:2;stroke-miterlimit:10;stroke-dasharray:none"><path
         d="m 250,345.56061 h 14.88"
         style="fill:none;stroke:#262626;stroke-width:2;stroke-linecap:square;stroke-linejoin:round;stroke-miterlimit:10;stroke-dasharray:none;stroke-opacity:1"
         id="path14941" /></g><g
       id="g14943"
       transform="matrix(0,0.75,0.75,0,-63.48721,-310.28462)"
       style="stroke-width:2;stroke-miterlimit:10;stroke-dasharray:none"><path
         d="m 250,250.40909 h 14.88"
         style="fill:none;stroke:#262626;stroke-width:2;stroke-linecap:square;stroke-linejoin:round;stroke-miterlimit:10;stroke-dasharray:none;stroke-opacity:1"
         id="path14945" /></g><g
       id="g14947"
       transform="matrix(0,0.75,0.75,0,-63.48721,-310.28462)"
       style="stroke-width:2;stroke-miterlimit:10;stroke-dasharray:none"><path
         d="m 250,155.25757 h 14.88"
         style="fill:none;stroke:#262626;stroke-width:2;stroke-linecap:square;stroke-linejoin:round;stroke-miterlimit:10;stroke-dasharray:none;stroke-opacity:1"
         id="path14949" /></g><text
       transform="matrix(0,1,1,0,0,0)"
       style="font-style:normal;font-variant:normal;font-weight:normal;font-stretch:normal;font-size:18px;font-family:'Times New Roman';-inkscape-font-specification:'Times New Roman, Normal';font-variant-ligatures:normal;font-variant-caps:normal;font-variant-numeric:normal;font-variant-east-asian:normal;writing-mode:lr-tb;fill:#262626;fill-opacity:1;fill-rule:nonzero;stroke:none;stroke-width:0.75"
       id="text14989"
       x="-138.45192"
       y="559.46045"><tspan
         x="-138.45192"
         y="559.46045"
         id="tspan14987"
         style="font-style:normal;font-variant:normal;font-weight:normal;font-stretch:normal;font-size:18px;font-family:'Times New Roman';-inkscape-font-specification:'Times New Roman, Normal';font-variant-ligatures:normal;font-variant-caps:normal;font-variant-numeric:normal;font-variant-east-asian:normal;stroke-width:0.75">0</tspan></text><g
       id="g15055"
       transform="matrix(0,0.75,0.75,0,552.50142,-60.71761)"><path
         d="M 2,0 C 2,-1.1045695 1.1045695,-2 0,-2 -1.1045695,-2 -2,-1.1045695 -2,0 -2,1.1045695 -1.1045695,2 0,2 1.1045695,2 2,1.1045695 2,0 Z"
         style="fill:#fcb763;fill-opacity:1;fill-rule:nonzero;stroke:#fcb763;stroke-opacity:1"
         id="path15057" /></g><g
       id="g15059"
       transform="matrix(0,0.75,0.75,0,552.50142,-60.71761)"><path
         d="m 0,-1.6666667 c 0.92047458,0 1.6666667,0.74619212 1.6666667,1.6666667 V 0 C 1.6666667,0.92047458 0.92047458,1.6666667 0,1.6666667 -0.92047458,1.6666667 -1.6666667,0.92047458 -1.6666667,0 c 0,-0.92047458 0.74619212,-1.6666667 1.6666667,-1.6666667 z m 0,-0.6666666 c -1.2886644,0 -2.3333333,1.0446689 -2.3333333,2.3333333 0,1.2886644 1.0446689,2.3333333 2.3333333,2.3333333 C 1.2886644,2.3333333 2.3333333,1.2886644 2.3333333,0 V 0 C 2.3333333,-1.2886644 1.2886644,-2.3333333 0,-2.3333333 Z"
         style="fill:#fcb763;fill-opacity:1;fill-rule:nonzero;stroke:#fcb763;stroke-opacity:1"
         id="path15061" /></g><g
       id="g15063"
       transform="matrix(0,0.75,0.75,0,552.50142,-39.131535)"><path
         d="M 2,0 C 2,-1.1045695 1.1045695,-2 0,-2 -1.1045695,-2 -2,-1.1045695 -2,0 -2,1.1045695 -1.1045695,2 0,2 1.1045695,2 2,1.1045695 2,0 Z"
         style="fill:#fcb763;fill-opacity:1;fill-rule:nonzero;stroke:#fcb763;stroke-opacity:1"
         id="path15065" /></g><g
       id="g15067"
       transform="matrix(0,0.75,0.75,0,552.50142,-39.131535)"><path
         d="m 0,-1.6666667 c 0.92047458,0 1.6666667,0.74619212 1.6666667,1.6666667 V 0 C 1.6666667,0.92047458 0.92047458,1.6666667 0,1.6666667 -0.92047458,1.6666667 -1.6666667,0.92047458 -1.6666667,0 c 0,-0.92047458 0.74619212,-1.6666667 1.6666667,-1.6666667 z m 0,-0.6666666 c -1.2886644,0 -2.3333333,1.0446689 -2.3333333,2.3333333 0,1.2886644 1.0446689,2.3333333 2.3333333,2.3333333 C 1.2886644,2.3333333 2.3333333,1.2886644 2.3333333,0 V 0 C 2.3333333,-1.2886644 1.2886644,-2.3333333 0,-2.3333333 Z"
         style="fill:#fcb763;fill-opacity:1;fill-rule:nonzero;stroke:#fcb763;stroke-opacity:1"
         id="path15069" /></g><g
       id="g15071"
       transform="matrix(0,0.75,0.75,0,552.50142,-17.54546)"><path
         d="M 2,0 C 2,-1.1045695 1.1045695,-2 0,-2 -1.1045695,-2 -2,-1.1045695 -2,0 -2,1.1045695 -1.1045695,2 0,2 1.1045695,2 2,1.1045695 2,0 Z"
         style="fill:#fcb763;fill-opacity:1;fill-rule:nonzero;stroke:#fcb763;stroke-opacity:1"
         id="path15073" /></g><g
       id="g15075"
       transform="matrix(0,0.75,0.75,0,552.50142,-17.54546)"><path
         d="m 0,-1.6666667 c 0.92047458,0 1.6666667,0.74619212 1.6666667,1.6666667 V 0 C 1.6666667,0.92047458 0.92047458,1.6666667 0,1.6666667 -0.92047458,1.6666667 -1.6666667,0.92047458 -1.6666667,0 c 0,-0.92047458 0.74619212,-1.6666667 1.6666667,-1.6666667 z m 0,-0.6666666 c -1.2886644,0 -2.3333333,1.0446689 -2.3333333,2.3333333 0,1.2886644 1.0446689,2.3333333 2.3333333,2.3333333 C 1.2886644,2.3333333 2.3333333,1.2886644 2.3333333,0 V 0 C 2.3333333,-1.2886644 1.2886644,-2.3333333 0,-2.3333333 Z"
         style="fill:#fcb763;fill-opacity:1;fill-rule:nonzero;stroke:#fcb763;stroke-opacity:1"
         id="path15077" /></g><g
       id="g15079"
       transform="matrix(0,0.75,0.75,0,552.50142,4.0406162)"><path
         d="M 2,0 C 2,-1.1045695 1.1045695,-2 0,-2 -1.1045695,-2 -2,-1.1045695 -2,0 -2,1.1045695 -1.1045695,2 0,2 1.1045695,2 2,1.1045695 2,0 Z"
         style="fill:#fcb763;fill-opacity:1;fill-rule:nonzero;stroke:#fcb763;stroke-opacity:1"
         id="path15081" /></g><g
       id="g15083"
       transform="matrix(0,0.75,0.75,0,552.50142,4.0406162)"><path
         d="m 0,-1.6666667 c 0.92047458,0 1.6666667,0.74619212 1.6666667,1.6666667 V 0 C 1.6666667,0.92047458 0.92047458,1.6666667 0,1.6666667 -0.92047458,1.6666667 -1.6666667,0.92047458 -1.6666667,0 c 0,-0.92047458 0.74619212,-1.6666667 1.6666667,-1.6666667 z m 0,-0.6666666 c -1.2886644,0 -2.3333333,1.0446689 -2.3333333,2.3333333 0,1.2886644 1.0446689,2.3333333 2.3333333,2.3333333 C 1.2886644,2.3333333 2.3333333,1.2886644 2.3333333,0 V 0 C 2.3333333,-1.2886644 1.2886644,-2.3333333 0,-2.3333333 Z"
         style="fill:#fcb763;fill-opacity:1;fill-rule:nonzero;stroke:#fcb763;stroke-opacity:1"
         id="path15085" /></g><g
       id="g15087"
       transform="matrix(0,0.75,0.75,0,545.36507,25.62669)"><path
         d="M 2,0 C 2,-1.1045695 1.1045695,-2 0,-2 -1.1045695,-2 -2,-1.1045695 -2,0 -2,1.1045695 -1.1045695,2 0,2 1.1045695,2 2,1.1045695 2,0 Z"
         style="fill:#fcb763;fill-opacity:1;fill-rule:nonzero;stroke:#fcb763;stroke-opacity:1"
         id="path15089" /></g><g
       id="g15091"
       transform="matrix(0,0.75,0.75,0,545.36507,25.62669)"><path
         d="m 0,-1.6666667 c 0.92047458,0 1.6666667,0.74619212 1.6666667,1.6666667 V 0 C 1.6666667,0.92047458 0.92047458,1.6666667 0,1.6666667 -0.92047458,1.6666667 -1.6666667,0.92047458 -1.6666667,0 c 0,-0.92047458 0.74619212,-1.6666667 1.6666667,-1.6666667 z m 0,-0.6666666 c -1.2886644,0 -2.3333333,1.0446689 -2.3333333,2.3333333 0,1.2886644 1.0446689,2.3333333 2.3333333,2.3333333 C 1.2886644,2.3333333 2.3333333,1.2886644 2.3333333,0 V 0 C 2.3333333,-1.2886644 1.2886644,-2.3333333 0,-2.3333333 Z"
         style="fill:#fcb763;fill-opacity:1;fill-rule:nonzero;stroke:#fcb763;stroke-opacity:1"
         id="path15093" /></g><g
       id="g15095"
       transform="matrix(0,0.75,0.75,0,538.22872,47.212765)"><path
         d="M 2,0 C 2,-1.1045695 1.1045695,-2 0,-2 -1.1045695,-2 -2,-1.1045695 -2,0 -2,1.1045695 -1.1045695,2 0,2 1.1045695,2 2,1.1045695 2,0 Z"
         style="fill:#fcb763;fill-opacity:1;fill-rule:nonzero;stroke:#fcb763;stroke-opacity:1"
         id="path15097" /></g><g
       id="g15099"
       transform="matrix(0,0.75,0.75,0,538.22872,47.212765)"><path
         d="m 0,-1.6666667 c 0.92047458,0 1.6666667,0.74619212 1.6666667,1.6666667 V 0 C 1.6666667,0.92047458 0.92047458,1.6666667 0,1.6666667 -0.92047458,1.6666667 -1.6666667,0.92047458 -1.6666667,0 c 0,-0.92047458 0.74619212,-1.6666667 1.6666667,-1.6666667 z m 0,-0.6666666 c -1.2886644,0 -2.3333333,1.0446689 -2.3333333,2.3333333 0,1.2886644 1.0446689,2.3333333 2.3333333,2.3333333 C 1.2886644,2.3333333 2.3333333,1.2886644 2.3333333,0 V 0 C 2.3333333,-1.2886644 1.2886644,-2.3333333 0,-2.3333333 Z"
         style="fill:#fcb763;fill-opacity:1;fill-rule:nonzero;stroke:#fcb763;stroke-opacity:1"
         id="path15101" /></g><g
       id="g15103"
       transform="matrix(0,0.75,0.75,0,538.22872,68.79884)"><path
         d="M 2,0 C 2,-1.1045695 1.1045695,-2 0,-2 -1.1045695,-2 -2,-1.1045695 -2,0 -2,1.1045695 -1.1045695,2 0,2 1.1045695,2 2,1.1045695 2,0 Z"
         style="fill:#fcb763;fill-opacity:1;fill-rule:nonzero;stroke:#fcb763;stroke-opacity:1"
         id="path15105" /></g><g
       id="g15107"
       transform="matrix(0,0.75,0.75,0,538.22872,68.79884)"><path
         d="m 0,-1.6666667 c 0.92047458,0 1.6666667,0.74619212 1.6666667,1.6666667 V 0 C 1.6666667,0.92047458 0.92047458,1.6666667 0,1.6666667 -0.92047458,1.6666667 -1.6666667,0.92047458 -1.6666667,0 c 0,-0.92047458 0.74619212,-1.6666667 1.6666667,-1.6666667 z m 0,-0.6666666 c -1.2886644,0 -2.3333333,1.0446689 -2.3333333,2.3333333 0,1.2886644 1.0446689,2.3333333 2.3333333,2.3333333 C 1.2886644,2.3333333 2.3333333,1.2886644 2.3333333,0 V 0 C 2.3333333,-1.2886644 1.2886644,-2.3333333 0,-2.3333333 Z"
         style="fill:#fcb763;fill-opacity:1;fill-rule:nonzero;stroke:#fcb763;stroke-opacity:1"
         id="path15109" /></g><g
       id="g15111"
       transform="matrix(0,0.75,0.75,0,538.22872,90.384915)"><path
         d="M 2,0 C 2,-1.1045695 1.1045695,-2 0,-2 -1.1045695,-2 -2,-1.1045695 -2,0 -2,1.1045695 -1.1045695,2 0,2 1.1045695,2 2,1.1045695 2,0 Z"
         style="fill:#fcb763;fill-opacity:1;fill-rule:nonzero;stroke:#fcb763;stroke-opacity:1"
         id="path15113" /></g><g
       id="g15115"
       transform="matrix(0,0.75,0.75,0,538.22872,90.384915)"><path
         d="m 0,-1.6666667 c 0.92047458,0 1.6666667,0.74619212 1.6666667,1.6666667 V 0 C 1.6666667,0.92047458 0.92047458,1.6666667 0,1.6666667 -0.92047458,1.6666667 -1.6666667,0.92047458 -1.6666667,0 c 0,-0.92047458 0.74619212,-1.6666667 1.6666667,-1.6666667 z m 0,-0.6666666 c -1.2886644,0 -2.3333333,1.0446689 -2.3333333,2.3333333 0,1.2886644 1.0446689,2.3333333 2.3333333,2.3333333 C 1.2886644,2.3333333 2.3333333,1.2886644 2.3333333,0 V 0 C 2.3333333,-1.2886644 1.2886644,-2.3333333 0,-2.3333333 Z"
         style="fill:#fcb763;fill-opacity:1;fill-rule:nonzero;stroke:#fcb763;stroke-opacity:1"
         id="path15117" /></g><g
       id="g15119"
       transform="matrix(0,0.75,0.75,0,538.22872,111.97099)"><path
         d="M 2,0 C 2,-1.1045695 1.1045695,-2 0,-2 -1.1045695,-2 -2,-1.1045695 -2,0 -2,1.1045695 -1.1045695,2 0,2 1.1045695,2 2,1.1045695 2,0 Z"
         style="fill:#fcb763;fill-opacity:1;fill-rule:nonzero;stroke:#fcb763;stroke-opacity:1"
         id="path15121" /></g><g
       id="g15123"
       transform="matrix(0,0.75,0.75,0,538.22872,111.97099)"><path
         d="m 0,-1.6666667 c 0.92047458,0 1.6666667,0.74619212 1.6666667,1.6666667 V 0 C 1.6666667,0.92047458 0.92047458,1.6666667 0,1.6666667 -0.92047458,1.6666667 -1.6666667,0.92047458 -1.6666667,0 c 0,-0.92047458 0.74619212,-1.6666667 1.6666667,-1.6666667 z m 0,-0.6666666 c -1.2886644,0 -2.3333333,1.0446689 -2.3333333,2.3333333 0,1.2886644 1.0446689,2.3333333 2.3333333,2.3333333 C 1.2886644,2.3333333 2.3333333,1.2886644 2.3333333,0 V 0 C 2.3333333,-1.2886644 1.2886644,-2.3333333 0,-2.3333333 Z"
         style="fill:#fcb763;fill-opacity:1;fill-rule:nonzero;stroke:#fcb763;stroke-opacity:1"
         id="path15125" /></g><g
       id="g15127"
       transform="matrix(0,0.75,0.75,0,538.22872,133.55706)"><path
         d="M 2,0 C 2,-1.1045695 1.1045695,-2 0,-2 -1.1045695,-2 -2,-1.1045695 -2,0 -2,1.1045695 -1.1045695,2 0,2 1.1045695,2 2,1.1045695 2,0 Z"
         style="fill:#fcb763;fill-opacity:1;fill-rule:nonzero;stroke:#fcb763;stroke-opacity:1"
         id="path15129" /></g><g
       id="g15131"
       transform="matrix(0,0.75,0.75,0,538.22872,133.55706)"><path
         d="m 0,-1.6666667 c 0.92047458,0 1.6666667,0.74619212 1.6666667,1.6666667 V 0 C 1.6666667,0.92047458 0.92047458,1.6666667 0,1.6666667 -0.92047458,1.6666667 -1.6666667,0.92047458 -1.6666667,0 c 0,-0.92047458 0.74619212,-1.6666667 1.6666667,-1.6666667 z m 0,-0.6666666 c -1.2886644,0 -2.3333333,1.0446689 -2.3333333,2.3333333 0,1.2886644 1.0446689,2.3333333 2.3333333,2.3333333 C 1.2886644,2.3333333 2.3333333,1.2886644 2.3333333,0 V 0 C 2.3333333,-1.2886644 1.2886644,-2.3333333 0,-2.3333333 Z"
         style="fill:#fcb763;fill-opacity:1;fill-rule:nonzero;stroke:#fcb763;stroke-opacity:1"
         id="path15133" /></g><g
       id="g15135"
       transform="matrix(0,0.75,0.75,0,531.09232,155.14314)"><path
         d="M 2,0 C 2,-1.1045695 1.1045695,-2 0,-2 -1.1045695,-2 -2,-1.1045695 -2,0 -2,1.1045695 -1.1045695,2 0,2 1.1045695,2 2,1.1045695 2,0 Z"
         style="fill:#fcb763;fill-opacity:1;fill-rule:nonzero;stroke:#fcb763;stroke-opacity:1"
         id="path15137" /></g><g
       id="g15139"
       transform="matrix(0,0.75,0.75,0,531.09232,155.14314)"><path
         d="m 0,-1.6666667 c 0.92047458,0 1.6666667,0.74619212 1.6666667,1.6666667 V 0 C 1.6666667,0.92047458 0.92047458,1.6666667 0,1.6666667 -0.92047458,1.6666667 -1.6666667,0.92047458 -1.6666667,0 c 0,-0.92047458 0.74619212,-1.6666667 1.6666667,-1.6666667 z m 0,-0.6666666 c -1.2886644,0 -2.3333333,1.0446689 -2.3333333,2.3333333 0,1.2886644 1.0446689,2.3333333 2.3333333,2.3333333 C 1.2886644,2.3333333 2.3333333,1.2886644 2.3333333,0 V 0 C 2.3333333,-1.2886644 1.2886644,-2.3333333 0,-2.3333333 Z"
         style="fill:#fcb763;fill-opacity:1;fill-rule:nonzero;stroke:#fcb763;stroke-opacity:1"
         id="path15141" /></g><g
       id="g15143"
       transform="matrix(0,0.75,0.75,0,523.95597,176.72921)"><path
         d="M 2,0 C 2,-1.1045695 1.1045695,-2 0,-2 -1.1045695,-2 -2,-1.1045695 -2,0 -2,1.1045695 -1.1045695,2 0,2 1.1045695,2 2,1.1045695 2,0 Z"
         style="fill:#fcb763;fill-opacity:1;fill-rule:nonzero;stroke:#fcb763;stroke-opacity:1"
         id="path15145" /></g><g
       id="g15147"
       transform="matrix(0,0.75,0.75,0,523.95597,176.72921)"><path
         d="m 0,-1.6666667 c 0.92047458,0 1.6666667,0.74619212 1.6666667,1.6666667 V 0 C 1.6666667,0.92047458 0.92047458,1.6666667 0,1.6666667 -0.92047458,1.6666667 -1.6666667,0.92047458 -1.6666667,0 c 0,-0.92047458 0.74619212,-1.6666667 1.6666667,-1.6666667 z m 0,-0.6666666 c -1.2886644,0 -2.3333333,1.0446689 -2.3333333,2.3333333 0,1.2886644 1.0446689,2.3333333 2.3333333,2.3333333 C 1.2886644,2.3333333 2.3333333,1.2886644 2.3333333,0 V 0 C 2.3333333,-1.2886644 1.2886644,-2.3333333 0,-2.3333333 Z"
         style="fill:#fcb763;fill-opacity:1;fill-rule:nonzero;stroke:#fcb763;stroke-opacity:1"
         id="path15149" /></g><g
       id="g15151"
       transform="matrix(0,0.75,0.75,0,523.95597,198.31529)"><path
         d="M 2,0 C 2,-1.1045695 1.1045695,-2 0,-2 -1.1045695,-2 -2,-1.1045695 -2,0 -2,1.1045695 -1.1045695,2 0,2 1.1045695,2 2,1.1045695 2,0 Z"
         style="fill:#fcb763;fill-opacity:1;fill-rule:nonzero;stroke:#fcb763;stroke-opacity:1"
         id="path15153" /></g><g
       id="g15155"
       transform="matrix(0,0.75,0.75,0,523.95597,198.31529)"><path
         d="m 0,-1.6666667 c 0.92047458,0 1.6666667,0.74619212 1.6666667,1.6666667 V 0 C 1.6666667,0.92047458 0.92047458,1.6666667 0,1.6666667 -0.92047458,1.6666667 -1.6666667,0.92047458 -1.6666667,0 c 0,-0.92047458 0.74619212,-1.6666667 1.6666667,-1.6666667 z m 0,-0.6666666 c -1.2886644,0 -2.3333333,1.0446689 -2.3333333,2.3333333 0,1.2886644 1.0446689,2.3333333 2.3333333,2.3333333 C 1.2886644,2.3333333 2.3333333,1.2886644 2.3333333,0 V 0 C 2.3333333,-1.2886644 1.2886644,-2.3333333 0,-2.3333333 Z"
         style="fill:#fcb763;fill-opacity:1;fill-rule:nonzero;stroke:#fcb763;stroke-opacity:1"
         id="path15157" /></g><g
       id="g15159"
       transform="matrix(0,0.75,0.75,0,523.95597,219.90136)"><path
         d="M 2,0 C 2,-1.1045695 1.1045695,-2 0,-2 -1.1045695,-2 -2,-1.1045695 -2,0 -2,1.1045695 -1.1045695,2 0,2 1.1045695,2 2,1.1045695 2,0 Z"
         style="fill:#fcb763;fill-opacity:1;fill-rule:nonzero;stroke:#fcb763;stroke-opacity:1"
         id="path15161" /></g><g
       id="g15163"
       transform="matrix(0,0.75,0.75,0,523.95597,219.90136)"><path
         d="m 0,-1.6666667 c 0.92047458,0 1.6666667,0.74619212 1.6666667,1.6666667 V 0 C 1.6666667,0.92047458 0.92047458,1.6666667 0,1.6666667 -0.92047458,1.6666667 -1.6666667,0.92047458 -1.6666667,0 c 0,-0.92047458 0.74619212,-1.6666667 1.6666667,-1.6666667 z m 0,-0.6666666 c -1.2886644,0 -2.3333333,1.0446689 -2.3333333,2.3333333 0,1.2886644 1.0446689,2.3333333 2.3333333,2.3333333 C 1.2886644,2.3333333 2.3333333,1.2886644 2.3333333,0 V 0 C 2.3333333,-1.2886644 1.2886644,-2.3333333 0,-2.3333333 Z"
         style="fill:#fcb763;fill-opacity:1;fill-rule:nonzero;stroke:#fcb763;stroke-opacity:1"
         id="path15165" /></g><g
       id="g15167"
       transform="matrix(0,0.75,0.75,0,523.95597,241.48744)"><path
         d="M 2,0 C 2,-1.1045695 1.1045695,-2 0,-2 -1.1045695,-2 -2,-1.1045695 -2,0 -2,1.1045695 -1.1045695,2 0,2 1.1045695,2 2,1.1045695 2,0 Z"
         style="fill:#fcb763;fill-opacity:1;fill-rule:nonzero;stroke:#fcb763;stroke-opacity:1"
         id="path15169" /></g><g
       id="g15171"
       transform="matrix(0,0.75,0.75,0,523.95597,241.48744)"><path
         d="m 0,-1.6666667 c 0.92047458,0 1.6666667,0.74619212 1.6666667,1.6666667 V 0 C 1.6666667,0.92047458 0.92047458,1.6666667 0,1.6666667 -0.92047458,1.6666667 -1.6666667,0.92047458 -1.6666667,0 c 0,-0.92047458 0.74619212,-1.6666667 1.6666667,-1.6666667 z m 0,-0.6666666 c -1.2886644,0 -2.3333333,1.0446689 -2.3333333,2.3333333 0,1.2886644 1.0446689,2.3333333 2.3333333,2.3333333 C 1.2886644,2.3333333 2.3333333,1.2886644 2.3333333,0 V 0 C 2.3333333,-1.2886644 1.2886644,-2.3333333 0,-2.3333333 Z"
         style="fill:#fcb763;fill-opacity:1;fill-rule:nonzero;stroke:#fcb763;stroke-opacity:1"
         id="path15173" /></g><g
       id="g15175"
       transform="matrix(0,0.75,0.75,0,516.81961,263.07351)"><path
         d="M 2,0 C 2,-1.1045695 1.1045695,-2 0,-2 -1.1045695,-2 -2,-1.1045695 -2,0 -2,1.1045695 -1.1045695,2 0,2 1.1045695,2 2,1.1045695 2,0 Z"
         style="fill:#fcb763;fill-opacity:1;fill-rule:nonzero;stroke:#fcb763;stroke-opacity:1"
         id="path15177" /></g><g
       id="g15179"
       transform="matrix(0,0.75,0.75,0,516.81961,263.07351)"><path
         d="m 0,-1.6666667 c 0.92047458,0 1.6666667,0.74619212 1.6666667,1.6666667 V 0 C 1.6666667,0.92047458 0.92047458,1.6666667 0,1.6666667 -0.92047458,1.6666667 -1.6666667,0.92047458 -1.6666667,0 c 0,-0.92047458 0.74619212,-1.6666667 1.6666667,-1.6666667 z m 0,-0.6666666 c -1.2886644,0 -2.3333333,1.0446689 -2.3333333,2.3333333 0,1.2886644 1.0446689,2.3333333 2.3333333,2.3333333 C 1.2886644,2.3333333 2.3333333,1.2886644 2.3333333,0 V 0 C 2.3333333,-1.2886644 1.2886644,-2.3333333 0,-2.3333333 Z"
         style="fill:#fcb763;fill-opacity:1;fill-rule:nonzero;stroke:#fcb763;stroke-opacity:1"
         id="path15181" /></g><g
       id="g15183"
       transform="matrix(0,0.75,0.75,0,516.81961,284.65959)"><path
         d="M 2,0 C 2,-1.1045695 1.1045695,-2 0,-2 -1.1045695,-2 -2,-1.1045695 -2,0 -2,1.1045695 -1.1045695,2 0,2 1.1045695,2 2,1.1045695 2,0 Z"
         style="fill:#fcb763;fill-opacity:1;fill-rule:nonzero;stroke:#fcb763;stroke-opacity:1"
         id="path15185" /></g><g
       id="g15187"
       transform="matrix(0,0.75,0.75,0,516.81961,284.65959)"><path
         d="m 0,-1.6666667 c 0.92047458,0 1.6666667,0.74619212 1.6666667,1.6666667 V 0 C 1.6666667,0.92047458 0.92047458,1.6666667 0,1.6666667 -0.92047458,1.6666667 -1.6666667,0.92047458 -1.6666667,0 c 0,-0.92047458 0.74619212,-1.6666667 1.6666667,-1.6666667 z m 0,-0.6666666 c -1.2886644,0 -2.3333333,1.0446689 -2.3333333,2.3333333 0,1.2886644 1.0446689,2.3333333 2.3333333,2.3333333 C 1.2886644,2.3333333 2.3333333,1.2886644 2.3333333,0 V 0 C 2.3333333,-1.2886644 1.2886644,-2.3333333 0,-2.3333333 Z"
         style="fill:#fcb763;fill-opacity:1;fill-rule:nonzero;stroke:#fcb763;stroke-opacity:1"
         id="path15189" /></g><g
       id="g15191"
       transform="matrix(0,0.75,0.75,0,509.68326,306.24567)"><path
         d="M 2,0 C 2,-1.1045695 1.1045695,-2 0,-2 -1.1045695,-2 -2,-1.1045695 -2,0 -2,1.1045695 -1.1045695,2 0,2 1.1045695,2 2,1.1045695 2,0 Z"
         style="fill:#fcb763;fill-opacity:1;fill-rule:nonzero;stroke:#fcb763;stroke-opacity:1"
         id="path15193" /></g><g
       id="g15195"
       transform="matrix(0,0.75,0.75,0,509.68326,306.24567)"><path
         d="m 0,-1.6666667 c 0.92047458,0 1.6666667,0.74619212 1.6666667,1.6666667 V 0 C 1.6666667,0.92047458 0.92047458,1.6666667 0,1.6666667 -0.92047458,1.6666667 -1.6666667,0.92047458 -1.6666667,0 c 0,-0.92047458 0.74619212,-1.6666667 1.6666667,-1.6666667 z m 0,-0.6666666 c -1.2886644,0 -2.3333333,1.0446689 -2.3333333,2.3333333 0,1.2886644 1.0446689,2.3333333 2.3333333,2.3333333 C 1.2886644,2.3333333 2.3333333,1.2886644 2.3333333,0 V 0 C 2.3333333,-1.2886644 1.2886644,-2.3333333 0,-2.3333333 Z"
         style="fill:#fcb763;fill-opacity:1;fill-rule:nonzero;stroke:#fcb763;stroke-opacity:1"
         id="path15197" /></g><g
       id="g15199"
       transform="matrix(0,0.75,0.75,0,509.68326,327.83174)"><path
         d="M 2,0 C 2,-1.1045695 1.1045695,-2 0,-2 -1.1045695,-2 -2,-1.1045695 -2,0 -2,1.1045695 -1.1045695,2 0,2 1.1045695,2 2,1.1045695 2,0 Z"
         style="fill:#fcb763;fill-opacity:1;fill-rule:nonzero;stroke:#fcb763;stroke-opacity:1"
         id="path15201" /></g><g
       id="g15203"
       transform="matrix(0,0.75,0.75,0,509.68326,327.83174)"><path
         d="m 0,-1.6666667 c 0.92047458,0 1.6666667,0.74619212 1.6666667,1.6666667 V 0 C 1.6666667,0.92047458 0.92047458,1.6666667 0,1.6666667 -0.92047458,1.6666667 -1.6666667,0.92047458 -1.6666667,0 c 0,-0.92047458 0.74619212,-1.6666667 1.6666667,-1.6666667 z m 0,-0.6666666 c -1.2886644,0 -2.3333333,1.0446689 -2.3333333,2.3333333 0,1.2886644 1.0446689,2.3333333 2.3333333,2.3333333 C 1.2886644,2.3333333 2.3333333,1.2886644 2.3333333,0 V 0 C 2.3333333,-1.2886644 1.2886644,-2.3333333 0,-2.3333333 Z"
         style="fill:#fcb763;fill-opacity:1;fill-rule:nonzero;stroke:#fcb763;stroke-opacity:1"
         id="path15205" /></g><g
       id="g15207"
       transform="matrix(0,0.75,0.75,0,495.41051,349.41782)"><path
         d="M 2,0 C 2,-1.1045695 1.1045695,-2 0,-2 -1.1045695,-2 -2,-1.1045695 -2,0 -2,1.1045695 -1.1045695,2 0,2 1.1045695,2 2,1.1045695 2,0 Z"
         style="fill:#fcb763;fill-opacity:1;fill-rule:nonzero;stroke:#fcb763;stroke-opacity:1"
         id="path15209" /></g><g
       id="g15211"
       transform="matrix(0,0.75,0.75,0,495.41051,349.41782)"><path
         d="m 0,-1.6666667 c 0.92047458,0 1.6666667,0.74619212 1.6666667,1.6666667 V 0 C 1.6666667,0.92047458 0.92047458,1.6666667 0,1.6666667 -0.92047458,1.6666667 -1.6666667,0.92047458 -1.6666667,0 c 0,-0.92047458 0.74619212,-1.6666667 1.6666667,-1.6666667 z m 0,-0.6666666 c -1.2886644,0 -2.3333333,1.0446689 -2.3333333,2.3333333 0,1.2886644 1.0446689,2.3333333 2.3333333,2.3333333 C 1.2886644,2.3333333 2.3333333,1.2886644 2.3333333,0 V 0 C 2.3333333,-1.2886644 1.2886644,-2.3333333 0,-2.3333333 Z"
         style="fill:#fcb763;fill-opacity:1;fill-rule:nonzero;stroke:#fcb763;stroke-opacity:1"
         id="path15213" /></g><g
       id="g15215"
       transform="matrix(0,0.75,0.75,0,481.13781,371.00389)"><path
         d="M 2,0 C 2,-1.1045695 1.1045695,-2 0,-2 -1.1045695,-2 -2,-1.1045695 -2,0 -2,1.1045695 -1.1045695,2 0,2 1.1045695,2 2,1.1045695 2,0 Z"
         style="fill:#fcb763;fill-opacity:1;fill-rule:nonzero;stroke:#fcb763;stroke-opacity:1"
         id="path15217" /></g><g
       id="g15219"
       transform="matrix(0,0.75,0.75,0,481.13781,371.00389)"><path
         d="m 0,-1.6666667 c 0.92047458,0 1.6666667,0.74619212 1.6666667,1.6666667 V 0 C 1.6666667,0.92047458 0.92047458,1.6666667 0,1.6666667 -0.92047458,1.6666667 -1.6666667,0.92047458 -1.6666667,0 c 0,-0.92047458 0.74619212,-1.6666667 1.6666667,-1.6666667 z m 0,-0.6666666 c -1.2886644,0 -2.3333333,1.0446689 -2.3333333,2.3333333 0,1.2886644 1.0446689,2.3333333 2.3333333,2.3333333 C 1.2886644,2.3333333 2.3333333,1.2886644 2.3333333,0 V 0 C 2.3333333,-1.2886644 1.2886644,-2.3333333 0,-2.3333333 Z"
         style="fill:#fcb763;fill-opacity:1;fill-rule:nonzero;stroke:#fcb763;stroke-opacity:1"
         id="path15221" /></g><g
       id="g15223"
       transform="matrix(0,0.75,0.75,0,481.13781,392.58996)"><path
         d="M 2,0 C 2,-1.1045695 1.1045695,-2 0,-2 -1.1045695,-2 -2,-1.1045695 -2,0 -2,1.1045695 -1.1045695,2 0,2 1.1045695,2 2,1.1045695 2,0 Z"
         style="fill:#fcb763;fill-opacity:1;fill-rule:nonzero;stroke:#fcb763;stroke-opacity:1"
         id="path15225" /></g><g
       id="g15227"
       transform="matrix(0,0.75,0.75,0,481.13781,392.58996)"><path
         d="m 0,-1.6666667 c 0.92047458,0 1.6666667,0.74619212 1.6666667,1.6666667 V 0 C 1.6666667,0.92047458 0.92047458,1.6666667 0,1.6666667 -0.92047458,1.6666667 -1.6666667,0.92047458 -1.6666667,0 c 0,-0.92047458 0.74619212,-1.6666667 1.6666667,-1.6666667 z m 0,-0.6666666 c -1.2886644,0 -2.3333333,1.0446689 -2.3333333,2.3333333 0,1.2886644 1.0446689,2.3333333 2.3333333,2.3333333 C 1.2886644,2.3333333 2.3333333,1.2886644 2.3333333,0 V 0 C 2.3333333,-1.2886644 1.2886644,-2.3333333 0,-2.3333333 Z"
         style="fill:#fcb763;fill-opacity:1;fill-rule:nonzero;stroke:#fcb763;stroke-opacity:1"
         id="path15229" /></g><g
       id="g15231"
       transform="matrix(0,0.75,0.75,0,481.13781,414.17604)"><path
         d="M 2,0 C 2,-1.1045695 1.1045695,-2 0,-2 -1.1045695,-2 -2,-1.1045695 -2,0 -2,1.1045695 -1.1045695,2 0,2 1.1045695,2 2,1.1045695 2,0 Z"
         style="fill:#fcb763;fill-opacity:1;fill-rule:nonzero;stroke:#fcb763;stroke-opacity:1"
         id="path15233" /></g><g
       id="g15235"
       transform="matrix(0,0.75,0.75,0,481.13781,414.17604)"><path
         d="m 0,-1.6666667 c 0.92047458,0 1.6666667,0.74619212 1.6666667,1.6666667 V 0 C 1.6666667,0.92047458 0.92047458,1.6666667 0,1.6666667 -0.92047458,1.6666667 -1.6666667,0.92047458 -1.6666667,0 c 0,-0.92047458 0.74619212,-1.6666667 1.6666667,-1.6666667 z m 0,-0.6666666 c -1.2886644,0 -2.3333333,1.0446689 -2.3333333,2.3333333 0,1.2886644 1.0446689,2.3333333 2.3333333,2.3333333 C 1.2886644,2.3333333 2.3333333,1.2886644 2.3333333,0 V 0 C 2.3333333,-1.2886644 1.2886644,-2.3333333 0,-2.3333333 Z"
         style="fill:#fcb763;fill-opacity:1;fill-rule:nonzero;stroke:#fcb763;stroke-opacity:1"
         id="path15237" /></g><g
       id="g15239"
       transform="matrix(0,0.75,0.75,0,452.59234,435.76211)"><path
         d="M 2,0 C 2,-1.1045695 1.1045695,-2 0,-2 -1.1045695,-2 -2,-1.1045695 -2,0 -2,1.1045695 -1.1045695,2 0,2 1.1045695,2 2,1.1045695 2,0 Z"
         style="fill:#fcb763;fill-opacity:1;fill-rule:nonzero;stroke:#fcb763;stroke-opacity:1"
         id="path15241" /></g><g
       id="g15243"
       transform="matrix(0,0.75,0.75,0,452.59234,435.76211)"><path
         d="m 0,-1.6666667 c 0.92047458,0 1.6666667,0.74619212 1.6666667,1.6666667 V 0 C 1.6666667,0.92047458 0.92047458,1.6666667 0,1.6666667 -0.92047458,1.6666667 -1.6666667,0.92047458 -1.6666667,0 c 0,-0.92047458 0.74619212,-1.6666667 1.6666667,-1.6666667 z m 0,-0.6666666 c -1.2886644,0 -2.3333333,1.0446689 -2.3333333,2.3333333 0,1.2886644 1.0446689,2.3333333 2.3333333,2.3333333 C 1.2886644,2.3333333 2.3333333,1.2886644 2.3333333,0 V 0 C 2.3333333,-1.2886644 1.2886644,-2.3333333 0,-2.3333333 Z"
         style="fill:#fcb763;fill-opacity:1;fill-rule:nonzero;stroke:#fcb763;stroke-opacity:1"
         id="path15245" /></g><g
       id="g15247"
       transform="matrix(0,0.75,0.75,0,445.45594,457.34814)"><path
         d="M 2,0 C 2,-1.1045695 1.1045695,-2 0,-2 -1.1045695,-2 -2,-1.1045695 -2,0 -2,1.1045695 -1.1045695,2 0,2 1.1045695,2 2,1.1045695 2,0 Z"
         style="fill:#fcb763;fill-opacity:1;fill-rule:nonzero;stroke:#fcb763;stroke-opacity:1"
         id="path15249" /></g><g
       id="g15251"
       transform="matrix(0,0.75,0.75,0,445.45594,457.34814)"><path
         d="m 0,-1.6666667 c 0.92047458,0 1.6666667,0.74619212 1.6666667,1.6666667 V 0 C 1.6666667,0.92047458 0.92047458,1.6666667 0,1.6666667 -0.92047458,1.6666667 -1.6666667,0.92047458 -1.6666667,0 c 0,-0.92047458 0.74619212,-1.6666667 1.6666667,-1.6666667 z m 0,-0.6666666 c -1.2886644,0 -2.3333333,1.0446689 -2.3333333,2.3333333 0,1.2886644 1.0446689,2.3333333 2.3333333,2.3333333 C 1.2886644,2.3333333 2.3333333,1.2886644 2.3333333,0 V 0 C 2.3333333,-1.2886644 1.2886644,-2.3333333 0,-2.3333333 Z"
         style="fill:#fcb763;fill-opacity:1;fill-rule:nonzero;stroke:#fcb763;stroke-opacity:1"
         id="path15253" /></g><g
       id="g15255"
       transform="matrix(0,0.75,0.75,0,445.45594,478.93421)"><path
         d="M 2,0 C 2,-1.1045695 1.1045695,-2 0,-2 -1.1045695,-2 -2,-1.1045695 -2,0 -2,1.1045695 -1.1045695,2 0,2 1.1045695,2 2,1.1045695 2,0 Z"
         style="fill:#fcb763;fill-opacity:1;fill-rule:nonzero;stroke:#fcb763;stroke-opacity:1"
         id="path15257" /></g><g
       id="g15259"
       transform="matrix(0,0.75,0.75,0,445.45594,478.93421)"><path
         d="m 0,-1.6666667 c 0.92047458,0 1.6666667,0.74619212 1.6666667,1.6666667 V 0 C 1.6666667,0.92047458 0.92047458,1.6666667 0,1.6666667 -0.92047458,1.6666667 -1.6666667,0.92047458 -1.6666667,0 c 0,-0.92047458 0.74619212,-1.6666667 1.6666667,-1.6666667 z m 0,-0.6666666 c -1.2886644,0 -2.3333333,1.0446689 -2.3333333,2.3333333 0,1.2886644 1.0446689,2.3333333 2.3333333,2.3333333 C 1.2886644,2.3333333 2.3333333,1.2886644 2.3333333,0 V 0 C 2.3333333,-1.2886644 1.2886644,-2.3333333 0,-2.3333333 Z"
         style="fill:#fcb763;fill-opacity:1;fill-rule:nonzero;stroke:#fcb763;stroke-opacity:1"
         id="path15261" /></g><g
       id="g15263"
       transform="matrix(0,0.75,0.75,0,445.45594,500.52034)"><path
         d="M 2,0 C 2,-1.1045695 1.1045695,-2 0,-2 -1.1045695,-2 -2,-1.1045695 -2,0 -2,1.1045695 -1.1045695,2 0,2 1.1045695,2 2,1.1045695 2,0 Z"
         style="fill:#fcb763;fill-opacity:1;fill-rule:nonzero;stroke:#fcb763;stroke-opacity:1"
         id="path15265" /></g><g
       id="g15267"
       transform="matrix(0,0.75,0.75,0,445.45594,500.52034)"><path
         d="m 0,-1.6666667 c 0.92047458,0 1.6666667,0.74619212 1.6666667,1.6666667 V 0 C 1.6666667,0.92047458 0.92047458,1.6666667 0,1.6666667 -0.92047458,1.6666667 -1.6666667,0.92047458 -1.6666667,0 c 0,-0.92047458 0.74619212,-1.6666667 1.6666667,-1.6666667 z m 0,-0.6666666 c -1.2886644,0 -2.3333333,1.0446689 -2.3333333,2.3333333 0,1.2886644 1.0446689,2.3333333 2.3333333,2.3333333 C 1.2886644,2.3333333 2.3333333,1.2886644 2.3333333,0 V 0 C 2.3333333,-1.2886644 1.2886644,-2.3333333 0,-2.3333333 Z"
         style="fill:#fcb763;fill-opacity:1;fill-rule:nonzero;stroke:#fcb763;stroke-opacity:1"
         id="path15269" /></g><g
       id="g15271"
       transform="matrix(0,0.75,0.75,0,438.31959,522.10636)"><path
         d="M 2,0 C 2,-1.1045695 1.1045695,-2 0,-2 -1.1045695,-2 -2,-1.1045695 -2,0 -2,1.1045695 -1.1045695,2 0,2 1.1045695,2 2,1.1045695 2,0 Z"
         style="fill:#fcb763;fill-opacity:1;fill-rule:nonzero;stroke:#fcb763;stroke-opacity:1"
         id="path15273" /></g><g
       id="g15275"
       transform="matrix(0,0.75,0.75,0,438.31959,522.10636)"><path
         d="m 0,-1.6666667 c 0.92047458,0 1.6666667,0.74619212 1.6666667,1.6666667 V 0 C 1.6666667,0.92047458 0.92047458,1.6666667 0,1.6666667 -0.92047458,1.6666667 -1.6666667,0.92047458 -1.6666667,0 c 0,-0.92047458 0.74619212,-1.6666667 1.6666667,-1.6666667 z m 0,-0.6666666 c -1.2886644,0 -2.3333333,1.0446689 -2.3333333,2.3333333 0,1.2886644 1.0446689,2.3333333 2.3333333,2.3333333 C 1.2886644,2.3333333 2.3333333,1.2886644 2.3333333,0 V 0 C 2.3333333,-1.2886644 1.2886644,-2.3333333 0,-2.3333333 Z"
         style="fill:#fcb763;fill-opacity:1;fill-rule:nonzero;stroke:#fcb763;stroke-opacity:1"
         id="path15277" /></g><g
       id="g15279"
       transform="matrix(0,0.75,0.75,0,431.18324,543.69249)"><path
         d="M 2,0 C 2,-1.1045695 1.1045695,-2 0,-2 -1.1045695,-2 -2,-1.1045695 -2,0 -2,1.1045695 -1.1045695,2 0,2 1.1045695,2 2,1.1045695 2,0 Z"
         style="fill:#fcb763;fill-opacity:1;fill-rule:nonzero;stroke:#fcb763;stroke-opacity:1"
         id="path15281" /></g><g
       id="g15283"
       transform="matrix(0,0.75,0.75,0,431.18324,543.69249)"><path
         d="m 0,-1.6666667 c 0.92047458,0 1.6666667,0.74619212 1.6666667,1.6666667 V 0 C 1.6666667,0.92047458 0.92047458,1.6666667 0,1.6666667 -0.92047458,1.6666667 -1.6666667,0.92047458 -1.6666667,0 c 0,-0.92047458 0.74619212,-1.6666667 1.6666667,-1.6666667 z m 0,-0.6666666 c -1.2886644,0 -2.3333333,1.0446689 -2.3333333,2.3333333 0,1.2886644 1.0446689,2.3333333 2.3333333,2.3333333 C 1.2886644,2.3333333 2.3333333,1.2886644 2.3333333,0 V 0 C 2.3333333,-1.2886644 1.2886644,-2.3333333 0,-2.3333333 Z"
         style="fill:#fcb763;fill-opacity:1;fill-rule:nonzero;stroke:#fcb763;stroke-opacity:1"
         id="path15285" /></g><g
       id="g15287"
       transform="matrix(0,0.75,0.75,0,431.18324,565.27851)"><path
         d="M 2,0 C 2,-1.1045695 1.1045695,-2 0,-2 -1.1045695,-2 -2,-1.1045695 -2,0 -2,1.1045695 -1.1045695,2 0,2 1.1045695,2 2,1.1045695 2,0 Z"
         style="fill:#fcb763;fill-opacity:1;fill-rule:nonzero;stroke:#fcb763;stroke-opacity:1"
         id="path15289" /></g><g
       id="g15291"
       transform="matrix(0,0.75,0.75,0,431.18324,565.27851)"><path
         d="m 0,-1.6666667 c 0.92047458,0 1.6666667,0.74619212 1.6666667,1.6666667 V 0 C 1.6666667,0.92047458 0.92047458,1.6666667 0,1.6666667 -0.92047458,1.6666667 -1.6666667,0.92047458 -1.6666667,0 c 0,-0.92047458 0.74619212,-1.6666667 1.6666667,-1.6666667 z m 0,-0.6666666 c -1.2886644,0 -2.3333333,1.0446689 -2.3333333,2.3333333 0,1.2886644 1.0446689,2.3333333 2.3333333,2.3333333 C 1.2886644,2.3333333 2.3333333,1.2886644 2.3333333,0 V 0 C 2.3333333,-1.2886644 1.2886644,-2.3333333 0,-2.3333333 Z"
         style="fill:#fcb763;fill-opacity:1;fill-rule:nonzero;stroke:#fcb763;stroke-opacity:1"
         id="path15293" /></g><g
       id="g15295"
       transform="matrix(0,0.75,0.75,0,424.04689,586.86464)"><path
         d="M 2,0 C 2,-1.1045695 1.1045695,-2 0,-2 -1.1045695,-2 -2,-1.1045695 -2,0 -2,1.1045695 -1.1045695,2 0,2 1.1045695,2 2,1.1045695 2,0 Z"
         style="fill:#fcb763;fill-opacity:1;fill-rule:nonzero;stroke:#fcb763;stroke-opacity:1"
         id="path15297" /></g><g
       id="g15299"
       transform="matrix(0,0.75,0.75,0,424.04689,586.86464)"><path
         d="m 0,-1.6666667 c 0.92047458,0 1.6666667,0.74619212 1.6666667,1.6666667 V 0 C 1.6666667,0.92047458 0.92047458,1.6666667 0,1.6666667 -0.92047458,1.6666667 -1.6666667,0.92047458 -1.6666667,0 c 0,-0.92047458 0.74619212,-1.6666667 1.6666667,-1.6666667 z m 0,-0.6666666 c -1.2886644,0 -2.3333333,1.0446689 -2.3333333,2.3333333 0,1.2886644 1.0446689,2.3333333 2.3333333,2.3333333 C 1.2886644,2.3333333 2.3333333,1.2886644 2.3333333,0 V 0 C 2.3333333,-1.2886644 1.2886644,-2.3333333 0,-2.3333333 Z"
         style="fill:#fcb763;fill-opacity:1;fill-rule:nonzero;stroke:#fcb763;stroke-opacity:1"
         id="path15301" /></g><g
       id="g15303"
       transform="matrix(0,0.75,0.75,0,395.50143,608.45066)"><path
         d="M 2,0 C 2,-1.1045695 1.1045695,-2 0,-2 -1.1045695,-2 -2,-1.1045695 -2,0 -2,1.1045695 -1.1045695,2 0,2 1.1045695,2 2,1.1045695 2,0 Z"
         style="fill:#fcb763;fill-opacity:1;fill-rule:nonzero;stroke:#fcb763;stroke-opacity:1"
         id="path15305" /></g><g
       id="g15307"
       transform="matrix(0,0.75,0.75,0,395.50143,608.45066)"><path
         d="m 0,-1.6666667 c 0.92047458,0 1.6666667,0.74619212 1.6666667,1.6666667 V 0 C 1.6666667,0.92047458 0.92047458,1.6666667 0,1.6666667 -0.92047458,1.6666667 -1.6666667,0.92047458 -1.6666667,0 c 0,-0.92047458 0.74619212,-1.6666667 1.6666667,-1.6666667 z m 0,-0.6666666 c -1.2886644,0 -2.3333333,1.0446689 -2.3333333,2.3333333 0,1.2886644 1.0446689,2.3333333 2.3333333,2.3333333 C 1.2886644,2.3333333 2.3333333,1.2886644 2.3333333,0 V 0 C 2.3333333,-1.2886644 1.2886644,-2.3333333 0,-2.3333333 Z"
         style="fill:#fcb763;fill-opacity:1;fill-rule:nonzero;stroke:#fcb763;stroke-opacity:1"
         id="path15309" /></g><g
       id="g15311"
       transform="matrix(0,0.75,0.75,0,366.95598,630.03679)"><path
         d="M 2,0 C 2,-1.1045695 1.1045695,-2 0,-2 -1.1045695,-2 -2,-1.1045695 -2,0 -2,1.1045695 -1.1045695,2 0,2 1.1045695,2 2,1.1045695 2,0 Z"
         style="fill:#fcb763;fill-opacity:1;fill-rule:nonzero;stroke:#fcb763;stroke-opacity:1"
         id="path15313" /></g><g
       id="g15315"
       transform="matrix(0,0.75,0.75,0,366.95598,630.03679)"><path
         d="m 0,-1.6666667 c 0.92047458,0 1.6666667,0.74619212 1.6666667,1.6666667 V 0 C 1.6666667,0.92047458 0.92047458,1.6666667 0,1.6666667 -0.92047458,1.6666667 -1.6666667,0.92047458 -1.6666667,0 c 0,-0.92047458 0.74619212,-1.6666667 1.6666667,-1.6666667 z m 0,-0.6666666 c -1.2886644,0 -2.3333333,1.0446689 -2.3333333,2.3333333 0,1.2886644 1.0446689,2.3333333 2.3333333,2.3333333 C 1.2886644,2.3333333 2.3333333,1.2886644 2.3333333,0 V 0 C 2.3333333,-1.2886644 1.2886644,-2.3333333 0,-2.3333333 Z"
         style="fill:#fcb763;fill-opacity:1;fill-rule:nonzero;stroke:#fcb763;stroke-opacity:1"
         id="path15317" /></g><g
       id="g15319"
       transform="matrix(0,0.75,0.75,0,302.7287,651.62281)"><path
         d="M 2,0 C 2,-1.1045695 1.1045695,-2 0,-2 -1.1045695,-2 -2,-1.1045695 -2,0 -2,1.1045695 -1.1045695,2 0,2 1.1045695,2 2,1.1045695 2,0 Z"
         style="fill:#fcb763;fill-opacity:1;fill-rule:nonzero;stroke:#fcb763;stroke-opacity:1"
         id="path15321" /></g><g
       id="g15323"
       transform="matrix(0,0.75,0.75,0,302.7287,651.62281)"><path
         d="m 0,-1.6666667 c 0.92047458,0 1.6666667,0.74619212 1.6666667,1.6666667 V 0 C 1.6666667,0.92047458 0.92047458,1.6666667 0,1.6666667 -0.92047458,1.6666667 -1.6666667,0.92047458 -1.6666667,0 c 0,-0.92047458 0.74619212,-1.6666667 1.6666667,-1.6666667 z m 0,-0.6666666 c -1.2886644,0 -2.3333333,1.0446689 -2.3333333,2.3333333 0,1.2886644 1.0446689,2.3333333 2.3333333,2.3333333 C 1.2886644,2.3333333 2.3333333,1.2886644 2.3333333,0 V 0 C 2.3333333,-1.2886644 1.2886644,-2.3333333 0,-2.3333333 Z"
         style="fill:#fcb763;fill-opacity:1;fill-rule:nonzero;stroke:#fcb763;stroke-opacity:1"
         id="path15325" /></g><g
       id="g15327"
       transform="matrix(0,0.75,0.75,0,267.04688,673.20894)"><path
         d="M 2,0 C 2,-1.1045695 1.1045695,-2 0,-2 -1.1045695,-2 -2,-1.1045695 -2,0 -2,1.1045695 -1.1045695,2 0,2 1.1045695,2 2,1.1045695 2,0 Z"
         style="fill:#fcb763;fill-opacity:1;fill-rule:nonzero;stroke:#fcb763;stroke-opacity:1"
         id="path15329" /></g><g
       id="g15331"
       transform="matrix(0,0.75,0.75,0,267.04688,673.20894)"><path
         d="m 0,-1.6666667 c 0.92047458,0 1.6666667,0.74619212 1.6666667,1.6666667 V 0 C 1.6666667,0.92047458 0.92047458,1.6666667 0,1.6666667 -0.92047458,1.6666667 -1.6666667,0.92047458 -1.6666667,0 c 0,-0.92047458 0.74619212,-1.6666667 1.6666667,-1.6666667 z m 0,-0.6666666 c -1.2886644,0 -2.3333333,1.0446689 -2.3333333,2.3333333 0,1.2886644 1.0446689,2.3333333 2.3333333,2.3333333 C 1.2886644,2.3333333 2.3333333,1.2886644 2.3333333,0 V 0 C 2.3333333,-1.2886644 1.2886644,-2.3333333 0,-2.3333333 Z"
         style="fill:#fcb763;fill-opacity:1;fill-rule:nonzero;stroke:#fcb763;stroke-opacity:1"
         id="path15333" /></g><g
       id="g15335"
       transform="matrix(0,0.75,0.75,0,245.63778,694.79496)"><path
         d="M 2,0 C 2,-1.1045695 1.1045695,-2 0,-2 -1.1045695,-2 -2,-1.1045695 -2,0 -2,1.1045695 -1.1045695,2 0,2 1.1045695,2 2,1.1045695 2,0 Z"
         style="fill:#fcb763;fill-opacity:1;fill-rule:nonzero;stroke:#fcb763;stroke-opacity:1"
         id="path15337" /></g><g
       id="g15339"
       transform="matrix(0,0.75,0.75,0,245.63778,694.79496)"><path
         d="m 0,-1.6666667 c 0.92047458,0 1.6666667,0.74619212 1.6666667,1.6666667 V 0 C 1.6666667,0.92047458 0.92047458,1.6666667 0,1.6666667 -0.92047458,1.6666667 -1.6666667,0.92047458 -1.6666667,0 c 0,-0.92047458 0.74619212,-1.6666667 1.6666667,-1.6666667 z m 0,-0.6666666 c -1.2886644,0 -2.3333333,1.0446689 -2.3333333,2.3333333 0,1.2886644 1.0446689,2.3333333 2.3333333,2.3333333 C 1.2886644,2.3333333 2.3333333,1.2886644 2.3333333,0 V 0 C 2.3333333,-1.2886644 1.2886644,-2.3333333 0,-2.3333333 Z"
         style="fill:#fcb763;fill-opacity:1;fill-rule:nonzero;stroke:#fcb763;stroke-opacity:1"
         id="path15341" /></g><g
       id="g15343"
       transform="matrix(0,0.75,0.75,0,209.95597,716.38109)"><path
         d="M 2,0 C 2,-1.1045695 1.1045695,-2 0,-2 -1.1045695,-2 -2,-1.1045695 -2,0 -2,1.1045695 -1.1045695,2 0,2 1.1045695,2 2,1.1045695 2,0 Z"
         style="fill:#fcb763;fill-opacity:1;fill-rule:nonzero;stroke:#fcb763;stroke-opacity:1"
         id="path15345" /></g><g
       id="g15347"
       transform="matrix(0,0.75,0.75,0,209.95597,716.38109)"><path
         d="m 0,-1.6666667 c 0.92047458,0 1.6666667,0.74619212 1.6666667,1.6666667 V 0 C 1.6666667,0.92047458 0.92047458,1.6666667 0,1.6666667 -0.92047458,1.6666667 -1.6666667,0.92047458 -1.6666667,0 c 0,-0.92047458 0.74619212,-1.6666667 1.6666667,-1.6666667 z m 0,-0.6666666 c -1.2886644,0 -2.3333333,1.0446689 -2.3333333,2.3333333 0,1.2886644 1.0446689,2.3333333 2.3333333,2.3333333 C 1.2886644,2.3333333 2.3333333,1.2886644 2.3333333,0 V 0 C 2.3333333,-1.2886644 1.2886644,-2.3333333 0,-2.3333333 Z"
         style="fill:#fcb763;fill-opacity:1;fill-rule:nonzero;stroke:#fcb763;stroke-opacity:1"
         id="path15349" /></g><g
       id="g15351"
       transform="matrix(0,0.75,0.75,0,145.72871,737.96711)"><path
         d="M 2,0 C 2,-1.1045695 1.1045695,-2 0,-2 -1.1045695,-2 -2,-1.1045695 -2,0 -2,1.1045695 -1.1045695,2 0,2 1.1045695,2 2,1.1045695 2,0 Z"
         style="fill:#fcb763;fill-opacity:1;fill-rule:nonzero;stroke:#fcb763;stroke-opacity:1"
         id="path15353" /></g><g
       id="g15355"
       transform="matrix(0,0.75,0.75,0,145.72871,737.96711)"><path
         d="m 0,-1.6666667 c 0.92047458,0 1.6666667,0.74619212 1.6666667,1.6666667 V 0 C 1.6666667,0.92047458 0.92047458,1.6666667 0,1.6666667 -0.92047458,1.6666667 -1.6666667,0.92047458 -1.6666667,0 c 0,-0.92047458 0.74619212,-1.6666667 1.6666667,-1.6666667 z m 0,-0.6666666 c -1.2886644,0 -2.3333333,1.0446689 -2.3333333,2.3333333 0,1.2886644 1.0446689,2.3333333 2.3333333,2.3333333 C 1.2886644,2.3333333 2.3333333,1.2886644 2.3333333,0 V 0 C 2.3333333,-1.2886644 1.2886644,-2.3333333 0,-2.3333333 Z"
         style="fill:#fcb763;fill-opacity:1;fill-rule:nonzero;stroke:#fcb763;stroke-opacity:1"
         id="path15357" /></g><g
       id="g15359"
       transform="matrix(0,0.75,0.75,0,131.45598,759.55324)"><path
         d="M 2,0 C 2,-1.1045695 1.1045695,-2 0,-2 -1.1045695,-2 -2,-1.1045695 -2,0 -2,1.1045695 -1.1045695,2 0,2 1.1045695,2 2,1.1045695 2,0 Z"
         style="fill:#fcb763;fill-opacity:1;fill-rule:nonzero;stroke:#fcb763;stroke-opacity:1"
         id="path15361" /></g><g
       id="g15363"
       transform="matrix(0,0.75,0.75,0,131.45598,759.55324)"><path
         d="m 0,-1.6666667 c 0.92047458,0 1.6666667,0.74619212 1.6666667,1.6666667 V 0 C 1.6666667,0.92047458 0.92047458,1.6666667 0,1.6666667 -0.92047458,1.6666667 -1.6666667,0.92047458 -1.6666667,0 c 0,-0.92047458 0.74619212,-1.6666667 1.6666667,-1.6666667 z m 0,-0.6666666 c -1.2886644,0 -2.3333333,1.0446689 -2.3333333,2.3333333 0,1.2886644 1.0446689,2.3333333 2.3333333,2.3333333 C 1.2886644,2.3333333 2.3333333,1.2886644 2.3333333,0 V 0 C 2.3333333,-1.2886644 1.2886644,-2.3333333 0,-2.3333333 Z"
         style="fill:#fcb763;fill-opacity:1;fill-rule:nonzero;stroke:#fcb763;stroke-opacity:1"
         id="path15365" /></g><g
       id="g15367"
       transform="matrix(0,0.75,0.75,0,88.637782,781.13927)"><path
         d="M 2,0 C 2,-1.1045695 1.1045695,-2 0,-2 -1.1045695,-2 -2,-1.1045695 -2,0 -2,1.1045695 -1.1045695,2 0,2 1.1045695,2 2,1.1045695 2,0 Z"
         style="fill:#fcb763;fill-opacity:1;fill-rule:nonzero;stroke:#fcb763;stroke-opacity:1"
         id="path15369" /></g><g
       id="g15371"
       transform="matrix(0,0.75,0.75,0,88.637782,781.13927)"><path
         d="m 0,-1.6666667 c 0.92047458,0 1.6666667,0.74619212 1.6666667,1.6666667 V 0 C 1.6666667,0.92047458 0.92047458,1.6666667 0,1.6666667 -0.92047458,1.6666667 -1.6666667,0.92047458 -1.6666667,0 c 0,-0.92047458 0.74619212,-1.6666667 1.6666667,-1.6666667 z m 0,-0.6666666 c -1.2886644,0 -2.3333333,1.0446689 -2.3333333,2.3333333 0,1.2886644 1.0446689,2.3333333 2.3333333,2.3333333 C 1.2886644,2.3333333 2.3333333,1.2886644 2.3333333,0 V 0 C 2.3333333,-1.2886644 1.2886644,-2.3333333 0,-2.3333333 Z"
         style="fill:#fcb763;fill-opacity:1;fill-rule:nonzero;stroke:#fcb763;stroke-opacity:1"
         id="path15373" /></g><g
       id="g15375"
       transform="matrix(0,0.75,0.75,0,38.683245,802.72539)"><path
         d="M 2,0 C 2,-1.1045695 1.1045695,-2 0,-2 -1.1045695,-2 -2,-1.1045695 -2,0 -2,1.1045695 -1.1045695,2 0,2 1.1045695,2 2,1.1045695 2,0 Z"
         style="fill:#fcb763;fill-opacity:1;fill-rule:nonzero;stroke:#fcb763;stroke-opacity:1"
         id="path15377" /></g><g
       id="g15379"
       transform="matrix(0,0.75,0.75,0,38.683245,802.72539)"><path
         d="m 0,-1.6666667 c 0.92047458,0 1.6666667,0.74619212 1.6666667,1.6666667 V 0 C 1.6666667,0.92047458 0.92047458,1.6666667 0,1.6666667 -0.92047458,1.6666667 -1.6666667,0.92047458 -1.6666667,0 c 0,-0.92047458 0.74619212,-1.6666667 1.6666667,-1.6666667 z m 0,-0.6666666 c -1.2886644,0 -2.3333333,1.0446689 -2.3333333,2.3333333 0,1.2886644 1.0446689,2.3333333 2.3333333,2.3333333 C 1.2886644,2.3333333 2.3333333,1.2886644 2.3333333,0 V 0 C 2.3333333,-1.2886644 1.2886644,-2.3333333 0,-2.3333333 Z"
         style="fill:#fcb763;fill-opacity:1;fill-rule:nonzero;stroke:#fcb763;stroke-opacity:1"
         id="path15381" /></g><g
       id="g15383"
       transform="matrix(0,0.75,0.75,0,24.41052,824.31141)"><path
         d="M 2,0 C 2,-1.1045695 1.1045695,-2 0,-2 -1.1045695,-2 -2,-1.1045695 -2,0 -2,1.1045695 -1.1045695,2 0,2 1.1045695,2 2,1.1045695 2,0 Z"
         style="fill:#fcb763;fill-opacity:1;fill-rule:nonzero;stroke:#fcb763;stroke-opacity:1"
         id="path15385" /></g><g
       id="g15387"
       transform="matrix(0,0.75,0.75,0,24.41052,824.31141)"><path
         d="m 0,-1.6666667 c 0.92047458,0 1.6666667,0.74619212 1.6666667,1.6666667 V 0 C 1.6666667,0.92047458 0.92047458,1.6666667 0,1.6666667 -0.92047458,1.6666667 -1.6666667,0.92047458 -1.6666667,0 c 0,-0.92047458 0.74619212,-1.6666667 1.6666667,-1.6666667 z m 0,-0.6666666 c -1.2886644,0 -2.3333333,1.0446689 -2.3333333,2.3333333 0,1.2886644 1.0446689,2.3333333 2.3333333,2.3333333 C 1.2886644,2.3333333 2.3333333,1.2886644 2.3333333,0 V 0 C 2.3333333,-1.2886644 1.2886644,-2.3333333 0,-2.3333333 Z"
         style="fill:#fcb763;fill-opacity:1;fill-rule:nonzero;stroke:#fcb763;stroke-opacity:1"
         id="path15389" /></g><g
       id="g15391"
       transform="matrix(0,0.75,0.75,0,24.41052,845.89744)"><path
         d="M 2,0 C 2,-1.1045695 1.1045695,-2 0,-2 -1.1045695,-2 -2,-1.1045695 -2,0 -2,1.1045695 -1.1045695,2 0,2 1.1045695,2 2,1.1045695 2,0 Z"
         style="fill:#fcb763;fill-opacity:1;fill-rule:nonzero;stroke:#fcb763;stroke-opacity:1"
         id="path15393" /></g><g
       id="g15395"
       transform="matrix(0,0.75,0.75,0,24.41052,845.89744)"><path
         d="m 0,-1.6666667 c 0.92047458,0 1.6666667,0.74619212 1.6666667,1.6666667 V 0 C 1.6666667,0.92047458 0.92047458,1.6666667 0,1.6666667 -0.92047458,1.6666667 -1.6666667,0.92047458 -1.6666667,0 c 0,-0.92047458 0.74619212,-1.6666667 1.6666667,-1.6666667 z m 0,-0.6666666 c -1.2886644,0 -2.3333333,1.0446689 -2.3333333,2.3333333 0,1.2886644 1.0446689,2.3333333 2.3333333,2.3333333 C 1.2886644,2.3333333 2.3333333,1.2886644 2.3333333,0 V 0 C 2.3333333,-1.2886644 1.2886644,-2.3333333 0,-2.3333333 Z"
         style="fill:#fcb763;fill-opacity:1;fill-rule:nonzero;stroke:#fcb763;stroke-opacity:1"
         id="path15397" /></g><g
       id="g15399"
       transform="matrix(0,0.75,0.75,0,24.41052,867.48356)"><path
         d="M 2,0 C 2,-1.1045695 1.1045695,-2 0,-2 -1.1045695,-2 -2,-1.1045695 -2,0 -2,1.1045695 -1.1045695,2 0,2 1.1045695,2 2,1.1045695 2,0 Z"
         style="fill:#fcb763;fill-opacity:1;fill-rule:nonzero;stroke:#fcb763;stroke-opacity:1"
         id="path15401" /></g><g
       id="g15403"
       transform="matrix(0,0.75,0.75,0,24.41052,867.48356)"><path
         d="m 0,-1.6666667 c 0.92047458,0 1.6666667,0.74619212 1.6666667,1.6666667 V 0 C 1.6666667,0.92047458 0.92047458,1.6666667 0,1.6666667 -0.92047458,1.6666667 -1.6666667,0.92047458 -1.6666667,0 c 0,-0.92047458 0.74619212,-1.6666667 1.6666667,-1.6666667 z m 0,-0.6666666 c -1.2886644,0 -2.3333333,1.0446689 -2.3333333,2.3333333 0,1.2886644 1.0446689,2.3333333 2.3333333,2.3333333 C 1.2886644,2.3333333 2.3333333,1.2886644 2.3333333,0 V 0 C 2.3333333,-1.2886644 1.2886644,-2.3333333 0,-2.3333333 Z"
         style="fill:#fcb763;fill-opacity:1;fill-rule:nonzero;stroke:#fcb763;stroke-opacity:1"
         id="path15405" /></g><g
       id="g15407"
       transform="matrix(0,0.75,0.75,0,24.41052,889.06959)"><path
         d="M 2,0 C 2,-1.1045695 1.1045695,-2 0,-2 -1.1045695,-2 -2,-1.1045695 -2,0 -2,1.1045695 -1.1045695,2 0,2 1.1045695,2 2,1.1045695 2,0 Z"
         style="fill:#fcb763;fill-opacity:1;fill-rule:nonzero;stroke:#fcb763;stroke-opacity:1"
         id="path15409" /></g><g
       id="g15411"
       transform="matrix(0,0.75,0.75,0,24.41052,889.06959)"><path
         d="m 0,-1.6666667 c 0.92047458,0 1.6666667,0.74619212 1.6666667,1.6666667 V 0 C 1.6666667,0.92047458 0.92047458,1.6666667 0,1.6666667 -0.92047458,1.6666667 -1.6666667,0.92047458 -1.6666667,0 c 0,-0.92047458 0.74619212,-1.6666667 1.6666667,-1.6666667 z m 0,-0.6666666 c -1.2886644,0 -2.3333333,1.0446689 -2.3333333,2.3333333 0,1.2886644 1.0446689,2.3333333 2.3333333,2.3333333 C 1.2886644,2.3333333 2.3333333,1.2886644 2.3333333,0 V 0 C 2.3333333,-1.2886644 1.2886644,-2.3333333 0,-2.3333333 Z"
         style="fill:#fcb763;fill-opacity:1;fill-rule:nonzero;stroke:#fcb763;stroke-opacity:1"
         id="path15413" /></g><g
       id="g15415"
       transform="matrix(0,0.75,0.75,0,24.41052,910.65571)"><path
         d="M 2,0 C 2,-1.1045695 1.1045695,-2 0,-2 -1.1045695,-2 -2,-1.1045695 -2,0 -2,1.1045695 -1.1045695,2 0,2 1.1045695,2 2,1.1045695 2,0 Z"
         style="fill:#fcb763;fill-opacity:1;fill-rule:nonzero;stroke:#fcb763;stroke-opacity:1"
         id="path15417" /></g><g
       id="g15419"
       transform="matrix(0,0.75,0.75,0,24.41052,910.65571)"><path
         d="m 0,-1.6666667 c 0.92047458,0 1.6666667,0.74619212 1.6666667,1.6666667 V 0 C 1.6666667,0.92047458 0.92047458,1.6666667 0,1.6666667 -0.92047458,1.6666667 -1.6666667,0.92047458 -1.6666667,0 c 0,-0.92047458 0.74619212,-1.6666667 1.6666667,-1.6666667 z m 0,-0.6666666 c -1.2886644,0 -2.3333333,1.0446689 -2.3333333,2.3333333 0,1.2886644 1.0446689,2.3333333 2.3333333,2.3333333 C 1.2886644,2.3333333 2.3333333,1.2886644 2.3333333,0 V 0 C 2.3333333,-1.2886644 1.2886644,-2.3333333 0,-2.3333333 Z"
         style="fill:#fcb763;fill-opacity:1;fill-rule:nonzero;stroke:#fcb763;stroke-opacity:1"
         id="path15421" /></g><g
       id="g15423"
       transform="matrix(0,0.75,0.75,0,24.41052,932.24174)"><path
         d="M 2,0 C 2,-1.1045695 1.1045695,-2 0,-2 -1.1045695,-2 -2,-1.1045695 -2,0 -2,1.1045695 -1.1045695,2 0,2 1.1045695,2 2,1.1045695 2,0 Z"
         style="fill:#fcb763;fill-opacity:1;fill-rule:nonzero;stroke:#fcb763;stroke-opacity:1"
         id="path15425" /></g><g
       id="g15427"
       transform="matrix(0,0.75,0.75,0,24.41052,932.24174)"><path
         d="m 0,-1.6666667 c 0.92047458,0 1.6666667,0.74619212 1.6666667,1.6666667 V 0 C 1.6666667,0.92047458 0.92047458,1.6666667 0,1.6666667 -0.92047458,1.6666667 -1.6666667,0.92047458 -1.6666667,0 c 0,-0.92047458 0.74619212,-1.6666667 1.6666667,-1.6666667 z m 0,-0.6666666 c -1.2886644,0 -2.3333333,1.0446689 -2.3333333,2.3333333 0,1.2886644 1.0446689,2.3333333 2.3333333,2.3333333 C 1.2886644,2.3333333 2.3333333,1.2886644 2.3333333,0 V 0 C 2.3333333,-1.2886644 1.2886644,-2.3333333 0,-2.3333333 Z"
         style="fill:#fcb763;fill-opacity:1;fill-rule:nonzero;stroke:#fcb763;stroke-opacity:1"
         id="path15429" /></g><g
       id="g15431"
       transform="matrix(0,0.75,0.75,0,17.274157,953.82786)"><path
         d="M 2,0 C 2,-1.1045695 1.1045695,-2 0,-2 -1.1045695,-2 -2,-1.1045695 -2,0 -2,1.1045695 -1.1045695,2 0,2 1.1045695,2 2,1.1045695 2,0 Z"
         style="fill:#fcb763;fill-opacity:1;fill-rule:nonzero;stroke:#fcb763;stroke-opacity:1"
         id="path15433" /></g><g
       id="g15435"
       transform="matrix(0,0.75,0.75,0,17.274157,953.82786)"><path
         d="m 0,-1.6666667 c 0.92047458,0 1.6666667,0.74619212 1.6666667,1.6666667 V 0 C 1.6666667,0.92047458 0.92047458,1.6666667 0,1.6666667 -0.92047458,1.6666667 -1.6666667,0.92047458 -1.6666667,0 c 0,-0.92047458 0.74619212,-1.6666667 1.6666667,-1.6666667 z m 0,-0.6666666 c -1.2886644,0 -2.3333333,1.0446689 -2.3333333,2.3333333 0,1.2886644 1.0446689,2.3333333 2.3333333,2.3333333 C 1.2886644,2.3333333 2.3333333,1.2886644 2.3333333,0 V 0 C 2.3333333,-1.2886644 1.2886644,-2.3333333 0,-2.3333333 Z"
         style="fill:#fcb763;fill-opacity:1;fill-rule:nonzero;stroke:#fcb763;stroke-opacity:1"
         id="path15437" /></g><path
       d="m 556.18056,-111.44487 -0.25053,3.82192 -0.25466,3.82191 -0.25886,3.821915 -0.26318,3.82194 -0.26741,3.82191 -0.27178,3.821918 -0.27621,3.82191 -0.28066,3.821917 -0.28519,3.821918 -0.28976,3.82191 -0.29439,3.821917 -0.29906,3.82194 -0.30377,3.82191 -0.0837,1.042328 -0.2249,2.77959 -0.31343,3.82191 -0.31833,3.821917 -0.32327,3.821918 -0.32831,3.82191 -0.30675,3.518835 -0.0266,0.303105 -0.33852,3.821917 -0.34373,3.82191 -0.34896,3.821918 -0.3543,3.82191 -0.35967,3.821917 -0.20695,2.173395 -0.15816,1.648523 -0.37061,3.821932 -0.37619,3.8219175 -0.38186,3.8219175 -0.3875,3.82191 -0.39331,3.8219175 -0.086,0.827955 -0.31315,2.9939625 -0.40503,3.82191 -0.41099,3.821918 -0.41706,3.821932 -0.42312,3.821918 -0.37083,3.304432 -0.0585,0.517485 -0.43556,3.82191 -0.44188,3.821918 -0.44829,3.82194 -0.45474,3.821887 -0.46129,3.821918 -0.239,1.959022 -0.22888,1.86291 -0.47461,3.821918 -0.48134,3.821917 -0.48821,3.82191 -0.49506,3.821918 -0.50213,3.821917 -0.0812,0.613583 -0.42796,3.20835 -0.51632,3.821917 -0.52359,3.821918 -0.53091,3.82191 -0.53828,3.82194 -0.44069,3.090037 -0.10511,0.731873 -0.55338,3.821917 -0.561,3.821918 -0.56877,3.821907 -0.5766,3.82192 -0.58451,3.82192 -0.26949,1.74463 -0.32304,2.07728 -0.60059,3.82192 -0.60882,3.82191 -0.61707,3.82191 -0.62544,3.82192 -0.63391,3.82196 -0.0667,0.39917 -0.57578,3.4227 -0.65113,3.82192 -0.65986,3.82195 -0.6687,3.82192 -0.67768,3.82192 -0.5158,2.87566 -0.17088,0.94625 -0.69585,3.82191 -0.70509,3.82191 -0.71444,3.82192 -0.72391,3.82192 -0.73342,3.82191 -0.29636,1.53026 -0.44678,2.29166 -0.75288,3.82191 -0.76273,3.82191 -0.77275,3.82197 -0.78282,3.82186 -0.79303,3.82192 -0.0385,0.18484 -0.76474,3.63712 -0.81377,3.82191 -0.82434,3.82192 -0.83496,3.82192 -0.84577,3.82191 -0.59536,2.6613 -0.26129,1.16061 -0.86765,3.82191 -0.87877,3.82192 -0.89007,3.82192 -0.90138,3.82191 -0.91293,3.82192 -0.317,1.31589 -0.60754,2.50602 -0.93631,3.82196 -0.94817,3.82187 -0.96015,3.82196 -0.97234,3.82191 -0.97691,3.79235 -0.008,0.0296 -0.99702,3.82191 -1.0095,3.82192 -1.02219,3.82191 -1.035,3.82191 -1.04791,3.82192 -0.67781,2.44693 -0.38325,1.37499 -1.07423,3.82191 -1.0876,3.82192 -1.10115,3.82195 -1.11479,3.82187 -1.12857,3.82197 -0.32785,1.10147 -0.81468,2.72044 -1.15664,3.82187 -1.17091,3.82196 -1.18529,3.82191 -1.19984,3.82187 -1.13658,3.57802 -0.078,0.24394 -1.22941,3.82192 -1.24448,3.82191 -1.25962,3.82191 -1.27501,3.82192 -1.29053,3.82192 -0.76108,2.23255 -0.54511,1.58936 -1.32206,3.82192 -1.33805,3.82196 -1.35424,3.82191 -1.3706,3.82187 -1.38711,3.82196 -0.32437,0.8871 -1.0795,2.93481 -1.42072,3.82188 -1.43774,3.82195 -1.455,3.82192 -1.47244,3.82192 -1.31044,3.3636 -0.17963,0.45831 -1.50783,3.82191 -1.52577,3.82197 -1.54399,3.82186 -1.56235,3.82192 -1.58089,3.82195 -0.84233,2.01815 -0.75732,1.80373 -1.61856,3.82191 -1.63775,3.82196 -1.65705,3.82187 -1.67661,3.82196 -1.69638,3.82191 -0.30066,0.67273 -1.41568,3.14919 -1.73648,3.82191 -1.75685,3.82192 -1.77745,3.82192 -1.79828,3.82195 -1.49757,3.14918 -0.32172,0.67275 -1.84057,3.82185 -1.86201,3.822 -1.88364,3.82185 -1.90563,3.822 -1.92774,3.82185 -0.91754,1.80375 -1.03257,2.01817 -1.97269,3.82193 -1.99557,3.82192 -2.0186,3.82185 -2.04196,3.822 -2.06551,3.82193 -0.2493,0.45832 -1.83998,3.3636 -2.11336,3.82185 -2.13767,3.82193 -2.16219,3.822 -2.18697,3.82185 -1.69638,2.93482 -0.51567,0.8871 -2.23737,3.82193 -2.26296,3.82192 -2.28876,3.82185 -2.31492,3.822 -2.34123,3.82193 -0.98149,1.5894 -1.38643,2.23252 -2.39484,3.82185 -2.42203,3.82193 -2.44949,3.82192 -2.47728,3.82193 -2.50534,3.822 -0.16086,0.2439 -2.37277,3.57795 -2.56224,3.82192 -2.59121,3.82193 -2.62038,3.82192 -2.6499,3.82185 -1.90434,2.72048 -0.77537,1.10152 -2.70982,3.82185 -2.74026,3.82193 -2.77104,3.82192 -2.80201,3.82193 -2.83342,3.822 -1.02709,1.3749 -1.83801,2.44695 -2.89709,3.82192 -2.92946,3.82193 -2.9621,3.82185 -2.9951,3.82192 -3.02842,3.822 -0.0236,0.0292 -3.03855,3.7923 -3.0961,3.822 -3.13049,3.82185 -3.16518,3.82193 -3.20023,3.82192 -2.11763,2.50605 -1.11802,1.31588 -3.27146,3.82192 -3.30755,3.82193 -3.34408,3.82192 -3.3809,3.82185 -3.41819,3.82193 -1.04544,1.1607 -2.41036,2.66122 -3.49381,3.822 -3.5322,3.82185 -3.57092,3.82193 -3.61012,3.822 -3.47228,3.63705 -0.17741,0.18472 -3.68962,3.82193 -3.73,3.822 -3.77073,3.82185 -3.81194,3.822 -3.85352,3.82192 -2.33072,2.29163 -1.56478,1.53015 -3.93796,3.822 -3.9808,3.82192 -4.02409,3.82185 -4.06782,3.822 -4.11198,3.82193 -1.02491,0.9462 -3.13163,2.87565 -4.2016,3.82192 -4.24714,3.82193 -4.29307,3.822 -4.33948,3.82185 -3.92599,3.42277 -0.46037,0.39915 -4.43372,3.822 -4.4815,3.82185 -4.52985,3.82185 -4.5786,3.822 -4.62785,3.82185 -2.5362,2.07735 -2.14144,1.74465 -4.72787,3.82193 -4.77864,3.82185 -4.82992,3.822 -4.88166,3.82185 -4.93393,3.82185 -0.95082,0.732 -4.03597,3.09 -5.04007,3.82192 -5.09397,3.82185 -5.14836,3.822 -5.20328,3.82193 -4.41076,3.20827 -0.848,0.61365 -5.31481,3.82185 -5.37138,3.82193 -5.42853,3.822 -5.486268,3.82185 -5.544525,3.822 -2.72388,1.86277 -2.87955,1.95908 -5.66283,3.82185 -5.722897,3.822 -5.783535,3.82192 -5.844735,3.82185 -5.906595,3.822 -0.804495,0.51743 -5.164538,3.3045 -6.032085,3.82177 -6.09573,3.822 -6.160102,3.82193 -6.225038,3.82185 -4.922257,2.994 -1.368345,0.828 -6.356858,3.82192 -6.4237143,3.82193 -6.49128895,3.82185 -6.55944975,3.82192 -2.0282828,1.16955"
       style="fill:none;stroke:#fcb763;stroke-width:1.5;stroke-linecap:butt;stroke-linejoin:round;stroke-miterlimit:10;stroke-dasharray:none;stroke-opacity:1"
       id="path15441" /><text
       xml:space="preserve"
       style="font-style:normal;font-variant:normal;font-weight:normal;font-stretch:normal;font-size:18px;line-height:1.25;font-family:'Times New Roman';-inkscape-font-specification:'Times New Roman, Normal';font-variant-ligatures:normal;font-variant-caps:normal;font-variant-numeric:normal;font-variant-east-asian:normal;fill:#000000;fill-opacity:1;stroke:none;stroke-width:0.75"
       x="-147.64185"
       y="486.70529"
       id="text18856"
       transform="matrix(0,1,1,0,0,0)"><tspan
         sodipodi:role="line"
         id="tspan18854"
         style="font-style:normal;font-variant:normal;font-weight:normal;font-stretch:normal;font-size:18px;font-family:'Times New Roman';-inkscape-font-specification:'Times New Roman, Normal';font-variant-ligatures:normal;font-variant-caps:normal;font-variant-numeric:normal;font-variant-east-asian:normal;stroke-width:0.75"
         x="-147.64185"
         y="486.70529">10</tspan></text><text
       xml:space="preserve"
       style="font-style:normal;font-variant:normal;font-weight:normal;font-stretch:normal;font-size:18px;line-height:1.25;font-family:'Times New Roman';-inkscape-font-specification:'Times New Roman, Normal';font-variant-ligatures:normal;font-variant-caps:normal;font-variant-numeric:normal;font-variant-east-asian:normal;fill:#000000;fill-opacity:1;stroke:none;stroke-width:0.75"
       x="-147.64185"
       y="415.60083"
       id="text18856-6"
       transform="matrix(0,1,1,0,0,0)"><tspan
         sodipodi:role="line"
         id="tspan20123"
         x="-147.64185"
         y="415.60083">20</tspan></text><text
       xml:space="preserve"
       style="font-style:normal;font-variant:normal;font-weight:normal;font-stretch:normal;font-size:18px;line-height:1.25;font-family:'Times New Roman';-inkscape-font-specification:'Times New Roman, Normal';font-variant-ligatures:normal;font-variant-caps:normal;font-variant-numeric:normal;font-variant-east-asian:normal;fill:#000000;fill-opacity:1;stroke:none;stroke-width:0.75"
       x="-147.64185"
       y="344.76996"
       id="text18856-9"
       transform="matrix(0,1,1,0,0,0)"><tspan
         sodipodi:role="line"
         id="tspan20160"
         x="-147.64185"
         y="344.76996">30</tspan></text><text
       xml:space="preserve"
       style="font-style:normal;font-variant:normal;font-weight:normal;font-stretch:normal;font-size:18px;line-height:1.25;font-family:'Times New Roman';-inkscape-font-specification:'Times New Roman, Normal';font-variant-ligatures:normal;font-variant-caps:normal;font-variant-numeric:normal;font-variant-east-asian:normal;fill:#000000;fill-opacity:1;stroke:none;stroke-width:0.75"
       x="-147.64185"
       y="272.23233"
       id="text18856-5"
       transform="matrix(0,1,1,0,0,0)"><tspan
         sodipodi:role="line"
         id="tspan20197"
         x="-147.64185"
         y="272.23233">40</tspan></text><text
       xml:space="preserve"
       style="font-style:normal;font-variant:normal;font-weight:normal;font-stretch:normal;font-size:18px;line-height:1.25;font-family:'Times New Roman';-inkscape-font-specification:'Times New Roman, Normal';font-variant-ligatures:normal;font-variant-caps:normal;font-variant-numeric:normal;font-variant-east-asian:normal;fill:#000000;fill-opacity:1;stroke:none;stroke-width:0.75"
       x="-147.64185"
       y="201.40146"
       id="text18856-4"
       transform="matrix(0,1,1,0,0,0)"><tspan
         sodipodi:role="line"
         id="tspan20234"
         x="-147.64185"
         y="201.40146">50</tspan></text><text
       xml:space="preserve"
       style="font-style:normal;font-variant:normal;font-weight:normal;font-stretch:normal;font-size:18px;line-height:1.25;font-family:'Times New Roman';-inkscape-font-specification:'Times New Roman, Normal';font-variant-ligatures:normal;font-variant-caps:normal;font-variant-numeric:normal;font-variant-east-asian:normal;fill:#000000;fill-opacity:1;stroke:none;stroke-width:0.75"
       x="-147.64185"
       y="130.14391"
       id="text18856-67"
       transform="matrix(0,1,1,0,0,0)"><tspan
         sodipodi:role="line"
         id="tspan20271"
         x="-147.64185"
         y="130.14391">60</tspan></text><text
       xml:space="preserve"
       style="font-style:normal;font-variant:normal;font-weight:normal;font-stretch:normal;font-size:18px;line-height:1.25;font-family:'Times New Roman';-inkscape-font-specification:'Times New Roman, Normal';font-variant-ligatures:normal;font-variant-caps:normal;font-variant-numeric:normal;font-variant-east-asian:normal;fill:#000000;fill-opacity:1;stroke:none;stroke-width:0.75"
       x="-147.64185"
       y="58.88636"
       id="text18856-0"
       transform="matrix(0,1,1,0,0,0)"><tspan
         sodipodi:role="line"
         id="tspan20308"
         x="-147.64185"
         y="58.88636">70</tspan></text><text
       xml:space="preserve"
       style="font-style:normal;font-variant:normal;font-weight:normal;font-stretch:normal;font-size:18px;line-height:1.25;font-family:'Times New Roman';-inkscape-font-specification:'Times New Roman, Normal';font-variant-ligatures:normal;font-variant-caps:normal;font-variant-numeric:normal;font-variant-east-asian:normal;fill:#000000;fill-opacity:1;stroke:none;stroke-width:0.75"
       x="145.29216"
       y="607.61218"
       id="text18856-3"
       transform="matrix(0,1,1,0,0,0)"><tspan
         sodipodi:role="line"
         id="tspan18854-3"
         style="font-style:normal;font-variant:normal;font-weight:normal;font-stretch:normal;font-size:18px;font-family:'Times New Roman';-inkscape-font-specification:'Times New Roman, Normal';font-variant-ligatures:normal;font-variant-caps:normal;font-variant-numeric:normal;font-variant-east-asian:normal;stroke-width:0.75"
         x="145.29216"
         y="607.61218">10</tspan></text><text
       xml:space="preserve"
       style="font-style:normal;font-variant:normal;font-weight:normal;font-stretch:normal;font-size:18px;line-height:1.25;font-family:'Times New Roman';-inkscape-font-specification:'Times New Roman, Normal';font-variant-ligatures:normal;font-variant-caps:normal;font-variant-numeric:normal;font-variant-east-asian:normal;fill:#000000;fill-opacity:1;stroke:none;stroke-width:0.75"
       x="254.5253"
       y="608.46558"
       id="text18856-32"
       transform="matrix(0,1,1,0,0,0)"><tspan
         sodipodi:role="line"
         id="tspan21036"
         x="254.5253"
         y="608.46558">15</tspan></text><text
       xml:space="preserve"
       style="font-style:normal;font-variant:normal;font-weight:normal;font-stretch:normal;font-size:18px;line-height:1.25;font-family:'Times New Roman';-inkscape-font-specification:'Times New Roman, Normal';font-variant-ligatures:normal;font-variant-caps:normal;font-variant-numeric:normal;font-variant-east-asian:normal;fill:#000000;fill-opacity:1;stroke:none;stroke-width:0.75"
       x="362.05164"
       y="607.61218"
       id="text18856-8"
       transform="matrix(0,1,1,0,0,0)"><tspan
         sodipodi:role="line"
         id="tspan21073"
         x="362.05164"
         y="607.61218">20</tspan></text><text
       xml:space="preserve"
       style="font-style:normal;font-variant:normal;font-weight:normal;font-stretch:normal;font-size:18px;line-height:1.25;font-family:'Times New Roman';-inkscape-font-specification:'Times New Roman, Normal';font-variant-ligatures:normal;font-variant-caps:normal;font-variant-numeric:normal;font-variant-east-asian:normal;fill:#000000;fill-opacity:1;stroke:none;stroke-width:0.75"
       x="470.4314"
       y="607.18549"
       id="text18856-2"
       transform="matrix(0,1,1,0,0,0)"><tspan
         sodipodi:role="line"
         id="tspan21110"
         x="470.4314"
         y="607.18549">25</tspan></text><text
       xml:space="preserve"
       style="font-style:normal;font-variant:normal;font-weight:normal;font-stretch:normal;font-size:18px;line-height:1.25;font-family:'Times New Roman';-inkscape-font-specification:'Times New Roman, Normal';font-variant-ligatures:normal;font-variant-caps:normal;font-variant-numeric:normal;font-variant-east-asian:normal;fill:#000000;fill-opacity:1;stroke:none;stroke-width:0.75"
       x="577.95776"
       y="608.46558"
       id="text18856-28"
       transform="matrix(0,1,1,0,0,0)"><tspan
         sodipodi:role="line"
         id="tspan1104"
         x="577.95776"
         y="608.46558">30</tspan></text><text
       xml:space="preserve"
       style="font-style:normal;font-variant:normal;font-weight:normal;font-stretch:normal;font-size:18px;line-height:1.25;font-family:'Times New Roman';-inkscape-font-specification:'Times New Roman, Normal';font-variant-ligatures:normal;font-variant-caps:normal;font-variant-numeric:normal;font-variant-east-asian:normal;fill:#000000;fill-opacity:1;stroke:none;stroke-width:0.75"
       x="686.17407"
       y="607.61218"
       id="text18856-28-1"
       transform="matrix(0,1,1,0,0,0)"><tspan
         sodipodi:role="line"
         id="tspan1151"
         x="686.17407"
         y="607.61218">35</tspan></text><text
       xml:space="preserve"
       style="font-style:normal;font-variant:normal;font-weight:normal;font-stretch:normal;font-size:18px;line-height:1.25;font-family:'Times New Roman';-inkscape-font-specification:'Times New Roman, Normal';font-variant-ligatures:normal;font-variant-caps:normal;font-variant-numeric:normal;font-variant-east-asian:normal;fill:#000000;fill-opacity:1;stroke:none;stroke-width:0.75"
       x="794.55383"
       y="608.46558"
       id="text18856-28-3"
       transform="matrix(0,1,1,0,0,0)"><tspan
         sodipodi:role="line"
         id="tspan1188"
         x="794.55383"
         y="608.46558">40</tspan></text><text
       xml:space="preserve"
       style="font-style:normal;font-variant:normal;font-weight:normal;font-stretch:normal;font-size:18px;line-height:1.25;font-family:'Times New Roman';-inkscape-font-specification:'Times New Roman, Normal';font-variant-ligatures:normal;font-variant-caps:normal;font-variant-numeric:normal;font-variant-east-asian:normal;fill:#000000;fill-opacity:1;stroke:none;stroke-width:0.75"
       x="902.93359"
       y="608.46558"
       id="text18856-28-4"
       transform="matrix(0,1,1,0,0,0)"><tspan
         sodipodi:role="line"
         id="tspan1225"
         x="902.93359"
         y="608.46558">45</tspan></text><text
       xml:space="preserve"
       style="font-style:normal;font-variant:normal;font-weight:normal;font-stretch:normal;font-size:20px;line-height:1.25;font-family:'Times New Roman';-inkscape-font-specification:'Times New Roman, Normal';font-variant-ligatures:normal;font-variant-caps:normal;font-variant-numeric:normal;font-variant-east-asian:normal;fill:#000000;fill-opacity:1;stroke:none;stroke-width:0.75"
       x="-422.7262"
       y="-165.52364"
       id="text1790"
       transform="scale(-1,1)"><tspan
         sodipodi:role="line"
         id="tspan1788"
         style="font-style:normal;font-variant:normal;font-weight:normal;font-stretch:normal;font-size:20px;font-family:'Times New Roman';-inkscape-font-specification:'Times New Roman, Normal';font-variant-ligatures:normal;font-variant-caps:normal;font-variant-numeric:normal;font-variant-east-asian:normal;stroke-width:0.75"
         x="-422.7262"
         y="-165.52364">Number of occupied polygons</tspan></text><text
       xml:space="preserve"
       style="font-style:normal;font-variant:normal;font-weight:normal;font-stretch:normal;font-size:20px;line-height:1.25;font-family:'Times New Roman';-inkscape-font-specification:'Times New Roman, Normal';font-variant-ligatures:normal;font-variant-caps:normal;font-variant-numeric:normal;font-variant-east-asian:normal;fill:#000000;fill-opacity:1;stroke:none;stroke-width:0.75"
       x="333.35278"
       y="636.46216"
       id="text2856"
       transform="matrix(0,1,1,0,0,0)"><tspan
         sodipodi:role="line"
         id="tspan2854"
         style="font-style:normal;font-variant:normal;font-weight:normal;font-stretch:normal;font-size:20px;font-family:'Times New Roman';-inkscape-font-specification:'Times New Roman, Normal';font-variant-ligatures:normal;font-variant-caps:normal;font-variant-numeric:normal;font-variant-east-asian:normal;stroke-width:0.75"
         x="333.35278"
         y="636.46216">Years since first record</tspan></text></g></svg>
